<svg width="188" height="180" viewBox="0 0 188 180" fill="none" xmlns="http://www.w3.org/2000/svg">
<g filter="url(#filter0_d_238_5849)">
<rect x="20" y="16" width="148" height="140" rx="32" fill="white"/>
<path fill-rule="evenodd" clip-rule="evenodd" d="M79.3337 52.1018V71.9499C81.3785 71.1859 83.5512 70.7904 85.7503 70.7904C87.9495 70.7904 90.1222 71.1859 92.167 71.9499V52.1018C90.1719 51.1311 87.9781 50.6237 85.7503 50.6237C83.5226 50.6237 81.3288 51.1311 79.3337 52.1018ZM95.8337 52.1018V71.9499C97.8785 71.1859 100.051 70.7904 102.25 70.7904C104.449 70.7904 106.622 71.1859 108.667 71.9499V52.1018C106.672 51.1311 104.478 50.6237 102.25 50.6237C100.023 50.6237 97.8288 51.1311 95.8337 52.1018ZM94.0003 48.9182C91.4457 47.6309 88.6206 46.957 85.7503 46.957C82.5322 46.957 79.3707 47.8041 76.5837 49.4132C76.0164 49.7407 75.667 50.346 75.667 51.0009V74.8343C75.667 75.4893 76.0164 76.0945 76.5837 76.422C77.1509 76.7495 77.8498 76.7495 78.417 76.422C80.6466 75.1347 83.1758 74.457 85.7503 74.457C88.3249 74.457 90.854 75.1347 93.0837 76.422C93.6509 76.7495 94.3498 76.7495 94.917 76.422C97.1466 75.1347 99.6758 74.457 102.25 74.457C104.825 74.457 107.354 75.1347 109.584 76.422C110.151 76.7495 110.85 76.7495 111.417 76.422C111.984 76.0945 112.334 75.4893 112.334 74.8343V51.0009C112.334 50.346 111.984 49.7407 111.417 49.4132C108.63 47.8041 105.468 46.957 102.25 46.957C99.3801 46.957 96.5549 47.6309 94.0003 48.9182Z" fill="#54ADFF"/>
<path d="M60.578 124.18C59.594 124.18 58.688 124.024 57.86 123.712C57.044 123.388 56.33 122.938 55.718 122.362C55.106 121.774 54.632 121.084 54.296 120.292C53.96 119.5 53.792 118.636 53.792 117.7C53.792 116.764 53.96 115.9 54.296 115.108C54.632 114.316 55.106 113.632 55.718 113.056C56.342 112.468 57.068 112.018 57.896 111.706C58.724 111.382 59.63 111.22 60.614 111.22C61.682 111.22 62.642 111.394 63.494 111.742C64.358 112.09 65.084 112.6 65.672 113.272L64.196 114.712C63.704 114.22 63.17 113.86 62.594 113.632C62.03 113.392 61.406 113.272 60.722 113.272C60.062 113.272 59.45 113.38 58.886 113.596C58.322 113.812 57.836 114.118 57.428 114.514C57.02 114.91 56.702 115.378 56.474 115.918C56.258 116.458 56.15 117.052 56.15 117.7C56.15 118.336 56.258 118.924 56.474 119.464C56.702 120.004 57.02 120.478 57.428 120.886C57.836 121.282 58.316 121.588 58.868 121.804C59.42 122.02 60.032 122.128 60.704 122.128C61.328 122.128 61.928 122.032 62.504 121.84C63.092 121.636 63.65 121.3 64.178 120.832L65.51 122.578C64.85 123.106 64.082 123.508 63.206 123.784C62.342 124.048 61.466 124.18 60.578 124.18ZM63.296 122.272V117.556H65.51V122.578L63.296 122.272ZM68.3803 124V114.388H70.6303V124H68.3803ZM69.5143 112.804C69.0943 112.804 68.7463 112.672 68.4703 112.408C68.2063 112.144 68.0743 111.826 68.0743 111.454C68.0743 111.07 68.2063 110.752 68.4703 110.5C68.7463 110.236 69.0943 110.104 69.5143 110.104C69.9343 110.104 70.2763 110.23 70.5403 110.482C70.8163 110.722 70.9543 111.028 70.9543 111.4C70.9543 111.796 70.8223 112.132 70.5583 112.408C70.2943 112.672 69.9463 112.804 69.5143 112.804ZM79.5054 124V122.056L79.3794 121.642V118.24C79.3794 117.58 79.1814 117.07 78.7854 116.71C78.3894 116.338 77.7894 116.152 76.9854 116.152C76.4454 116.152 75.9114 116.236 75.3834 116.404C74.8674 116.572 74.4294 116.806 74.0694 117.106L73.1874 115.468C73.7034 115.072 74.3154 114.778 75.0234 114.586C75.7434 114.382 76.4874 114.28 77.2554 114.28C78.6474 114.28 79.7214 114.616 80.4774 115.288C81.2454 115.948 81.6294 116.974 81.6294 118.366V124H79.5054ZM76.4814 124.126C75.7614 124.126 75.1314 124.006 74.5914 123.766C74.0514 123.514 73.6314 123.172 73.3314 122.74C73.0434 122.296 72.8994 121.798 72.8994 121.246C72.8994 120.706 73.0254 120.22 73.2774 119.788C73.5414 119.356 73.9674 119.014 74.5554 118.762C75.1434 118.51 75.9234 118.384 76.8954 118.384H79.6854V119.878H77.0574C76.2894 119.878 75.7734 120.004 75.5094 120.256C75.2454 120.496 75.1134 120.796 75.1134 121.156C75.1134 121.564 75.2754 121.888 75.5994 122.128C75.9234 122.368 76.3734 122.488 76.9494 122.488C77.5014 122.488 77.9934 122.362 78.4254 122.11C78.8694 121.858 79.1874 121.486 79.3794 120.994L79.7574 122.344C79.5414 122.908 79.1514 123.346 78.5874 123.658C78.0354 123.97 77.3334 124.126 76.4814 124.126ZM75.9414 113.074L78.3714 110.608H81.0174L77.8854 113.074H75.9414ZM88.8546 124.126C87.8706 124.126 86.9946 123.916 86.2266 123.496C85.4586 123.064 84.8526 122.476 84.4086 121.732C83.9646 120.988 83.7426 120.142 83.7426 119.194C83.7426 118.234 83.9646 117.388 84.4086 116.656C84.8526 115.912 85.4586 115.33 86.2266 114.91C86.9946 114.49 87.8706 114.28 88.8546 114.28C89.8506 114.28 90.7326 114.49 91.5006 114.91C92.2806 115.33 92.8866 115.906 93.3186 116.638C93.7626 117.37 93.9846 118.222 93.9846 119.194C93.9846 120.142 93.7626 120.988 93.3186 121.732C92.8866 122.476 92.2806 123.064 91.5006 123.496C90.7326 123.916 89.8506 124.126 88.8546 124.126ZM88.8546 122.2C89.4066 122.2 89.8986 122.08 90.3306 121.84C90.7626 121.6 91.0986 121.252 91.3386 120.796C91.5906 120.34 91.7166 119.806 91.7166 119.194C91.7166 118.57 91.5906 118.036 91.3386 117.592C91.0986 117.136 90.7626 116.788 90.3306 116.548C89.8986 116.308 89.4126 116.188 88.8726 116.188C88.3206 116.188 87.8286 116.308 87.3966 116.548C86.9766 116.788 86.6406 117.136 86.3886 117.592C86.1366 118.036 86.0106 118.57 86.0106 119.194C86.0106 119.806 86.1366 120.34 86.3886 120.796C86.6406 121.252 86.9766 121.6 87.3966 121.84C87.8286 122.08 88.3146 122.2 88.8546 122.2ZM105.179 124.126C104.255 124.126 103.421 123.922 102.677 123.514C101.945 123.094 101.369 122.518 100.949 121.786C100.529 121.054 100.319 120.19 100.319 119.194C100.319 118.198 100.529 117.334 100.949 116.602C101.369 115.87 101.945 115.3 102.677 114.892C103.421 114.484 104.255 114.28 105.179 114.28C105.983 114.28 106.703 114.46 107.339 114.82C107.975 115.168 108.479 115.702 108.851 116.422C109.223 117.142 109.409 118.066 109.409 119.194C109.409 120.31 109.229 121.234 108.869 121.966C108.509 122.686 108.011 123.226 107.375 123.586C106.739 123.946 106.007 124.126 105.179 124.126ZM105.449 122.2C105.989 122.2 106.469 122.08 106.889 121.84C107.321 121.6 107.663 121.252 107.915 120.796C108.179 120.34 108.311 119.806 108.311 119.194C108.311 118.57 108.179 118.036 107.915 117.592C107.663 117.136 107.321 116.788 106.889 116.548C106.469 116.308 105.989 116.188 105.449 116.188C104.909 116.188 104.423 116.308 103.991 116.548C103.571 116.788 103.229 117.136 102.965 117.592C102.713 118.036 102.587 118.57 102.587 119.194C102.587 119.806 102.713 120.34 102.965 120.796C103.229 121.252 103.571 121.6 103.991 121.84C104.423 122.08 104.909 122.2 105.449 122.2ZM108.365 124V121.732L108.455 119.176L108.275 116.62V110.644H110.507V124H108.365ZM117.536 124.126C116.72 124.126 116 123.976 115.376 123.676C114.752 123.364 114.266 122.896 113.918 122.272C113.57 121.636 113.396 120.838 113.396 119.878V114.388H115.646V119.572C115.646 120.436 115.838 121.084 116.222 121.516C116.618 121.936 117.176 122.146 117.896 122.146C118.424 122.146 118.88 122.038 119.264 121.822C119.66 121.606 119.966 121.282 120.182 120.85C120.41 120.418 120.524 119.884 120.524 119.248V114.388H122.774V124H120.632V121.408L121.01 122.2C120.686 122.824 120.212 123.304 119.588 123.64C118.964 123.964 118.28 124.126 117.536 124.126ZM118.076 127.654C117.776 127.654 117.518 127.558 117.302 127.366C117.098 127.174 116.996 126.916 116.996 126.592C116.996 126.268 117.098 126.004 117.302 125.8C117.518 125.596 117.776 125.494 118.076 125.494C118.376 125.494 118.628 125.596 118.832 125.8C119.048 126.004 119.156 126.268 119.156 126.592C119.156 126.916 119.048 127.174 118.832 127.366C118.628 127.558 118.376 127.654 118.076 127.654ZM130.13 124.126C129.122 124.126 128.222 123.916 127.43 123.496C126.65 123.064 126.038 122.476 125.594 121.732C125.15 120.988 124.928 120.142 124.928 119.194C124.928 118.234 125.15 117.388 125.594 116.656C126.038 115.912 126.65 115.33 127.43 114.91C128.222 114.49 129.122 114.28 130.13 114.28C131.066 114.28 131.888 114.472 132.596 114.856C133.316 115.228 133.862 115.78 134.234 116.512L132.506 117.52C132.218 117.064 131.864 116.728 131.444 116.512C131.036 116.296 130.592 116.188 130.112 116.188C129.56 116.188 129.062 116.308 128.618 116.548C128.174 116.788 127.826 117.136 127.574 117.592C127.322 118.036 127.196 118.57 127.196 119.194C127.196 119.818 127.322 120.358 127.574 120.814C127.826 121.258 128.174 121.6 128.618 121.84C129.062 122.08 129.56 122.2 130.112 122.2C130.592 122.2 131.036 122.092 131.444 121.876C131.864 121.66 132.218 121.324 132.506 120.868L134.234 121.876C133.862 122.596 133.316 123.154 132.596 123.55C131.888 123.934 131.066 124.126 130.13 124.126Z" fill="#1A1A1E"/>
</g>
<defs>
<filter id="filter0_d_238_5849" x="0" y="0" width="188" height="180" filterUnits="userSpaceOnUse" color-interpolation-filters="sRGB">
<feFlood flood-opacity="0" result="BackgroundImageFix"/>
<feColorMatrix in="SourceAlpha" type="matrix" values="0 0 0 0 0 0 0 0 0 0 0 0 0 0 0 0 0 0 127 0" result="hardAlpha"/>
<feOffset dy="4"/>
<feGaussianBlur stdDeviation="10"/>
<feComposite in2="hardAlpha" operator="out"/>
<feColorMatrix type="matrix" values="0 0 0 0 0 0 0 0 0 0 0 0 0 0 0 0 0 0 0.1 0"/>
<feBlend mode="normal" in2="BackgroundImageFix" result="effect1_dropShadow_238_5849"/>
<feBlend mode="normal" in="SourceGraphic" in2="effect1_dropShadow_238_5849" result="shape"/>
</filter>
</defs>
</svg>
