<svg width="44" height="44" viewBox="0 0 44 44" fill="none" xmlns="http://www.w3.org/2000/svg">
<path fill-rule="evenodd" clip-rule="evenodd" d="M7.33366 12.1018V31.9499C9.37847 31.1859 11.5512 30.7904 13.7503 30.7904C15.9495 30.7904 18.1222 31.1859 20.167 31.9499V12.1018C18.1719 11.1311 15.9781 10.6237 13.7503 10.6237C11.5226 10.6237 9.32879 11.1311 7.33366 12.1018ZM23.8337 12.1018V31.9499C25.8785 31.1859 28.0512 30.7904 30.2503 30.7904C32.4495 30.7904 34.6222 31.1859 36.667 31.9499V12.1018C34.6719 11.1311 32.4781 10.6237 30.2503 10.6237C28.0226 10.6237 25.8288 11.1311 23.8337 12.1018ZM22.0003 8.91817C19.4457 7.63088 16.6206 6.95703 13.7503 6.95703C10.5322 6.95703 7.37068 7.80415 4.58366 9.41323C4.01642 9.74073 3.66699 10.346 3.66699 11.0009V34.8343C3.66699 35.4893 4.01642 36.0945 4.58366 36.422C5.15089 36.7495 5.84976 36.7495 6.41699 36.422C8.64661 35.1347 11.1758 34.457 13.7503 34.457C16.3249 34.457 18.854 35.1347 21.0837 36.422C21.6509 36.7495 22.3498 36.7495 22.917 36.422C25.1466 35.1347 27.6758 34.457 30.2503 34.457C32.8249 34.457 35.354 35.1347 37.5837 36.422C38.1509 36.7495 38.8498 36.7495 39.417 36.422C39.9842 36.0945 40.3337 35.4893 40.3337 34.8343V11.0009C40.3337 10.346 39.9842 9.74073 39.417 9.41323C36.63 7.80415 33.4685 6.95703 30.2503 6.95703C27.3801 6.95703 24.5549 7.63088 22.0003 8.91817Z" fill="#54ADFF"/>
</svg>
