<svg width="44" height="44" viewBox="0 0 44 44" fill="none" xmlns="http://www.w3.org/2000/svg">
<path d="M5.79476 8.1942C7.92154 6.06703 10.7741 4.82286 13.78 4.71133C16.7859 4.59979 19.7229 5.62916 22.0014 7.59287C24.278 5.63243 27.211 4.60422 30.2133 4.7141C33.2156 4.82397 36.0657 6.06381 38.1928 8.18541C40.32 10.307 41.5673 13.1538 41.685 16.1558C41.8027 19.1578 40.7822 22.0935 38.8278 24.3752L24.5919 38.6569C23.9379 39.3111 23.0607 39.694 22.1362 39.7287C21.2117 39.7634 20.3083 39.4473 19.6071 38.8439L19.4054 38.6587L5.17142 24.3752C3.21799 22.0955 2.19699 19.1625 2.31255 16.1626C2.42812 13.1626 3.67173 10.3169 5.79476 8.1942ZM8.38709 10.7865C6.88787 12.2862 6.02365 14.3055 5.97381 16.4254C5.92397 18.5454 6.69233 20.6031 8.11942 22.1715L8.38709 22.4539L21.9996 36.0664L31.7218 26.3405L25.2409 19.8615L23.2976 21.8049C22.2663 22.8366 20.8674 23.4165 19.4086 23.4168C17.9497 23.4172 16.5505 22.838 15.5188 21.8067C14.487 20.7754 13.9071 19.3765 13.9068 17.9177C13.9064 16.4588 14.4856 15.0596 15.5169 14.0279L19.3706 10.1724C17.837 8.94839 15.9173 8.31096 13.9562 8.37447C11.995 8.43797 10.1207 9.19824 8.66942 10.5189L8.38709 10.7865ZM23.9448 15.9712C24.2886 15.6275 24.7548 15.4344 25.2409 15.4344C25.7271 15.4344 26.1933 15.6275 26.5371 15.9712L34.3141 23.7482L35.6121 22.4539C37.1364 20.9306 38.0042 18.8714 38.0299 16.7166C38.0557 14.5617 37.2372 12.4824 35.7496 10.9232C34.2621 9.36404 32.2235 8.4488 30.0698 8.37323C27.9162 8.29767 25.8184 9.06778 24.2253 10.5189L23.9448 10.7865L18.1111 16.6202C17.7933 16.9378 17.6032 17.3609 17.5768 17.8094C17.5505 18.2579 17.6897 18.7004 17.9681 19.053L18.1111 19.2125C18.4286 19.5303 18.8518 19.7204 19.3003 19.7468C19.7488 19.7731 20.1913 19.6339 20.5439 19.3555L20.7034 19.2125L23.9448 15.9712Z" fill="#E95353"/>
</svg>
