<svg width="44" height="44" viewBox="0 0 44 44" fill="none" xmlns="http://www.w3.org/2000/svg">
<path fill-rule="evenodd" clip-rule="evenodd" d="M9.39204 16.1389L12.4937 31.168H31.5065L34.6082 16.1406C30.8859 14.0362 26.585 12.8347 22.0001 12.8347L21.9971 12.8347C17.5734 12.8275 13.231 13.9695 9.39204 16.1389ZM22.0016 9.168C16.463 9.15936 11.0361 10.7258 6.35402 13.6847C5.70873 14.0925 5.38365 14.8575 5.53793 15.6051L9.2046 33.3719C9.38038 34.2236 10.1304 34.8347 11.0001 34.8347H33.0001C33.8698 34.8347 34.6198 34.2237 34.7956 33.3719L38.4622 15.6069C38.6166 14.8593 38.2915 14.0944 37.6462 13.6865C33.118 10.8249 27.7497 9.16829 22.0016 9.168ZM22.0001 16.5013C23.0126 16.5013 23.8334 17.3221 23.8334 18.3347V20.168H25.6668C26.6793 20.168 27.5001 20.9888 27.5001 22.0013C27.5001 23.0139 26.6793 23.8347 25.6668 23.8347H23.8334V25.668C23.8334 26.6805 23.0126 27.5013 22.0001 27.5013C20.9876 27.5013 20.1668 26.6805 20.1668 25.668V23.8347H18.3334C17.3209 23.8347 16.5001 23.0139 16.5001 22.0013C16.5001 20.9888 17.3209 20.168 18.3334 20.168H20.1668V18.3347C20.1668 17.3221 20.9876 16.5013 22.0001 16.5013Z" fill="#FF4D97"/>
</svg>
