<svg width="44" height="44" viewBox="0 0 44 44" fill="none" xmlns="http://www.w3.org/2000/svg">
<path fill-rule="evenodd" clip-rule="evenodd" d="M22.0004 7.42839C21.5322 7.42839 21.0694 7.52801 20.6426 7.72064C20.2159 7.91327 19.8351 8.1945 19.5254 8.54564L19.4972 8.57684C18.8327 9.29643 18.0238 9.8678 17.1235 10.2537C16.2232 10.6395 15.2516 10.8312 14.2722 10.8161C14.2375 10.8156 14.2028 10.8141 14.1681 10.8116C13.7052 10.7781 13.2405 10.8426 12.8042 11.0009C12.368 11.1592 11.97 11.4077 11.6364 11.7303C11.3027 12.0528 11.0408 12.4421 10.8678 12.8728C10.6959 13.3007 10.6156 13.7598 10.632 14.2206C10.6811 15.2372 10.5068 16.2522 10.1215 17.1943C9.73447 18.1403 9.14407 18.9895 8.39214 19.6818L8.36302 19.708C8.01188 20.0177 7.73065 20.3985 7.53802 20.8253C7.34539 21.252 7.24577 21.7148 7.24577 22.183C7.24577 22.6512 7.34539 23.114 7.53802 23.5407C7.73065 23.9675 8.01188 24.3483 8.36302 24.658L8.39422 24.6862C9.11382 25.3507 9.68519 26.1595 10.071 27.0599C10.4569 27.9602 10.6485 28.9318 10.6335 29.9112C10.633 29.9459 10.6314 29.9806 10.6289 30.0153C10.5955 30.4782 10.66 30.9429 10.8183 31.3792C10.9766 31.8154 11.2251 32.2133 11.5477 32.547C11.8702 32.8807 12.2595 33.1426 12.6902 33.3156C13.1181 33.4875 13.5773 33.5678 14.0381 33.5513C15.0546 33.5023 16.0696 33.6766 17.0117 34.0619C17.9576 34.4489 18.8069 35.0393 19.4991 35.7913L19.5254 35.8204C19.8351 36.1715 20.2159 36.4527 20.6426 36.6454C21.0694 36.838 21.5322 36.9376 22.0004 36.9376C22.4686 36.9376 22.9314 36.838 23.3581 36.6454C23.7849 36.4527 24.1657 36.1715 24.4754 35.8204L24.5035 35.7892C25.1681 35.0696 25.9769 34.4982 26.8773 34.1124C27.7776 33.7265 28.7491 33.5348 29.7285 33.5499C29.7633 33.5504 29.798 33.5519 29.8327 33.5544C30.2956 33.5879 30.7603 33.5234 31.1965 33.3651C31.6328 33.2068 32.0307 32.9583 32.3644 32.6357C32.6981 32.3132 32.9599 31.9239 33.133 31.4932C33.3049 31.0653 33.3852 30.6061 33.3687 30.1453C33.3197 29.1288 33.4939 28.1138 33.8793 27.1717C34.2663 26.2258 34.8567 25.3765 35.6086 24.6842L35.6378 24.658C35.9889 24.3483 36.2701 23.9675 36.4627 23.5407C36.6554 23.114 36.755 22.6512 36.755 22.183C36.755 21.7148 36.6554 21.252 36.4627 20.8253C36.2701 20.3985 35.9889 20.0177 35.6378 19.708L35.6066 19.6799C34.887 19.0153 34.3156 18.2065 33.9297 17.3061C33.5439 16.4058 33.3522 15.4342 33.3673 14.4549C33.3678 14.4201 33.3693 14.3854 33.3718 14.3507C33.4053 13.8878 33.3408 13.4231 33.1825 12.9869C33.0242 12.5506 32.7756 12.1527 32.4531 11.819C32.1306 11.4853 31.7413 11.2234 31.3106 11.0504C30.8905 10.8817 30.4403 10.8012 29.9879 10.8139C28.9426 10.8942 27.8923 10.7375 26.9156 10.3553C25.9235 9.96713 25.0337 9.35658 24.3145 8.57062C24.1862 8.43039 24.0827 8.27379 24.0051 8.10708C23.8054 7.95441 23.5885 7.82462 23.3581 7.72064C22.9314 7.52801 22.4686 7.42839 22.0004 7.42839ZM27.4953 6.52339C27.4247 6.37978 27.3345 6.24407 27.2254 6.12037C26.5716 5.37907 25.7676 4.78537 24.8667 4.3787C23.9659 3.97204 22.9888 3.76172 22.0004 3.76172C21.012 3.76172 20.0349 3.97204 19.134 4.3787C18.2407 4.78195 17.4427 5.36911 16.7919 6.10172C16.4793 6.43668 16.1004 6.70293 15.6792 6.88346C15.2657 7.06064 14.8206 7.15138 14.3711 7.15027C13.4143 7.08956 12.4551 7.22698 11.5535 7.55416C10.6325 7.88837 9.79238 8.41307 9.08796 9.094C8.38355 9.77494 7.83068 10.5968 7.46545 11.5059C7.10023 12.415 6.93086 13.3909 6.9684 14.3699L6.96828 14.3699L6.96935 14.3914C6.99357 14.8749 6.9111 15.3579 6.72779 15.806C6.54649 16.2491 6.27095 16.6475 5.92036 16.9734C5.18716 17.6244 4.59956 18.4228 4.19608 19.3167C3.78942 20.2175 3.5791 21.1946 3.5791 22.183C3.5791 23.1714 3.78942 24.1485 4.19608 25.0494C4.59934 25.9427 5.1865 26.7407 5.91913 27.3915C6.25408 27.7041 6.52032 28.083 6.70084 28.5042C6.87803 28.9177 6.96877 29.3629 6.96765 29.8124C6.90695 30.7691 7.04436 31.7283 7.37154 32.6299C7.70575 33.5509 8.23045 34.391 8.91139 35.0954C9.59232 35.7998 10.4142 36.3527 11.3233 36.7179C12.2324 37.0832 13.2083 37.2525 14.1873 37.215L14.1873 37.2151L14.2088 37.214C14.6923 37.1898 15.1752 37.2723 15.6233 37.4556C16.0665 37.6369 16.4648 37.9124 16.7907 38.263C17.4417 38.9962 18.2402 39.5838 19.134 39.9873C20.0349 40.394 21.012 40.6043 22.0004 40.6043C22.9888 40.6043 23.9659 40.394 24.8667 39.9873C25.76 39.584 26.5581 38.9969 27.2089 38.2643C27.5215 37.9293 27.9004 37.6631 28.3216 37.4826C28.7351 37.3054 29.1802 37.2146 29.6297 37.2157C30.5865 37.2764 31.5457 37.139 32.4473 36.8118C33.3683 36.4776 34.2084 35.9529 34.9128 35.272C35.6172 34.5911 36.1701 33.7692 36.5353 32.8601C36.9005 31.951 37.0699 30.9751 37.0324 29.9961L37.0325 29.9961L37.0314 29.9746C37.0072 29.4911 37.0897 29.0081 37.273 28.5601C37.4543 28.1169 37.7298 27.7186 38.0804 27.3927C38.8136 26.7417 39.4012 25.9432 39.8047 25.0494C40.2114 24.1485 40.4217 23.1714 40.4217 22.183C40.4217 21.1946 40.2114 20.2175 39.8047 19.3167C39.4014 18.4234 38.8143 17.6253 38.0817 16.9745C37.7467 16.6619 37.4805 16.283 37.2999 15.8618C37.1227 15.4483 37.032 15.0032 37.0331 14.5537C37.0938 13.5969 36.9564 12.6377 36.6292 11.7361C36.295 10.8151 35.7703 9.97499 35.0894 9.27058C34.4085 8.56617 33.5866 8.0133 32.6775 7.64807C31.7684 7.28284 30.7925 7.11347 29.8135 7.15102C29.7857 7.15208 29.758 7.15378 29.7303 7.1561C29.2275 7.19832 28.7216 7.12466 28.2517 6.94077C27.9815 6.83505 27.7273 6.69451 27.4953 6.52339ZM28.7967 15.2033C29.5127 15.9193 29.5127 17.0801 28.7967 17.796L17.6134 28.9794C16.8975 29.6953 15.7367 29.6953 15.0207 28.9794C14.3047 28.2634 14.3047 27.1026 15.0207 26.3866L26.204 15.2033C26.92 14.4873 28.0808 14.4873 28.7967 15.2033Z" fill="#FFC226"/>
</svg>
