<svg width="44" height="44" viewBox="0 0 44 44" fill="none" xmlns="http://www.w3.org/2000/svg">
<path d="M11.0003 14.6654C11.0003 13.6929 11.3866 12.7603 12.0743 12.0726C12.7619 11.385 13.6945 10.9987 14.667 10.9987C15.6395 10.9987 16.5721 11.385 17.2597 12.0726C17.9474 12.7603 18.3337 13.6929 18.3337 14.6654C18.3337 15.6378 17.9474 16.5705 17.2597 17.2581C16.5721 17.9457 15.6395 18.332 14.667 18.332C13.6945 18.332 12.7619 17.9457 12.0743 17.2581C11.3866 16.5705 11.0003 15.6378 11.0003 14.6654ZM14.667 7.33203C12.7221 7.33203 10.8568 8.10465 9.48154 9.47991C8.10628 10.8552 7.33366 12.7204 7.33366 14.6654C7.33366 16.6103 8.10628 18.4755 9.48154 19.8508C10.8568 21.2261 12.7221 21.9987 14.667 21.9987C16.6119 21.9987 18.4772 21.2261 19.8524 19.8508C21.2277 18.4755 22.0003 16.6103 22.0003 14.6654C22.0003 12.7204 21.2277 10.8552 19.8524 9.47991C18.4772 8.10465 16.6119 7.33203 14.667 7.33203ZM29.3337 16.4987C29.3337 16.0125 29.5268 15.5462 29.8706 15.2023C30.2144 14.8585 30.6808 14.6654 31.167 14.6654C31.6532 14.6654 32.1195 14.8585 32.4634 15.2023C32.8072 15.5462 33.0003 16.0125 33.0003 16.4987C33.0003 16.9849 32.8072 17.4512 32.4634 17.7951C32.1195 18.1389 31.6532 18.332 31.167 18.332C30.6808 18.332 30.2144 18.1389 29.8706 17.7951C29.5268 17.4512 29.3337 16.9849 29.3337 16.4987ZM31.167 10.9987C29.7083 10.9987 28.3094 11.5782 27.2779 12.6096C26.2465 13.6411 25.667 15.04 25.667 16.4987C25.667 17.9574 26.2465 19.3563 27.2779 20.3878C28.3094 21.4192 29.7083 21.9987 31.167 21.9987C32.6257 21.9987 34.0246 21.4192 35.0561 20.3878C36.0875 19.3563 36.667 17.9574 36.667 16.4987C36.667 15.04 36.0875 13.6411 35.0561 12.6096C34.0246 11.5782 32.6257 10.9987 31.167 10.9987ZM3.66699 30.2487C3.66699 27.7187 5.72033 25.6654 8.25033 25.6654H21.0837C23.6137 25.6654 25.667 27.7187 25.667 30.2487V30.4247C25.6642 30.5583 25.6544 30.6917 25.6377 30.8244C25.6054 31.1457 25.5503 31.4643 25.4727 31.7777C25.2268 32.7924 24.7846 33.749 24.171 34.5937C22.6163 36.7314 19.7197 38.4987 14.667 38.4987C9.61433 38.4987 6.71766 36.7314 5.16299 34.5937C4.35905 33.4838 3.85399 32.1858 3.69633 30.8244C3.68159 30.6903 3.67181 30.5558 3.66699 30.421V30.3624V30.2487ZM7.33366 30.344C7.34885 30.5368 7.3795 30.7281 7.42533 30.916C7.52433 31.3304 7.72599 31.884 8.12933 32.4377C8.86266 33.4497 10.5493 34.832 14.667 34.832C18.781 34.832 20.4677 33.4497 21.2047 32.4377C21.6485 31.8228 21.9228 31.1021 22.0003 30.3477V30.2487C22.0003 30.0056 21.9037 29.7724 21.7318 29.6005C21.5599 29.4286 21.3268 29.332 21.0837 29.332H8.25033C8.00721 29.332 7.77405 29.4286 7.60214 29.6005C7.43024 29.7724 7.33366 30.0056 7.33366 30.2487V30.344ZM31.1633 36.6654C30.0126 36.6768 28.8645 36.5537 27.7423 36.2987C28.4127 35.2403 28.8883 34.0706 29.1467 32.8447C29.715 32.94 30.3823 32.9987 31.1633 32.9987C34.4267 32.9987 35.666 32.0014 36.15 31.3964C36.4191 31.0614 36.596 30.662 36.6633 30.2377V30.2194C36.6557 29.9814 36.5558 29.7557 36.3847 29.5901C36.2136 29.4244 35.9848 29.3319 35.7467 29.332H29.2823C29.1378 28.0199 28.6787 26.7621 27.944 25.6654H35.7503C38.2803 25.6654 40.3337 27.7187 40.3337 30.2487V30.311C40.3305 30.425 40.3219 30.5388 40.308 30.652C40.1624 31.7616 39.7161 32.8102 39.0173 33.6844C37.6643 35.371 35.2407 36.6654 31.167 36.6654" fill="#FFA114"/>
</svg>
