<svg width="44" height="44" viewBox="0 0 44 44" fill="none" xmlns="http://www.w3.org/2000/svg">
<path fill-rule="evenodd" clip-rule="evenodd" d="M16.055 1.88677C16.2004 1.85041 16.3498 1.83203 16.4997 1.83203H27.4997C27.6496 1.83203 27.7989 1.85041 27.9443 1.88677L27.4997 3.66536C27.9443 1.88677 27.944 1.8867 27.9443 1.88677L27.9522 1.88874L27.968 1.89275L28.0227 1.90684C28.0692 1.91891 28.1355 1.93634 28.2194 1.95902C28.3873 2.00436 28.6265 2.07082 28.9205 2.15754C29.5074 2.33059 30.3197 2.58626 31.2246 2.91805C32.9786 3.56122 35.293 4.56498 36.9233 5.92362C39.9296 8.42883 42.1663 12.1076 42.1663 15.582V33.9154C42.1663 34.9279 41.3455 35.7487 40.333 35.7487H35.7497V40.332C35.7497 41.3446 34.9289 42.1654 33.9163 42.1654H10.083C9.07049 42.1654 8.24967 41.3446 8.24967 40.332V35.7487H3.66634C2.65382 35.7487 1.83301 34.9279 1.83301 33.9154V15.582C1.83301 12.1076 4.06976 8.42883 7.076 5.92362C8.70637 4.56498 11.0207 3.56122 12.7748 2.91805C13.6797 2.58626 14.4919 2.33059 15.0788 2.15754C15.3729 2.07082 15.612 2.00436 15.7799 1.95902C15.8639 1.93634 15.9301 1.91891 15.9766 1.90684L16.0314 1.89275L16.0472 1.88874L16.055 1.88677C16.0553 1.8867 16.055 1.88677 16.4997 3.66536L16.055 1.88677ZM16.7361 5.49882C16.7359 5.49887 16.7362 5.49878 16.7361 5.49882C16.5924 5.53763 16.3804 5.59649 16.1159 5.67449C15.5855 5.83087 14.8509 6.06218 14.0371 6.3606C12.3536 6.97785 10.543 7.80741 9.42335 8.74044C6.92959 10.8186 5.49967 13.5564 5.49967 15.582V32.082H8.24967V15.582C8.24967 14.5695 9.07049 13.7487 10.083 13.7487C11.0955 13.7487 11.9163 14.5695 11.9163 15.582V38.4987H32.083V15.582C32.083 14.5695 32.9038 13.7487 33.9163 13.7487C34.9289 13.7487 35.7497 14.5695 35.7497 15.582V32.082H38.4997V15.582C38.4997 13.5564 37.0698 10.8186 34.576 8.74044C33.4564 7.80741 31.6457 6.97785 29.9623 6.3606C29.1484 6.06218 28.4138 5.83087 27.8835 5.67449C27.619 5.59649 27.407 5.53763 27.2633 5.49882C27.2631 5.49878 27.2635 5.49887 27.2633 5.49882H16.7361Z" fill="#41C83E"/>
<path fill-rule="evenodd" clip-rule="evenodd" d="M16.4993 1.83203C17.5119 1.83203 18.3327 2.65284 18.3327 3.66536C18.3327 4.63783 18.719 5.57046 19.4066 6.25809C20.0943 6.94572 21.0269 7.33203 21.9993 7.33203C22.9718 7.33203 23.9044 6.94572 24.5921 6.25809C25.2797 5.57046 25.666 4.63783 25.666 3.66536C25.666 2.65284 26.4868 1.83203 27.4993 1.83203C28.5119 1.83203 29.3327 2.65284 29.3327 3.66536C29.3327 5.61029 28.5601 7.47555 27.1848 8.85081C25.8095 10.2261 23.9443 10.9987 21.9993 10.9987C20.0544 10.9987 18.1892 10.2261 16.8139 8.85081C15.4386 7.47555 14.666 5.61029 14.666 3.66536C14.666 2.65284 15.4868 1.83203 16.4993 1.83203Z" fill="#41C83E"/>
</svg>
