<svg width="28" height="25" viewBox="0 0 28 25" fill="none" xmlns="http://www.w3.org/2000/svg">
<path d="M3.26918 24.5C2.57918 24.5 2.00268 24.269 1.53968 23.807C1.07768 23.344 0.84668 22.7675 0.84668 22.0775V2.9225C0.84668 2.2325 1.07768 1.6565 1.53968 1.1945C2.00268 0.7315 2.57918 0.5 3.26918 0.5H22.4242C23.1142 0.5 23.6902 0.7315 24.1522 1.1945C24.6142 1.6575 24.8457 2.2335 24.8467 2.9225V6.155H27.1537V7.655H24.8467V11.75H27.1537V13.25H24.8467V17.345H27.1537V18.845H24.8467V22.0775C24.8467 22.7675 24.6152 23.3435 24.1522 23.8055C23.6902 24.2685 23.1137 24.5 22.4227 24.5H3.26918ZM6.50018 18.845H12.5572V14.288H6.50018V18.845ZM14.6347 9.212H19.1932V6.1535H14.6347V9.212ZM6.50018 12.212H12.5572V6.1535H6.50018V12.212ZM14.6347 18.8465H19.1932V11.288H14.6347V18.8465Z" fill="url(#paint0_linear_238_5919)"/>
<defs>
<linearGradient id="paint0_linear_238_5919" x1="14.0002" y1="0.5" x2="14.0002" y2="24.5" gradientUnits="userSpaceOnUse">
<stop stop-color="#395DEC"/>
<stop offset="1" stop-color="#8256FF"/>
</linearGradient>
</defs>
</svg>
