<svg width="68" height="69" viewBox="0 0 68 69" fill="none" xmlns="http://www.w3.org/2000/svg">
<rect y="0.597656" width="68" height="68" rx="24" fill="#F5F5F5"/>
<path d="M23.2692 46.5977C22.5792 46.5977 22.0027 46.3667 21.5397 45.9047C21.0777 45.4417 20.8467 44.8652 20.8467 44.1752V25.0202C20.8467 24.3302 21.0777 23.7542 21.5397 23.2922C22.0027 22.8292 22.5792 22.5977 23.2692 22.5977H42.4242C43.1142 22.5977 43.6902 22.8292 44.1522 23.2922C44.6142 23.7552 44.8457 24.3312 44.8467 25.0202V28.2527H47.1537V29.7527H44.8467V33.8477H47.1537V35.3477H44.8467V39.4427H47.1537V40.9427H44.8467V44.1752C44.8467 44.8652 44.6152 45.4412 44.1522 45.9032C43.6902 46.3662 43.1137 46.5977 42.4227 46.5977H23.2692ZM26.5002 40.9427H32.5572V36.3857H26.5002V40.9427ZM34.6347 31.3097H39.1932V28.2512H34.6347V31.3097ZM26.5002 34.3097H32.5572V28.2512H26.5002V34.3097ZM34.6347 40.9442H39.1932V33.3857H34.6347V40.9442Z" fill="url(#paint0_linear_238_6251)"/>
<defs>
<linearGradient id="paint0_linear_238_6251" x1="34.0002" y1="22.5977" x2="34.0002" y2="46.5977" gradientUnits="userSpaceOnUse">
<stop stop-color="#395DEC"/>
<stop offset="1" stop-color="#8256FF"/>
</linearGradient>
</defs>
</svg>
