<svg width="28" height="27" viewBox="0 0 28 27" fill="none" xmlns="http://www.w3.org/2000/svg">
<path fill-rule="evenodd" clip-rule="evenodd" d="M11.879 1.49989C12.4099 0.968968 13.1205 0.656399 13.8706 0.623907C14.6207 0.591415 15.3557 0.841362 15.9305 1.32439L16.121 1.49989L20.621 5.99989H24.5C25.2569 5.99965 25.9858 6.2855 26.5408 6.80014C27.0958 7.31477 27.4357 8.02016 27.4925 8.77489L27.5 8.99989V23.9999C27.4999 24.7565 27.2138 25.4851 26.6992 26.0398C26.1846 26.5944 25.4795 26.9341 24.725 26.9909L24.5 26.9999H3.5C2.74314 27.0001 2.01415 26.7143 1.45918 26.1996C0.904206 25.685 0.564265 24.9796 0.5075 24.2249L0.5 23.9999V8.99989C0.499761 8.24303 0.78561 7.51404 1.30025 6.95907C1.81488 6.4041 2.52027 6.06416 3.275 6.00739L3.5 5.99989H7.379L11.879 1.49989ZM11 17.9999H8C7.60218 17.9999 7.22064 18.1579 6.93934 18.4392C6.65804 18.7205 6.5 19.1021 6.5 19.4999C6.5 19.8977 6.65804 20.2792 6.93934 20.5606C7.22064 20.8419 7.60218 20.9999 8 20.9999H11C11.3978 20.9999 11.7794 20.8419 12.0607 20.5606C12.342 20.2792 12.5 19.8977 12.5 19.4999C12.5 19.1021 12.342 18.7205 12.0607 18.4392C11.7794 18.1579 11.3978 17.9999 11 17.9999ZM17 11.9999H8C7.61768 12.0003 7.24995 12.1467 6.97195 12.4092C6.69394 12.6716 6.52665 13.0303 6.50424 13.412C6.48184 13.7936 6.60601 14.1695 6.8514 14.4626C7.09678 14.7558 7.44486 14.9442 7.8245 14.9894L8 14.9999H17C17.3823 14.9995 17.75 14.8531 18.0281 14.5906C18.3061 14.3282 18.4734 13.9695 18.4958 13.5878C18.5182 13.2061 18.394 12.8303 18.1486 12.5371C17.9032 12.244 17.5551 12.0555 17.1755 12.0104L17 11.9999ZM14 3.62089L11.621 5.99989H16.379L14 3.62089Z" fill="url(#paint0_linear_238_5915)"/>
<defs>
<linearGradient id="paint0_linear_238_5915" x1="14" y1="0.621094" x2="14" y2="26.9999" gradientUnits="userSpaceOnUse">
<stop stop-color="#E387FF"/>
<stop offset="1" stop-color="#F04949"/>
</linearGradient>
</defs>
</svg>
