<svg width="69" height="69" viewBox="0 0 69 69" fill="none" xmlns="http://www.w3.org/2000/svg">
<rect x="0.666504" y="0.199219" width="68" height="68" rx="24" fill="#F5F5F5"/>
<g clip-path="url(#clip0_238_6241)">
<path fill-rule="evenodd" clip-rule="evenodd" d="M32.5455 22.1991C33.0764 21.6682 33.787 21.3556 34.5371 21.3231C35.2872 21.2906 36.0222 21.5406 36.597 22.0236L36.7875 22.1991L41.2875 26.6991H45.1665C45.9234 26.6989 46.6524 26.9847 47.2073 27.4994C47.7623 28.014 48.1022 28.7194 48.159 29.4741L48.1665 29.6991V44.6991C48.1664 45.4557 47.8803 46.1843 47.3657 46.739C46.8512 47.2936 46.146 47.6334 45.3915 47.6901L45.1665 47.6991H24.1665C23.4096 47.6994 22.6807 47.4135 22.1257 46.8989C21.5707 46.3842 21.2308 45.6788 21.174 44.9241L21.1665 44.6991V29.6991C21.1663 28.9422 21.4521 28.2133 21.9667 27.6583C22.4814 27.1033 23.1868 26.7634 23.9415 26.7066L24.1665 26.6991H28.0455L32.5455 22.1991ZM31.6665 38.6991H28.6665C28.2687 38.6991 27.8871 38.8571 27.6058 39.1385C27.3245 39.4198 27.1665 39.8013 27.1665 40.1991C27.1665 40.5969 27.3245 40.9785 27.6058 41.2598C27.8871 41.5411 28.2687 41.6991 28.6665 41.6991H31.6665C32.0643 41.6991 32.4459 41.5411 32.7272 41.2598C33.0085 40.9785 33.1665 40.5969 33.1665 40.1991C33.1665 39.8013 33.0085 39.4198 32.7272 39.1385C32.4459 38.8571 32.0643 38.6991 31.6665 38.6991ZM37.6665 32.6991H28.6665C28.2842 32.6995 27.9165 32.8459 27.6385 33.1084C27.3604 33.3708 27.1932 33.7295 27.1707 34.1112C27.1483 34.4929 27.2725 34.8687 27.5179 35.1619C27.7633 35.455 28.1114 35.6435 28.491 35.6886L28.6665 35.6991H37.6665C38.0488 35.6987 38.4166 35.5523 38.6946 35.2898C38.9726 35.0274 39.1399 34.6687 39.1623 34.287C39.1847 33.9054 39.0605 33.5295 38.8151 33.2364C38.5697 32.9432 38.2216 32.7548 37.842 32.7096L37.6665 32.6991ZM34.6665 24.3201L32.2875 26.6991H37.0455L34.6665 24.3201Z" fill="url(#paint0_linear_238_6241)"/>
</g>
<defs>
<linearGradient id="paint0_linear_238_6241" x1="34.6665" y1="21.3203" x2="34.6665" y2="47.6991" gradientUnits="userSpaceOnUse">
<stop stop-color="#E387FF"/>
<stop offset="1" stop-color="#F04949"/>
</linearGradient>
<clipPath id="clip0_238_6241">
<rect width="36" height="36" fill="white" transform="translate(16.6665 16.1992)"/>
</clipPath>
</defs>
</svg>
