<svg width="28" height="28" viewBox="0 0 28 28" fill="none" xmlns="http://www.w3.org/2000/svg">
<path d="M14 0C6.26801 0 0 6.26801 0 14C0 21.732 6.26801 28 14 28C21.732 28 28 21.732 28 14C27.991 6.27174 21.7283 0.00900056 14 0Z" fill="#5243C2" fill-opacity="0.103693"/>
<path d="M22.0813 9.56785L14.0955 20.405C13.9051 20.6577 13.6211 20.8233 13.3073 20.8645C12.9936 20.9058 12.6765 20.8192 12.4272 20.6243L6.72451 16.065C6.22128 15.6623 6.1398 14.9279 6.54251 14.4247C6.94521 13.9215 7.67962 13.84 8.18284 14.2427L12.9382 18.0472L20.203 8.18768C20.4412 7.8302 20.8566 7.63256 21.2843 7.67322C21.7119 7.71389 22.0826 7.98628 22.2492 8.38225C22.4158 8.77822 22.3513 9.2337 22.0813 9.56785Z" fill="url(#paint0_linear_238_5958)"/>
<defs>
<linearGradient id="paint0_linear_238_5958" x1="6.36605" y1="7.66797" x2="24.7577" y2="14.9482" gradientUnits="userSpaceOnUse">
<stop stop-color="#3E60FE"/>
<stop offset="1" stop-color="#D23CFF"/>
</linearGradient>
</defs>
</svg>
