<svg width="69" height="69" viewBox="0 0 69 69" fill="none" xmlns="http://www.w3.org/2000/svg">
<rect x="0.333252" y="0.597656" width="68" height="68" rx="24" fill="#F5F5F5"/>
<path d="M30.7333 21.0953C30.7333 20.8566 30.6385 20.6277 30.4697 20.4589C30.301 20.2901 30.072 20.1953 29.8333 20.1953C29.5947 20.1953 29.3657 20.2901 29.197 20.4589C29.0282 20.6277 28.9333 20.8566 28.9333 21.0953V23.7953H28.0333C26.8399 23.7953 25.6953 24.2694 24.8514 25.1133C24.0075 25.9572 23.5333 27.1018 23.5333 28.2953V29.1953H20.8333C20.5947 29.1953 20.3657 29.2901 20.197 29.4589C20.0282 29.6277 19.9333 29.8566 19.9333 30.0953C19.9333 30.334 20.0282 30.5629 20.197 30.7317C20.3657 30.9005 20.5947 30.9953 20.8333 30.9953H23.5333V33.6953H20.8333C20.5947 33.6953 20.3657 33.7901 20.197 33.9589C20.0282 34.1277 19.9333 34.3566 19.9333 34.5953C19.9333 34.834 20.0282 35.0629 20.197 35.2317C20.3657 35.4005 20.5947 35.4953 20.8333 35.4953H23.5333V38.1953H20.8333C20.5947 38.1953 20.3657 38.2901 20.197 38.4589C20.0282 38.6277 19.9333 38.8566 19.9333 39.0953C19.9333 39.334 20.0282 39.5629 20.197 39.7317C20.3657 39.9005 20.5947 39.9953 20.8333 39.9953H23.5333V40.8953C23.5333 42.0888 24.0075 43.2334 24.8514 44.0773C25.6953 44.9212 26.8399 45.3953 28.0333 45.3953H28.9333V48.0953C28.9333 48.334 29.0282 48.5629 29.197 48.7317C29.3657 48.9005 29.5947 48.9953 29.8333 48.9953C30.072 48.9953 30.301 48.9005 30.4697 48.7317C30.6385 48.5629 30.7333 48.334 30.7333 48.0953V45.3953H33.4333V48.0953C33.4333 48.334 33.5282 48.5629 33.697 48.7317C33.8657 48.9005 34.0947 48.9953 34.3333 48.9953C34.572 48.9953 34.801 48.9005 34.9697 48.7317C35.1385 48.5629 35.2333 48.334 35.2333 48.0953V45.3953H37.9333V48.0953C37.9333 48.334 38.0282 48.5629 38.197 48.7317C38.3657 48.9005 38.5947 48.9953 38.8333 48.9953C39.072 48.9953 39.301 48.9005 39.4697 48.7317C39.6385 48.5629 39.7333 48.334 39.7333 48.0953V45.3953H40.6333C41.8268 45.3953 42.9714 44.9212 43.8153 44.0773C44.6592 43.2334 45.1333 42.0888 45.1333 40.8953V39.9953H47.8333C48.072 39.9953 48.301 39.9005 48.4697 39.7317C48.6385 39.5629 48.7333 39.334 48.7333 39.0953C48.7333 38.8566 48.6385 38.6277 48.4697 38.4589C48.301 38.2901 48.072 38.1953 47.8333 38.1953H45.1333V35.4953H47.8333C48.072 35.4953 48.301 35.4005 48.4697 35.2317C48.6385 35.0629 48.7333 34.834 48.7333 34.5953C48.7333 34.3566 48.6385 34.1277 48.4697 33.9589C48.301 33.7901 48.072 33.6953 47.8333 33.6953H45.1333V30.9953H47.8333C48.072 30.9953 48.301 30.9005 48.4697 30.7317C48.6385 30.5629 48.7333 30.334 48.7333 30.0953C48.7333 29.8566 48.6385 29.6277 48.4697 29.4589C48.301 29.2901 48.072 29.1953 47.8333 29.1953H45.1333V28.2953C45.1333 27.1018 44.6592 25.9572 43.8153 25.1133C42.9714 24.2694 41.8268 23.7953 40.6333 23.7953H39.7333V21.0953C39.7333 20.8566 39.6385 20.6277 39.4697 20.4589C39.301 20.2901 39.072 20.1953 38.8333 20.1953C38.5947 20.1953 38.3657 20.2901 38.197 20.4589C38.0282 20.6277 37.9333 20.8566 37.9333 21.0953V23.7953H35.2333V21.0953C35.2333 20.8566 35.1385 20.6277 34.9697 20.4589C34.801 20.2901 34.572 20.1953 34.3333 20.1953C34.0947 20.1953 33.8657 20.2901 33.697 20.4589C33.5282 20.6277 33.4333 20.8566 33.4333 21.0953V23.7953H30.7333V21.0953ZM36.1081 30.1673L35.3593 32.7953H38.1115C38.2483 32.7954 38.3822 32.8345 38.4976 32.908C38.613 32.9814 38.7051 33.0862 38.763 33.2101C38.821 33.334 38.8425 33.4718 38.825 33.6075C38.8075 33.7432 38.7517 33.871 38.6641 33.9761L33.8797 39.7181C33.3523 40.3481 32.3389 39.8081 32.5729 39.0197L33.3523 36.3953H30.5533C30.4162 36.3955 30.2819 36.3565 30.1662 36.2829C30.0505 36.2094 29.9582 36.1043 29.9002 35.9801C29.8421 35.8559 29.8208 35.7177 29.8386 35.5817C29.8564 35.4458 29.9127 35.3178 30.0007 35.2127L34.8031 29.4743C35.3251 28.8479 36.3331 29.3825 36.1099 30.1673" fill="url(#paint0_linear_238_6258)"/>
<defs>
<linearGradient id="paint0_linear_238_6258" x1="34.3333" y1="20.1953" x2="34.3333" y2="48.9953" gradientUnits="userSpaceOnUse">
<stop stop-color="#90E1E7"/>
<stop offset="1" stop-color="#41BBFF"/>
</linearGradient>
</defs>
</svg>
