<svg width="30" height="29" viewBox="0 0 30 29" fill="none" xmlns="http://www.w3.org/2000/svg">
<path d="M11.4001 1.00156C11.4001 0.762868 11.3053 0.533949 11.1365 0.365167C10.9677 0.196384 10.7388 0.101563 10.5001 0.101562C10.2614 0.101563 10.0325 0.196384 9.8637 0.365167C9.69492 0.533949 9.6001 0.762868 9.6001 1.00156V3.70156H8.7001C7.50662 3.70156 6.36203 4.17567 5.51812 5.01958C4.6742 5.8635 4.2001 7.00809 4.2001 8.20156V9.10156H1.5001C1.2614 9.10156 1.03248 9.19638 0.863702 9.36517C0.694919 9.53395 0.600098 9.76287 0.600098 10.0016C0.600098 10.2403 0.694919 10.4692 0.863702 10.638C1.03248 10.8067 1.2614 10.9016 1.5001 10.9016H4.2001V13.6016H1.5001C1.2614 13.6016 1.03248 13.6964 0.863702 13.8652C0.694919 14.0339 0.600098 14.2629 0.600098 14.5016C0.600098 14.7403 0.694919 14.9692 0.863702 15.138C1.03248 15.3067 1.2614 15.4016 1.5001 15.4016H4.2001V18.1016H1.5001C1.2614 18.1016 1.03248 18.1964 0.863702 18.3652C0.694919 18.5339 0.600098 18.7629 0.600098 19.0016C0.600098 19.2403 0.694919 19.4692 0.863702 19.638C1.03248 19.8067 1.2614 19.9016 1.5001 19.9016H4.2001V20.8016C4.2001 21.995 4.6742 23.1396 5.51812 23.9835C6.36203 24.8275 7.50662 25.3016 8.7001 25.3016H9.6001V28.0016C9.6001 28.2403 9.69492 28.4692 9.8637 28.638C10.0325 28.8067 10.2614 28.9016 10.5001 28.9016C10.7388 28.9016 10.9677 28.8067 11.1365 28.638C11.3053 28.4692 11.4001 28.2403 11.4001 28.0016V25.3016H14.1001V28.0016C14.1001 28.2403 14.1949 28.4692 14.3637 28.638C14.5325 28.8067 14.7614 28.9016 15.0001 28.9016C15.2388 28.9016 15.4677 28.8067 15.6365 28.638C15.8053 28.4692 15.9001 28.2403 15.9001 28.0016V25.3016H18.6001V28.0016C18.6001 28.2403 18.6949 28.4692 18.8637 28.638C19.0325 28.8067 19.2614 28.9016 19.5001 28.9016C19.7388 28.9016 19.9677 28.8067 20.1365 28.638C20.3053 28.4692 20.4001 28.2403 20.4001 28.0016V25.3016H21.3001C22.4936 25.3016 23.6382 24.8275 24.4821 23.9835C25.326 23.1396 25.8001 21.995 25.8001 20.8016V19.9016H28.5001C28.7388 19.9016 28.9677 19.8067 29.1365 19.638C29.3053 19.4692 29.4001 19.2403 29.4001 19.0016C29.4001 18.7629 29.3053 18.5339 29.1365 18.3652C28.9677 18.1964 28.7388 18.1016 28.5001 18.1016H25.8001V15.4016H28.5001C28.7388 15.4016 28.9677 15.3067 29.1365 15.138C29.3053 14.9692 29.4001 14.7403 29.4001 14.5016C29.4001 14.2629 29.3053 14.0339 29.1365 13.8652C28.9677 13.6964 28.7388 13.6016 28.5001 13.6016H25.8001V10.9016H28.5001C28.7388 10.9016 28.9677 10.8067 29.1365 10.638C29.3053 10.4692 29.4001 10.2403 29.4001 10.0016C29.4001 9.76287 29.3053 9.53395 29.1365 9.36517C28.9677 9.19638 28.7388 9.10156 28.5001 9.10156H25.8001V8.20156C25.8001 7.00809 25.326 5.8635 24.4821 5.01958C23.6382 4.17567 22.4936 3.70156 21.3001 3.70156H20.4001V1.00156C20.4001 0.762868 20.3053 0.533949 20.1365 0.365167C19.9677 0.196384 19.7388 0.101563 19.5001 0.101562C19.2614 0.101563 19.0325 0.196384 18.8637 0.365167C18.6949 0.533949 18.6001 0.762868 18.6001 1.00156V3.70156H15.9001V1.00156C15.9001 0.762868 15.8053 0.533949 15.6365 0.365167C15.4677 0.196384 15.2388 0.101563 15.0001 0.101562C14.7614 0.101563 14.5325 0.196384 14.3637 0.365167C14.1949 0.533949 14.1001 0.762868 14.1001 1.00156V3.70156H11.4001V1.00156ZM16.7749 10.0736L16.0261 12.7016H18.7783C18.9151 12.7017 19.049 12.7408 19.1644 12.8142C19.2797 12.8877 19.3718 12.9925 19.4298 13.1164C19.4878 13.2403 19.5093 13.3781 19.4917 13.5138C19.4742 13.6494 19.4184 13.7773 19.3309 13.8824L14.5465 19.6244C14.0191 20.2544 13.0057 19.7144 13.2397 18.926L14.0191 16.3016H11.2201C11.083 16.3017 10.9487 16.2627 10.833 16.1892C10.7173 16.1156 10.625 16.0106 10.5669 15.8864C10.5089 15.7622 10.4875 15.6239 10.5053 15.488C10.5231 15.3521 10.5794 15.224 10.6675 15.119L15.4699 9.38056C15.9919 8.75416 16.9999 9.28876 16.7767 10.0736" fill="url(#paint0_linear_238_5923)"/>
<defs>
<linearGradient id="paint0_linear_238_5923" x1="15.0001" y1="0.101562" x2="15.0001" y2="28.9016" gradientUnits="userSpaceOnUse">
<stop stop-color="#90E1E7"/>
<stop offset="1" stop-color="#41BBFF"/>
</linearGradient>
</defs>
</svg>
