<svg width="69" height="69" viewBox="0 0 69 69" fill="none" xmlns="http://www.w3.org/2000/svg">
<rect x="0.333252" y="0.199219" width="68" height="68" rx="24" fill="#F5F5F5"/>
<path d="M42.8923 33.418L43.111 37.5326C43.1434 38.1315 42.8113 38.6871 42.1145 39.1992C41.4177 39.7114 40.4658 40.1172 39.2586 40.4167C38.0514 40.7161 36.743 40.8659 35.3333 40.8659C33.9235 40.8659 32.6151 40.7161 31.4079 40.4167C30.2007 40.1172 29.2488 39.7114 28.552 39.1992C27.8552 38.6871 27.5231 38.1315 27.5555 37.5326L27.7742 33.418L34.7499 35.7747C34.9282 35.8355 35.1226 35.8659 35.3333 35.8659C35.5439 35.8659 35.7383 35.8355 35.9166 35.7747L42.8923 33.418ZM49.3333 29.1992C49.3333 29.3989 49.2441 29.5334 49.0659 29.6029L35.4548 34.1862C35.4224 34.1949 35.3819 34.1992 35.3333 34.1992C35.2846 34.1992 35.2441 34.1949 35.2117 34.1862L27.2881 31.5039C26.9397 31.799 26.6521 32.283 26.4253 32.9557C26.1984 33.6285 26.0607 34.4032 26.0121 35.2799C26.5225 35.5924 26.7777 36.0655 26.7777 36.6992C26.7777 37.2982 26.5427 37.7626 26.0728 38.0924L26.7777 43.7305C26.7939 43.852 26.7615 43.9605 26.6805 44.056C26.6076 44.1515 26.5103 44.1992 26.3888 44.1992H24.0555C23.9339 44.1992 23.8367 44.1515 23.7638 44.056C23.6828 43.9605 23.6504 43.852 23.6666 43.7305L24.3714 38.0924C23.9015 37.7626 23.6666 37.2982 23.6666 36.6992C23.6666 36.0655 23.9299 35.5838 24.4565 35.2539C24.5456 33.457 24.9426 32.0247 25.6475 30.957L21.6006 29.6029C21.4224 29.5334 21.3333 29.3989 21.3333 29.1992C21.3333 28.9996 21.4224 28.865 21.6006 28.7956L35.2117 24.2122C35.2441 24.2036 35.2846 24.1992 35.3333 24.1992C35.3819 24.1992 35.4224 24.2036 35.4548 24.2122L49.0659 28.7956C49.2441 28.865 49.3333 28.9996 49.3333 29.1992Z" fill="url(#paint0_linear_238_6234)"/>
<defs>
<linearGradient id="paint0_linear_238_6234" x1="35.3333" y1="24.1992" x2="35.3333" y2="44.1992" gradientUnits="userSpaceOnUse">
<stop stop-color="#78ED41"/>
<stop offset="1" stop-color="#5FCCB8"/>
</linearGradient>
</defs>
</svg>
