<svg width="28" height="21" viewBox="0 0 28 21" fill="none" xmlns="http://www.w3.org/2000/svg">
<path d="M21.559 9.71875L21.7778 13.8333C21.8102 14.4323 21.478 14.9878 20.7812 15.5C20.0845 16.0122 19.1325 16.418 17.9253 16.7174C16.7182 17.0169 15.4097 17.1667 14 17.1667C12.5903 17.1667 11.2818 17.0169 10.0747 16.7174C8.86748 16.418 7.91551 16.0122 7.21875 15.5C6.52199 14.9878 6.18982 14.4323 6.22222 13.8333L6.44097 9.71875L13.4167 12.0755C13.5949 12.1363 13.7894 12.1667 14 12.1667C14.2106 12.1667 14.4051 12.1363 14.5833 12.0755L21.559 9.71875ZM28 5.5C28 5.69965 27.9109 5.8342 27.7326 5.90365L14.1215 10.487C14.0891 10.4957 14.0486 10.5 14 10.5C13.9514 10.5 13.9109 10.4957 13.8785 10.487L5.95486 7.80469C5.60648 8.09983 5.31887 8.58377 5.09201 9.25651C4.86516 9.92925 4.72743 10.704 4.67882 11.5807C5.18924 11.8932 5.44444 12.3663 5.44444 13C5.44444 13.599 5.20949 14.0634 4.73958 14.3932L5.44444 20.0312C5.46065 20.1528 5.42824 20.2613 5.34722 20.3568C5.27431 20.4523 5.17708 20.5 5.05556 20.5H2.72222C2.60069 20.5 2.50347 20.4523 2.43056 20.3568C2.34954 20.2613 2.31713 20.1528 2.33333 20.0312L3.03819 14.3932C2.56829 14.0634 2.33333 13.599 2.33333 13C2.33333 12.3663 2.59664 11.8845 3.12326 11.5547C3.21238 9.75781 3.60938 8.32552 4.31424 7.25781L0.267361 5.90365C0.0891204 5.8342 0 5.69965 0 5.5C0 5.30035 0.0891204 5.1658 0.267361 5.09635L13.8785 0.513021C13.9109 0.50434 13.9514 0.5 14 0.5C14.0486 0.5 14.0891 0.50434 14.1215 0.513021L27.7326 5.09635C27.9109 5.1658 28 5.30035 28 5.5Z" fill="url(#paint0_linear_238_5909)"/>
<defs>
<linearGradient id="paint0_linear_238_5909" x1="14" y1="0.5" x2="14" y2="20.5" gradientUnits="userSpaceOnUse">
<stop stop-color="#78ED41"/>
<stop offset="1" stop-color="#5FCCB8"/>
</linearGradient>
</defs>
</svg>
