<svg width="1121" height="641" viewBox="0 0 1121 641" fill="none" xmlns="http://www.w3.org/2000/svg">
<circle cx="560.5" cy="80.1016" r="560.5" fill="url(#paint0_radial_304_44543)"/>
<circle cx="560.5" cy="80.1016" r="477.5" fill="url(#paint1_radial_304_44543)" fill-opacity="0.2"/>
<circle cx="560.5" cy="80.1029" r="400.939" fill="url(#paint2_radial_304_44543)" fill-opacity="0.6"/>
<circle cx="560.5" cy="80.1006" r="296.171" fill="#FFDF81" fill-opacity="0.6"/>
<circle cx="560.5" cy="80.1" r="187.373" fill="#FACE4F" fill-opacity="0.4"/>
<circle cx="560.5" cy="80.1016" r="103.5" fill="#FFC700"/>
<path d="M526.142 76.8599L540.242 89.7849L536.325 107.802C535.933 110.152 536.717 112.502 538.675 113.677C539.458 114.46 540.633 114.852 541.808 114.852C542.592 114.852 543.375 114.852 544.158 114.46C544.158 114.46 544.55 114.46 544.55 114.068L560.608 105.06L576.667 114.068C576.667 114.068 577.058 114.068 577.058 114.46C579.017 115.243 581.367 115.243 582.933 114.068C584.892 112.893 585.675 110.543 585.283 108.193L581.367 90.1766C582.933 89.0016 585.283 86.6516 587.633 84.3016L595.075 77.6432L595.467 77.2516C597.033 75.6849 597.425 73.3349 596.642 71.3766C595.858 69.4182 594.292 67.8516 591.942 67.4599H591.55L573.142 65.5016L565.7 48.6599C565.7 48.6599 565.7 48.2682 565.308 48.2682C564.917 45.5266 562.958 44.3516 561 44.3516C559.042 44.3516 557.083 45.5266 555.908 47.4849C555.908 47.4849 555.908 47.8766 555.517 47.8766L548.075 64.7182L529.667 66.6766H529.275C527.317 67.0682 525.358 68.6349 524.575 70.5932C524.183 72.9432 524.575 75.2932 526.142 76.8599Z" fill="white"/>
<defs>
<radialGradient id="paint0_radial_304_44543" cx="0" cy="0" r="1" gradientUnits="userSpaceOnUse" gradientTransform="translate(560.5 80.1016) rotate(90) scale(560.5)">
<stop stop-color="#FFD046"/>
<stop offset="1" stop-color="#FFD046" stop-opacity="0"/>
</radialGradient>
<radialGradient id="paint1_radial_304_44543" cx="0" cy="0" r="1" gradientUnits="userSpaceOnUse" gradientTransform="translate(560.5 80.1016) rotate(90) scale(477.5)">
<stop stop-color="white"/>
<stop offset="0.9999" stop-color="#FFEFC2" stop-opacity="0.73"/>
<stop offset="1" stop-color="#FFEFC2" stop-opacity="0"/>
</radialGradient>
<radialGradient id="paint2_radial_304_44543" cx="0" cy="0" r="1" gradientUnits="userSpaceOnUse" gradientTransform="translate(560.5 80.1029) rotate(90) scale(400.939)">
<stop stop-color="white"/>
<stop offset="1" stop-color="#FFBE00" stop-opacity="0.1"/>
</radialGradient>
</defs>
</svg>
