<svg width="146" height="146" viewBox="0 0 146 146" fill="none" xmlns="http://www.w3.org/2000/svg">
<g clip-path="url(#clip0_374_46054)">
<mask id="mask0_374_46054" style="mask-type:luminance" maskUnits="userSpaceOnUse" x="0" y="0" width="146" height="146">
<path d="M146 0H0V146H146V0Z" fill="white"/>
</mask>
<g mask="url(#mask0_374_46054)">
<mask id="mask1_374_46054" style="mask-type:luminance" maskUnits="userSpaceOnUse" x="-12" y="-12" width="170" height="170">
<path d="M-11.2307 -11.2305H157.231V157.231H-11.2307V-11.2305Z" fill="white"/>
</mask>
<g mask="url(#mask1_374_46054)">
<path fill-rule="evenodd" clip-rule="evenodd" d="M92.1646 72.9996C92.1646 71.7157 93.2054 70.6748 94.4894 70.6748V72.9996V75.3245C93.2054 75.3245 92.1646 74.2836 92.1646 72.9996ZM94.4894 72.9996C94.4894 75.3245 94.4895 75.3245 94.4898 75.3245H137.946C139.23 75.3245 140.271 74.2836 140.271 72.9996C140.271 71.7157 139.23 70.6748 137.946 70.6748H94.4898C94.4895 70.6748 94.4894 70.6748 94.4894 72.9996Z" fill="#1947FF"/>
<path fill-rule="evenodd" clip-rule="evenodd" d="M109.999 55.9143C109.999 54.0876 111.48 52.6064 113.307 52.6064H114.051C115.335 52.6064 116.376 53.6473 116.376 54.9313C116.376 56.0085 115.643 56.9146 114.649 57.1785V88.6046C115.643 88.8685 116.376 89.7746 116.376 90.8518C116.376 92.1358 115.335 93.1766 114.051 93.1766H113.744C111.676 93.1766 109.999 91.5001 109.999 89.4322V55.9143ZM113.307 57.2561C113.307 57.2561 113.307 57.2561 113.307 57.2561V57.2561Z" fill="#1947FF"/>
</g>
<mask id="mask2_374_46054" style="mask-type:luminance" maskUnits="userSpaceOnUse" x="-12" y="-12" width="170" height="170">
<path d="M157.231 -11.2305H-11.2306V157.231H157.231V-11.2305Z" fill="white"/>
</mask>
<g mask="url(#mask2_374_46054)">
<path fill-rule="evenodd" clip-rule="evenodd" d="M53.8357 72.9996C53.8357 71.7157 52.7948 70.6748 51.5109 70.6748V72.9996V75.3245C52.7948 75.3245 53.8357 74.2836 53.8357 72.9996ZM51.5109 72.9996C51.5109 75.3245 51.5107 75.3245 51.5105 75.3245H8.05423C6.77026 75.3245 5.72939 74.2836 5.72939 72.9996C5.72939 71.7157 6.77026 70.6748 8.05423 70.6748H51.5105C51.5107 70.6748 51.5109 70.6748 51.5109 72.9996Z" fill="#1947FF"/>
<path fill-rule="evenodd" clip-rule="evenodd" d="M36.001 55.9143C36.001 54.0876 34.5199 52.6064 32.6932 52.6064H31.9494C30.6654 52.6064 29.6246 53.6473 29.6246 54.9313C29.6246 56.0085 30.3572 56.9146 31.3513 57.1785V88.6046C30.3572 88.8685 29.6246 89.7746 29.6246 90.8518C29.6246 92.1358 30.6654 93.1766 31.9494 93.1766H32.2564C34.3243 93.1766 36.001 91.5001 36.001 89.4322V55.9143ZM32.6932 57.2561C32.6932 57.2561 32.6932 57.2561 32.6932 57.2561V57.2561Z" fill="#1947FF"/>
</g>
<mask id="mask3_374_46054" style="mask-type:luminance" maskUnits="userSpaceOnUse" x="-12" y="-12" width="170" height="170">
<path d="M-11.2307 -11.2305H157.231V157.231H-11.2307V-11.2305Z" fill="white"/>
</mask>
<g mask="url(#mask3_374_46054)">
<path fill-rule="evenodd" clip-rule="evenodd" d="M80.5232 87.9846C81.2829 86.9495 82.7379 86.7262 83.773 87.4859L108.001 105.267H139.092C140.376 105.267 141.417 106.308 141.417 107.592C141.417 108.876 140.376 109.916 139.092 109.916H106.478L81.022 91.2344C79.9869 90.4747 79.7636 89.0198 80.5232 87.9846Z" fill="#3D65FE"/>
<path fill-rule="evenodd" clip-rule="evenodd" d="M107.239 105.267C108.523 105.267 109.564 106.307 109.564 107.591V126.884C109.564 128.168 108.523 129.209 107.239 129.209C105.955 129.209 104.915 128.168 104.915 126.884V107.591C104.915 106.307 105.955 105.267 107.239 105.267Z" fill="#3D65FE"/>
<mask id="mask4_374_46054" style="mask-type:luminance" maskUnits="userSpaceOnUse" x="100" y="121" width="15" height="15">
<path d="M100.235 121.293H114.273V135.331H100.235V121.293Z" fill="white"/>
</mask>
<g mask="url(#mask4_374_46054)">
<path d="M107.254 127.22C107.858 127.22 108.347 127.709 108.347 128.313C108.347 128.916 107.858 129.406 107.254 129.406C106.65 129.406 106.161 128.916 106.161 128.313C106.161 127.709 106.65 127.22 107.254 127.22Z" fill="#0537FF"/>
</g>
</g>
<mask id="mask5_374_46054" style="mask-type:luminance" maskUnits="userSpaceOnUse" x="-12" y="-12" width="170" height="170">
<path d="M157.231 -11.2305H-11.2306V157.231H157.231V-11.2305Z" fill="white"/>
</mask>
<g mask="url(#mask5_374_46054)">
<path fill-rule="evenodd" clip-rule="evenodd" d="M65.477 87.9846C64.7173 86.9495 63.2623 86.7262 62.2272 87.4859L37.9993 105.267H6.90813C5.62416 105.267 4.58329 106.308 4.58329 107.592C4.58329 108.876 5.62416 109.916 6.90813 109.916H39.5224L64.9783 91.2344C66.0134 90.4747 66.2367 89.0198 65.477 87.9846Z" fill="#3D65FE"/>
<path fill-rule="evenodd" clip-rule="evenodd" d="M38.7609 105.267C37.4769 105.267 36.436 106.307 36.436 107.591V126.884C36.436 128.168 37.4769 129.209 38.7609 129.209C40.0448 129.209 41.0857 128.168 41.0857 126.884V107.591C41.0857 106.307 40.0448 105.267 38.7609 105.267Z" fill="#3D65FE"/>
<mask id="mask6_374_46054" style="mask-type:luminance" maskUnits="userSpaceOnUse" x="31" y="121" width="15" height="15">
<path d="M45.7654 121.293H31.7269V135.331H45.7654V121.293Z" fill="white"/>
</mask>
<g mask="url(#mask6_374_46054)">
<path d="M38.7462 127.22C38.1426 127.22 37.6533 127.709 37.6533 128.313C37.6533 128.916 38.1426 129.406 38.7462 129.406C39.3498 129.406 39.8391 128.916 39.8391 128.313C39.8391 127.709 39.3498 127.22 38.7462 127.22Z" fill="#0537FF"/>
</g>
</g>
<mask id="mask7_374_46054" style="mask-type:luminance" maskUnits="userSpaceOnUse" x="-12" y="-12" width="170" height="170">
<path d="M-11.2307 -11.2305H157.231V157.231H-11.2307V-11.2305Z" fill="white"/>
</mask>
<g mask="url(#mask7_374_46054)">
<path fill-rule="evenodd" clip-rule="evenodd" d="M4.31079 39.987C4.31079 38.703 5.35166 37.6621 6.63563 37.6621H39.2499L64.7057 56.3442C65.7409 57.1038 65.9642 58.5588 65.2045 59.5939C64.4448 60.6291 62.9898 60.8524 61.9547 60.0927L37.7268 42.3118H6.63563C5.35166 42.3118 4.31079 41.2709 4.31079 39.987Z" fill="#4162E6"/>
<path fill-rule="evenodd" clip-rule="evenodd" d="M38.4884 18.3691C39.7724 18.3691 40.8133 19.41 40.8133 20.694V39.9868C40.8133 41.2707 39.7724 42.3116 38.4884 42.3116C37.2044 42.3116 36.1636 41.2707 36.1636 39.9868V20.694C36.1636 19.41 37.2044 18.3691 38.4884 18.3691Z" fill="#4162E6"/>
<mask id="mask8_374_46054" style="mask-type:luminance" maskUnits="userSpaceOnUse" x="-1" y="32" width="15" height="15">
<path d="M-0.280762 32.8496H13.7577V46.8881H-0.280762V32.8496Z" fill="white"/>
</mask>
<g mask="url(#mask8_374_46054)">
<path d="M6.73856 39.5566C6.91105 39.5566 7.05086 39.6965 7.05086 39.8689C7.05086 40.0414 6.91105 40.1812 6.73856 40.1812C6.56608 40.1812 6.42627 40.0414 6.42627 39.8689C6.42627 39.6965 6.56608 39.5566 6.73856 39.5566Z" fill="#0537FF"/>
</g>
</g>
<mask id="mask9_374_46054" style="mask-type:luminance" maskUnits="userSpaceOnUse" x="-12" y="-12" width="170" height="170">
<path d="M157.231 -11.2305H-11.2306V157.231H157.231V-11.2305Z" fill="white"/>
</mask>
<g mask="url(#mask9_374_46054)">
<path fill-rule="evenodd" clip-rule="evenodd" d="M141.689 39.987C141.689 38.703 140.649 37.6621 139.365 37.6621H106.75L81.2945 56.3442C80.2594 57.1038 80.0361 58.5588 80.7958 59.5939C81.5554 60.6291 83.0104 60.8524 84.0455 60.0927L108.273 42.3118H139.365C140.649 42.3118 141.689 41.2709 141.689 39.987Z" fill="#4162E6"/>
<path fill-rule="evenodd" clip-rule="evenodd" d="M107.512 18.3691C106.228 18.3691 105.187 19.41 105.187 20.694V39.9868C105.187 41.2707 106.228 42.3116 107.512 42.3116C108.796 42.3116 109.837 41.2707 109.837 39.9868V20.694C109.837 19.41 108.796 18.3691 107.512 18.3691Z" fill="#4162E6"/>
<mask id="mask10_374_46054" style="mask-type:luminance" maskUnits="userSpaceOnUse" x="132" y="32" width="15" height="15">
<path d="M146.281 32.8496H132.243V46.8881H146.281V32.8496Z" fill="white"/>
</mask>
<g mask="url(#mask10_374_46054)">
<path d="M139.262 39.5566C139.089 39.5566 138.949 39.6965 138.949 39.8689C138.949 40.0414 139.089 40.1812 139.262 40.1812C139.434 40.1812 139.574 40.0414 139.574 39.8689C139.574 39.6965 139.434 39.5566 139.262 39.5566Z" fill="#0537FF"/>
</g>
</g>
<mask id="mask11_374_46054" style="mask-type:luminance" maskUnits="userSpaceOnUse" x="-12" y="-12" width="170" height="170">
<path d="M-11.2307 -11.2305H157.231V157.231H-11.2307V-11.2305Z" fill="white"/>
</mask>
<g mask="url(#mask11_374_46054)">
<path fill-rule="evenodd" clip-rule="evenodd" d="M73.0001 92.6855C74.2841 92.6855 75.325 93.7264 75.325 95.0104V139.212C75.325 140.496 74.2841 141.537 73.0001 141.537C71.7162 141.537 70.6753 140.496 70.6753 139.212V95.0104C70.6753 93.7264 71.7162 92.6855 73.0001 92.6855Z" fill="#2342BC"/>
<path fill-rule="evenodd" clip-rule="evenodd" d="M55.7405 120.689C55.7405 119.405 56.7813 118.364 58.0653 118.364H88.7725C90.0565 118.364 91.0973 119.405 91.0973 120.689C91.0973 121.973 90.0565 123.014 88.7725 123.014H58.0653C56.7813 123.014 55.7405 121.973 55.7405 120.689Z" fill="#2342BC"/>
<mask id="mask12_374_46054" style="mask-type:luminance" maskUnits="userSpaceOnUse" x="81" y="113" width="15" height="15">
<path d="M81.7039 113.712H95.7423V127.75H81.7039V113.712Z" fill="white"/>
</mask>
<g mask="url(#mask12_374_46054)">
<path d="M88.7231 115.326C91.7084 115.326 94.1283 117.746 94.1283 120.731C94.1283 123.717 91.7084 126.137 88.7231 126.137C85.7378 126.137 83.3179 123.717 83.3179 120.731C83.3179 117.746 85.7378 115.326 88.7231 115.326Z" fill="#0537FF"/>
</g>
<mask id="mask13_374_46054" style="mask-type:luminance" maskUnits="userSpaceOnUse" x="51" y="113" width="15" height="15">
<path d="M51.1001 113.712H65.1386V127.75H51.1001V113.712Z" fill="white"/>
</mask>
<g mask="url(#mask13_374_46054)">
<path d="M58.1193 115.326C61.1046 115.326 63.5245 117.746 63.5245 120.731C63.5245 123.717 61.1046 126.137 58.1193 126.137C55.134 126.137 52.7141 123.717 52.7141 120.731C52.7141 117.746 55.134 115.326 58.1193 115.326Z" fill="#0537FF"/>
</g>
<mask id="mask14_374_46054" style="mask-type:luminance" maskUnits="userSpaceOnUse" x="65" y="133" width="16" height="15">
<path d="M65.981 133.085H80.0194V147.123H65.981V133.085Z" fill="white"/>
</mask>
<g mask="url(#mask14_374_46054)">
<path d="M73.0002 139.012C73.6038 139.012 74.0931 139.501 74.0931 140.105C74.0931 140.708 73.6038 141.198 73.0002 141.198C72.3965 141.198 71.9072 140.708 71.9072 140.105C71.9072 139.501 72.3965 139.012 73.0002 139.012Z" fill="#0537FF"/>
</g>
</g>
<mask id="mask15_374_46054" style="mask-type:luminance" maskUnits="userSpaceOnUse" x="-12" y="-11" width="170" height="169">
<path d="M157.231 157.512H-11.2306V-10.9498H157.231V157.512Z" fill="white"/>
</mask>
<g mask="url(#mask15_374_46054)">
<path fill-rule="evenodd" clip-rule="evenodd" d="M73.0001 53.5957C71.7161 53.5957 70.6753 52.5548 70.6753 51.2709V7.06881C70.6753 5.78483 71.7161 4.74397 73.0001 4.74397C74.2841 4.74397 75.325 5.78483 75.325 7.06881V51.2709C75.325 52.5548 74.2841 53.5957 73.0001 53.5957Z" fill="#2342BC"/>
<path fill-rule="evenodd" clip-rule="evenodd" d="M90.2598 25.5922C90.2598 26.8761 89.2189 27.917 87.9349 27.917H57.2278C55.9438 27.917 54.9029 26.8761 54.9029 25.5922C54.9029 24.3082 55.9438 23.2673 57.2278 23.2673H87.9349C89.2189 23.2673 90.2598 24.3082 90.2598 25.5922Z" fill="#2342BC"/>
<mask id="mask16_374_46054" style="mask-type:luminance" maskUnits="userSpaceOnUse" x="50" y="18" width="15" height="15">
<path d="M64.2964 32.5693H50.2579V18.5309H64.2964V32.5693Z" fill="white"/>
</mask>
<g mask="url(#mask16_374_46054)">
<path d="M57.2772 30.9551C54.2919 30.9551 51.8719 28.5352 51.8719 25.5499C51.8719 22.5646 54.2919 20.1447 57.2772 20.1447C60.2625 20.1447 62.6824 22.5646 62.6824 25.5499C62.6824 28.5352 60.2625 30.9551 57.2772 30.9551Z" fill="#0537FF"/>
</g>
<mask id="mask17_374_46054" style="mask-type:luminance" maskUnits="userSpaceOnUse" x="80" y="18" width="15" height="15">
<path d="M94.9001 32.5693H80.8617V18.5309H94.9001V32.5693Z" fill="white"/>
</mask>
<g mask="url(#mask17_374_46054)">
<path d="M87.8809 30.9551C84.8956 30.9551 82.4757 28.5352 82.4757 25.5499C82.4757 22.5646 84.8956 20.1447 87.8809 20.1447C90.8662 20.1447 93.2861 22.5646 93.2861 25.5499C93.2861 28.5352 90.8662 30.9551 87.8809 30.9551Z" fill="#0537FF"/>
</g>
<mask id="mask18_374_46054" style="mask-type:luminance" maskUnits="userSpaceOnUse" x="65" y="-1" width="16" height="15">
<path d="M80.0193 13.1963H65.9808V-0.842172H80.0193V13.1963Z" fill="white"/>
</mask>
<g mask="url(#mask18_374_46054)">
<path d="M73.0001 7.26953C72.3965 7.26953 71.9072 6.78023 71.9072 6.17661C71.9072 5.57298 72.3965 5.08368 73.0001 5.08368C73.6037 5.08368 74.093 5.57298 74.093 6.17661C74.093 6.78023 73.6037 7.26953 73.0001 7.26953Z" fill="#0537FF"/>
</g>
</g>
<path d="M96.6588 85.1634V62.3554C96.6588 60.9597 95.9142 59.6701 94.7055 58.9721L74.9534 47.5684C73.7446 46.8704 72.2554 46.8704 71.0467 47.5684L51.2946 58.9721C50.0859 59.6701 49.3413 60.9597 49.3413 62.3554V85.1634C49.3413 86.5591 50.0859 87.8487 51.2946 88.5467L71.0467 99.9504C72.2554 100.648 73.7446 100.648 74.9534 99.9504L94.7055 88.5467C95.9142 87.8487 96.6588 86.5591 96.6588 85.1634Z" fill="#4162E6"/>
<mask id="mask19_374_46054" style="mask-type:luminance" maskUnits="userSpaceOnUse" x="-5" y="-5" width="156" height="156">
<path d="M-4.5625 -4.5625H150.562V150.562H-4.5625V-4.5625Z" fill="white"/>
</mask>
<g mask="url(#mask19_374_46054)">
<path fill-rule="evenodd" clip-rule="evenodd" d="M68.0597 62.8967C69.0109 62.908 69.8591 63.4977 70.2012 64.3853L77.0011 82.0294C77.4629 83.2275 76.866 84.573 75.6679 85.0347C74.4698 85.4965 73.1243 84.8995 72.6625 83.7015L67.9568 71.4913L62.9746 83.5496C62.4843 84.7363 61.1248 85.3008 59.9382 84.8105C58.7515 84.3202 58.187 82.9608 58.6773 81.7741L65.8832 64.3336C66.2464 63.4544 67.1086 62.8853 68.0597 62.8967Z" fill="white"/>
<path fill-rule="evenodd" clip-rule="evenodd" d="M60.895 76.8678C60.895 75.5838 61.9359 74.543 63.2199 74.543H72.3791C73.6631 74.543 74.704 75.5838 74.704 76.8678C74.704 78.1518 73.6631 79.1927 72.3791 79.1927H63.2199C61.9359 79.1927 60.895 78.1518 60.895 76.8678Z" fill="white"/>
<path fill-rule="evenodd" clip-rule="evenodd" d="M81.1095 63.0215C82.3935 63.0215 83.4343 64.0624 83.4343 65.3463V83.005C83.4343 84.289 82.3935 85.3299 81.1095 85.3299C79.8255 85.3299 78.7847 84.289 78.7847 83.005V65.3463C78.7847 64.0624 79.8255 63.0215 81.1095 63.0215Z" fill="white"/>
</g>
</g>
</g>
<defs>
<clipPath id="clip0_374_46054">
<rect width="146" height="146" fill="white"/>
</clipPath>
</defs>
</svg>
