<svg width="653" height="811" viewBox="0 0 653 811" fill="none" xmlns="http://www.w3.org/2000/svg">
<path opacity="0.2" d="M898.133 1.99998L898.125 2.00002C763.033 2.57923 662.42 21.1707 589.487 53.4224C562.401 65.3935 543.141 76.0695 530.736 91.683C518.265 107.38 512.933 127.778 512.933 158.672V802V806.496L516.273 803.485C557.539 766.275 596.385 742.519 661.089 728.017C725.936 713.482 816.76 708.24 962 708.24H964V706.24V4V2H962L898.133 1.99998ZM67.8752 2H67.8667H4H2V4V706.24V708.24H4C149.24 708.24 240.064 713.482 304.911 728.017C369.615 742.519 408.461 766.275 449.727 803.485L453.067 806.496V802V158.672C453.067 127.778 447.735 107.38 435.264 91.683C422.859 76.0695 403.599 65.3935 376.513 53.4223C303.58 21.1707 202.967 2.57923 67.8752 2Z" stroke="white" stroke-width="4"/>
</svg>
