<svg width="14" height="14" viewBox="0 0 14 14" fill="none" xmlns="http://www.w3.org/2000/svg">
<g clip-path="url(#clip0_374_45775)">
<path d="M7.16691 12.6911C7.40022 12.6858 7.62411 12.598 7.79898 12.4435C7.97386 12.289 8.08844 12.0776 8.12246 11.8467H6.17432C6.20931 12.0838 6.32925 12.3002 6.51184 12.4555C6.69442 12.6109 6.92721 12.6946 7.16691 12.6911Z" fill="#6A6A6A"/>
<path d="M12.6669 10.4125L12.541 10.3014C12.1837 9.98307 11.8711 9.61805 11.6114 9.21618C11.3277 8.66157 11.1578 8.0559 11.1114 7.4347V5.60507C11.1099 5.38283 11.09 5.16109 11.0521 4.94211C10.4247 4.81316 9.86121 4.47137 9.45692 3.97462C9.05263 3.47786 8.83243 2.85666 8.83359 2.21618V1.98285C8.44689 1.79255 8.03143 1.66741 7.60396 1.61248V1.14581C7.60396 1.01468 7.55186 0.888913 7.45914 0.796187C7.36641 0.70346 7.24065 0.651367 7.10951 0.651367C6.97838 0.651367 6.85261 0.70346 6.75989 0.796187C6.66716 0.888913 6.61507 1.01468 6.61507 1.14581V1.631C5.65793 1.76602 4.78195 2.24275 4.14885 2.97319C3.51576 3.70363 3.1683 4.63846 3.17062 5.60507V7.4347C3.12424 8.0559 2.95424 8.66157 2.67062 9.21618C2.41539 9.61705 2.10773 9.98201 1.75581 10.3014L1.62988 10.4125V11.4569H12.6669V10.4125Z" fill="#6A6A6A"/>
<path d="M11.6114 4.06796C12.6341 4.06796 13.4632 3.23886 13.4632 2.21611C13.4632 1.19336 12.6341 0.364258 11.6114 0.364258C10.5886 0.364258 9.75952 1.19336 9.75952 2.21611C9.75952 3.23886 10.5886 4.06796 11.6114 4.06796Z" fill="#FF5555"/>
</g>
<defs>
<clipPath id="clip0_374_45775">
<rect width="13.3333" height="13.3333" fill="white" transform="translate(0.500244 -0.00585938)"/>
</clipPath>
</defs>
</svg>
