<svg width="768" height="2001" viewBox="0 0 768 2001" fill="none" xmlns="http://www.w3.org/2000/svg">
<path d="M768 0.384766H0V250.385L768 0.384766Z" fill="#F6F9FF"/>
<g opacity="0.55">
<path d="M397.914 474.142C397.774 474.366 397.662 474.59 397.521 474.786C397.858 475.374 398.054 474.646 397.914 474.142Z" fill="#ECEEFF"/>
<path d="M651.643 350.628C652.232 352.029 654.923 350.236 653.606 349.452C653.522 349.003 653.381 348.611 653.213 348.247C652.12 348.583 651.195 349.592 651.643 350.628Z" fill="#ECEEFF"/>
<path d="M637.092 1262.27C639.111 1265.38 642.531 1267.31 646.148 1267.99C643.569 1265.46 640.513 1263.48 637.092 1262.27Z" fill="#ECEEFF"/>
<path d="M837.103 982.126C819.412 958.79 817.674 927.526 808.394 899.792C806.628 894.553 804.581 889.398 802.282 884.356C783.077 842.726 746.518 812.163 711.108 783.056C695.997 770.646 680.885 758.207 665.773 745.797C658.456 739.774 650.914 733.498 646.653 725.01C642.391 716.522 642.307 705.204 649.036 698.509C622.766 683.437 601.346 660.045 588.673 632.563C595.262 633.851 597.617 624.271 597.561 617.547C597.393 598.749 601.935 579.896 610.71 563.255C633.279 565.524 654.615 542.413 650.522 520.113C661.68 516.891 663.643 498.514 653.409 493.023C656.83 490.782 661.736 491.062 664.848 493.724C665.381 505.658 677.212 518.74 687.754 513.138C687.81 508.095 685.427 503.052 681.474 499.887C693.221 496.581 704.968 493.275 716.687 489.97C720.052 483.274 715.79 473.973 708.501 472.153C718.173 466.746 729.5 464.365 740.546 465.373C745.396 465.821 750.611 466.858 754.901 464.561C761.069 461.255 765.499 453.467 759.695 449.573C754.172 450.077 748.452 450.553 743.21 448.677C737.995 446.828 733.397 441.925 733.789 436.406C725.491 434.501 717.977 443.55 709.482 442.709C700.538 441.813 692.436 430.299 684.922 435.202C684.754 429.683 684.221 423.856 681.053 419.345C677.885 414.835 671.128 412.37 666.642 415.564C661.456 408.42 657.222 400.548 654.166 392.256C668.717 391.191 674.801 373.43 677.324 359.059C670.063 359.451 662.717 356.397 657.867 350.99C656.858 349.87 655.849 348.553 654.363 348.217C653.97 348.133 653.55 348.161 653.157 348.273C653.325 348.637 653.465 349.029 653.55 349.478C654.867 350.234 652.176 352.055 651.587 350.654C651.166 349.618 652.064 348.609 653.157 348.273C651.279 344.267 643.961 345.332 639.98 348.413C635.634 351.775 630.083 356.285 625.429 353.344C627.279 353.764 628.289 350.738 626.999 349.338C625.709 347.937 623.523 347.909 621.644 348.105C613.626 348.945 605.86 352.055 599.496 356.958C600.309 350.458 593.888 344.071 587.384 344.911C586.935 338.468 586.431 332.053 585.898 325.609C581.692 325.609 577.515 325.637 573.31 325.637C572.609 321.94 570.814 318.438 568.263 315.692C558.506 326.898 545.666 335.386 531.535 339.953C528.171 343.202 536.189 347.181 536.386 351.859C536.498 354.997 533.049 356.901 530.106 358.022C521.863 361.216 513.592 364.409 505.35 367.575C505.069 363.793 504.817 360.039 504.537 356.257C500.387 353.848 495.341 353.008 490.63 354.016C490.911 364.802 484.771 375.503 475.323 380.714C471.566 370.965 463.043 363.205 453.006 360.403C452.361 364.802 451.716 369.2 451.099 373.57C444.371 371.385 439.016 365.474 437.446 358.61C431.278 367.015 424.801 375.167 418.016 383.067C410.11 376.568 402.204 370.068 394.298 363.597C388.578 358.891 379.326 354.436 374.728 360.263C372.906 362.588 372.738 365.726 371.953 368.555C368.532 380.854 352.748 390.155 356.617 402.313C359.393 411.081 371.056 414.135 374.812 422.539C378.149 430.019 374.504 440.272 380.448 445.931C387.373 452.514 398.531 445.483 404.671 438.199C407.335 450.441 404.811 463.692 397.942 474.198C398.083 474.674 397.886 475.43 397.55 474.842C397.69 474.646 397.802 474.394 397.942 474.198C397.858 473.917 397.69 473.721 397.354 473.917C396.457 474.45 396.877 475.85 397.41 476.747C401.251 483.218 405.12 489.69 408.961 496.189C411.54 500.503 414.26 504.985 418.549 507.563C422.138 509.72 426.455 510.308 430.549 511.149C443.165 513.726 455.193 519.161 465.454 526.921C468.005 520.197 470.753 513.306 475.799 508.207C480.846 503.108 488.836 500.195 495.425 503.108C502.153 506.078 507.004 514.566 514.237 513.362C505.013 515.435 498.34 525.408 499.967 534.709C507.845 531.935 517.433 538.827 517.321 547.175C517.293 550.06 516.312 553.086 517.545 555.691C519.704 560.37 526.461 559.837 531.451 558.521C529.18 564.656 527.554 571.043 526.629 577.515C524.554 577.122 522.452 576.702 520.377 576.31C519.143 578.803 517.91 581.296 516.676 583.79C504.172 581.801 491.836 578.747 479.837 574.629C475.687 573.789 473.612 579.924 475.042 583.902C476.472 587.88 479.556 591.634 478.883 595.836C471.145 596.62 464.641 603.848 464.641 611.608C463.856 612.28 463.099 612.925 462.314 613.597C461.22 616.398 462.258 619.872 464.669 621.665C468.145 624.242 473.528 623.29 476.584 626.344C478.855 628.613 478.995 632.311 480.986 634.832C483.061 637.437 486.621 638.25 489.845 639.006C505.77 642.76 520.938 649.764 534.087 659.457C531.648 665.087 534.704 671.727 539.189 675.901C543.675 680.075 549.423 682.596 554.441 686.126C563.833 692.738 570.254 702.683 576.422 712.348C583.767 723.833 591.113 735.319 598.458 746.805L596.271 743.92C599.58 762.605 629.074 763.558 637.625 780.507C641.242 787.678 640.26 796.195 641.55 804.095C642.84 812.023 648.391 820.735 656.409 820.203C660.222 819.951 663.671 817.542 667.512 817.43C671.016 817.317 674.268 819.138 677.324 820.903C687.614 826.87 697.931 832.837 708.22 838.804C695.94 841.578 680.128 850.458 684.922 862.112C686.268 865.39 689.1 867.771 691.819 870.04C699.781 876.652 707.744 883.235 715.678 889.847C718.285 896.878 709.706 905.058 702.781 902.089C708.781 915.228 711.052 930.019 709.314 944.363C706.342 941.001 700.342 942.514 697.735 946.183C695.127 949.825 694.931 954.616 694.819 959.126C694.595 969.884 698.548 984.787 709.23 983.471C701.688 994.452 720.024 1007.73 717.472 1020.81C716.127 1027.79 709.089 1032.44 707.239 1039.3C705.361 1046.19 709.146 1053.2 710.463 1060.23C713.351 1075.58 703.903 1091.16 691.09 1100.12C678.278 1109.09 662.633 1112.84 647.41 1116.4C644.298 1116.23 641.186 1116.06 638.073 1115.89C634.793 1122.42 634.737 1130.49 637.905 1137.1C629.494 1124.83 606.392 1129.54 603.505 1144.13C601.234 1137.86 590.776 1137.1 587.636 1142.98C584.496 1148.87 590.916 1157.13 597.421 1155.53C597.533 1161.39 597.757 1167.61 600.953 1172.51C604.178 1177.41 611.551 1180.08 616.065 1176.32C618.224 1180.13 618.813 1184.81 617.663 1189.01C612.056 1188.09 603.617 1190.61 604.598 1195.37C604.71 1195.74 604.878 1196.1 604.963 1196.49C604.766 1196.1 604.654 1195.74 604.598 1195.37C600.168 1181.76 579.45 1183.27 565.403 1188.14C560.861 1189.71 556.32 1191.28 551.778 1192.85C547.965 1188.42 539.75 1189.21 536.834 1194.28C533.919 1199.35 537.395 1206.83 543.143 1207.89C531.9 1211.93 520.657 1215.96 509.387 1219.97C505.686 1221.28 501.284 1223.55 501.312 1227.48C501.34 1229.97 503.191 1231.99 504.452 1234.11C507.48 1239.21 507.34 1245.83 510.845 1250.62C514.321 1255.41 524.498 1254.71 523.713 1248.82C531.76 1245.1 535.461 1258.96 533.442 1267.56C527.582 1292.38 521.723 1317.21 515.863 1342C519.171 1342.11 522.48 1342.22 525.816 1342.31C523.994 1348.69 520.994 1354.74 516.985 1360.07C537.115 1366.34 561.086 1355.64 569.889 1336.48C571.599 1332.73 572.861 1328.61 575.665 1325.58C578.524 1322.5 582.59 1320.96 586.515 1319.5C598.122 1315.19 609.701 1310.85 621.308 1306.53C622.093 1290.84 614.859 1274.93 602.551 1265.18C612.869 1266.16 619.794 1275.72 627.111 1283.06C634.429 1290.4 647.017 1295.97 654.503 1288.8C654.979 1281.12 651.699 1273.48 646.176 1268.15C642.531 1267.48 639.139 1265.58 637.12 1262.44C640.513 1263.64 643.597 1265.63 646.176 1268.15C650.269 1268.91 654.699 1268.07 657.839 1265.29C656.577 1261.43 655.288 1257.56 654.026 1253.7C657.475 1257.98 664.708 1253.98 666.867 1248.91C668.998 1243.84 669.11 1237.67 672.923 1233.69C675.166 1231.34 678.362 1230.19 681.446 1229.13C705.248 1220.92 729.5 1213.97 754.06 1208.34C753.191 1199.94 762.106 1193.97 770.181 1191.48C778.255 1188.96 787.619 1187.19 792.133 1180.05C794.881 1175.68 795.61 1169.6 800.123 1167.16C803.992 1165.09 809.011 1166.71 812.936 1164.78C817.898 1162.34 818.739 1155.87 820.338 1150.6C821.936 1145.34 827.431 1139.68 832.141 1142.56C837.328 1127.27 836.879 1110.12 830.879 1095.14C835.085 1095.67 838.056 1090.32 836.907 1086.26C835.786 1082.17 832.197 1079.34 828.833 1076.76C831.748 1071.44 840.804 1071.32 843.86 1076.56C848.206 1068.77 847.168 1059.22 846.019 1050.37C843.019 1027.51 840.075 1004.82 837.103 982.126Z" fill="#ECEEFF"/>
<mask id="path-6-inside-1_374_48963" fill="white">
<path d="M813.093 959.126C795.402 935.79 793.663 904.526 784.383 876.792C782.617 871.553 780.57 866.398 778.271 861.356C759.067 819.726 722.507 789.163 687.097 760.056C671.986 747.646 656.874 735.207 641.763 722.797C634.445 716.774 626.903 710.498 622.642 702.01C618.38 693.522 618.296 682.204 625.025 675.509C598.755 660.437 577.335 637.045 564.663 609.563C571.251 610.851 573.606 601.271 573.55 594.547C573.382 575.749 577.924 556.896 586.699 540.255C609.269 542.524 630.604 519.413 626.511 497.113C637.669 493.891 639.632 475.514 629.399 470.023C632.819 467.782 637.725 468.062 640.837 470.724C641.37 482.658 653.201 495.74 663.743 490.138C663.799 485.095 661.416 480.052 657.463 476.887C669.21 473.581 680.957 470.275 692.677 466.97C696.041 460.274 691.779 450.973 684.49 449.153C694.163 443.746 705.489 441.365 716.535 442.373C721.386 442.821 726.6 443.858 730.89 441.561C737.058 438.255 741.488 430.467 735.684 426.573C730.161 427.077 724.442 427.553 719.199 425.677C713.984 423.828 709.386 418.925 709.779 413.406C701.48 411.501 693.966 420.55 685.471 419.709C676.528 418.813 668.425 407.299 660.911 412.202C660.743 406.683 660.211 400.856 657.042 396.345C653.874 391.835 647.118 389.37 642.632 392.564C637.445 385.42 633.212 377.548 630.156 369.256C644.706 368.191 650.79 350.43 653.314 336.059C646.052 336.451 638.707 333.397 633.856 327.99C632.847 326.87 631.838 325.553 630.352 325.217C629.959 325.133 629.539 325.161 629.146 325.273C629.314 325.637 629.455 326.029 629.539 326.478C630.856 327.234 628.165 329.055 627.576 327.654C627.156 326.618 628.053 325.609 629.146 325.273C627.268 321.267 619.95 322.332 615.969 325.413C611.624 328.775 606.072 333.285 601.418 330.344C603.269 330.764 604.278 327.738 602.988 326.338C601.699 324.937 599.512 324.909 597.633 325.105C589.615 325.945 581.849 329.055 575.485 333.958C576.298 327.458 569.878 321.071 563.373 321.911C562.924 315.468 562.42 309.053 561.887 302.609C557.682 302.609 553.504 302.637 549.299 302.637C548.598 298.94 546.804 295.438 544.252 292.692C534.496 303.898 521.655 312.386 507.525 316.953C504.16 320.202 512.179 324.181 512.375 328.859C512.487 331.997 509.039 333.901 506.095 335.022C497.852 338.216 489.581 341.409 481.339 344.575C481.058 340.793 480.806 337.039 480.526 333.257C476.376 330.848 471.33 330.008 466.62 331.016C466.9 341.802 460.76 352.503 451.312 357.714C447.555 347.965 439.032 340.205 428.995 337.403C428.35 341.802 427.705 346.2 427.089 350.57C420.36 348.385 415.005 342.474 413.435 335.61C407.267 344.015 400.79 352.167 394.006 360.067C386.099 353.568 378.193 347.068 370.287 340.597C364.568 335.891 355.316 331.436 350.718 337.263C348.895 339.588 348.727 342.726 347.942 345.555C344.522 357.854 328.737 367.155 332.606 379.313C335.382 388.081 347.045 391.135 350.802 399.539C354.138 407.019 350.493 417.272 356.437 422.931C363.362 429.514 374.52 422.483 380.66 415.199C383.324 427.441 380.801 440.692 373.932 451.198C374.072 451.674 373.876 452.43 373.539 451.842C373.679 451.646 373.792 451.394 373.932 451.198C373.848 450.917 373.679 450.721 373.343 450.917C372.446 451.45 372.866 452.85 373.399 453.747C377.24 460.218 381.109 466.69 384.95 473.189C387.529 477.503 390.249 481.985 394.538 484.563C398.127 486.72 402.445 487.308 406.538 488.149C419.154 490.726 431.182 496.161 441.443 503.921C443.994 497.197 446.742 490.306 451.789 485.207C456.835 480.108 464.825 477.195 471.414 480.108C478.143 483.078 482.993 491.566 490.226 490.362C481.002 492.435 474.33 502.408 475.956 511.709C483.834 508.935 493.422 515.827 493.31 524.175C493.282 527.06 492.301 530.086 493.535 532.691C495.693 537.37 502.45 536.837 507.441 535.521C505.17 541.656 503.544 548.043 502.618 554.515C500.544 554.122 498.441 553.702 496.366 553.31C495.133 555.803 493.899 558.296 492.665 560.79C480.161 558.801 467.825 555.747 455.826 551.629C451.676 550.789 449.602 556.924 451.032 560.902C452.461 564.88 455.545 568.634 454.873 572.836C447.135 573.62 440.63 580.848 440.63 588.608C439.845 589.28 439.088 589.925 438.303 590.597C437.21 593.398 438.247 596.872 440.658 598.665C444.135 601.242 449.518 600.29 452.574 603.344C454.844 605.613 454.985 609.311 456.975 611.832C459.05 614.437 462.611 615.25 465.835 616.006C481.759 619.76 496.927 626.764 510.076 636.457C507.637 642.087 510.693 648.727 515.179 652.901C519.664 657.075 525.412 659.596 530.43 663.126C539.823 669.738 546.243 679.683 552.411 689.348C559.756 700.833 567.102 712.319 574.447 723.805L572.261 720.92C575.569 739.605 605.063 740.558 613.614 757.507C617.231 764.678 616.25 773.195 617.539 781.095C618.829 789.023 624.38 797.735 632.398 797.203C636.211 796.951 639.66 794.542 643.501 794.43C647.005 794.317 650.258 796.138 653.314 797.903C663.603 803.87 673.92 809.837 684.21 815.804C671.93 818.578 656.117 827.458 660.911 839.112C662.257 842.39 665.089 844.771 667.808 847.04C675.771 853.652 683.733 860.235 691.667 866.847C694.275 873.878 685.696 882.058 678.771 879.089C684.77 892.228 687.041 907.019 685.303 921.363C682.331 918.001 676.331 919.514 673.724 923.183C671.117 926.825 670.92 931.616 670.808 936.126C670.584 946.884 674.537 961.787 685.219 960.471C677.677 971.452 696.013 984.731 693.462 997.814C692.116 1004.79 685.079 1009.44 683.228 1016.3C681.35 1023.19 685.135 1030.2 686.452 1037.23C689.34 1052.58 679.892 1068.16 667.079 1077.12C654.267 1086.09 638.623 1089.84 623.399 1093.4C620.287 1093.23 617.175 1093.06 614.063 1092.89C610.783 1099.42 610.726 1107.49 613.895 1114.1C605.484 1101.83 582.382 1106.54 579.494 1121.13C577.223 1114.86 566.765 1114.1 563.625 1119.98C560.485 1125.87 566.906 1134.13 573.41 1132.53C573.522 1138.39 573.747 1144.61 576.943 1149.51C580.167 1154.41 587.54 1157.08 592.054 1153.32C594.213 1157.13 594.802 1161.81 593.652 1166.01C588.045 1165.09 579.606 1167.61 580.587 1172.37C580.7 1172.74 580.868 1173.1 580.952 1173.49C580.756 1173.1 580.643 1172.74 580.587 1172.37C576.158 1158.76 555.439 1160.27 541.393 1165.14C536.851 1166.71 532.309 1168.28 527.767 1169.85C523.954 1165.42 515.739 1166.21 512.824 1171.28C509.908 1176.35 513.384 1183.83 519.132 1184.89C507.889 1188.93 496.647 1192.96 485.376 1196.97C481.675 1198.28 477.274 1200.55 477.302 1204.48C477.33 1206.97 479.18 1208.99 480.442 1211.11C483.47 1216.21 483.329 1222.83 486.834 1227.62C490.31 1232.41 500.488 1231.71 499.703 1225.82C507.749 1222.1 511.45 1235.96 509.431 1244.56C503.572 1269.38 497.712 1294.21 491.852 1319C495.161 1319.11 498.469 1319.22 501.805 1319.31C499.983 1325.69 496.983 1331.74 492.974 1337.07C513.104 1343.34 537.075 1332.64 545.878 1313.48C547.589 1309.73 548.85 1305.61 551.654 1302.58C554.514 1299.5 558.579 1297.96 562.504 1296.5C574.111 1292.19 585.69 1287.85 597.297 1283.53C598.082 1267.84 590.849 1251.93 578.541 1242.18C588.858 1243.16 595.783 1252.72 603.101 1260.06C610.418 1267.4 623.006 1272.97 630.492 1265.8C630.969 1258.12 627.688 1250.48 622.165 1245.15C618.521 1244.48 615.128 1242.58 613.109 1239.44C616.502 1240.64 619.586 1242.63 622.165 1245.15C626.259 1245.91 630.688 1245.07 633.828 1242.29C632.567 1238.43 631.277 1234.56 630.015 1230.7C633.464 1234.98 640.697 1230.98 642.856 1225.91C644.987 1220.84 645.099 1214.67 648.912 1210.69C651.155 1208.34 654.351 1207.19 657.435 1206.13C681.238 1197.92 705.489 1190.97 730.049 1185.34C729.18 1176.94 738.095 1170.97 746.17 1168.48C754.244 1165.96 763.608 1164.19 768.122 1157.05C770.87 1152.68 771.599 1146.6 776.113 1144.16C779.982 1142.09 785 1143.71 788.925 1141.78C793.888 1139.34 794.729 1132.87 796.327 1127.6C797.925 1122.34 803.42 1116.68 808.13 1119.56C813.317 1104.27 812.868 1087.12 806.868 1072.14C811.074 1072.67 814.046 1067.32 812.896 1063.26C811.775 1059.17 808.186 1056.34 804.822 1053.76C807.738 1048.44 816.793 1048.32 819.849 1053.56C824.195 1045.77 823.158 1036.22 822.008 1027.37C819.008 1004.51 816.064 981.818 813.093 959.126Z"/>
</mask>
<path d="M813.093 959.126L815.076 958.866L815.007 958.34L814.686 957.918L813.093 959.126ZM784.383 876.792L786.28 876.157L786.279 876.153L784.383 876.792ZM778.271 861.356L780.091 860.526L780.087 860.518L778.271 861.356ZM687.097 760.056L688.367 758.511L688.367 758.51L687.097 760.056ZM641.763 722.797L640.492 724.341L640.493 724.342L641.763 722.797ZM625.025 675.509L626.436 676.926L628.293 675.078L626.02 673.774L625.025 675.509ZM564.663 609.563L565.047 607.6L561.209 606.849L562.847 610.4L564.663 609.563ZM573.55 594.547L575.55 594.53V594.529L573.55 594.547ZM586.699 540.255L586.899 538.265L585.559 538.13L584.93 539.322L586.699 540.255ZM626.511 497.113L625.956 495.192L624.217 495.694L624.544 497.474L626.511 497.113ZM629.399 470.023L628.302 468.35L625.488 470.195L628.453 471.786L629.399 470.023ZM640.837 470.724L642.835 470.634L642.797 469.768L642.137 469.204L640.837 470.724ZM663.743 490.138L664.682 491.904L665.73 491.347L665.743 490.16L663.743 490.138ZM657.463 476.887L656.921 474.962L653.175 476.016L656.213 478.448L657.463 476.887ZM692.677 466.97L693.22 468.895L694.068 468.655L694.464 467.868L692.677 466.97ZM684.49 449.153L683.514 447.407L679.108 449.87L684.005 451.093L684.49 449.153ZM716.535 442.373L716.72 440.382L716.717 440.381L716.535 442.373ZM730.89 441.561L731.834 443.324L731.835 443.323L730.89 441.561ZM735.684 426.573L736.799 424.912L736.209 424.517L735.502 424.581L735.684 426.573ZM719.199 425.677L719.873 423.794L719.867 423.792L719.199 425.677ZM709.779 413.406L711.774 413.548L711.895 411.84L710.226 411.457L709.779 413.406ZM685.471 419.709L685.272 421.699L685.274 421.7L685.471 419.709ZM660.911 412.202L658.912 412.263L659.021 415.823L662.004 413.877L660.911 412.202ZM642.632 392.564L641.013 393.739L642.178 395.342L643.792 394.193L642.632 392.564ZM630.156 369.256L630.01 367.261L627.36 367.455L628.279 369.947L630.156 369.256ZM653.314 336.059L655.283 336.404L655.719 333.926L653.206 334.062L653.314 336.059ZM633.856 327.99L635.345 326.655L635.342 326.652L633.856 327.99ZM630.352 325.217L630.793 323.266L630.782 323.264L630.771 323.261L630.352 325.217ZM629.539 326.478L627.573 326.847L627.743 327.753L628.543 328.212L629.539 326.478ZM627.576 327.654L625.723 328.406L625.728 328.418L625.732 328.429L627.576 327.654ZM615.969 325.413L617.193 326.995L617.193 326.995L615.969 325.413ZM601.418 330.344L601.861 328.393L600.35 332.034L601.418 330.344ZM597.633 325.105L597.426 323.116L597.425 323.116L597.633 325.105ZM575.485 333.958L573.5 333.709L572.905 338.47L576.705 335.542L575.485 333.958ZM563.373 321.911L561.378 322.05L561.525 324.167L563.629 323.895L563.373 321.911ZM561.887 302.609L563.88 302.445L563.729 300.609H561.887V302.609ZM549.299 302.637L547.334 303.01L547.642 304.637H549.299V302.637ZM544.252 292.692L545.717 291.331L544.204 289.702L542.744 291.379L544.252 292.692ZM507.525 316.953L506.91 315.05L506.469 315.192L506.135 315.514L507.525 316.953ZM512.375 328.859L514.374 328.787L514.373 328.775L512.375 328.859ZM506.095 335.022L505.383 333.153L505.372 333.157L506.095 335.022ZM481.339 344.575L479.344 344.723L479.543 347.407L482.056 346.442L481.339 344.575ZM480.526 333.257L482.52 333.109L482.442 332.057L481.53 331.528L480.526 333.257ZM466.62 331.016L466.201 329.06L464.577 329.408L464.62 331.068L466.62 331.016ZM451.312 357.714L449.446 358.433L450.27 360.572L452.278 359.465L451.312 357.714ZM428.995 337.403L429.533 335.477L427.346 334.866L427.016 337.113L428.995 337.403ZM427.089 350.57L426.471 352.472L428.736 353.208L429.069 350.85L427.089 350.57ZM413.435 335.61L415.385 335.164L414.41 330.902L411.823 334.427L413.435 335.61ZM394.006 360.067L392.736 361.612L394.248 362.855L395.523 361.37L394.006 360.067ZM370.287 340.597L369.016 342.141L369.02 342.145L370.287 340.597ZM350.718 337.263L349.148 336.024L349.143 336.029L350.718 337.263ZM347.942 345.555L349.869 346.091L349.869 346.09L347.942 345.555ZM332.606 379.313L334.513 378.709L334.512 378.706L332.606 379.313ZM350.802 399.539L352.628 398.724L352.628 398.723L350.802 399.539ZM356.437 422.931L355.058 424.38L355.059 424.381L356.437 422.931ZM380.66 415.199L382.615 414.774L381.751 410.803L379.131 413.91L380.66 415.199ZM373.539 451.842L371.912 450.679L371.167 451.722L371.803 452.835L373.539 451.842ZM373.343 450.917L372.336 449.19L372.329 449.193L372.322 449.197L373.343 450.917ZM373.399 453.747L375.119 452.726L375.118 452.725L373.399 453.747ZM384.95 473.189L383.228 474.206L383.233 474.215L384.95 473.189ZM394.538 484.563L395.569 482.849L395.568 482.848L394.538 484.563ZM406.538 488.149L406.136 490.108L406.138 490.108L406.538 488.149ZM441.443 503.921L440.237 505.516L442.366 507.126L443.313 504.63L441.443 503.921ZM471.414 480.108L470.605 481.938L470.606 481.938L471.414 480.108ZM490.226 490.362L490.665 492.313L489.898 488.389L490.226 490.362ZM475.956 511.709L473.986 512.053L474.392 514.379L476.62 513.595L475.956 511.709ZM493.31 524.175L491.311 524.148L491.31 524.156L493.31 524.175ZM493.535 532.691L495.351 531.853L495.346 531.844L495.342 531.835L493.535 532.691ZM507.441 535.521L509.316 536.215L510.653 532.605L506.93 533.587L507.441 535.521ZM502.618 554.515L502.247 556.48L504.302 556.868L504.598 554.798L502.618 554.515ZM496.366 553.31L496.738 551.345L495.247 551.063L494.574 552.423L496.366 553.31ZM492.665 560.79L492.351 562.765L493.805 562.996L494.458 561.677L492.665 560.79ZM455.826 551.629L456.475 549.737L456.351 549.695L456.223 549.669L455.826 551.629ZM454.873 572.836L455.074 574.826L456.604 574.671L456.847 573.152L454.873 572.836ZM440.63 588.608L441.931 590.127L442.63 589.528V588.608H440.63ZM438.303 590.597L437.002 589.078L436.622 589.404L436.44 589.87L438.303 590.597ZM440.658 598.665L439.465 600.27L439.467 600.272L440.658 598.665ZM456.975 611.832L455.406 613.071L455.411 613.078L456.975 611.832ZM465.835 616.006L466.294 614.059L466.292 614.059L465.835 616.006ZM510.076 636.457L511.911 637.251L512.544 635.791L511.263 634.847L510.076 636.457ZM530.43 663.126L531.582 661.491L531.581 661.49L530.43 663.126ZM552.411 689.348L550.725 690.424L550.726 690.425L552.411 689.348ZM574.447 723.805L572.853 725.013L576.132 722.728L574.447 723.805ZM572.261 720.92L573.855 719.712L570.291 721.268L572.261 720.92ZM613.614 757.507L615.4 756.606L615.4 756.606L613.614 757.507ZM617.539 781.095L619.513 780.773L619.513 780.772L617.539 781.095ZM632.398 797.203L632.267 795.207L632.266 795.207L632.398 797.203ZM643.501 794.43L643.559 796.429L643.565 796.428L643.501 794.43ZM653.314 797.903L654.317 796.173L654.314 796.171L653.314 797.903ZM684.21 815.804L684.65 817.755L689.623 816.632L685.213 814.074L684.21 815.804ZM660.911 839.112L662.762 838.353L662.761 838.352L660.911 839.112ZM667.808 847.04L666.527 848.576L666.531 848.579L667.808 847.04ZM691.667 866.847L693.542 866.151L693.357 865.651L692.948 865.31L691.667 866.847ZM678.771 879.089L679.559 877.251L674.801 875.21L676.951 879.92L678.771 879.089ZM685.303 921.363L683.805 922.687L686.753 926.022L687.288 921.603L685.303 921.363ZM673.724 923.183L675.35 924.348L675.354 924.342L673.724 923.183ZM670.808 936.126L668.809 936.076L668.809 936.084L670.808 936.126ZM685.219 960.471L686.868 961.603L689.381 957.942L684.974 958.486L685.219 960.471ZM693.462 997.814L691.499 997.431L691.498 997.435L693.462 997.814ZM683.228 1016.3L685.158 1016.83L685.159 1016.82L683.228 1016.3ZM686.452 1037.23L684.487 1037.6L684.487 1037.6L686.452 1037.23ZM623.399 1093.4L623.291 1095.4L623.576 1095.41L623.854 1095.35L623.399 1093.4ZM614.063 1092.89L614.171 1090.9L612.863 1090.83L612.276 1092L614.063 1092.89ZM613.895 1114.1L612.245 1115.23L615.698 1113.24L613.895 1114.1ZM579.494 1121.13L577.613 1121.81L580.06 1128.58L581.456 1121.52L579.494 1121.13ZM573.41 1132.53L575.41 1132.5L575.362 1130L572.933 1130.59L573.41 1132.53ZM576.943 1149.51L575.267 1150.6L575.272 1150.61L576.943 1149.51ZM592.054 1153.32L593.794 1152.34L592.615 1150.25L590.775 1151.78L592.054 1153.32ZM593.652 1166.01L593.327 1167.99L595.106 1168.28L595.581 1166.54L593.652 1166.01ZM580.952 1173.49L579.163 1174.39L582.907 1173.07L580.952 1173.49ZM541.393 1165.14L542.046 1167.03L542.048 1167.03L541.393 1165.14ZM527.767 1169.85L526.252 1171.16L527.137 1172.18L528.42 1171.74L527.767 1169.85ZM519.132 1184.89L519.807 1186.78L526.776 1184.28L519.496 1182.93L519.132 1184.89ZM485.376 1196.97L484.706 1195.08L484.706 1195.08L485.376 1196.97ZM477.302 1204.48L475.302 1204.49L475.302 1204.5L477.302 1204.48ZM480.442 1211.11L478.721 1212.13L478.722 1212.14L480.442 1211.11ZM486.834 1227.62L488.453 1226.44L488.448 1226.43L486.834 1227.62ZM499.703 1225.82L498.862 1224.01L497.525 1224.63L497.72 1226.09L499.703 1225.82ZM509.431 1244.56L511.378 1245.02L511.378 1245.02L509.431 1244.56ZM491.852 1319L489.906 1318.54L489.344 1320.91L491.785 1321L491.852 1319ZM501.805 1319.31L503.729 1319.86L504.437 1317.37L501.856 1317.31L501.805 1319.31ZM492.974 1337.07L491.376 1335.86L489.668 1338.13L492.379 1338.98L492.974 1337.07ZM545.878 1313.48L547.696 1314.31L547.698 1314.31L545.878 1313.48ZM551.654 1302.58L550.188 1301.22L550.187 1301.22L551.654 1302.58ZM562.504 1296.5L563.2 1298.38L563.201 1298.38L562.504 1296.5ZM597.297 1283.53L597.994 1285.41L599.229 1284.95L599.295 1283.63L597.297 1283.53ZM578.541 1242.18L578.73 1240.19L571.998 1239.55L577.299 1243.75L578.541 1242.18ZM630.492 1265.8L631.876 1267.24L632.44 1266.7L632.488 1265.92L630.492 1265.8ZM613.109 1239.44L613.779 1237.55L608.257 1235.59L611.428 1240.52L613.109 1239.44ZM633.828 1242.29L635.152 1243.79L636.137 1242.92L635.73 1241.67L633.828 1242.29ZM630.015 1230.7L631.574 1229.44L628.114 1231.32L630.015 1230.7ZM642.856 1225.91L644.696 1226.69L644.7 1226.68L642.856 1225.91ZM648.912 1210.69L650.356 1212.08L650.36 1212.07L648.912 1210.69ZM657.435 1206.13L656.783 1204.24L656.782 1204.24L657.435 1206.13ZM730.049 1185.34L730.496 1187.29L732.22 1186.9L732.038 1185.14L730.049 1185.34ZM746.17 1168.48L746.76 1170.39L746.766 1170.39L746.17 1168.48ZM768.122 1157.05L769.813 1158.12L769.815 1158.11L768.122 1157.05ZM776.113 1144.16L775.168 1142.4L775.162 1142.4L776.113 1144.16ZM788.925 1141.78L788.044 1139.98L788.042 1139.99L788.925 1141.78ZM808.13 1119.56L807.085 1121.27L809.22 1122.58L810.024 1120.21L808.13 1119.56ZM806.868 1072.14L807.12 1070.15L803.749 1069.73L805.012 1072.88L806.868 1072.14ZM812.896 1063.26L810.967 1063.78L810.97 1063.79L810.972 1063.8L812.896 1063.26ZM804.822 1053.76L803.068 1052.8L802.243 1054.3L803.606 1055.35L804.822 1053.76ZM819.849 1053.56L818.122 1054.57L819.888 1057.6L821.596 1054.54L819.849 1053.56ZM822.008 1027.37L823.991 1027.11L823.991 1027.11L822.008 1027.37ZM814.686 957.918C806.077 946.561 801.301 933.212 797.516 919.09C793.771 905.117 790.938 890.077 786.28 876.157L782.487 877.426C787.109 891.24 789.785 905.699 793.652 920.126C797.479 934.404 802.417 948.354 811.499 960.334L814.686 957.918ZM786.279 876.153C784.49 870.847 782.418 865.629 780.091 860.526L776.452 862.185C778.723 867.168 780.744 872.259 782.488 877.431L786.279 876.153ZM780.087 860.518C760.659 818.405 723.716 787.568 688.367 758.511L685.827 761.601C721.298 790.758 757.474 821.048 776.455 862.194L780.087 860.518ZM688.367 758.51C680.811 752.306 673.256 746.094 665.7 739.881C658.144 733.669 650.588 727.457 643.032 721.251L640.493 724.342C648.049 730.547 655.604 736.759 663.16 742.971C670.716 749.183 678.272 755.396 685.828 761.601L688.367 758.51ZM643.034 721.253C635.658 715.182 628.47 709.161 624.429 701.113L620.854 702.907C625.337 711.836 633.232 718.365 640.492 724.341L643.034 721.253ZM624.429 701.113C620.397 693.081 620.537 682.795 626.436 676.926L623.614 674.091C616.055 681.613 616.364 693.963 620.854 702.907L624.429 701.113ZM626.02 673.774C600.11 658.908 578.977 635.83 566.479 608.725L562.847 610.4C575.693 638.26 597.4 661.965 624.03 677.243L626.02 673.774ZM564.279 611.526C566.469 611.954 568.411 611.473 570.004 610.331C571.534 609.234 572.631 607.611 573.417 605.891C574.984 602.462 575.58 598.07 575.55 594.53L571.55 594.564C571.577 597.748 571.023 601.507 569.779 604.228C569.16 605.583 568.437 606.533 567.673 607.08C566.973 607.582 566.151 607.816 565.047 607.6L564.279 611.526ZM575.55 594.529C575.385 576.06 579.849 557.534 588.468 541.188L584.93 539.322C575.999 556.258 571.379 575.439 571.55 594.565L575.55 594.529ZM586.499 542.245C598.532 543.455 610.095 537.899 618.073 529.254C626.052 520.609 630.661 508.643 628.478 496.752L624.544 497.474C626.454 507.883 622.442 518.622 615.134 526.541C607.825 534.46 597.436 539.325 586.899 538.265L586.499 542.245ZM627.066 499.035C633.669 497.128 637.303 490.837 637.965 484.631C638.627 478.426 636.402 471.511 630.344 468.261L628.453 471.786C632.629 474.026 634.538 479.046 633.988 484.207C633.437 489.368 630.511 493.877 625.956 495.192L627.066 499.035ZM630.495 471.696C633.182 469.935 637.111 470.168 639.538 472.244L642.137 469.204C638.34 465.956 632.456 465.629 628.302 468.35L630.495 471.696ZM638.839 470.813C639.131 477.344 642.479 484.078 647.171 488.467C651.87 492.864 658.377 495.254 664.682 491.904L662.804 488.372C658.567 490.624 653.888 489.274 649.903 485.546C645.911 481.812 643.077 476.037 642.835 470.634L638.839 470.813ZM665.743 490.16C665.806 484.502 663.146 478.876 658.713 475.326L656.213 478.448C659.686 481.229 661.792 485.688 661.743 490.115L665.743 490.16ZM658.005 478.812C669.752 475.506 681.5 472.2 693.22 468.895L692.134 465.045C680.415 468.35 668.668 471.656 656.921 474.962L658.005 478.812ZM694.464 467.868C696.469 463.877 696.155 459.23 694.396 455.399C692.637 451.567 689.317 448.297 684.975 447.212L684.005 451.093C686.953 451.829 689.408 454.12 690.761 457.068C692.114 460.016 692.249 463.367 690.889 466.072L694.464 467.868ZM685.466 450.898C694.783 445.69 705.706 443.393 716.354 444.365L716.717 440.381C705.272 439.336 693.542 441.801 683.514 447.407L685.466 450.898ZM716.351 444.365C718.625 444.575 721.348 444.967 723.9 444.996C726.516 445.026 729.273 444.695 731.834 443.324L729.946 439.798C728.217 440.723 726.222 441.023 723.946 440.997C721.605 440.97 719.296 440.62 716.72 440.382L716.351 444.365ZM731.835 443.323C735.259 441.488 738.274 438.388 739.63 435.038C740.316 433.344 740.62 431.476 740.2 429.646C739.772 427.774 738.631 426.142 736.799 424.912L734.57 428.234C735.639 428.951 736.121 429.753 736.301 430.539C736.491 431.368 736.39 432.384 735.923 433.537C734.973 435.881 732.689 438.328 729.945 439.798L731.835 443.323ZM735.502 424.581C729.906 425.092 724.633 425.498 719.873 423.794L718.525 427.559C724.25 429.609 730.416 429.062 735.866 428.565L735.502 424.581ZM719.867 423.792C715.146 422.118 711.468 417.844 711.774 413.548L707.784 413.264C707.304 420.007 712.822 425.538 718.531 427.562L719.867 423.792ZM710.226 411.457C705.29 410.324 700.704 412.488 696.83 414.357C692.684 416.357 689.239 418.072 685.668 417.719L685.274 421.7C690.198 422.187 694.758 419.798 698.568 417.96C702.649 415.991 705.969 414.584 709.331 415.356L710.226 411.457ZM685.671 417.719C683.811 417.533 681.896 416.781 679.852 415.701C677.748 414.588 675.847 413.325 673.662 412.053C669.655 409.719 664.694 407.346 659.819 410.527L662.004 413.877C664.643 412.155 667.49 413.087 671.649 415.509C673.546 416.614 675.817 418.092 677.982 419.237C680.208 420.414 682.659 421.438 685.272 421.699L685.671 417.719ZM662.91 412.141C662.743 406.636 662.226 400.245 658.679 395.196L655.406 397.495C658.195 401.466 658.744 406.73 658.912 412.263L662.91 412.141ZM658.679 395.196C656.826 392.558 653.962 390.552 650.897 389.647C647.824 388.74 644.338 388.893 641.472 390.934L643.792 394.193C645.411 393.04 647.546 392.829 649.765 393.484C651.993 394.141 654.09 395.622 655.406 397.495L658.679 395.196ZM644.25 391.389C639.169 384.39 635.023 376.68 632.032 368.564L628.279 369.947C631.4 378.415 635.721 386.45 641.013 393.739L644.25 391.389ZM630.302 371.25C638.496 370.651 644.146 365.323 647.98 358.643C651.804 351.978 654.006 343.681 655.283 336.404L651.344 335.713C650.098 342.807 647.997 350.576 644.51 356.652C641.033 362.711 636.366 366.796 630.01 367.261L630.302 371.25ZM653.206 334.062C646.551 334.421 639.792 331.612 635.345 326.655L632.368 329.326C637.621 335.183 645.554 338.481 653.421 338.056L653.206 334.062ZM635.342 326.652C634.915 326.178 634.29 325.429 633.626 324.828C632.926 324.194 632.001 323.54 630.793 323.266L629.91 327.168C630.189 327.231 630.511 327.403 630.94 327.792C631.404 328.212 631.788 328.683 632.37 329.329L635.342 326.652ZM630.771 323.261C630.011 323.099 629.255 323.162 628.597 323.35L629.695 327.196C629.822 327.16 629.908 327.167 629.933 327.173L630.771 323.261ZM627.331 326.112C627.445 326.359 627.525 326.593 627.573 326.847L631.504 326.109C631.384 325.466 631.184 324.915 630.962 324.434L627.331 326.112ZM628.543 328.212C628.432 328.149 628.18 327.965 628.02 327.593C627.855 327.209 627.883 326.845 627.954 326.605C628.019 326.389 628.116 326.27 628.144 326.238C628.179 326.198 628.197 326.189 628.189 326.193C628.14 326.225 628.196 326.16 628.408 326.17C628.537 326.176 628.75 326.214 628.974 326.36C629.21 326.513 629.352 326.716 629.42 326.879L625.732 328.429C626.218 329.585 627.246 330.121 628.225 330.166C629.066 330.204 629.823 329.899 630.355 329.556C630.858 329.233 631.521 328.64 631.787 327.75C631.935 327.255 631.962 326.635 631.694 326.013C631.431 325.402 630.975 324.996 630.534 324.743L628.543 328.212ZM629.43 326.902C629.466 326.993 629.482 327.113 629.462 327.23C629.444 327.334 629.408 327.382 629.411 327.378C629.414 327.373 629.443 327.338 629.509 327.293C629.573 327.248 629.652 327.21 629.734 327.185L628.559 323.361C627.655 323.639 626.772 324.205 626.176 325.024C625.551 325.884 625.2 327.118 625.723 328.406L629.43 326.902ZM630.957 324.424C629.491 321.298 626.084 320.521 623.229 320.689C620.279 320.862 617.066 322.035 614.745 323.832L617.193 326.995C618.854 325.709 621.289 324.81 623.464 324.682C625.732 324.548 626.923 325.242 627.335 326.122L630.957 324.424ZM614.745 323.831C612.508 325.562 610.228 327.366 607.959 328.432C605.726 329.481 603.979 329.596 602.487 328.653L600.35 332.034C603.512 334.033 606.868 333.364 609.66 332.052C612.417 330.758 615.085 328.626 617.193 326.995L614.745 323.831ZM600.975 332.294C603.317 332.826 604.77 331.046 605.259 329.712C605.754 328.363 605.761 326.396 604.46 324.983L601.517 327.692C601.503 327.677 601.545 327.712 601.562 327.856C601.58 328.003 601.56 328.18 601.503 328.335C601.443 328.499 601.387 328.52 601.44 328.481C601.474 328.457 601.539 328.419 601.633 328.398C601.731 328.376 601.813 328.382 601.861 328.393L600.975 332.294ZM604.46 324.983C603.418 323.851 602.079 323.353 600.861 323.15C599.656 322.948 598.431 323.011 597.426 323.116L597.841 327.094C598.714 327.003 599.522 326.981 600.202 327.095C600.87 327.207 601.269 327.423 601.517 327.692L604.46 324.983ZM597.425 323.116C589.038 323.995 580.922 327.245 574.264 332.373L576.705 335.542C582.776 330.865 590.192 327.896 597.842 327.094L597.425 323.116ZM577.469 334.206C577.968 330.222 576.245 326.412 573.583 323.764C570.921 321.116 567.101 319.413 563.117 319.928L563.629 323.895C566.149 323.569 568.792 324.64 570.763 326.6C572.734 328.561 573.815 331.194 573.5 333.709L577.469 334.206ZM565.368 321.772C564.919 315.318 564.413 308.893 563.88 302.445L559.894 302.774C560.426 309.213 560.93 315.619 561.378 322.05L565.368 321.772ZM561.887 300.609C559.781 300.609 557.681 300.616 555.586 300.623C553.49 300.63 551.398 300.637 549.299 300.637V304.637C551.405 304.637 553.505 304.63 555.6 304.623C557.696 304.616 559.788 304.609 561.887 304.609V300.609ZM551.264 302.265C550.491 298.19 548.52 294.347 545.717 291.331L542.787 294.054C545.087 296.529 546.704 299.689 547.334 303.01L551.264 302.265ZM542.744 291.379C533.225 302.311 520.693 310.595 506.91 315.05L508.14 318.856C522.617 314.178 535.766 305.485 545.761 294.006L542.744 291.379ZM506.135 315.514C505.492 316.136 505.02 316.878 504.814 317.741C504.609 318.599 504.705 319.413 504.926 320.122C505.337 321.439 506.277 322.662 507.061 323.629C507.94 324.715 508.741 325.615 509.401 326.597C510.05 327.563 510.351 328.318 510.377 328.943L514.373 328.775C514.301 327.061 513.526 325.564 512.721 324.366C511.928 323.186 510.898 322.011 510.169 321.111C509.344 320.093 508.897 319.419 508.745 318.931C508.684 318.737 508.704 318.67 508.705 318.67C508.706 318.664 508.711 318.644 508.735 318.604C508.76 318.562 508.812 318.49 508.914 318.391L506.135 315.514ZM510.376 328.93C510.402 329.649 510.054 330.37 509.104 331.157C508.139 331.958 506.781 332.621 505.383 333.153L506.806 336.891C508.353 336.303 510.191 335.453 511.658 334.236C513.14 333.007 514.46 331.207 514.374 328.787L510.376 328.93ZM505.372 333.157C497.131 336.35 488.862 339.543 480.622 342.708L482.056 346.442C490.301 343.276 498.573 340.081 506.817 336.887L505.372 333.157ZM483.333 344.427C483.193 342.54 483.061 340.66 482.927 338.775C482.794 336.892 482.661 335.004 482.52 333.109L478.531 333.405C478.671 335.292 478.804 337.173 478.937 339.057C479.07 340.94 479.204 342.828 479.344 344.723L483.333 344.427ZM481.53 331.528C476.96 328.874 471.407 327.946 466.201 329.06L467.038 332.972C471.253 332.069 475.793 332.822 479.522 334.987L481.53 331.528ZM464.62 331.068C464.881 341.106 459.141 351.112 450.346 355.962L452.278 359.465C462.38 353.894 468.919 342.497 468.619 330.964L464.62 331.068ZM453.178 356.995C449.195 346.658 440.181 338.449 429.533 335.477L428.457 339.33C437.883 341.961 445.915 349.271 449.446 358.433L453.178 356.995ZM427.016 337.113C426.371 341.511 425.726 345.914 425.108 350.291L429.069 350.85C429.685 346.486 430.329 342.093 430.974 337.693L427.016 337.113ZM427.706 348.668C421.653 346.702 416.799 341.348 415.385 335.164L411.485 336.056C413.211 343.599 419.067 350.068 426.471 352.472L427.706 348.668ZM411.823 334.427C405.685 342.79 399.24 350.903 392.488 358.764L395.523 361.37C402.341 353.431 408.849 345.239 415.047 336.794L411.823 334.427ZM395.276 358.522C387.37 352.023 379.462 345.522 371.554 339.049L369.02 342.145C376.925 348.614 384.829 355.112 392.736 361.612L395.276 358.522ZM371.558 339.053C368.569 336.594 364.575 334.122 360.603 333.049C356.622 331.973 352.154 332.215 349.148 336.024L352.288 338.502C353.879 336.485 356.337 336.04 359.56 336.911C362.794 337.785 366.285 339.894 369.016 342.141L371.558 339.053ZM349.143 336.029C347.982 337.511 347.399 339.188 347.004 340.721C346.807 341.487 346.645 342.266 346.494 342.978C346.339 343.708 346.193 344.38 346.015 345.021L349.869 346.09C350.084 345.317 350.253 344.535 350.407 343.808C350.565 343.064 350.707 342.382 350.878 341.719C351.219 340.395 351.631 339.34 352.292 338.497L349.143 336.029ZM346.015 345.02C345.245 347.788 343.755 350.466 341.905 353.183C340.005 355.974 337.97 358.478 335.92 361.315C332.036 366.689 328.438 372.811 330.7 379.919L334.512 378.706C332.905 373.656 335.265 369.049 339.162 363.658C341.001 361.113 343.311 358.226 345.212 355.434C347.163 352.569 348.929 349.472 349.869 346.091L346.015 345.02ZM330.699 379.916C332.302 384.979 336.444 388.285 340.106 391.14C343.966 394.149 347.343 396.703 348.976 400.355L352.628 398.723C350.504 393.971 346.171 390.796 342.566 387.985C338.763 385.02 335.686 382.415 334.513 378.709L330.699 379.916ZM348.975 400.354C350.452 403.664 350.381 407.572 350.645 412.036C350.894 416.235 351.467 420.961 355.058 424.38L357.816 421.483C355.463 419.243 354.887 416.012 354.638 411.8C354.405 407.852 354.488 402.894 352.628 398.724L348.975 400.354ZM355.059 424.381C359.328 428.439 364.81 428.115 369.613 426.111C374.405 424.112 378.974 420.303 382.19 416.488L379.131 413.91C376.207 417.379 372.127 420.728 368.073 422.42C364.031 424.106 360.471 424.006 357.815 421.482L355.059 424.381ZM378.706 415.624C381.254 427.334 378.839 440.038 372.258 450.103L375.606 452.292C382.763 441.346 385.394 427.549 382.615 414.774L378.706 415.624ZM372.013 451.762C371.978 451.642 371.977 451.562 371.978 451.521C371.978 451.497 371.982 451.355 372.07 451.144C372.113 451.042 372.226 450.802 372.477 450.566C372.761 450.299 373.256 450.017 373.9 450.061C374.485 450.102 374.863 450.392 375.021 450.538C375.184 450.69 375.261 450.824 375.275 450.849L371.803 452.835C371.902 453.007 372.058 453.246 372.296 453.467C372.529 453.683 372.976 454.007 373.625 454.052C374.332 454.1 374.884 453.794 375.219 453.479C375.521 453.194 375.678 452.883 375.758 452.694C375.92 452.308 375.967 451.924 375.976 451.643C375.985 451.345 375.956 450.992 375.85 450.633L372.013 451.762ZM375.166 453.005C375.311 452.803 375.427 452.593 375.478 452.501C375.553 452.368 375.563 452.355 375.559 452.361L372.305 450.035C372.16 450.236 372.044 450.447 371.993 450.539C371.918 450.671 371.908 450.685 371.912 450.679L375.166 453.005ZM375.847 450.622C375.769 450.362 375.526 449.645 374.797 449.186C373.849 448.59 372.883 448.871 372.336 449.19L374.35 452.645C374.257 452.699 374.037 452.809 373.714 452.834C373.357 452.86 372.986 452.773 372.667 452.572C372.376 452.388 372.214 452.167 372.137 452.038C372.059 451.908 372.026 451.807 372.016 451.773L375.847 450.622ZM372.322 449.197C370.902 450.04 370.746 451.52 370.847 452.42C370.949 453.322 371.324 454.17 371.68 454.769L375.118 452.725C375.04 452.594 374.966 452.443 374.91 452.295C374.853 452.142 374.829 452.031 374.822 451.972C374.815 451.904 374.836 451.977 374.782 452.129C374.753 452.212 374.703 452.311 374.623 452.41C374.543 452.51 374.451 452.586 374.363 452.638L372.322 449.197ZM371.679 454.768C375.525 461.248 379.388 467.708 383.228 474.206L386.672 472.171C382.83 465.671 378.955 459.189 375.119 452.726L371.679 454.768ZM383.233 474.215C385.763 478.447 388.717 483.398 393.508 486.277L395.568 482.848C391.78 480.572 389.295 476.559 386.667 472.163L383.233 474.215ZM393.508 486.277C397.472 488.659 402.256 489.311 406.136 490.108L406.94 486.189C402.634 485.305 398.782 484.78 395.569 482.849L393.508 486.277ZM406.138 490.108C418.462 492.626 430.214 497.936 440.237 505.516L442.65 502.325C432.15 494.385 419.847 488.826 406.938 486.189L406.138 490.108ZM443.313 504.63C445.883 497.858 448.505 491.367 453.21 486.614L450.367 483.8C444.979 489.244 442.106 496.536 439.573 503.211L443.313 504.63ZM453.21 486.614C457.904 481.871 465.038 479.476 470.605 481.938L472.223 478.279C464.613 474.914 455.766 478.346 450.367 483.8L453.21 486.614ZM470.606 481.938C472.061 482.58 473.472 483.547 474.936 484.703C475.665 485.278 476.387 485.883 477.13 486.507C477.865 487.124 478.623 487.761 479.389 488.368C482.388 490.743 486.022 493.089 490.555 492.334L489.898 488.389C487.197 488.839 484.79 487.543 481.873 485.233C481.16 484.668 480.447 484.069 479.702 483.443C478.965 482.825 478.198 482.182 477.414 481.563C475.85 480.329 474.131 479.121 472.221 478.279L470.606 481.938ZM489.788 488.41C479.526 490.717 472.175 501.697 473.986 512.053L477.926 511.364C476.484 503.119 482.478 494.153 490.665 492.313L489.788 488.41ZM476.62 513.595C479.812 512.471 483.502 513.269 486.462 515.395C489.423 517.522 491.356 520.765 491.311 524.148L495.31 524.202C495.377 519.236 492.572 514.86 488.796 512.147C485.021 509.434 479.978 508.172 475.292 509.822L476.62 513.595ZM491.31 524.156C491.304 524.776 491.247 525.427 491.171 526.148C491.098 526.84 491.004 527.634 490.954 528.407C490.852 529.963 490.891 531.782 491.727 533.547L495.342 531.835C494.944 530.995 494.858 529.999 494.945 528.669C494.989 527.999 495.069 527.333 495.149 526.565C495.227 525.826 495.302 525.017 495.31 524.194L491.31 524.156ZM491.719 533.529C493.208 536.758 496.256 538.014 499.205 538.342C502.137 538.668 505.347 538.142 507.951 537.455L506.93 533.587C504.544 534.217 501.88 534.615 499.647 534.366C497.43 534.12 496.02 533.304 495.351 531.853L491.719 533.529ZM505.565 534.827C503.245 541.093 501.584 547.618 500.639 554.231L504.598 554.798C505.503 548.468 507.094 542.219 509.316 536.215L505.565 534.827ZM502.99 552.549C501.959 552.354 500.919 552.152 499.874 551.949C498.831 551.746 497.781 551.542 496.738 551.345L495.995 555.275C497.026 555.47 498.065 555.672 499.111 555.875C500.154 556.078 501.204 556.283 502.247 556.48L502.99 552.549ZM494.574 552.423C493.957 553.67 493.34 554.916 492.723 556.163C492.107 557.41 491.49 558.656 490.873 559.903L494.458 561.677C495.075 560.43 495.692 559.183 496.308 557.937C496.925 556.69 497.542 555.443 498.159 554.197L494.574 552.423ZM492.98 558.815C480.587 556.843 468.364 553.817 456.475 549.737L455.177 553.521C467.287 557.677 479.735 560.758 492.351 562.765L492.98 558.815ZM456.223 549.669C452.842 548.984 450.561 551.286 449.51 553.644C448.459 556.002 448.246 559.065 449.149 561.578L452.914 560.225C452.387 558.761 452.497 556.767 453.163 555.273C453.829 553.779 454.66 553.434 455.429 553.589L456.223 549.669ZM449.149 561.578C449.547 562.684 450.049 563.748 450.534 564.735C451.034 565.754 451.5 566.661 451.911 567.592C452.728 569.445 453.142 570.997 452.898 572.52L456.847 573.152C457.276 570.473 456.484 568.047 455.57 565.977C455.116 564.947 454.584 563.908 454.125 562.972C453.65 562.006 453.231 561.109 452.914 560.225L449.149 561.578ZM454.671 570.846C445.908 571.734 438.63 579.825 438.63 588.608H442.63C442.63 581.871 448.361 575.506 455.074 574.826L454.671 570.846ZM439.329 587.089C438.938 587.424 438.554 587.752 438.168 588.082C437.783 588.411 437.396 588.741 437.002 589.078L439.604 592.116C439.995 591.781 440.38 591.453 440.765 591.123C441.151 590.794 441.537 590.464 441.931 590.127L439.329 587.089ZM436.44 589.87C435.011 593.53 436.347 597.952 439.465 600.27L441.852 597.06C440.147 595.793 439.408 593.267 440.166 591.324L436.44 589.87ZM439.467 600.272C441.629 601.875 444.345 602.349 446.352 602.781C448.574 603.259 450.104 603.703 451.16 604.758L453.987 601.929C451.987 599.93 449.298 599.324 447.195 598.871C444.877 598.371 443.163 598.033 441.849 597.059L439.467 600.272ZM451.16 604.758C451.949 605.547 452.428 606.641 453.005 608.192C453.532 609.605 454.172 611.509 455.406 613.071L458.545 610.593C457.788 609.634 457.362 608.428 456.754 606.795C456.196 605.299 455.469 603.41 453.987 601.929L451.16 604.758ZM455.411 613.078C456.739 614.746 458.49 615.77 460.229 616.468C461.948 617.159 463.8 617.583 465.378 617.953L466.292 614.059C464.645 613.673 463.105 613.313 461.719 612.756C460.353 612.208 459.286 611.523 458.54 610.586L455.411 613.078ZM465.376 617.953C481.039 621.645 495.959 628.534 508.889 638.066L511.263 634.847C497.895 624.993 482.48 617.875 466.294 614.059L465.376 617.953ZM508.241 635.662C505.309 642.431 509.058 649.938 513.816 654.365L516.541 651.437C512.327 647.516 509.965 641.744 511.911 637.251L508.241 635.662ZM513.816 654.365C516.215 656.597 518.917 658.356 521.567 659.965C524.269 661.605 526.844 663.049 529.28 664.762L531.581 661.49C528.998 659.674 526.191 658.092 523.643 656.546C521.043 654.967 518.629 653.379 516.541 651.437L513.816 654.365ZM529.279 664.762C538.296 671.109 544.521 680.702 550.725 690.424L554.097 688.272C547.965 678.664 541.349 668.366 531.582 661.491L529.279 664.762ZM550.726 690.425C554.399 696.168 558.072 701.911 561.744 707.654C565.417 713.397 569.09 719.14 572.763 724.883L576.132 722.728C572.46 716.985 568.787 711.242 565.114 705.499C561.441 699.756 557.769 694.013 554.096 688.27L550.726 690.425ZM576.041 722.597L573.855 719.712L570.667 722.128L572.853 725.013L576.041 722.597ZM570.291 721.268C572.139 731.705 581.322 737.015 590.035 741.632C594.531 744.014 598.98 746.234 602.877 748.915C606.748 751.578 609.899 754.584 611.829 758.407L615.4 756.606C613.053 751.955 609.311 748.486 605.144 745.62C601.002 742.771 596.268 740.408 591.908 738.097C582.909 733.329 575.69 728.82 574.23 720.571L570.291 721.268ZM611.828 758.407C613.465 761.652 614.096 765.271 614.458 769.21C614.806 773.012 614.908 777.388 615.565 781.417L619.513 780.772C618.881 776.901 618.828 773.069 618.441 768.845C618.066 764.758 617.38 760.533 615.4 756.606L611.828 758.407ZM615.565 781.416C616.258 785.676 618.094 790.178 620.901 793.592C623.718 797.018 627.682 799.52 632.531 799.198L632.266 795.207C629.097 795.418 626.276 793.83 623.99 791.051C621.695 788.26 620.11 784.441 619.513 780.773L615.565 781.416ZM632.53 799.199C634.767 799.051 636.857 798.272 638.61 797.648C640.466 796.987 642.001 796.474 643.559 796.429L643.443 792.43C641.16 792.497 639.05 793.245 637.268 793.88C635.383 794.551 633.843 795.103 632.267 795.207L632.53 799.199ZM643.565 796.428C646.406 796.338 649.166 797.817 652.313 799.635L654.314 796.171C651.349 794.459 647.605 792.297 643.437 792.431L643.565 796.428ZM652.31 799.633C657.456 802.617 662.608 805.601 667.759 808.585C672.911 811.568 678.062 814.551 683.206 817.535L685.213 814.074C680.068 811.09 674.915 808.107 669.764 805.123C664.612 802.14 659.461 799.156 654.317 796.173L652.31 799.633ZM683.769 813.854C677.422 815.287 670.084 818.307 664.887 822.584C662.281 824.728 660.109 827.275 658.944 830.205C657.756 833.191 657.661 836.469 659.062 839.873L662.761 838.352C661.764 835.929 661.848 833.727 662.661 831.683C663.496 829.583 665.145 827.552 667.429 825.672C672.009 821.902 678.717 819.095 684.65 817.755L683.769 813.854ZM659.061 839.872C660.627 843.686 663.884 846.37 666.527 848.576L669.09 845.505C666.294 843.172 663.887 841.094 662.762 838.353L659.061 839.872ZM666.531 848.579C674.498 855.194 682.454 861.773 690.387 868.383L692.948 865.31C685.012 858.698 677.044 852.109 669.086 845.502L666.531 848.579ZM689.792 867.542C690.733 870.079 689.72 873.077 687.415 875.269C685.112 877.459 682.064 878.325 679.559 877.251L677.982 880.927C682.402 882.822 687.106 881.083 690.172 878.167C693.236 875.253 695.209 870.645 693.542 866.151L689.792 867.542ZM676.951 879.92C682.797 892.721 685.012 907.142 683.318 921.122L687.288 921.603C689.071 906.896 686.744 891.734 680.59 878.258L676.951 879.92ZM686.801 920.038C684.719 917.682 681.678 917.164 679.004 917.671C676.342 918.176 673.721 919.735 672.094 922.025L675.354 924.342C676.335 922.962 678.017 921.93 679.749 921.601C681.471 921.275 682.916 921.682 683.805 922.687L686.801 920.038ZM672.098 922.019C669.074 926.242 668.918 931.682 668.809 936.076L672.808 936.176C672.923 931.55 673.159 927.408 675.35 924.348L672.098 922.019ZM668.809 936.084C668.692 941.667 669.649 948.409 672.112 953.674C673.348 956.314 675.018 958.703 677.241 960.344C679.511 962.02 682.271 962.849 685.464 962.456L684.974 958.486C682.826 958.75 681.086 958.211 679.617 957.126C678.102 956.007 676.795 954.244 675.735 951.979C673.608 947.431 672.7 941.343 672.808 936.168L668.809 936.084ZM683.57 959.338C681.309 962.632 681.023 966.107 681.725 969.503C682.408 972.806 684.043 976.131 685.698 979.284C687.401 982.527 689.134 985.605 690.321 988.717C691.497 991.799 692.036 994.676 691.499 997.431L695.425 998.196C696.163 994.41 695.367 990.721 694.058 987.291C692.761 983.89 690.859 980.509 689.24 977.424C687.572 974.249 686.197 971.379 685.643 968.694C685.107 966.103 685.358 963.8 686.868 961.603L683.57 959.338ZM691.498 997.435C690.924 1000.41 689.125 1002.97 686.931 1005.9C684.838 1008.71 682.342 1011.91 681.297 1015.78L685.159 1016.82C685.965 1013.84 687.912 1011.28 690.137 1008.3C692.261 1005.45 694.653 1002.2 695.425 998.193L691.498 997.435ZM681.299 1015.78C680.223 1019.72 680.799 1023.6 681.702 1027.2C682.152 1028.99 682.709 1030.81 683.208 1032.52C683.716 1034.27 684.176 1035.94 684.487 1037.6L688.418 1036.86C688.07 1035 687.563 1033.17 687.049 1031.4C686.527 1029.61 686.008 1027.92 685.582 1026.23C684.732 1022.84 684.355 1019.77 685.158 1016.83L681.299 1015.78ZM684.487 1037.6C687.179 1051.91 678.358 1066.79 665.933 1075.48L668.226 1078.76C681.426 1069.53 691.501 1053.25 688.418 1036.86L684.487 1037.6ZM665.933 1075.48C653.487 1084.19 638.23 1087.88 622.944 1091.45L623.854 1095.35C639.015 1091.8 655.046 1087.98 668.226 1078.76L665.933 1075.48ZM623.507 1091.4C621.951 1091.32 620.395 1091.23 618.839 1091.15C617.283 1091.07 615.727 1090.98 614.171 1090.9L613.955 1094.89C615.511 1094.98 617.067 1095.06 618.623 1095.14C620.179 1095.23 621.735 1095.31 623.291 1095.4L623.507 1091.4ZM612.276 1092C608.715 1099.08 608.658 1107.8 612.091 1114.97L615.698 1113.24C612.795 1107.18 612.85 1099.76 615.85 1093.79L612.276 1092ZM615.544 1112.97C610.744 1105.97 601.924 1104.01 594.223 1105.58C586.522 1107.15 579.181 1112.41 577.532 1120.74L581.456 1121.52C582.695 1115.26 588.348 1110.86 595.023 1109.5C601.698 1108.14 608.634 1109.96 612.245 1115.23L615.544 1112.97ZM581.375 1120.45C579.89 1116.35 575.841 1114.28 572.03 1114C568.219 1113.73 563.915 1115.19 561.861 1119.04L565.39 1120.93C566.475 1118.89 568.97 1117.79 571.741 1117.99C574.512 1118.19 576.827 1119.64 577.613 1121.81L581.375 1120.45ZM561.861 1119.04C559.808 1122.89 560.976 1127.28 563.323 1130.29C565.671 1133.31 569.642 1135.52 573.887 1134.48L572.933 1130.59C570.673 1131.15 568.182 1130.02 566.479 1127.84C564.775 1125.65 564.303 1122.96 565.39 1120.93L561.861 1119.04ZM571.41 1132.57C571.521 1138.33 571.708 1145.14 575.267 1150.6L578.618 1148.42C575.785 1144.07 575.524 1138.45 575.41 1132.5L571.41 1132.57ZM575.272 1150.61C577.158 1153.48 580.213 1155.65 583.462 1156.58C586.721 1157.52 590.433 1157.27 593.333 1154.86L590.775 1151.78C589.161 1153.13 586.93 1153.42 584.568 1152.74C582.195 1152.06 579.951 1150.45 578.614 1148.41L575.272 1150.61ZM590.314 1154.31C592.214 1157.66 592.732 1161.79 591.723 1165.48L595.581 1166.54C596.871 1161.82 596.212 1156.6 593.794 1152.34L590.314 1154.31ZM593.978 1164.04C590.804 1163.52 586.916 1163.96 583.886 1165.21C582.368 1165.84 580.91 1166.73 579.888 1167.96C578.818 1169.25 578.243 1170.9 578.629 1172.77L582.546 1171.97C582.441 1171.46 582.553 1171.01 582.965 1170.52C583.424 1169.96 584.242 1169.39 585.413 1168.91C587.759 1167.94 590.893 1167.58 593.327 1167.99L593.978 1164.04ZM578.676 1172.96C578.75 1173.2 578.852 1173.47 578.898 1173.6C578.957 1173.76 578.983 1173.85 578.996 1173.91L582.907 1173.07C582.836 1172.74 582.736 1172.45 582.663 1172.25C582.575 1172 582.537 1171.91 582.499 1171.78L578.676 1172.96ZM582.74 1172.6C582.634 1172.38 582.588 1172.22 582.564 1172.07L578.611 1172.68C578.699 1173.25 578.877 1173.81 579.163 1174.39L582.74 1172.6ZM582.489 1171.75C579.914 1163.84 572.622 1160.58 564.786 1159.83C556.927 1159.08 547.938 1160.75 540.737 1163.25L542.048 1167.03C548.893 1164.66 557.287 1163.14 564.406 1163.81C571.549 1164.5 576.831 1167.29 578.686 1172.99L582.489 1171.75ZM540.74 1163.25C538.469 1164.04 536.198 1164.82 533.927 1165.61C531.656 1166.39 529.385 1167.17 527.114 1167.96L528.42 1171.74C530.691 1170.96 532.962 1170.17 535.233 1169.39C537.504 1168.6 539.775 1167.82 542.046 1167.03L540.74 1163.25ZM529.282 1168.54C526.863 1165.74 523.16 1164.69 519.769 1165.01C516.377 1165.34 512.939 1167.07 511.09 1170.28L514.557 1172.28C515.624 1170.42 517.751 1169.22 520.149 1168.99C522.547 1168.76 524.858 1169.54 526.252 1171.16L529.282 1168.54ZM511.09 1170.28C509.24 1173.5 509.481 1177.34 510.915 1180.43C512.348 1183.52 515.124 1186.19 518.768 1186.86L519.496 1182.93C517.392 1182.54 515.556 1180.93 514.543 1178.75C513.531 1176.56 513.492 1174.13 514.557 1172.28L511.09 1170.28ZM518.456 1183.01C507.213 1187.05 495.974 1191.08 484.706 1195.08L486.046 1198.85C497.32 1194.85 508.565 1190.81 519.807 1186.78L518.456 1183.01ZM484.706 1195.08C482.785 1195.77 480.52 1196.75 478.707 1198.17C476.88 1199.6 475.282 1201.67 475.302 1204.49L479.302 1204.46C479.294 1203.35 479.882 1202.33 481.174 1201.32C482.48 1200.3 484.266 1199.49 486.046 1198.85L484.706 1195.08ZM475.302 1204.5C475.321 1206.24 475.98 1207.72 476.676 1208.93C477.025 1209.54 477.41 1210.12 477.758 1210.64C478.118 1211.18 478.438 1211.66 478.721 1212.13L482.162 1210.1C481.814 1209.51 481.43 1208.94 481.087 1208.42C480.733 1207.89 480.417 1207.41 480.142 1206.93C479.59 1205.98 479.31 1205.2 479.301 1204.45L475.302 1204.5ZM478.722 1212.14C480.066 1214.4 480.721 1217.02 481.528 1220C482.304 1222.87 483.221 1226.06 485.22 1228.8L488.448 1226.43C486.943 1224.38 486.177 1221.87 485.39 1218.96C484.634 1216.16 483.846 1212.93 482.161 1210.09L478.722 1212.14ZM485.215 1228.79C487.496 1231.93 491.72 1233.07 495.081 1232.71C496.801 1232.52 498.555 1231.92 499.859 1230.74C501.238 1229.48 501.969 1227.68 501.685 1225.56L497.72 1226.09C497.829 1226.9 497.582 1227.4 497.165 1227.78C496.672 1228.23 495.813 1228.61 494.651 1228.73C492.251 1228.99 489.648 1228.09 488.453 1226.44L485.215 1228.79ZM500.543 1227.64C501.992 1226.97 503.01 1227.14 503.836 1227.66C504.79 1228.26 505.733 1229.49 506.492 1231.33C508.008 1235.01 508.4 1240.2 507.484 1244.11L511.378 1245.02C512.481 1240.32 512.032 1234.28 510.191 1229.81C509.271 1227.58 507.906 1225.5 505.966 1224.28C503.899 1222.98 501.437 1222.82 498.862 1224.01L500.543 1227.64ZM507.485 1244.1C501.625 1268.93 495.766 1293.75 489.906 1318.54L493.799 1319.46C499.658 1294.67 505.518 1269.84 511.378 1245.02L507.485 1244.1ZM491.785 1321C495.092 1321.11 498.409 1321.22 501.755 1321.31L501.856 1317.31C498.529 1317.22 495.23 1317.11 491.92 1317L491.785 1321ZM499.882 1318.76C498.127 1324.91 495.237 1330.74 491.376 1335.86L494.571 1338.27C498.729 1332.75 501.839 1326.48 503.729 1319.86L499.882 1318.76ZM492.379 1338.98C513.471 1345.55 538.473 1334.39 547.696 1314.31L544.061 1312.64C535.677 1330.89 512.737 1341.13 493.569 1335.16L492.379 1338.98ZM547.698 1314.31C548.142 1313.34 548.554 1312.34 548.953 1311.39C549.356 1310.43 549.747 1309.5 550.167 1308.61C551.008 1306.81 551.921 1305.24 553.121 1303.94L550.187 1301.22C548.584 1302.95 547.464 1304.95 546.545 1306.91C546.085 1307.89 545.665 1308.89 545.263 1309.85C544.857 1310.82 544.47 1311.75 544.058 1312.65L547.698 1314.31ZM553.12 1303.94C555.603 1301.27 559.195 1299.86 563.2 1298.38L561.808 1294.63C557.962 1296.05 553.424 1297.73 550.188 1301.22L553.12 1303.94ZM563.201 1298.38C569.006 1296.22 574.804 1294.06 580.6 1291.89C586.397 1289.73 592.192 1287.56 597.994 1285.41L596.6 1281.66C590.795 1283.82 584.997 1285.98 579.201 1288.14C573.404 1290.31 567.609 1292.47 561.807 1294.63L563.201 1298.38ZM599.295 1283.63C600.112 1267.3 592.596 1250.76 579.783 1240.62L577.299 1243.75C589.102 1253.1 596.052 1268.39 595.299 1283.43L599.295 1283.63ZM578.352 1244.17C582.915 1244.61 586.841 1246.94 590.632 1250.24C594.516 1253.63 597.844 1257.62 601.684 1261.47L604.517 1258.64C601.04 1255.16 597.246 1250.7 593.259 1247.23C589.179 1243.67 584.484 1240.74 578.73 1240.19L578.352 1244.17ZM601.684 1261.47C605.536 1265.33 610.801 1268.77 616.188 1270.29C621.591 1271.82 627.442 1271.49 631.876 1267.24L629.108 1264.35C626.056 1267.28 621.87 1267.74 617.278 1266.44C612.67 1265.14 607.982 1262.12 604.517 1258.64L601.684 1261.47ZM632.488 1265.92C633.004 1257.61 629.459 1249.4 623.553 1243.71L620.777 1246.59C625.918 1251.55 628.933 1258.64 628.496 1265.68L632.488 1265.92ZM622.528 1243.19C619.302 1242.59 616.449 1240.93 614.791 1238.36L611.428 1240.52C613.807 1244.22 617.739 1246.37 621.802 1247.12L622.528 1243.19ZM612.44 1241.32C615.54 1242.42 618.379 1244.25 620.767 1246.58L623.563 1243.72C620.792 1241.01 617.464 1238.86 613.779 1237.55L612.44 1241.32ZM621.802 1247.12C626.364 1247.96 631.457 1247.06 635.152 1243.79L632.504 1240.8C629.919 1243.08 626.153 1243.86 622.529 1243.19L621.802 1247.12ZM635.73 1241.67C635.098 1239.74 634.459 1237.8 633.821 1235.87C633.183 1233.94 632.546 1232.01 631.917 1230.08L628.114 1231.32C628.746 1233.25 629.385 1235.19 630.023 1237.12C630.661 1239.06 631.297 1240.99 631.927 1242.92L635.73 1241.67ZM628.457 1231.95C630.975 1235.08 634.773 1234.93 637.722 1233.64C640.666 1232.35 643.404 1229.73 644.696 1226.69L641.016 1225.12C640.149 1227.16 638.191 1229.07 636.117 1229.98C634.048 1230.89 632.505 1230.6 631.574 1229.44L628.457 1231.95ZM644.7 1226.68C645.824 1224.01 646.469 1220.89 647.175 1218.45C647.924 1215.85 648.797 1213.7 650.356 1212.08L647.468 1209.31C645.213 1211.66 644.124 1214.59 643.332 1217.34C642.495 1220.24 642.019 1222.74 641.012 1225.13L644.7 1226.68ZM650.36 1212.07C652.214 1210.13 654.929 1209.11 658.087 1208.02L656.782 1204.24C653.773 1205.28 650.095 1206.55 647.464 1209.31L650.36 1212.07ZM658.087 1208.02C681.823 1199.83 706.006 1192.91 730.496 1187.29L729.602 1183.39C704.973 1189.04 680.653 1196.01 656.783 1204.24L658.087 1208.02ZM732.038 1185.14C731.691 1181.78 733.261 1178.76 736.103 1176.17C738.958 1173.57 742.919 1171.57 746.76 1170.39L745.58 1166.57C741.346 1167.87 736.813 1170.11 733.408 1173.22C729.991 1176.33 727.538 1180.5 728.06 1185.55L732.038 1185.14ZM746.766 1170.39C750.636 1169.18 755.227 1168.04 759.258 1166.34C763.358 1164.61 767.248 1162.17 769.813 1158.12L766.432 1155.98C764.483 1159.06 761.434 1161.08 757.705 1162.65C753.907 1164.25 749.778 1165.26 745.574 1166.57L746.766 1170.39ZM769.815 1158.11C770.586 1156.89 771.196 1155.57 771.733 1154.32C772.295 1153.01 772.737 1151.88 773.272 1150.71C774.321 1148.43 775.403 1146.82 777.063 1145.92L775.162 1142.4C772.309 1143.94 770.769 1146.58 769.638 1149.04C769.083 1150.25 768.546 1151.61 768.058 1152.74C767.544 1153.94 767.032 1155.02 766.429 1155.98L769.815 1158.11ZM777.057 1145.92C778.524 1145.14 780.278 1145.01 782.583 1144.92C784.709 1144.83 787.398 1144.76 789.809 1143.57L788.042 1139.99C786.527 1140.73 784.744 1140.82 782.413 1140.92C780.26 1141.01 777.57 1141.11 775.168 1142.4L777.057 1145.92ZM789.807 1143.57C792.929 1142.04 794.633 1139.28 795.745 1136.49C796.81 1133.83 797.521 1130.56 798.241 1128.18L794.413 1127.02C793.534 1129.92 793.026 1132.52 792.03 1135.01C791.082 1137.39 789.884 1139.08 788.044 1139.98L789.807 1143.57ZM798.241 1128.18C798.931 1125.91 800.486 1123.53 802.303 1122.09C804.111 1120.66 805.727 1120.44 807.085 1121.27L809.175 1117.86C805.823 1115.81 802.337 1116.97 799.82 1118.96C797.312 1120.94 795.32 1124.03 794.413 1127.02L798.241 1128.18ZM810.024 1120.21C815.364 1104.46 814.903 1086.82 808.725 1071.39L805.012 1072.88C810.834 1087.42 811.27 1104.08 806.236 1118.92L810.024 1120.21ZM806.617 1074.12C809.729 1074.51 812.188 1072.69 813.581 1070.49C814.968 1068.29 815.57 1065.36 814.821 1062.71L810.972 1063.8C811.372 1065.21 811.063 1066.98 810.2 1068.35C809.343 1069.7 808.213 1070.29 807.12 1070.15L806.617 1074.12ZM814.825 1062.73C813.496 1057.88 809.291 1054.66 806.038 1052.17L803.606 1055.35C807.081 1058.01 810.054 1060.45 810.967 1063.78L814.825 1062.73ZM806.576 1054.72C807.599 1052.85 809.814 1051.73 812.309 1051.7C814.803 1051.67 817.049 1052.73 818.122 1054.57L821.577 1052.55C819.593 1049.15 815.784 1047.65 812.257 1047.7C808.731 1047.75 804.961 1049.34 803.068 1052.8L806.576 1054.72ZM821.596 1054.54C826.315 1046.08 825.125 1035.84 823.991 1027.11L820.025 1027.63C821.19 1036.6 822.075 1045.47 818.103 1052.59L821.596 1054.54ZM823.991 1027.11C820.991 1004.25 818.048 981.564 815.076 958.866L811.109 959.386C814.081 982.071 817.026 1004.77 820.025 1027.63L823.991 1027.11Z" fill="#B6BDFF" mask="url(#path-6-inside-1_374_48963)"/>
<path d="M604.654 1195.18C604.738 1195.54 604.85 1195.91 605.018 1196.3C604.934 1195.88 604.766 1195.54 604.654 1195.18Z" fill="#ECEEFF"/>
</g>
<circle cx="560" cy="452.692" r="7" fill="#D7DBFE"/>
<circle cx="560" cy="452.692" r="9.5" stroke="#BDC4FF"/>
<circle cx="537" cy="617.692" r="6" fill="#E2E5FF"/>
<circle cx="610" cy="706.692" r="6" fill="#E2E5FF"/>
<circle cx="769" cy="1003.69" r="6" fill="#E2E5FF"/>
<ellipse cx="629.5" cy="1156.69" rx="12.5" ry="5" fill="#D6DAFF"/>
<path d="M645.5 1156.69C645.5 1158.6 643.888 1160.47 640.949 1161.9C638.045 1163.31 633.998 1164.19 629.5 1164.19C625.002 1164.19 620.955 1163.31 618.051 1161.9C615.112 1160.47 613.5 1158.6 613.5 1156.69C613.5 1154.78 615.112 1152.91 618.051 1151.49C620.955 1150.08 625.002 1149.19 629.5 1149.19C633.998 1149.19 638.045 1150.08 640.949 1151.49C643.888 1152.91 645.5 1154.78 645.5 1156.69Z" stroke="#B6BDFF"/>
<circle cx="698" cy="790.692" r="6" fill="#E2E5FF"/>
<path d="M558.5 451.692C606.5 363.192 799 516.392 701 789.192" stroke="#91B6EC" stroke-dasharray="2 4"/>
<path d="M696 791.192C745.667 795.692 831.1 843.992 775.5 1001.19" stroke="#91B6EC" stroke-dasharray="2 4"/>
<path d="M560 453.908C579.527 446.562 605.5 525.192 536 616.692" stroke="#91B6EC" stroke-dasharray="2 4"/>
<path d="M563.5 453.692C627.5 388.692 663.2 580.792 610 705.192" stroke="#91B6EC" stroke-dasharray="2 4"/>
<path d="M558.105 452.692C449.105 452.692 478.1 700.292 630.5 1152.69" stroke="#91B6EC" stroke-dasharray="2 4"/>
<path d="M564 454.693C552 428.526 511.7 382.193 446.5 406.193" stroke="#91B6EC" stroke-dasharray="2 4"/>
<circle cx="441" cy="408.692" r="6" fill="#E2E5FF"/>
<circle cx="540" cy="526.692" r="6" fill="#E2E5FF"/>
<path d="M558 455.192C546.333 466.359 526.1 495.092 538.5 520.692" stroke="#91B6EC" stroke-dasharray="2 4"/>
</svg>
