<svg width="1920" height="1620" viewBox="0 0 1920 1620" fill="none" xmlns="http://www.w3.org/2000/svg">
<path d="M2066 0H0V383L2066 0Z" fill="#F6F9FF"/>
<g opacity="0.55">
<path d="M1385.91 375.449C1385.77 375.673 1385.66 375.897 1385.52 376.094C1385.86 376.682 1386.05 375.953 1385.91 375.449Z" fill="#ECEEFF"/>
<path d="M1639.64 251.936C1640.23 253.337 1642.92 251.544 1641.61 250.759C1641.52 250.311 1641.38 249.919 1641.21 249.555C1640.12 249.891 1639.19 250.899 1639.64 251.936Z" fill="#ECEEFF"/>
<path d="M1625.09 1163.58C1627.11 1166.69 1630.53 1168.62 1634.15 1169.29C1631.57 1166.77 1628.51 1164.78 1625.09 1163.58Z" fill="#ECEEFF"/>
<path d="M1825.1 883.433C1807.41 860.098 1805.67 828.833 1796.39 801.099C1794.63 795.861 1792.58 790.706 1790.28 785.663C1771.08 744.034 1734.52 713.47 1699.11 684.363C1684 671.953 1668.88 659.515 1653.77 647.104C1646.46 641.081 1638.91 634.806 1634.65 626.318C1630.39 617.829 1630.31 606.512 1637.04 599.816C1610.77 584.744 1589.35 561.352 1576.67 533.87C1583.26 535.159 1585.62 525.578 1585.56 518.855C1585.39 500.057 1589.93 481.203 1598.71 464.563C1621.28 466.832 1642.61 443.72 1638.52 421.421C1649.68 418.199 1651.64 399.822 1641.41 394.331C1644.83 392.09 1649.74 392.37 1652.85 395.031C1653.38 406.965 1665.21 420.048 1675.75 414.445C1675.81 409.403 1673.43 404.36 1669.47 401.194C1681.22 397.889 1692.97 394.583 1704.69 391.277C1708.05 384.582 1703.79 375.281 1696.5 373.46C1706.17 368.053 1717.5 365.672 1728.55 366.681C1733.4 367.129 1738.61 368.165 1742.9 365.868C1749.07 362.563 1753.5 354.775 1747.7 350.881C1742.17 351.385 1736.45 351.861 1731.21 349.984C1725.99 348.135 1721.4 343.233 1721.79 337.714C1713.49 335.809 1705.98 344.858 1697.48 344.017C1688.54 343.121 1680.44 331.607 1672.92 336.509C1672.75 330.99 1672.22 325.163 1669.05 320.653C1665.89 316.143 1659.13 313.678 1654.64 316.871C1649.46 309.728 1645.22 301.855 1642.17 293.563C1656.72 292.499 1662.8 274.738 1665.32 260.366C1658.06 260.758 1650.72 257.705 1645.87 252.298C1644.86 251.178 1643.85 249.861 1642.36 249.525C1641.97 249.441 1641.55 249.469 1641.16 249.581C1641.33 249.945 1641.47 250.337 1641.55 250.785C1642.87 251.542 1640.18 253.363 1639.59 251.962C1639.17 250.925 1640.06 249.917 1641.16 249.581C1639.28 245.575 1631.96 246.639 1627.98 249.721C1623.63 253.082 1618.08 257.593 1613.43 254.651C1615.28 255.072 1616.29 252.046 1615 250.645C1613.71 249.245 1611.52 249.217 1609.64 249.413C1601.63 250.253 1593.86 253.363 1587.5 258.265C1588.31 251.766 1581.89 245.379 1575.38 246.219C1574.94 239.776 1574.43 233.36 1573.9 226.917C1569.69 226.917 1565.52 226.945 1561.31 226.945C1560.61 223.247 1558.81 219.745 1556.26 217C1546.51 228.206 1533.67 236.694 1519.54 241.26C1516.17 244.51 1524.19 248.488 1524.39 253.167C1524.5 256.304 1521.05 258.209 1518.11 259.33C1509.86 262.523 1501.59 265.717 1493.35 268.883C1493.07 265.101 1492.82 261.347 1492.54 257.565C1488.39 255.156 1483.34 254.315 1478.63 255.324C1478.91 266.109 1472.77 276.811 1463.32 282.021C1459.57 272.272 1451.04 264.512 1441.01 261.711C1440.36 266.109 1439.72 270.507 1439.1 274.878C1432.37 272.693 1427.02 266.782 1425.45 259.918C1419.28 268.322 1412.8 276.474 1406.02 284.375C1398.11 277.875 1390.2 271.376 1382.3 264.905C1376.58 260.198 1367.33 255.744 1362.73 261.571C1360.91 263.896 1360.74 267.034 1359.95 269.863C1356.53 282.161 1340.75 291.462 1344.62 303.62C1347.39 312.389 1359.06 315.442 1362.81 323.847C1366.15 331.327 1362.5 341.58 1368.45 347.239C1375.37 353.822 1386.53 346.79 1392.67 339.507C1395.33 351.749 1392.81 365 1385.94 375.505C1386.08 375.981 1385.89 376.738 1385.55 376.15C1385.69 375.953 1385.8 375.701 1385.94 375.505C1385.86 375.225 1385.69 375.029 1385.35 375.225C1384.46 375.757 1384.88 377.158 1385.41 378.055C1389.25 384.526 1393.12 390.997 1396.96 397.496C1399.54 401.811 1402.26 406.293 1406.55 408.87C1410.14 411.027 1414.46 411.616 1418.55 412.456C1431.17 415.033 1443.19 420.468 1453.45 428.228C1456.01 421.505 1458.75 414.613 1463.8 409.515C1468.85 404.416 1476.84 401.503 1483.42 404.416C1490.15 407.386 1495 415.874 1502.24 414.669C1493.01 416.742 1486.34 426.715 1487.97 436.016C1495.84 433.243 1505.43 440.134 1505.32 448.483C1505.29 451.368 1504.31 454.394 1505.55 456.999C1507.7 461.677 1514.46 461.145 1519.45 459.828C1517.18 465.964 1515.55 472.351 1514.63 478.822C1512.55 478.43 1510.45 478.01 1508.38 477.618C1507.14 480.111 1505.91 482.604 1504.68 485.097C1492.17 483.108 1479.84 480.055 1467.84 475.937C1463.69 475.096 1461.61 481.231 1463.04 485.209C1464.47 489.187 1467.56 492.941 1466.88 497.144C1459.15 497.928 1452.64 505.156 1452.64 512.916C1451.86 513.588 1451.1 514.232 1450.31 514.905C1449.22 517.706 1450.26 521.18 1452.67 522.973C1456.15 525.55 1461.53 524.598 1464.58 527.651C1466.86 529.92 1467 533.618 1468.99 536.14C1471.06 538.745 1474.62 539.557 1477.85 540.314C1493.77 544.068 1508.94 551.071 1522.09 560.764C1519.65 566.395 1522.7 573.034 1527.19 577.209C1531.68 581.383 1537.42 583.904 1542.44 587.434C1551.83 594.045 1558.25 603.99 1564.42 613.655C1571.77 625.141 1579.11 636.627 1586.46 648.113L1584.27 645.227C1587.58 663.913 1617.07 664.865 1625.62 681.814C1629.24 688.986 1628.26 697.502 1629.55 705.402C1630.84 713.33 1636.39 722.043 1644.41 721.51C1648.22 721.258 1651.67 718.849 1655.51 718.737C1659.02 718.625 1662.27 720.446 1665.32 722.211C1675.61 728.178 1685.93 734.145 1696.22 740.112C1683.94 742.885 1668.13 751.766 1672.92 763.42C1674.27 766.698 1677.1 769.079 1679.82 771.348C1687.78 777.959 1695.74 784.543 1703.68 791.154C1706.29 798.186 1697.71 806.366 1690.78 803.396C1696.78 816.535 1699.05 831.327 1697.31 845.67C1694.34 842.308 1688.34 843.821 1685.73 847.491C1683.13 851.133 1682.93 855.923 1682.82 860.434C1682.59 871.191 1686.55 886.095 1697.23 884.778C1689.69 895.76 1708.02 909.039 1705.47 922.121C1704.13 929.097 1697.09 933.747 1695.24 940.611C1693.36 947.502 1697.15 954.506 1698.46 961.537C1701.35 976.889 1691.9 992.465 1679.09 1001.43C1666.28 1010.39 1650.63 1014.15 1635.41 1017.71C1632.3 1017.54 1629.19 1017.37 1626.07 1017.2C1622.79 1023.73 1622.74 1031.8 1625.91 1038.41C1617.49 1026.14 1594.39 1030.85 1591.5 1045.44C1589.23 1039.17 1578.78 1038.41 1575.64 1044.29C1572.5 1050.17 1578.92 1058.44 1585.42 1056.84C1585.53 1062.7 1585.76 1068.92 1588.95 1073.82C1592.18 1078.72 1599.55 1081.38 1604.06 1077.63C1606.22 1081.44 1606.81 1086.12 1605.66 1090.32C1600.06 1089.4 1591.62 1091.92 1592.6 1096.68C1592.71 1097.04 1592.88 1097.41 1592.96 1097.8C1592.77 1097.41 1592.65 1097.04 1592.6 1096.68C1588.17 1083.06 1567.45 1084.58 1553.4 1089.45C1548.86 1091.02 1544.32 1092.59 1539.78 1094.16C1535.96 1089.73 1527.75 1090.52 1524.83 1095.59C1521.92 1100.66 1525.4 1108.14 1531.14 1109.2C1519.9 1113.24 1508.66 1117.27 1497.39 1121.28C1493.69 1122.59 1489.28 1124.86 1489.31 1128.78C1489.34 1131.28 1491.19 1133.29 1492.45 1135.42C1495.48 1140.52 1495.34 1147.13 1498.84 1151.92C1502.32 1156.71 1512.5 1156.01 1511.71 1150.13C1519.76 1146.4 1523.46 1160.27 1521.44 1168.87C1515.58 1193.69 1509.72 1218.51 1503.86 1243.31C1507.17 1243.42 1510.48 1243.53 1513.82 1243.61C1511.99 1250 1508.99 1256.05 1504.98 1261.38C1525.11 1267.65 1549.09 1256.95 1557.89 1237.79C1559.6 1234.03 1560.86 1229.91 1563.66 1226.89C1566.52 1223.81 1570.59 1222.27 1574.51 1220.81C1586.12 1216.5 1597.7 1212.15 1609.31 1207.84C1610.09 1192.15 1602.86 1176.24 1590.55 1166.49C1600.87 1167.47 1607.79 1177.02 1615.11 1184.36C1622.43 1191.7 1635.02 1197.28 1642.5 1190.11C1642.98 1182.43 1639.7 1174.78 1634.18 1169.46C1630.53 1168.79 1627.14 1166.88 1625.12 1163.75C1628.51 1164.95 1631.6 1166.94 1634.18 1169.46C1638.27 1170.22 1642.7 1169.38 1645.84 1166.6C1644.58 1162.74 1643.29 1158.87 1642.03 1155C1645.47 1159.29 1652.71 1155.28 1654.87 1150.21C1657 1145.14 1657.11 1138.98 1660.92 1135C1663.17 1132.65 1666.36 1131.5 1669.45 1130.44C1693.25 1122.23 1717.5 1115.28 1742.06 1109.65C1741.19 1101.25 1750.11 1095.28 1758.18 1092.78C1766.26 1090.26 1775.62 1088.5 1780.13 1081.35C1782.88 1076.98 1783.61 1070.91 1788.12 1068.47C1791.99 1066.4 1797.01 1068.02 1800.94 1066.09C1805.9 1063.65 1806.74 1057.18 1808.34 1051.91C1809.94 1046.65 1815.43 1040.99 1820.14 1043.87C1825.33 1028.58 1824.88 1011.43 1818.88 996.443C1823.08 996.976 1826.06 991.625 1824.91 987.563C1823.79 983.473 1820.2 980.643 1816.83 978.066C1819.75 972.743 1828.8 972.631 1831.86 977.87C1836.21 970.082 1835.17 960.529 1834.02 951.676C1831.02 928.817 1828.08 906.125 1825.1 883.433Z" fill="#ECEEFF"/>
<mask id="path-6-inside-1_292_28148" fill="white">
<path d="M1801.09 860.433C1783.4 837.098 1781.66 805.833 1772.38 778.099C1770.62 772.861 1768.57 767.706 1766.27 762.663C1747.07 721.034 1710.51 690.47 1675.1 661.363C1659.99 648.953 1644.87 636.515 1629.76 624.104C1622.45 618.081 1614.9 611.806 1610.64 603.318C1606.38 594.829 1606.3 583.512 1613.02 576.816C1586.75 561.744 1565.34 538.352 1552.66 510.87C1559.25 512.159 1561.61 502.578 1561.55 495.855C1561.38 477.057 1565.92 458.203 1574.7 441.563C1597.27 443.832 1618.6 420.72 1614.51 398.421C1625.67 395.199 1627.63 376.822 1617.4 371.331C1620.82 369.09 1625.73 369.37 1628.84 372.031C1629.37 383.965 1641.2 397.048 1651.74 391.445C1651.8 386.403 1649.42 381.36 1645.46 378.194C1657.21 374.889 1668.96 371.583 1680.68 368.277C1684.04 361.582 1679.78 352.281 1672.49 350.46C1682.16 345.053 1693.49 342.672 1704.54 343.681C1709.39 344.129 1714.6 345.165 1718.89 342.868C1725.06 339.563 1729.49 331.775 1723.68 327.881C1718.16 328.385 1712.44 328.861 1707.2 326.984C1701.98 325.135 1697.39 320.233 1697.78 314.714C1689.48 312.809 1681.97 321.858 1673.47 321.017C1664.53 320.121 1656.43 308.607 1648.91 313.509C1648.74 307.99 1648.21 302.163 1645.04 297.653C1641.87 293.143 1635.12 290.678 1630.63 293.871C1625.45 286.728 1621.21 278.855 1618.16 270.563C1632.71 269.499 1638.79 251.738 1641.31 237.366C1634.05 237.758 1626.71 234.705 1621.86 229.298C1620.85 228.178 1619.84 226.861 1618.35 226.525C1617.96 226.441 1617.54 226.469 1617.15 226.581C1617.31 226.945 1617.45 227.337 1617.54 227.785C1618.86 228.542 1616.17 230.363 1615.58 228.962C1615.16 227.925 1616.05 226.917 1617.15 226.581C1615.27 222.575 1607.95 223.639 1603.97 226.721C1599.62 230.082 1594.07 234.593 1589.42 231.651C1591.27 232.072 1592.28 229.046 1590.99 227.645C1589.7 226.245 1587.51 226.217 1585.63 226.413C1577.62 227.253 1569.85 230.363 1563.48 235.265C1564.3 228.766 1557.88 222.379 1551.37 223.219C1550.92 216.776 1550.42 210.36 1549.89 203.917C1545.68 203.917 1541.5 203.945 1537.3 203.945C1536.6 200.247 1534.8 196.745 1532.25 194C1522.5 205.206 1509.66 213.694 1495.52 218.26C1492.16 221.51 1500.18 225.488 1500.38 230.167C1500.49 233.304 1497.04 235.209 1494.09 236.33C1485.85 239.523 1477.58 242.717 1469.34 245.883C1469.06 242.101 1468.81 238.347 1468.53 234.565C1464.38 232.156 1459.33 231.315 1454.62 232.324C1454.9 243.109 1448.76 253.811 1439.31 259.021C1435.56 249.272 1427.03 241.512 1417 238.711C1416.35 243.109 1415.71 247.507 1415.09 251.878C1408.36 249.693 1403 243.782 1401.43 236.918C1395.27 245.322 1388.79 253.474 1382.01 261.375C1374.1 254.875 1366.19 248.376 1358.29 241.905C1352.57 237.198 1343.32 232.744 1338.72 238.571C1336.9 240.896 1336.73 244.034 1335.94 246.863C1332.52 259.161 1316.74 268.462 1320.61 280.62C1323.38 289.389 1335.04 292.442 1338.8 300.847C1342.14 308.327 1338.49 318.58 1344.44 324.239C1351.36 330.822 1362.52 323.79 1368.66 316.507C1371.32 328.749 1368.8 342 1361.93 352.505C1362.07 352.981 1361.88 353.738 1361.54 353.15C1361.68 352.953 1361.79 352.701 1361.93 352.505C1361.85 352.225 1361.68 352.029 1361.34 352.225C1360.45 352.757 1360.87 354.158 1361.4 355.055C1365.24 361.526 1369.11 367.997 1372.95 374.496C1375.53 378.811 1378.25 383.293 1382.54 385.87C1386.13 388.027 1390.44 388.616 1394.54 389.456C1407.15 392.033 1419.18 397.468 1429.44 405.228C1431.99 398.505 1434.74 391.613 1439.79 386.515C1444.84 381.416 1452.83 378.503 1459.41 381.416C1466.14 384.386 1470.99 392.874 1478.23 391.669C1469 393.742 1462.33 403.715 1463.96 413.016C1471.83 410.243 1481.42 417.134 1481.31 425.483C1481.28 428.368 1480.3 431.394 1481.53 433.999C1483.69 438.677 1490.45 438.145 1495.44 436.828C1493.17 442.964 1491.54 449.351 1490.62 455.822C1488.54 455.43 1486.44 455.01 1484.37 454.618C1483.13 457.111 1481.9 459.604 1480.67 462.097C1468.16 460.108 1455.83 457.055 1443.83 452.937C1439.68 452.096 1437.6 458.231 1439.03 462.209C1440.46 466.187 1443.55 469.941 1442.87 474.144C1435.13 474.928 1428.63 482.156 1428.63 489.916C1427.85 490.588 1427.09 491.232 1426.3 491.905C1425.21 494.706 1426.25 498.18 1428.66 499.973C1432.13 502.55 1437.52 501.598 1440.57 504.651C1442.84 506.92 1442.98 510.618 1444.98 513.14C1447.05 515.745 1450.61 516.557 1453.83 517.314C1469.76 521.068 1484.93 528.071 1498.08 537.764C1495.64 543.395 1498.69 550.034 1503.18 554.209C1507.66 558.383 1513.41 560.904 1518.43 564.434C1527.82 571.045 1534.24 580.99 1540.41 590.655C1547.76 602.141 1555.1 613.627 1562.45 625.113L1560.26 622.227C1563.57 640.913 1593.06 641.865 1601.61 658.814C1605.23 665.986 1604.25 674.502 1605.54 682.402C1606.83 690.33 1612.38 699.043 1620.4 698.51C1624.21 698.258 1627.66 695.849 1631.5 695.737C1635.01 695.625 1638.26 697.446 1641.31 699.211C1651.6 705.178 1661.92 711.145 1672.21 717.112C1659.93 719.885 1644.12 728.766 1648.91 740.42C1650.26 743.698 1653.09 746.079 1655.81 748.348C1663.77 754.959 1671.73 761.543 1679.67 768.154C1682.27 775.186 1673.7 783.366 1666.77 780.396C1672.77 793.535 1675.04 808.327 1673.3 822.67C1670.33 819.308 1664.33 820.821 1661.72 824.491C1659.12 828.133 1658.92 832.923 1658.81 837.434C1658.58 848.191 1662.54 863.095 1673.22 861.778C1665.68 872.76 1684.01 886.039 1681.46 899.121C1680.12 906.097 1673.08 910.747 1671.23 917.611C1669.35 924.502 1673.13 931.506 1674.45 938.537C1677.34 953.889 1667.89 969.465 1655.08 978.43C1642.27 987.395 1626.62 991.148 1611.4 994.706C1608.29 994.538 1605.17 994.37 1602.06 994.202C1598.78 1000.73 1598.73 1008.8 1601.89 1015.41C1593.48 1003.14 1570.38 1007.85 1567.49 1022.44C1565.22 1016.17 1554.77 1015.41 1551.63 1021.29C1548.49 1027.17 1554.91 1035.44 1561.41 1033.84C1561.52 1039.7 1561.75 1045.92 1564.94 1050.82C1568.17 1055.72 1575.54 1058.38 1580.05 1054.63C1582.21 1058.44 1582.8 1063.12 1581.65 1067.32C1576.05 1066.4 1567.61 1068.92 1568.59 1073.68C1568.7 1074.04 1568.87 1074.41 1568.95 1074.8C1568.76 1074.41 1568.64 1074.04 1568.59 1073.68C1564.16 1060.06 1543.44 1061.58 1529.39 1066.45C1524.85 1068.02 1520.31 1069.59 1515.77 1071.16C1511.95 1066.73 1503.74 1067.52 1500.82 1072.59C1497.91 1077.66 1501.38 1085.14 1507.13 1086.2C1495.89 1090.24 1484.65 1094.27 1473.38 1098.28C1469.68 1099.59 1465.27 1101.86 1465.3 1105.78C1465.33 1108.28 1467.18 1110.29 1468.44 1112.42C1471.47 1117.52 1471.33 1124.13 1474.83 1128.92C1478.31 1133.71 1488.49 1133.01 1487.7 1127.13C1495.75 1123.4 1499.45 1137.27 1497.43 1145.87C1491.57 1170.69 1485.71 1195.51 1479.85 1220.31C1483.16 1220.42 1486.47 1220.53 1489.81 1220.61C1487.98 1227 1484.98 1233.05 1480.97 1238.38C1501.1 1244.65 1525.08 1233.95 1533.88 1214.79C1535.59 1211.03 1536.85 1206.91 1539.65 1203.89C1542.51 1200.81 1546.58 1199.27 1550.5 1197.81C1562.11 1193.5 1573.69 1189.15 1585.3 1184.84C1586.08 1169.15 1578.85 1153.24 1566.54 1143.49C1576.86 1144.47 1583.78 1154.02 1591.1 1161.36C1598.42 1168.7 1611.01 1174.28 1618.49 1167.11C1618.97 1159.43 1615.69 1151.78 1610.17 1146.46C1606.52 1145.79 1603.13 1143.88 1601.11 1140.75C1604.5 1141.95 1607.59 1143.94 1610.17 1146.46C1614.26 1147.22 1618.69 1146.38 1621.83 1143.6C1620.57 1139.74 1619.28 1135.87 1618.02 1132C1621.46 1136.29 1628.7 1132.28 1630.86 1127.21C1632.99 1122.14 1633.1 1115.98 1636.91 1112C1639.15 1109.65 1642.35 1108.5 1645.43 1107.44C1669.24 1099.23 1693.49 1092.28 1718.05 1086.65C1717.18 1078.25 1726.1 1072.28 1734.17 1069.78C1742.24 1067.26 1751.61 1065.5 1756.12 1058.35C1758.87 1053.98 1759.6 1047.91 1764.11 1045.47C1767.98 1043.4 1773 1045.02 1776.93 1043.09C1781.89 1040.65 1782.73 1034.18 1784.33 1028.91C1785.92 1023.65 1791.42 1017.99 1796.13 1020.87C1801.32 1005.58 1800.87 988.431 1794.87 973.443C1799.07 973.976 1802.05 968.625 1800.9 964.563C1799.77 960.473 1796.19 957.643 1792.82 955.066C1795.74 949.743 1804.79 949.631 1807.85 954.87C1812.19 947.082 1811.16 937.529 1810.01 928.676C1807.01 905.817 1804.06 883.125 1801.09 860.433Z"/>
</mask>
<path d="M1801.09 860.433L1803.08 860.174L1803.01 859.648L1802.69 859.225L1801.09 860.433ZM1772.38 778.099L1774.28 777.465L1774.28 777.46L1772.38 778.099ZM1766.27 762.663L1768.09 761.834L1768.09 761.826L1766.27 762.663ZM1675.1 661.363L1676.37 659.818L1676.37 659.818L1675.1 661.363ZM1629.76 624.104L1628.49 625.649L1628.49 625.65L1629.76 624.104ZM1613.02 576.816L1614.44 578.234L1616.29 576.385L1614.02 575.081L1613.02 576.816ZM1552.66 510.87L1553.05 508.908L1549.21 508.157L1550.85 511.708L1552.66 510.87ZM1561.55 495.855L1563.55 495.838V495.837L1561.55 495.855ZM1574.7 441.563L1574.9 439.573L1573.56 439.438L1572.93 440.63L1574.7 441.563ZM1614.51 398.421L1613.96 396.499L1612.22 397.001L1612.54 398.782L1614.51 398.421ZM1617.4 371.331L1616.3 369.658L1613.49 371.502L1616.45 373.093L1617.4 371.331ZM1628.84 372.031L1630.84 371.942L1630.8 371.075L1630.14 370.511L1628.84 372.031ZM1651.74 391.445L1652.68 393.211L1653.73 392.654L1653.74 391.467L1651.74 391.445ZM1645.46 378.194L1644.92 376.269L1641.18 377.323L1644.21 379.756L1645.46 378.194ZM1680.68 368.277L1681.22 370.202L1682.07 369.963L1682.46 369.175L1680.68 368.277ZM1672.49 350.46L1671.51 348.714L1667.11 351.177L1672.01 352.401L1672.49 350.46ZM1704.54 343.681L1704.72 341.689L1704.72 341.689L1704.54 343.681ZM1718.89 342.868L1719.83 344.631L1719.83 344.631L1718.89 342.868ZM1723.68 327.881L1724.8 326.22L1724.21 325.824L1723.5 325.889L1723.68 327.881ZM1707.2 326.984L1707.87 325.101L1707.87 325.099L1707.2 326.984ZM1697.78 314.714L1699.77 314.856L1699.9 313.148L1698.23 312.765L1697.78 314.714ZM1673.47 321.017L1673.27 323.007L1673.27 323.007L1673.47 321.017ZM1648.91 313.509L1646.91 313.57L1647.02 317.131L1650 315.184L1648.91 313.509ZM1630.63 293.871L1629.01 295.046L1630.18 296.65L1631.79 295.5L1630.63 293.871ZM1618.16 270.563L1618.01 268.569L1615.36 268.762L1616.28 271.255L1618.16 270.563ZM1641.31 237.366L1643.28 237.712L1643.72 235.233L1641.21 235.369L1641.31 237.366ZM1621.86 229.298L1623.35 227.963L1623.34 227.96L1621.86 229.298ZM1618.35 226.525L1618.79 224.574L1618.78 224.571L1618.77 224.569L1618.35 226.525ZM1617.54 227.785L1615.57 228.154L1615.74 229.061L1616.54 229.52L1617.54 227.785ZM1615.58 228.962L1613.72 229.714L1613.73 229.725L1613.73 229.737L1615.58 228.962ZM1603.97 226.721L1605.19 228.303L1605.19 228.302L1603.97 226.721ZM1589.42 231.651L1589.86 229.701L1588.35 233.342L1589.42 231.651ZM1585.63 226.413L1585.43 224.423L1585.42 224.424L1585.63 226.413ZM1563.48 235.265L1561.5 235.017L1560.9 239.777L1564.71 236.85L1563.48 235.265ZM1551.37 223.219L1549.38 223.358L1549.53 225.474L1551.63 225.202L1551.37 223.219ZM1549.89 203.917L1551.88 203.752L1551.73 201.917H1549.89V203.917ZM1537.3 203.945L1535.33 204.318L1535.64 205.945H1537.3V203.945ZM1532.25 194L1533.72 192.639L1532.2 191.01L1530.74 192.687L1532.25 194ZM1495.52 218.26L1494.91 216.357L1494.47 216.5L1494.14 216.822L1495.52 218.26ZM1500.38 230.167L1502.37 230.095L1502.37 230.083L1500.38 230.167ZM1494.09 236.33L1493.38 234.46L1493.37 234.465L1494.09 236.33ZM1469.34 245.883L1467.34 246.03L1467.54 248.715L1470.06 247.75L1469.34 245.883ZM1468.53 234.565L1470.52 234.417L1470.44 233.365L1469.53 232.835L1468.53 234.565ZM1454.62 232.324L1454.2 230.368L1452.58 230.716L1452.62 232.376L1454.62 232.324ZM1439.31 259.021L1437.45 259.74L1438.27 261.88L1440.28 260.773L1439.31 259.021ZM1417 238.711L1417.53 236.785L1415.35 236.174L1415.02 238.421L1417 238.711ZM1415.09 251.878L1414.47 253.78L1416.74 254.515L1417.07 252.157L1415.09 251.878ZM1401.43 236.918L1403.38 236.472L1402.41 232.21L1399.82 235.735L1401.43 236.918ZM1382.01 261.375L1380.74 262.92L1382.25 264.162L1383.52 262.678L1382.01 261.375ZM1358.29 241.905L1357.02 243.449L1357.02 243.452L1358.29 241.905ZM1338.72 238.571L1337.15 237.332L1337.14 237.337L1338.72 238.571ZM1335.94 246.863L1337.87 247.399L1337.87 247.398L1335.94 246.863ZM1320.61 280.62L1322.51 280.017L1322.51 280.014L1320.61 280.62ZM1338.8 300.847L1340.63 300.032L1340.63 300.031L1338.8 300.847ZM1344.44 324.239L1343.06 325.687L1343.06 325.688L1344.44 324.239ZM1368.66 316.507L1370.61 316.082L1369.75 312.11L1367.13 315.218L1368.66 316.507ZM1361.54 353.15L1359.91 351.986L1359.17 353.029L1359.8 354.142L1361.54 353.15ZM1361.34 352.225L1360.34 350.497L1360.33 350.501L1360.32 350.505L1361.34 352.225ZM1361.4 355.055L1363.12 354.034L1363.12 354.033L1361.4 355.055ZM1372.95 374.496L1371.23 375.514L1371.23 375.523L1372.95 374.496ZM1382.54 385.87L1383.57 384.156L1383.57 384.156L1382.54 385.87ZM1394.54 389.456L1394.14 391.415L1394.14 391.416L1394.54 389.456ZM1429.44 405.228L1428.24 406.823L1430.37 408.434L1431.31 405.938L1429.44 405.228ZM1459.41 381.416L1458.61 383.245L1458.61 383.246L1459.41 381.416ZM1478.23 391.669L1478.66 393.621L1477.9 389.696L1478.23 391.669ZM1463.96 413.016L1461.99 413.361L1462.39 415.687L1464.62 414.903L1463.96 413.016ZM1481.31 425.483L1479.31 425.456L1479.31 425.463L1481.31 425.483ZM1481.53 433.999L1483.35 433.161L1483.35 433.152L1483.34 433.143L1481.53 433.999ZM1495.44 436.828L1497.32 437.523L1498.65 433.913L1494.93 434.895L1495.44 436.828ZM1490.62 455.822L1490.25 457.787L1492.3 458.176L1492.6 456.105L1490.62 455.822ZM1484.37 454.618L1484.74 452.652L1483.25 452.37L1482.57 453.731L1484.37 454.618ZM1480.67 462.097L1480.35 464.073L1481.81 464.304L1482.46 462.984L1480.67 462.097ZM1443.83 452.937L1444.47 451.045L1444.35 451.002L1444.22 450.976L1443.83 452.937ZM1442.87 474.144L1443.07 476.133L1444.6 475.978L1444.85 474.46L1442.87 474.144ZM1428.63 489.916L1429.93 491.435L1430.63 490.836V489.916H1428.63ZM1426.3 491.905L1425 490.386L1424.62 490.711L1424.44 491.177L1426.3 491.905ZM1428.66 499.973L1427.46 501.578L1427.47 501.579L1428.66 499.973ZM1444.98 513.14L1443.41 514.379L1443.41 514.385L1444.98 513.14ZM1453.83 517.314L1454.29 515.367L1454.29 515.367L1453.83 517.314ZM1498.08 537.764L1499.91 538.559L1500.54 537.099L1499.26 536.154L1498.08 537.764ZM1518.43 564.434L1519.58 562.798L1519.58 562.798L1518.43 564.434ZM1540.41 590.655L1538.72 591.731L1538.73 591.733L1540.41 590.655ZM1562.45 625.113L1560.85 626.321L1564.13 624.035L1562.45 625.113ZM1560.26 622.227L1561.85 621.019L1558.29 622.576L1560.26 622.227ZM1601.61 658.814L1603.4 657.914L1603.4 657.913L1601.61 658.814ZM1605.54 682.402L1607.51 682.081L1607.51 682.08L1605.54 682.402ZM1620.4 698.51L1620.27 696.515L1620.27 696.515L1620.4 698.51ZM1631.5 695.737L1631.56 697.736L1631.56 697.736L1631.5 695.737ZM1641.31 699.211L1642.32 697.481L1642.31 697.479L1641.31 699.211ZM1672.21 717.112L1672.65 719.063L1677.62 717.94L1673.21 715.382L1672.21 717.112ZM1648.91 740.42L1650.76 739.66L1650.76 739.659L1648.91 740.42ZM1655.81 748.348L1654.53 749.884L1654.53 749.887L1655.81 748.348ZM1679.67 768.154L1681.54 767.459L1681.36 766.959L1680.95 766.618L1679.67 768.154ZM1666.77 780.396L1667.56 778.558L1662.8 776.518L1664.95 781.227L1666.77 780.396ZM1673.3 822.67L1671.8 823.995L1674.75 827.33L1675.29 822.911L1673.3 822.67ZM1661.72 824.491L1663.35 825.655L1663.35 825.649L1661.72 824.491ZM1658.81 837.434L1656.81 837.384L1656.81 837.392L1658.81 837.434ZM1673.22 861.778L1674.87 862.91L1677.38 859.25L1672.97 859.793L1673.22 861.778ZM1681.46 899.121L1679.5 898.738L1679.5 898.742L1681.46 899.121ZM1671.23 917.611L1673.16 918.137L1673.16 918.131L1671.23 917.611ZM1674.45 938.537L1672.49 938.906L1672.49 938.907L1674.45 938.537ZM1611.4 994.706L1611.29 996.703L1611.58 996.719L1611.85 996.654L1611.4 994.706ZM1602.06 994.202L1602.17 992.205L1600.86 992.134L1600.28 993.304L1602.06 994.202ZM1601.89 1015.41L1600.24 1016.54L1603.7 1014.54L1601.89 1015.41ZM1567.49 1022.44L1565.61 1023.12L1568.06 1029.88L1569.46 1022.83L1567.49 1022.44ZM1561.41 1033.84L1563.41 1033.8L1563.36 1031.3L1560.93 1031.9L1561.41 1033.84ZM1564.94 1050.82L1563.27 1051.91L1563.27 1051.92L1564.94 1050.82ZM1580.05 1054.63L1581.79 1053.64L1580.61 1051.56L1578.78 1053.09L1580.05 1054.63ZM1581.65 1067.32L1581.33 1069.29L1583.11 1069.59L1583.58 1067.85L1581.65 1067.32ZM1568.95 1074.8L1567.16 1075.69L1570.91 1074.38L1568.95 1074.8ZM1529.39 1066.45L1530.05 1068.34L1530.05 1068.34L1529.39 1066.45ZM1515.77 1071.16L1514.25 1072.46L1515.14 1073.49L1516.42 1073.05L1515.77 1071.16ZM1507.13 1086.2L1507.81 1088.08L1514.78 1085.58L1507.5 1084.23L1507.13 1086.2ZM1473.38 1098.28L1472.71 1096.39L1472.71 1096.39L1473.38 1098.28ZM1465.3 1105.78L1463.3 1105.8L1463.3 1105.81L1465.3 1105.78ZM1468.44 1112.42L1466.72 1113.44L1466.72 1113.44L1468.44 1112.42ZM1474.83 1128.92L1476.45 1127.75L1476.45 1127.74L1474.83 1128.92ZM1487.7 1127.13L1486.86 1125.32L1485.53 1125.93L1485.72 1127.39L1487.7 1127.13ZM1497.43 1145.87L1499.38 1146.33L1499.38 1146.33L1497.43 1145.87ZM1479.85 1220.31L1477.91 1219.85L1477.34 1222.22L1479.78 1222.3L1479.85 1220.31ZM1489.81 1220.61L1491.73 1221.16L1492.44 1218.68L1489.86 1218.61L1489.81 1220.61ZM1480.97 1238.38L1479.38 1237.17L1477.67 1239.44L1480.38 1240.28L1480.97 1238.38ZM1533.88 1214.79L1535.7 1215.62L1535.7 1215.62L1533.88 1214.79ZM1539.65 1203.89L1538.19 1202.53L1538.19 1202.53L1539.65 1203.89ZM1550.5 1197.81L1551.2 1199.69L1551.2 1199.69L1550.5 1197.81ZM1585.3 1184.84L1585.99 1186.71L1587.23 1186.26L1587.29 1184.94L1585.3 1184.84ZM1566.54 1143.49L1566.73 1141.5L1560 1140.86L1565.3 1145.06L1566.54 1143.49ZM1618.49 1167.11L1619.88 1168.55L1620.44 1168.01L1620.49 1167.23L1618.49 1167.11ZM1601.11 1140.75L1601.78 1138.86L1596.26 1136.9L1599.43 1141.83L1601.11 1140.75ZM1621.83 1143.6L1623.15 1145.1L1624.14 1144.23L1623.73 1142.98L1621.83 1143.6ZM1618.02 1132L1619.57 1130.75L1616.11 1132.63L1618.02 1132ZM1630.86 1127.21L1632.7 1128L1632.7 1127.99L1630.86 1127.21ZM1636.91 1112L1638.36 1113.39L1638.36 1113.38L1636.91 1112ZM1645.43 1107.44L1644.78 1105.55L1644.78 1105.55L1645.43 1107.44ZM1718.05 1086.65L1718.5 1088.6L1720.22 1088.2L1720.04 1086.44L1718.05 1086.65ZM1734.17 1069.78L1734.76 1071.7L1734.77 1071.69L1734.17 1069.78ZM1756.12 1058.35L1757.81 1059.42L1757.82 1059.42L1756.12 1058.35ZM1764.11 1045.47L1763.17 1043.71L1763.16 1043.71L1764.11 1045.47ZM1776.93 1043.09L1776.04 1041.29L1776.04 1041.29L1776.93 1043.09ZM1796.13 1020.87L1795.09 1022.58L1797.22 1023.88L1798.02 1021.51L1796.13 1020.87ZM1794.87 973.443L1795.12 971.459L1791.75 971.033L1793.01 974.187L1794.87 973.443ZM1800.9 964.563L1798.97 965.092L1798.97 965.1L1798.97 965.107L1800.9 964.563ZM1792.82 955.066L1791.07 954.105L1790.24 955.61L1791.61 956.654L1792.82 955.066ZM1807.85 954.87L1806.12 955.878L1807.89 958.905L1809.6 955.844L1807.85 954.87ZM1810.01 928.676L1811.99 928.419L1811.99 928.416L1810.01 928.676ZM1802.69 859.225C1794.08 847.869 1789.3 834.519 1785.52 820.398C1781.77 806.425 1778.94 791.385 1774.28 777.465L1770.49 778.734C1775.11 792.548 1777.79 807.007 1781.65 821.434C1785.48 835.712 1790.42 849.662 1799.5 861.642L1802.69 859.225ZM1774.28 777.46C1772.49 772.155 1770.42 766.937 1768.09 761.834L1764.45 763.493C1766.72 768.475 1768.74 773.566 1770.49 778.738L1774.28 777.46ZM1768.09 761.826C1748.66 719.713 1711.72 688.875 1676.37 659.818L1673.83 662.909C1709.3 692.065 1745.47 722.355 1764.46 763.501L1768.09 761.826ZM1676.37 659.818C1668.81 653.613 1661.26 647.401 1653.7 641.189C1646.14 634.977 1638.59 628.764 1631.03 622.559L1628.49 625.65C1636.05 631.855 1643.6 638.067 1651.16 644.279C1658.72 650.491 1666.27 656.703 1673.83 662.909L1676.37 659.818ZM1631.03 622.56C1623.66 616.49 1616.47 610.469 1612.43 602.42L1608.85 604.215C1613.34 613.144 1621.23 619.673 1628.49 625.649L1631.03 622.56ZM1612.43 602.42C1608.4 594.388 1608.54 584.103 1614.44 578.234L1611.61 575.398C1604.06 582.92 1604.36 595.271 1608.85 604.215L1612.43 602.42ZM1614.02 575.081C1588.11 560.216 1566.98 537.137 1554.48 510.033L1550.85 511.708C1563.69 539.568 1585.4 563.273 1612.03 578.551L1614.02 575.081ZM1552.28 512.833C1554.47 513.261 1556.41 512.781 1558 511.639C1559.53 510.542 1560.63 508.918 1561.42 507.198C1562.98 503.77 1563.58 499.377 1563.55 495.838L1559.55 495.871C1559.58 499.055 1559.02 502.815 1557.78 505.536C1557.16 506.891 1556.44 507.841 1555.67 508.388C1554.97 508.89 1554.15 509.124 1553.05 508.908L1552.28 512.833ZM1563.55 495.837C1563.38 477.368 1567.85 458.841 1576.47 442.496L1572.93 440.63C1564 457.566 1559.38 476.746 1559.55 495.873L1563.55 495.837ZM1574.5 443.553C1586.53 444.763 1598.09 439.206 1606.07 430.561C1614.05 421.917 1618.66 409.95 1616.48 398.06L1612.54 398.782C1614.45 409.191 1610.44 419.93 1603.13 427.849C1595.83 435.767 1585.44 440.632 1574.9 439.573L1574.5 443.553ZM1615.07 400.342C1621.67 398.436 1625.3 392.145 1625.97 385.939C1626.63 379.733 1624.4 372.819 1618.34 369.569L1616.45 373.093C1620.63 375.334 1622.54 380.354 1621.99 385.515C1621.44 390.676 1618.51 395.184 1613.96 396.499L1615.07 400.342ZM1618.49 373.004C1621.18 371.243 1625.11 371.476 1627.54 373.551L1630.14 370.511C1626.34 367.264 1620.46 366.936 1616.3 369.658L1618.49 373.004ZM1626.84 372.12C1627.13 378.652 1630.48 385.386 1635.17 389.775C1639.87 394.171 1646.38 396.562 1652.68 393.211L1650.8 389.679C1646.57 391.931 1641.89 390.582 1637.9 386.854C1633.91 383.119 1631.08 377.345 1630.84 371.942L1626.84 372.12ZM1653.74 391.467C1653.81 385.81 1651.15 380.183 1646.71 376.633L1644.21 379.756C1647.69 382.537 1649.79 386.996 1649.74 391.423L1653.74 391.467ZM1646 380.12C1657.75 376.814 1669.5 373.508 1681.22 370.202L1680.13 366.352C1668.42 369.658 1656.67 372.963 1644.92 376.269L1646 380.12ZM1682.46 369.175C1684.47 365.185 1684.15 360.538 1682.4 356.706C1680.64 352.875 1677.32 349.604 1672.97 348.52L1672.01 352.401C1674.95 353.137 1677.41 355.427 1678.76 358.375C1680.11 361.323 1680.25 364.675 1678.89 367.379L1682.46 369.175ZM1673.47 352.206C1682.78 346.998 1693.71 344.7 1704.35 345.672L1704.72 341.689C1693.27 340.644 1681.54 343.109 1671.51 348.714L1673.47 352.206ZM1704.35 345.672C1706.63 345.882 1709.35 346.275 1711.9 346.304C1714.52 346.334 1717.27 346.003 1719.83 344.631L1717.95 341.105C1716.22 342.031 1714.22 342.33 1711.95 342.304C1709.61 342.277 1707.3 341.927 1704.72 341.689L1704.35 345.672ZM1719.83 344.631C1723.26 342.796 1726.27 339.696 1727.63 336.346C1728.32 334.652 1728.62 332.784 1728.2 330.954C1727.77 329.082 1726.63 327.449 1724.8 326.22L1722.57 329.541C1723.64 330.259 1724.12 331.06 1724.3 331.847C1724.49 332.675 1724.39 333.691 1723.92 334.844C1722.97 337.189 1720.69 339.635 1717.95 341.105L1719.83 344.631ZM1723.5 325.889C1717.91 326.4 1712.63 326.805 1707.87 325.101L1706.52 328.867C1712.25 330.917 1718.42 330.37 1723.87 329.872L1723.5 325.889ZM1707.87 325.099C1703.15 323.425 1699.47 319.151 1699.77 314.856L1695.78 314.572C1695.3 321.314 1700.82 326.845 1706.53 328.869L1707.87 325.099ZM1698.23 312.765C1693.29 311.631 1688.7 313.796 1684.83 315.665C1680.68 317.665 1677.24 319.38 1673.67 319.027L1673.27 323.007C1678.2 323.494 1682.76 321.106 1686.57 319.268C1690.65 317.299 1693.97 315.891 1697.33 316.663L1698.23 312.765ZM1673.67 319.027C1671.81 318.841 1669.9 318.089 1667.85 317.008C1665.75 315.896 1663.85 314.633 1661.66 313.36C1657.65 311.027 1652.69 308.653 1647.82 311.834L1650 315.184C1652.64 313.463 1655.49 314.395 1659.65 316.817C1661.55 317.922 1663.82 319.399 1665.98 320.544C1668.21 321.721 1670.66 322.745 1673.27 323.007L1673.67 319.027ZM1650.91 313.448C1650.74 307.943 1650.23 301.553 1646.68 296.504L1643.41 298.803C1646.2 302.774 1646.74 308.038 1646.91 313.57L1650.91 313.448ZM1646.68 296.504C1644.83 293.866 1641.96 291.859 1638.9 290.955C1635.82 290.048 1632.34 290.201 1629.47 292.242L1631.79 295.5C1633.41 294.348 1635.55 294.136 1637.77 294.791C1639.99 295.449 1642.09 296.93 1643.41 298.803L1646.68 296.504ZM1632.25 292.696C1627.17 285.698 1623.02 277.988 1620.03 269.872L1616.28 271.255C1619.4 279.723 1623.72 287.757 1629.01 295.046L1632.25 292.696ZM1618.3 272.558C1626.5 271.958 1632.15 266.631 1635.98 259.95C1639.8 253.286 1642.01 244.989 1643.28 237.712L1639.34 237.02C1638.1 244.115 1636 251.884 1632.51 257.959C1629.03 264.019 1624.37 268.104 1618.01 268.569L1618.3 272.558ZM1641.21 235.369C1634.55 235.729 1627.79 232.919 1623.35 227.963L1620.37 230.634C1625.62 236.49 1633.55 239.788 1641.42 239.363L1641.21 235.369ZM1623.34 227.96C1622.92 227.485 1622.29 226.737 1621.63 226.135C1620.93 225.501 1620 224.847 1618.79 224.574L1617.91 228.475C1618.19 228.538 1618.51 228.711 1618.94 229.099C1619.4 229.52 1619.79 229.99 1620.37 230.637L1623.34 227.96ZM1618.77 224.569C1618.01 224.406 1617.26 224.47 1616.6 224.658L1617.7 228.504C1617.82 228.468 1617.91 228.475 1617.93 228.48L1618.77 224.569ZM1615.33 227.419C1615.44 227.667 1615.53 227.9 1615.57 228.154L1619.5 227.416C1619.38 226.774 1619.18 226.223 1618.96 225.742L1615.33 227.419ZM1616.54 229.52C1616.43 229.456 1616.18 229.273 1616.02 228.901C1615.85 228.517 1615.88 228.153 1615.95 227.913C1616.02 227.696 1616.12 227.578 1616.14 227.545C1616.18 227.506 1616.2 227.496 1616.19 227.501C1616.14 227.533 1616.2 227.468 1616.41 227.477C1616.54 227.483 1616.75 227.522 1616.97 227.668C1617.21 227.821 1617.35 228.024 1617.42 228.187L1613.73 229.737C1614.22 230.892 1615.25 231.428 1616.22 231.473C1617.07 231.512 1617.82 231.207 1618.36 230.864C1618.86 230.54 1619.52 229.948 1619.79 229.058C1619.94 228.562 1619.96 227.943 1619.69 227.32C1619.43 226.709 1618.97 226.304 1618.53 226.051L1616.54 229.52ZM1617.43 228.21C1617.47 228.3 1617.48 228.421 1617.46 228.537C1617.44 228.642 1617.41 228.69 1617.41 228.686C1617.41 228.68 1617.44 228.645 1617.51 228.6C1617.57 228.556 1617.65 228.518 1617.73 228.492L1616.56 224.669C1615.66 224.947 1614.77 225.513 1614.18 226.332C1613.55 227.192 1613.2 228.426 1613.72 229.714L1617.43 228.21ZM1618.96 225.732C1617.49 222.606 1614.08 221.829 1611.23 221.996C1608.28 222.17 1605.07 223.343 1602.75 225.139L1605.19 228.302C1606.85 227.017 1609.29 226.117 1611.46 225.989C1613.73 225.856 1614.92 226.549 1615.34 227.43L1618.96 225.732ZM1602.75 225.139C1600.51 226.87 1598.23 228.674 1595.96 229.739C1593.73 230.788 1591.98 230.904 1590.49 229.961L1588.35 233.342C1591.51 235.34 1594.87 234.671 1597.66 233.36C1600.42 232.065 1603.09 229.933 1605.19 228.303L1602.75 225.139ZM1588.98 233.602C1591.32 234.133 1592.77 232.353 1593.26 231.02C1593.75 229.67 1593.76 227.704 1592.46 226.291L1589.52 229C1589.5 228.985 1589.54 229.02 1589.56 229.163C1589.58 229.31 1589.56 229.488 1589.5 229.642C1589.44 229.806 1589.39 229.828 1589.44 229.789C1589.47 229.764 1589.54 229.727 1589.63 229.706C1589.73 229.684 1589.81 229.69 1589.86 229.701L1588.98 233.602ZM1592.46 226.291C1591.42 225.159 1590.08 224.661 1588.86 224.457C1587.66 224.256 1586.43 224.318 1585.43 224.423L1585.84 228.402C1586.71 228.311 1587.52 228.289 1588.2 228.403C1588.87 228.514 1589.27 228.731 1589.52 229L1592.46 226.291ZM1585.42 224.424C1577.04 225.303 1568.92 228.552 1562.26 233.681L1564.71 236.85C1570.78 232.173 1578.19 229.204 1585.84 228.402L1585.42 224.424ZM1565.47 235.513C1565.97 231.529 1564.25 227.719 1561.58 225.072C1558.92 222.424 1555.1 220.721 1551.12 221.235L1551.63 225.202C1554.15 224.877 1556.79 225.947 1558.76 227.908C1560.73 229.868 1561.81 232.502 1561.5 235.017L1565.47 235.513ZM1553.37 223.08C1552.92 216.625 1552.41 210.201 1551.88 203.752L1547.89 204.082C1548.43 210.52 1548.93 216.926 1549.38 223.358L1553.37 223.08ZM1549.89 201.917C1547.78 201.917 1545.68 201.924 1543.59 201.931C1541.49 201.938 1539.4 201.945 1537.3 201.945V205.945C1539.41 205.945 1541.5 205.938 1543.6 205.931C1545.7 205.924 1547.79 205.917 1549.89 205.917V201.917ZM1539.26 203.573C1538.49 199.498 1536.52 195.655 1533.72 192.639L1530.79 195.361C1533.09 197.836 1534.7 200.997 1535.33 204.318L1539.26 203.573ZM1530.74 192.687C1521.23 203.619 1508.69 211.903 1494.91 216.357L1496.14 220.164C1510.62 215.485 1523.77 206.792 1533.76 195.313L1530.74 192.687ZM1494.14 216.822C1493.49 217.444 1493.02 218.185 1492.81 219.049C1492.61 219.906 1492.71 220.72 1492.93 221.429C1493.34 222.747 1494.28 223.969 1495.06 224.937C1495.94 226.022 1496.74 226.922 1497.4 227.905C1498.05 228.871 1498.35 229.626 1498.38 230.25L1502.37 230.083C1502.3 228.368 1501.53 226.871 1500.72 225.674C1499.93 224.494 1498.9 223.319 1498.17 222.419C1497.34 221.4 1496.9 220.727 1496.74 220.238C1496.68 220.044 1496.7 219.978 1496.7 219.977C1496.71 219.972 1496.71 219.951 1496.73 219.912C1496.76 219.87 1496.81 219.798 1496.91 219.699L1494.14 216.822ZM1498.38 230.238C1498.4 230.956 1498.05 231.677 1497.1 232.465C1496.14 233.266 1494.78 233.928 1493.38 234.461L1494.81 238.199C1496.35 237.61 1498.19 236.761 1499.66 235.544C1501.14 234.315 1502.46 232.514 1502.37 230.095L1498.38 230.238ZM1493.37 234.465C1485.13 237.658 1476.86 240.851 1468.62 244.016L1470.06 247.75C1478.3 244.583 1486.57 241.389 1494.82 238.195L1493.37 234.465ZM1471.33 245.735C1471.19 243.848 1471.06 241.967 1470.93 240.083C1470.79 238.199 1470.66 236.312 1470.52 234.417L1466.53 234.713C1466.67 236.6 1466.8 238.48 1466.94 240.365C1467.07 242.248 1467.2 244.135 1467.34 246.03L1471.33 245.735ZM1469.53 232.835C1464.96 230.182 1459.41 229.253 1454.2 230.368L1455.04 234.279C1459.25 233.377 1463.79 234.129 1467.52 236.294L1469.53 232.835ZM1452.62 232.376C1452.88 242.413 1447.14 252.42 1438.35 257.27L1440.28 260.773C1450.38 255.202 1456.92 243.805 1456.62 232.272L1452.62 232.376ZM1441.18 258.302C1437.19 247.966 1428.18 239.757 1417.53 236.785L1416.46 240.637C1425.88 243.268 1433.92 250.579 1437.45 259.74L1441.18 258.302ZM1415.02 238.421C1414.37 242.818 1413.73 247.222 1413.11 251.598L1417.07 252.157C1417.68 247.793 1418.33 243.4 1418.97 239.001L1415.02 238.421ZM1415.71 249.975C1409.65 248.01 1404.8 242.656 1403.38 236.472L1399.49 237.364C1401.21 244.907 1407.07 251.375 1414.47 253.78L1415.71 249.975ZM1399.82 235.735C1393.68 244.098 1387.24 252.21 1380.49 260.071L1383.52 262.678C1390.34 254.739 1396.85 246.547 1403.05 238.101L1399.82 235.735ZM1383.28 259.83C1375.37 253.33 1367.46 246.83 1359.55 240.357L1357.02 243.452C1364.92 249.922 1372.83 256.42 1380.74 262.92L1383.28 259.83ZM1359.56 240.36C1356.57 237.901 1352.57 235.43 1348.6 234.357C1344.62 233.281 1340.15 233.522 1337.15 237.332L1340.29 239.81C1341.88 237.792 1344.34 237.347 1347.56 238.218C1350.79 239.092 1354.29 241.202 1357.02 243.449L1359.56 240.36ZM1337.14 237.337C1335.98 238.819 1335.4 240.496 1335 242.029C1334.81 242.795 1334.65 243.574 1334.49 244.285C1334.34 245.016 1334.19 245.687 1334.01 246.328L1337.87 247.398C1338.08 246.624 1338.25 245.843 1338.41 245.116C1338.57 244.371 1338.71 243.69 1338.88 243.027C1339.22 241.703 1339.63 240.648 1340.29 239.805L1337.14 237.337ZM1334.02 246.327C1333.25 249.096 1331.76 251.773 1329.91 254.491C1328.01 257.282 1325.97 259.786 1323.92 262.623C1320.04 267.996 1316.44 274.119 1318.7 281.227L1322.51 280.014C1320.9 274.964 1323.27 270.357 1327.16 264.966C1329 262.421 1331.31 259.533 1333.21 256.742C1335.16 253.876 1336.93 250.779 1337.87 247.399L1334.02 246.327ZM1318.7 281.224C1320.3 286.287 1324.44 289.592 1328.11 292.447C1331.97 295.456 1335.34 298.01 1336.98 301.663L1340.63 300.031C1338.5 295.279 1334.17 292.104 1330.57 289.293C1326.76 286.328 1323.69 283.722 1322.51 280.017L1318.7 281.224ZM1336.98 301.661C1338.45 304.972 1338.38 308.88 1338.65 313.344C1338.89 317.543 1339.47 322.268 1343.06 325.687L1345.82 322.79C1343.46 320.55 1342.89 317.32 1342.64 313.107C1342.4 309.16 1342.49 304.201 1340.63 300.032L1336.98 301.661ZM1343.06 325.688C1347.33 329.747 1352.81 329.423 1357.61 327.419C1362.4 325.419 1366.97 321.61 1370.19 317.796L1367.13 315.218C1364.21 318.687 1360.13 322.036 1356.07 323.727C1352.03 325.414 1348.47 325.314 1345.82 322.789L1343.06 325.688ZM1366.71 316.932C1369.25 328.641 1366.84 341.346 1360.26 351.411L1363.61 353.6C1370.76 342.654 1373.39 328.857 1370.61 316.082L1366.71 316.932ZM1360.01 353.07C1359.98 352.949 1359.98 352.87 1359.98 352.828C1359.98 352.805 1359.98 352.663 1360.07 352.452C1360.11 352.35 1360.23 352.11 1360.48 351.873C1360.76 351.606 1361.26 351.324 1361.9 351.369C1362.49 351.409 1362.86 351.699 1363.02 351.846C1363.18 351.998 1363.26 352.131 1363.28 352.157L1359.8 354.142C1359.9 354.315 1360.06 354.553 1360.3 354.775C1360.53 354.991 1360.98 355.315 1361.62 355.359C1362.33 355.408 1362.88 355.101 1363.22 354.786C1363.52 354.502 1363.68 354.191 1363.76 354.002C1363.92 353.615 1363.97 353.232 1363.98 352.951C1363.99 352.652 1363.96 352.299 1363.85 351.94L1360.01 353.07ZM1363.17 354.313C1363.31 354.111 1363.43 353.9 1363.48 353.809C1363.55 353.676 1363.56 353.662 1363.56 353.668L1360.3 351.342C1360.16 351.544 1360.04 351.755 1359.99 351.846C1359.92 351.979 1359.91 351.992 1359.91 351.986L1363.17 354.313ZM1363.85 351.93C1363.77 351.669 1363.53 350.952 1362.8 350.494C1361.85 349.897 1360.88 350.178 1360.34 350.497L1362.35 353.953C1362.26 354.007 1362.04 354.117 1361.71 354.141C1361.36 354.168 1360.99 354.08 1360.67 353.879C1360.38 353.696 1360.21 353.474 1360.14 353.345C1360.06 353.215 1360.03 353.115 1360.02 353.08L1363.85 351.93ZM1360.32 350.505C1358.9 351.348 1358.75 352.827 1358.85 353.727C1358.95 354.629 1359.32 355.478 1359.68 356.076L1363.12 354.033C1363.04 353.902 1362.97 353.751 1362.91 353.603C1362.85 353.45 1362.83 353.339 1362.82 353.279C1362.81 353.212 1362.84 353.285 1362.78 353.437C1362.75 353.519 1362.7 353.619 1362.62 353.718C1362.54 353.818 1362.45 353.893 1362.36 353.945L1360.32 350.505ZM1359.68 356.075C1363.53 362.556 1367.39 369.015 1371.23 375.514L1374.67 373.479C1370.83 366.979 1366.95 360.496 1363.12 354.034L1359.68 356.075ZM1371.23 375.523C1373.76 379.754 1376.72 384.706 1381.51 387.585L1383.57 384.156C1379.78 381.88 1377.3 377.867 1374.67 373.47L1371.23 375.523ZM1381.51 387.584C1385.47 389.967 1390.26 390.619 1394.14 391.415L1394.94 387.497C1390.63 386.613 1386.78 386.088 1383.57 384.156L1381.51 387.584ZM1394.14 391.416C1406.46 393.933 1418.21 399.244 1428.24 406.823L1430.65 403.633C1420.15 395.693 1407.85 390.134 1394.94 387.497L1394.14 391.416ZM1431.31 405.938C1433.88 399.166 1436.51 392.675 1441.21 387.922L1438.37 385.108C1432.98 390.551 1430.11 397.844 1427.57 404.519L1431.31 405.938ZM1441.21 387.922C1445.9 383.179 1453.04 380.783 1458.61 383.245L1460.22 379.587C1452.61 376.222 1443.77 379.653 1438.37 385.108L1441.21 387.922ZM1458.61 383.246C1460.06 383.888 1461.47 384.855 1462.94 386.01C1463.67 386.586 1464.39 387.191 1465.13 387.815C1465.87 388.432 1466.62 389.069 1467.39 389.676C1470.39 392.051 1474.02 394.397 1478.55 393.642L1477.9 389.696C1475.2 390.146 1472.79 388.851 1469.87 386.54C1469.16 385.975 1468.45 385.376 1467.7 384.751C1466.97 384.132 1466.2 383.489 1465.41 382.87C1463.85 381.637 1462.13 380.429 1460.22 379.586L1458.61 383.246ZM1477.79 389.718C1467.53 392.024 1460.18 403.005 1461.99 413.361L1465.93 412.672C1464.48 404.426 1470.48 395.461 1478.66 393.621L1477.79 389.718ZM1464.62 414.903C1467.81 413.779 1471.5 414.576 1474.46 416.703C1477.42 418.83 1479.36 422.073 1479.31 425.456L1483.31 425.509C1483.38 420.544 1480.57 416.167 1476.8 413.455C1473.02 410.742 1467.98 409.48 1463.29 411.13L1464.62 414.903ZM1479.31 425.463C1479.3 426.084 1479.25 426.734 1479.17 427.455C1479.1 428.148 1479 428.942 1478.95 429.715C1478.85 431.271 1478.89 433.09 1479.73 434.855L1483.34 433.143C1482.94 432.303 1482.86 431.306 1482.95 429.977C1482.99 429.307 1483.07 428.641 1483.15 427.873C1483.23 427.134 1483.3 426.324 1483.31 425.502L1479.31 425.463ZM1479.72 434.837C1481.21 438.065 1484.26 439.322 1487.2 439.65C1490.14 439.976 1493.35 439.449 1495.95 438.762L1494.93 434.895C1492.54 435.524 1489.88 435.922 1487.65 435.674C1485.43 435.428 1484.02 434.611 1483.35 433.161L1479.72 434.837ZM1493.57 436.134C1491.25 442.401 1489.58 448.926 1488.64 455.539L1492.6 456.105C1493.5 449.776 1495.09 443.526 1497.32 437.523L1493.57 436.134ZM1490.99 453.857C1489.96 453.662 1488.92 453.46 1487.87 453.257C1486.83 453.054 1485.78 452.85 1484.74 452.652L1483.99 456.583C1485.03 456.778 1486.07 456.98 1487.11 457.183C1488.15 457.386 1489.2 457.59 1490.25 457.787L1490.99 453.857ZM1482.57 453.731C1481.96 454.977 1481.34 456.224 1480.72 457.471C1480.11 458.717 1479.49 459.964 1478.87 461.21L1482.46 462.984C1483.07 461.738 1483.69 460.491 1484.31 459.244C1484.93 457.998 1485.54 456.751 1486.16 455.504L1482.57 453.731ZM1480.98 460.122C1468.59 458.151 1456.36 455.125 1444.47 451.045L1443.18 454.828C1455.29 458.985 1467.74 462.066 1480.35 464.073L1480.98 460.122ZM1444.22 450.976C1440.84 450.292 1438.56 452.594 1437.51 454.952C1436.46 457.31 1436.25 460.372 1437.15 462.886L1440.91 461.533C1440.39 460.069 1440.5 458.075 1441.16 456.58C1441.83 455.086 1442.66 454.741 1443.43 454.897L1444.22 450.976ZM1437.15 462.886C1437.55 463.991 1438.05 465.055 1438.53 466.043C1439.03 467.061 1439.5 467.969 1439.91 468.9C1440.73 470.752 1441.14 472.305 1440.9 473.827L1444.85 474.46C1445.28 471.78 1444.48 469.355 1443.57 467.285C1443.12 466.255 1442.58 465.216 1442.12 464.28C1441.65 463.314 1441.23 462.417 1440.91 461.533L1437.15 462.886ZM1442.67 472.154C1433.91 473.042 1426.63 481.133 1426.63 489.916H1430.63C1430.63 483.179 1436.36 476.814 1443.07 476.133L1442.67 472.154ZM1427.33 488.397C1426.94 488.732 1426.55 489.06 1426.17 489.389C1425.78 489.718 1425.4 490.048 1425 490.386L1427.6 493.424C1428 493.089 1428.38 492.76 1428.77 492.431C1429.15 492.102 1429.54 491.772 1429.93 491.435L1427.33 488.397ZM1424.44 491.177C1423.01 494.838 1424.35 499.26 1427.46 501.578L1429.85 498.368C1428.15 497.1 1427.41 494.574 1428.17 492.632L1424.44 491.177ZM1427.47 501.579C1429.63 503.182 1432.35 503.656 1434.35 504.089C1436.57 504.567 1438.1 505.011 1439.16 506.066L1441.99 503.236C1439.99 501.238 1437.3 500.631 1435.19 500.178C1432.88 499.679 1431.16 499.34 1429.85 498.366L1427.47 501.579ZM1439.16 506.066C1439.95 506.854 1440.43 507.949 1441.01 509.499C1441.53 510.913 1442.17 512.816 1443.41 514.379L1446.55 511.9C1445.79 510.941 1445.36 509.735 1444.75 508.102C1444.2 506.606 1443.47 504.717 1441.99 503.236L1439.16 506.066ZM1443.41 514.385C1444.74 516.053 1446.49 517.078 1448.23 517.776C1449.95 518.466 1451.8 518.891 1453.38 519.261L1454.29 515.367C1452.65 514.98 1451.1 514.62 1449.72 514.064C1448.35 513.516 1447.29 512.831 1446.54 511.894L1443.41 514.385ZM1453.38 519.26C1469.04 522.953 1483.96 529.842 1496.89 539.374L1499.26 536.154C1485.9 526.3 1470.48 519.183 1454.29 515.367L1453.38 519.26ZM1496.24 536.969C1493.31 543.738 1497.06 551.246 1501.82 555.673L1504.54 552.744C1500.33 548.823 1497.97 543.052 1499.91 538.559L1496.24 536.969ZM1501.82 555.673C1504.21 557.904 1506.92 559.664 1509.57 561.272C1512.27 562.913 1514.84 564.357 1517.28 566.07L1519.58 562.798C1517 560.981 1514.19 559.4 1511.64 557.853C1509.04 556.275 1506.63 554.687 1504.54 552.744L1501.82 555.673ZM1517.28 566.069C1526.3 572.416 1532.52 582.009 1538.72 591.731L1542.1 589.579C1535.97 579.971 1529.35 569.674 1519.58 562.798L1517.28 566.069ZM1538.73 591.733C1542.4 597.476 1546.07 603.219 1549.74 608.962C1553.42 614.705 1557.09 620.448 1560.76 626.19L1564.13 624.035C1560.46 618.292 1556.79 612.549 1553.11 606.807C1549.44 601.064 1545.77 595.321 1542.1 589.578L1538.73 591.733ZM1564.04 623.905L1561.85 621.019L1558.67 623.435L1560.85 626.321L1564.04 623.905ZM1558.29 622.576C1560.14 633.013 1569.32 638.323 1578.03 642.939C1582.53 645.322 1586.98 647.542 1590.88 650.223C1594.75 652.886 1597.9 655.892 1599.83 659.715L1603.4 657.913C1601.05 653.262 1597.31 649.794 1593.14 646.927C1589 644.078 1584.27 641.715 1579.91 639.405C1570.91 634.637 1563.69 630.127 1562.23 621.879L1558.29 622.576ZM1599.83 659.715C1601.46 662.959 1602.1 666.579 1602.46 670.518C1602.81 674.32 1602.91 678.696 1603.57 682.724L1607.51 682.08C1606.88 678.209 1606.83 674.376 1606.44 670.152C1606.07 666.065 1605.38 661.841 1603.4 657.914L1599.83 659.715ZM1603.57 682.723C1604.26 686.984 1606.09 691.485 1608.9 694.899C1611.72 698.325 1615.68 700.828 1620.53 700.506L1620.27 696.515C1617.1 696.725 1614.28 695.138 1611.99 692.359C1609.7 689.567 1608.11 685.749 1607.51 682.081L1603.57 682.723ZM1620.53 700.506C1622.77 700.358 1624.86 699.58 1626.61 698.955C1628.47 698.295 1630 697.782 1631.56 697.736L1631.44 693.738C1629.16 693.805 1627.05 694.552 1625.27 695.187C1623.38 695.859 1621.84 696.411 1620.27 696.515L1620.53 700.506ZM1631.56 697.736C1634.41 697.645 1637.17 699.125 1640.31 700.943L1642.31 697.479C1639.35 695.767 1635.6 693.605 1631.44 693.738L1631.56 697.736ZM1640.31 700.941C1645.46 703.925 1650.61 706.909 1655.76 709.892C1660.91 712.876 1666.06 715.859 1671.21 718.842L1673.21 715.382C1668.07 712.398 1662.92 709.414 1657.76 706.431C1652.61 703.447 1647.46 700.464 1642.32 697.481L1640.31 700.941ZM1671.77 715.161C1665.42 716.595 1658.08 719.614 1652.89 723.892C1650.28 726.036 1648.11 728.583 1646.94 731.513C1645.76 734.499 1645.66 737.777 1647.06 741.181L1650.76 739.659C1649.76 737.236 1649.85 735.034 1650.66 732.991C1651.5 730.891 1653.15 728.859 1655.43 726.98C1660.01 723.21 1666.72 720.403 1672.65 719.063L1671.77 715.161ZM1647.06 741.18C1648.63 744.994 1651.88 747.678 1654.53 749.884L1657.09 746.812C1654.29 744.48 1651.89 742.401 1650.76 739.66L1647.06 741.18ZM1654.53 749.887C1662.5 756.502 1670.45 763.08 1678.39 769.691L1680.95 766.618C1673.01 760.005 1665.04 753.417 1657.09 746.809L1654.53 749.887ZM1677.79 768.85C1678.73 771.387 1677.72 774.385 1675.42 776.576C1673.11 778.767 1670.06 779.633 1667.56 778.558L1665.98 782.235C1670.4 784.13 1675.11 782.39 1678.17 779.475C1681.24 776.561 1683.21 771.953 1681.54 767.459L1677.79 768.85ZM1664.95 781.227C1670.8 794.029 1673.01 808.45 1671.32 822.43L1675.29 822.911C1677.07 808.204 1674.74 793.042 1668.59 779.566L1664.95 781.227ZM1674.8 821.346C1672.72 818.989 1669.68 818.472 1667 818.979C1664.34 819.484 1661.72 821.042 1660.09 823.333L1663.35 825.649C1664.33 824.27 1666.02 823.237 1667.75 822.909C1669.47 822.582 1670.92 822.989 1671.8 823.995L1674.8 821.346ZM1660.1 823.327C1657.07 827.55 1656.92 832.989 1656.81 837.384L1660.81 837.483C1660.92 832.857 1661.16 828.716 1663.35 825.655L1660.1 823.327ZM1656.81 837.392C1656.69 842.975 1657.65 849.717 1660.11 854.981C1661.35 857.622 1663.02 860.01 1665.24 861.652C1667.51 863.327 1670.27 864.157 1673.46 863.763L1672.97 859.793C1670.83 860.058 1669.09 859.518 1667.62 858.434C1666.1 857.315 1664.8 855.551 1663.74 853.286C1661.61 848.739 1660.7 842.65 1660.81 837.475L1656.81 837.392ZM1671.57 860.646C1669.31 863.939 1669.02 867.415 1669.73 870.811C1670.41 874.113 1672.04 877.439 1673.7 880.592C1675.4 883.835 1677.13 886.913 1678.32 890.024C1679.5 893.107 1680.04 895.983 1679.5 898.738L1683.42 899.504C1684.16 895.718 1683.37 892.029 1682.06 888.599C1680.76 885.198 1678.86 881.817 1677.24 878.732C1675.57 875.557 1674.2 872.686 1673.64 870.001C1673.11 867.411 1673.36 865.108 1674.87 862.91L1671.57 860.646ZM1679.5 898.742C1678.92 901.715 1677.12 904.273 1674.93 907.212C1672.84 910.016 1670.34 913.215 1669.3 917.09L1673.16 918.131C1673.97 915.143 1675.91 912.585 1678.14 909.604C1680.26 906.758 1682.65 903.504 1683.43 899.5L1679.5 898.742ZM1669.3 917.085C1668.22 921.031 1668.8 924.91 1669.7 928.508C1670.15 930.302 1670.71 932.115 1671.21 933.83C1671.72 935.573 1672.18 937.25 1672.49 938.906L1676.42 938.169C1676.07 936.309 1675.56 934.474 1675.05 932.711C1674.53 930.919 1674.01 929.232 1673.58 927.535C1672.73 924.15 1672.36 921.082 1673.16 918.137L1669.3 917.085ZM1672.49 938.907C1675.18 953.221 1666.36 968.098 1653.93 976.791L1656.23 980.069C1669.43 970.833 1679.5 954.558 1676.42 938.168L1672.49 938.907ZM1653.93 976.791C1641.49 985.499 1626.23 989.186 1610.94 992.759L1611.85 996.654C1627.02 993.111 1643.05 989.29 1656.23 980.069L1653.93 976.791ZM1611.51 992.709C1609.95 992.625 1608.39 992.541 1606.84 992.457C1605.28 992.373 1603.73 992.289 1602.17 992.205L1601.95 996.199C1603.51 996.283 1605.07 996.367 1606.62 996.451C1608.18 996.535 1609.73 996.619 1611.29 996.703L1611.51 992.709ZM1600.28 993.304C1596.72 1000.39 1596.66 1009.11 1600.09 1016.27L1603.7 1014.54C1600.8 1008.49 1600.85 1001.07 1603.85 995.1L1600.28 993.304ZM1603.54 1014.28C1598.74 1007.28 1589.92 1005.32 1582.22 1006.89C1574.52 1008.46 1567.18 1013.72 1565.53 1022.05L1569.46 1022.83C1570.7 1016.57 1576.35 1012.17 1583.02 1010.81C1589.7 1009.45 1596.63 1011.27 1600.24 1016.54L1603.54 1014.28ZM1569.37 1021.76C1567.89 1017.66 1563.84 1015.59 1560.03 1015.31C1556.22 1015.04 1551.92 1016.5 1549.86 1020.35L1553.39 1022.23C1554.48 1020.2 1556.97 1019.1 1559.74 1019.3C1562.51 1019.5 1564.83 1020.95 1565.61 1023.12L1569.37 1021.76ZM1549.86 1020.35C1547.81 1024.2 1548.98 1028.59 1551.32 1031.6C1553.67 1034.62 1557.64 1036.83 1561.89 1035.78L1560.93 1031.9C1558.67 1032.45 1556.18 1031.33 1554.48 1029.14C1552.78 1026.95 1552.3 1024.27 1553.39 1022.23L1549.86 1020.35ZM1559.41 1033.88C1559.52 1039.64 1559.71 1046.45 1563.27 1051.91L1566.62 1049.73C1563.78 1045.38 1563.52 1039.76 1563.41 1033.8L1559.41 1033.88ZM1563.27 1051.92C1565.16 1054.79 1568.21 1056.96 1571.46 1057.89C1574.72 1058.83 1578.43 1058.58 1581.33 1056.17L1578.78 1053.09C1577.16 1054.43 1574.93 1054.73 1572.57 1054.05C1570.19 1053.37 1567.95 1051.75 1566.61 1049.72L1563.27 1051.92ZM1578.31 1055.61C1580.21 1058.97 1580.73 1063.1 1579.72 1066.79L1583.58 1067.85C1584.87 1063.13 1584.21 1057.91 1581.79 1053.64L1578.31 1055.61ZM1581.98 1065.35C1578.8 1064.82 1574.92 1065.27 1571.89 1066.52C1570.37 1067.14 1568.91 1068.04 1567.89 1069.27C1566.82 1070.56 1566.24 1072.21 1566.63 1074.08L1570.55 1073.28C1570.44 1072.77 1570.55 1072.32 1570.96 1071.82C1571.42 1071.27 1572.24 1070.7 1573.41 1070.22C1575.76 1069.25 1578.89 1068.89 1581.33 1069.29L1581.98 1065.35ZM1566.68 1074.27C1566.75 1074.51 1566.85 1074.78 1566.9 1074.9C1566.96 1075.07 1566.98 1075.16 1567 1075.22L1570.91 1074.38C1570.84 1074.05 1570.74 1073.76 1570.66 1073.55C1570.57 1073.31 1570.54 1073.21 1570.5 1073.09L1566.68 1074.27ZM1570.74 1073.9C1570.63 1073.69 1570.59 1073.53 1570.56 1073.37L1566.61 1073.98C1566.7 1074.56 1566.88 1075.12 1567.16 1075.69L1570.74 1073.9ZM1570.49 1073.06C1567.91 1065.14 1560.62 1061.89 1552.79 1061.14C1544.93 1060.39 1535.94 1062.06 1528.74 1064.56L1530.05 1068.34C1536.89 1065.97 1545.29 1064.44 1552.41 1065.12C1559.55 1065.8 1564.83 1068.6 1566.69 1074.3L1570.49 1073.06ZM1528.74 1064.56C1526.47 1065.35 1524.2 1066.13 1521.93 1066.91C1519.66 1067.7 1517.38 1068.48 1515.11 1069.27L1516.42 1073.05C1518.69 1072.26 1520.96 1071.48 1523.23 1070.69C1525.5 1069.91 1527.77 1069.13 1530.05 1068.34L1528.74 1064.56ZM1517.28 1069.85C1514.86 1067.04 1511.16 1066 1507.77 1066.32C1504.38 1066.64 1500.94 1068.37 1499.09 1071.59L1502.56 1073.58C1503.62 1071.73 1505.75 1070.53 1508.15 1070.3C1510.55 1070.07 1512.86 1070.85 1514.25 1072.46L1517.28 1069.85ZM1499.09 1071.59C1497.24 1074.81 1497.48 1078.65 1498.91 1081.74C1500.35 1084.83 1503.12 1087.49 1506.77 1088.17L1507.5 1084.23C1505.39 1083.85 1503.56 1082.24 1502.54 1080.05C1501.53 1077.87 1501.49 1075.44 1502.56 1073.58L1499.09 1071.59ZM1506.46 1084.32C1495.21 1088.35 1483.97 1092.39 1472.71 1096.39L1474.05 1100.16C1485.32 1096.15 1496.57 1092.12 1507.81 1088.08L1506.46 1084.32ZM1472.71 1096.39C1470.78 1097.07 1468.52 1098.06 1466.71 1099.48C1464.88 1100.91 1463.28 1102.98 1463.3 1105.8L1467.3 1105.77C1467.29 1104.66 1467.88 1103.64 1469.17 1102.63C1470.48 1101.6 1472.27 1100.79 1474.05 1100.16L1472.71 1096.39ZM1463.3 1105.81C1463.32 1107.55 1463.98 1109.03 1464.68 1110.24C1465.02 1110.84 1465.41 1111.42 1465.76 1111.95C1466.12 1112.49 1466.44 1112.96 1466.72 1113.44L1470.16 1111.4C1469.81 1110.82 1469.43 1110.24 1469.09 1109.73C1468.73 1109.2 1468.42 1108.72 1468.14 1108.24C1467.59 1107.28 1467.31 1106.51 1467.3 1105.76L1463.3 1105.81ZM1466.72 1113.44C1468.07 1115.71 1468.72 1118.33 1469.53 1121.31C1470.3 1124.18 1471.22 1127.37 1473.22 1130.1L1476.45 1127.74C1474.94 1125.68 1474.18 1123.18 1473.39 1120.27C1472.63 1117.47 1471.85 1114.24 1470.16 1111.4L1466.72 1113.44ZM1473.22 1130.1C1475.5 1133.24 1479.72 1134.38 1483.08 1134.02C1484.8 1133.83 1486.56 1133.23 1487.86 1132.04C1489.24 1130.79 1489.97 1128.99 1489.69 1126.87L1485.72 1127.39C1485.83 1128.21 1485.58 1128.71 1485.17 1129.09C1484.67 1129.54 1483.81 1129.92 1482.65 1130.04C1480.25 1130.3 1477.65 1129.4 1476.45 1127.75L1473.22 1130.1ZM1488.54 1128.95C1489.99 1128.27 1491.01 1128.45 1491.84 1128.97C1492.79 1129.57 1493.73 1130.8 1494.49 1132.64C1496.01 1136.32 1496.4 1141.51 1495.48 1145.41L1499.38 1146.33C1500.48 1141.63 1500.03 1135.59 1498.19 1131.12C1497.27 1128.88 1495.91 1126.8 1493.97 1125.58C1491.9 1124.28 1489.44 1124.12 1486.86 1125.32L1488.54 1128.95ZM1495.48 1145.41C1489.63 1170.23 1483.77 1195.05 1477.91 1219.85L1481.8 1220.77C1487.66 1195.97 1493.52 1171.15 1499.38 1146.33L1495.48 1145.41ZM1479.78 1222.3C1483.09 1222.42 1486.41 1222.53 1489.75 1222.61L1489.86 1218.61C1486.53 1218.53 1483.23 1218.42 1479.92 1218.31L1479.78 1222.3ZM1487.88 1220.07C1486.13 1226.22 1483.24 1232.05 1479.38 1237.17L1482.57 1239.58C1486.73 1234.06 1489.84 1227.78 1491.73 1221.16L1487.88 1220.07ZM1480.38 1240.28C1501.47 1246.86 1526.47 1235.7 1535.7 1215.62L1532.06 1213.95C1523.68 1232.2 1500.74 1242.44 1481.57 1236.47L1480.38 1240.28ZM1535.7 1215.62C1536.14 1214.64 1536.55 1213.65 1536.95 1212.7C1537.36 1211.74 1537.75 1210.81 1538.17 1209.91C1539.01 1208.12 1539.92 1206.54 1541.12 1205.25L1538.19 1202.53C1536.58 1204.26 1535.46 1206.26 1534.55 1208.22C1534.09 1209.2 1533.67 1210.19 1533.26 1211.15C1532.86 1212.12 1532.47 1213.05 1532.06 1213.96L1535.7 1215.62ZM1541.12 1205.25C1543.6 1202.57 1547.2 1201.17 1551.2 1199.69L1549.81 1195.94C1545.96 1197.36 1541.42 1199.04 1538.19 1202.53L1541.12 1205.25ZM1551.2 1199.69C1557.01 1197.53 1562.8 1195.36 1568.6 1193.2C1574.4 1191.03 1580.19 1188.87 1585.99 1186.71L1584.6 1182.97C1578.8 1185.12 1573 1187.29 1567.2 1189.45C1561.4 1191.62 1555.61 1193.78 1549.81 1195.94L1551.2 1199.69ZM1587.29 1184.94C1588.11 1168.6 1580.6 1152.07 1567.78 1141.92L1565.3 1145.06C1577.1 1154.41 1584.05 1169.7 1583.3 1184.74L1587.29 1184.94ZM1566.35 1145.48C1570.91 1145.92 1574.84 1148.25 1578.63 1151.55C1582.52 1154.93 1585.84 1158.92 1589.68 1162.78L1592.52 1159.95C1589.04 1156.46 1585.25 1152.01 1581.26 1148.53C1577.18 1144.98 1572.48 1142.05 1566.73 1141.5L1566.35 1145.48ZM1589.68 1162.78C1593.54 1166.64 1598.8 1170.08 1604.19 1171.6C1609.59 1173.13 1615.44 1172.8 1619.88 1168.55L1617.11 1165.66C1614.06 1168.59 1609.87 1169.05 1605.28 1167.75C1600.67 1166.45 1595.98 1163.43 1592.52 1159.95L1589.68 1162.78ZM1620.49 1167.23C1621 1158.92 1617.46 1150.71 1611.55 1145.02L1608.78 1147.9C1613.92 1152.85 1616.93 1159.94 1616.5 1166.98L1620.49 1167.23ZM1610.53 1144.49C1607.3 1143.9 1604.45 1142.24 1602.79 1139.66L1599.43 1141.83C1601.81 1145.53 1605.74 1147.68 1609.8 1148.43L1610.53 1144.49ZM1600.44 1142.63C1603.54 1143.73 1606.38 1145.56 1608.77 1147.89L1611.56 1145.03C1608.79 1142.32 1605.46 1140.17 1601.78 1138.86L1600.44 1142.63ZM1609.8 1148.43C1614.36 1149.27 1619.46 1148.37 1623.15 1145.1L1620.5 1142.1C1617.92 1144.39 1614.15 1145.16 1610.53 1144.49L1609.8 1148.43ZM1623.73 1142.98C1623.1 1141.05 1622.46 1139.11 1621.82 1137.18C1621.18 1135.24 1620.55 1133.31 1619.92 1131.38L1616.11 1132.63C1616.75 1134.56 1617.38 1136.5 1618.02 1138.43C1618.66 1140.36 1619.3 1142.29 1619.93 1144.22L1623.73 1142.98ZM1616.46 1133.26C1618.97 1136.39 1622.77 1136.24 1625.72 1134.95C1628.67 1133.66 1631.4 1131.03 1632.7 1128L1629.02 1126.43C1628.15 1128.47 1626.19 1130.38 1624.12 1131.29C1622.05 1132.19 1620.5 1131.91 1619.57 1130.75L1616.46 1133.26ZM1632.7 1127.99C1633.82 1125.31 1634.47 1122.2 1635.17 1119.75C1635.92 1117.16 1636.8 1115.01 1638.36 1113.39L1635.47 1110.62C1633.21 1112.97 1632.12 1115.9 1631.33 1118.64C1630.5 1121.54 1630.02 1124.04 1629.01 1126.44L1632.7 1127.99ZM1638.36 1113.38C1640.21 1111.44 1642.93 1110.42 1646.09 1109.33L1644.78 1105.55C1641.77 1106.58 1638.1 1107.86 1635.46 1110.62L1638.36 1113.38ZM1646.09 1109.33C1669.82 1101.14 1694.01 1094.21 1718.5 1088.6L1717.6 1084.7C1692.97 1090.35 1668.65 1097.31 1644.78 1105.55L1646.09 1109.33ZM1720.04 1086.44C1719.69 1083.08 1721.26 1080.07 1724.1 1077.48C1726.96 1074.88 1730.92 1072.88 1734.76 1071.7L1733.58 1067.87C1729.35 1069.18 1724.81 1071.42 1721.41 1074.52C1717.99 1077.64 1715.54 1081.81 1716.06 1086.86L1720.04 1086.44ZM1734.77 1071.69C1738.64 1070.49 1743.23 1069.34 1747.26 1067.65C1751.36 1065.92 1755.25 1063.48 1757.81 1059.42L1754.43 1057.29C1752.48 1060.37 1749.43 1062.39 1745.7 1063.96C1741.91 1065.56 1737.78 1066.56 1733.57 1067.88L1734.77 1071.69ZM1757.82 1059.42C1758.59 1058.19 1759.2 1056.88 1759.73 1055.63C1760.3 1054.32 1760.74 1053.19 1761.27 1052.02C1762.32 1049.74 1763.4 1048.12 1765.06 1047.23L1763.16 1043.71C1760.31 1045.25 1758.77 1047.89 1757.64 1050.35C1757.08 1051.56 1756.55 1052.91 1756.06 1054.05C1755.54 1055.25 1755.03 1056.33 1754.43 1057.29L1757.82 1059.42ZM1765.06 1047.23C1766.52 1046.45 1768.28 1046.32 1770.58 1046.22C1772.71 1046.13 1775.4 1046.07 1777.81 1044.88L1776.04 1041.29C1774.53 1042.04 1772.74 1042.13 1770.41 1042.23C1768.26 1042.32 1765.57 1042.42 1763.17 1043.71L1765.06 1047.23ZM1777.81 1044.88C1780.93 1043.35 1782.63 1040.59 1783.75 1037.8C1784.81 1035.14 1785.52 1031.86 1786.24 1029.49L1782.41 1028.33C1781.53 1031.23 1781.03 1033.82 1780.03 1036.32C1779.08 1038.69 1777.88 1040.39 1776.04 1041.29L1777.81 1044.88ZM1786.24 1029.49C1786.93 1027.22 1788.49 1024.84 1790.3 1023.4C1792.11 1021.97 1793.73 1021.75 1795.09 1022.58L1797.17 1019.17C1793.82 1017.11 1790.34 1018.27 1787.82 1020.27C1785.31 1022.25 1783.32 1025.34 1782.41 1028.33L1786.24 1029.49ZM1798.02 1021.51C1803.36 1005.77 1802.9 988.132 1796.73 972.7L1793.01 974.187C1798.83 988.731 1799.27 1005.38 1794.24 1020.23L1798.02 1021.51ZM1794.62 975.428C1797.73 975.821 1800.19 973.998 1801.58 971.795C1802.97 969.602 1803.57 966.667 1802.82 964.018L1798.97 965.107C1799.37 966.521 1799.06 968.293 1798.2 969.657C1797.34 971.012 1796.21 971.598 1795.12 971.459L1794.62 975.428ZM1802.83 964.034C1801.5 959.186 1797.29 955.97 1794.04 953.478L1791.61 956.654C1795.08 959.316 1798.05 961.76 1798.97 965.092L1802.83 964.034ZM1794.58 956.027C1795.6 954.16 1797.81 953.039 1800.31 953.007C1802.8 952.975 1805.05 954.039 1806.12 955.878L1809.58 953.862C1807.59 950.462 1803.78 948.962 1800.26 949.008C1796.73 949.053 1792.96 950.649 1791.07 954.105L1794.58 956.027ZM1809.6 955.844C1814.31 947.388 1813.13 937.151 1811.99 928.419L1808.02 928.934C1809.19 937.907 1810.08 946.776 1806.1 953.895L1809.6 955.844ZM1811.99 928.416C1808.99 905.554 1806.05 882.872 1803.08 860.174L1799.11 860.693C1802.08 883.379 1805.03 906.08 1808.03 928.937L1811.99 928.416Z" fill="#B6BDFF" mask="url(#path-6-inside-1_292_28148)"/>
<path d="M1592.65 1096.48C1592.74 1096.85 1592.85 1097.21 1593.02 1097.6C1592.93 1097.18 1592.77 1096.85 1592.65 1096.48Z" fill="#ECEEFF"/>
</g>
<circle cx="1548" cy="354" r="7" fill="#D7DBFE"/>
<circle cx="1548" cy="354" r="9.5" stroke="#BDC4FF"/>
<circle cx="1525" cy="519" r="6" fill="#E2E5FF"/>
<circle cx="1598" cy="608" r="6" fill="#E2E5FF"/>
<circle cx="1757" cy="905" r="6" fill="#E2E5FF"/>
<ellipse cx="1617.5" cy="1058" rx="12.5" ry="5" fill="#D6DAFF"/>
<path d="M1633.5 1058C1633.5 1059.91 1631.89 1061.78 1628.95 1063.21C1626.04 1064.62 1622 1065.5 1617.5 1065.5C1613 1065.5 1608.96 1064.62 1606.05 1063.21C1603.11 1061.78 1601.5 1059.91 1601.5 1058C1601.5 1056.09 1603.11 1054.22 1606.05 1052.79C1608.96 1051.38 1613 1050.5 1617.5 1050.5C1622 1050.5 1626.04 1051.38 1628.95 1052.79C1631.89 1054.22 1633.5 1056.09 1633.5 1058Z" stroke="#B6BDFF"/>
<circle cx="1686" cy="692" r="6" fill="#E2E5FF"/>
<path d="M1546.5 353C1594.5 264.5 1787 417.7 1689 690.5" stroke="#91B6EC" stroke-dasharray="2 4"/>
<path d="M1684 692.5C1733.67 697 1819.1 745.3 1763.5 902.5" stroke="#91B6EC" stroke-dasharray="2 4"/>
<path d="M1548 355.216C1567.53 347.87 1593.5 426.5 1524 518" stroke="#91B6EC" stroke-dasharray="2 4"/>
<path d="M1551.5 355C1615.5 290 1651.2 482.1 1598 606.5" stroke="#91B6EC" stroke-dasharray="2 4"/>
<path d="M1546.11 354C1437.11 354 1466.1 601.6 1618.5 1054" stroke="#91B6EC" stroke-dasharray="2 4"/>
<path d="M1552 356C1540 329.834 1499.7 283.5 1434.5 307.5" stroke="#91B6EC" stroke-dasharray="2 4"/>
<circle cx="1429" cy="310" r="6" fill="#E2E5FF"/>
<circle cx="1528" cy="428" r="6" fill="#E2E5FF"/>
<path d="M1546 356.5C1534.33 367.667 1514.1 396.4 1526.5 422" stroke="#91B6EC" stroke-dasharray="2 4"/>
</svg>
