<svg width="129" height="67" viewBox="0 0 129 67" fill="none" xmlns="http://www.w3.org/2000/svg">
<g clip-path="url(#clip0_374_45812)">
<rect y="0.166992" width="128.333" height="66.6667" rx="6.66667" fill="#8C7FFC"/>
<g clip-path="url(#clip1_374_45812)">
<path d="M110 6.83496L107.5 13.5016L100.833 16.0016L107.5 18.5016L110 25.1683L112.5 18.5016L119.166 16.0016L112.5 13.5016L110 6.83496Z" fill="#B1A8FF" fill-opacity="0.8"/>
</g>
<path d="M91.9331 25.4491L93.3331 22.3936L94.722 25.4491L97.7776 26.838L94.722 28.238L93.3331 31.2824L91.9331 28.238L88.8887 26.838L91.9331 25.4491Z" fill="#B1A8FF" fill-opacity="0.8"/>
<path d="M11.2099 52.834V44.3491H12.747V48.2477H12.8506L16.1608 44.3491H18.0376L14.7563 48.1565L18.0666 52.834H16.2188L13.6874 49.1964L12.747 50.3068V52.834H11.2099ZM19.5042 55.2203C19.2998 55.2203 19.1106 55.2038 18.9366 55.1706C18.7654 55.1403 18.6287 55.1043 18.5265 55.0629L18.8745 53.8946C19.0927 53.9581 19.2874 53.9885 19.4586 53.9857C19.6299 53.983 19.7804 53.9291 19.9102 53.8242C20.0428 53.722 20.1547 53.5507 20.2458 53.3104L20.3742 52.9666L18.0666 46.4703H19.6575L21.1241 51.2762H21.1904L22.6612 46.4703H24.2562L21.7083 53.6046C21.5895 53.9415 21.4321 54.2302 21.236 54.4705C21.0399 54.7135 20.7996 54.8986 20.5151 55.0256C20.2334 55.1554 19.8964 55.2203 19.5042 55.2203ZM19.9392 45.6956L19.0319 45.6749C19.0319 45.1833 19.159 44.798 19.4131 44.519C19.6672 44.24 19.9806 44.1006 20.3535 44.1006C20.533 44.1006 20.6891 44.1309 20.8217 44.1917C20.9543 44.2497 21.0758 44.3174 21.1863 44.3947C21.2995 44.472 21.41 44.5411 21.5177 44.6019C21.6254 44.6599 21.7442 44.6889 21.874 44.6889C22.0314 44.6889 22.1557 44.6295 22.2469 44.5107C22.3408 44.3919 22.3891 44.24 22.3919 44.055L23.2826 44.0923C23.2798 44.5867 23.1514 44.9706 22.8973 45.244C22.6432 45.5147 22.3311 45.6514 21.961 45.6542C21.7621 45.6569 21.595 45.6279 21.4597 45.5672C21.3244 45.5064 21.2056 45.4374 21.1034 45.36C21.004 45.2827 20.9032 45.215 20.801 45.157C20.6988 45.0963 20.5786 45.0659 20.4405 45.0659C20.2941 45.0659 20.174 45.1239 20.0801 45.2399C19.9862 45.3559 19.9392 45.5078 19.9392 45.6956ZM29.6877 49.1053V52.834H28.1879V46.4703H29.6214V47.5517H29.696C29.8424 47.1954 30.0757 46.9123 30.3961 46.7024C30.7193 46.4924 31.1184 46.3875 31.5935 46.3875C32.0326 46.3875 32.4151 46.4814 32.7411 46.6692C33.0697 46.857 33.3238 47.1291 33.5034 47.4854C33.6857 47.8417 33.7754 48.2739 33.7727 48.7821V52.834H32.2729V49.0141C32.2729 48.5888 32.1624 48.256 31.9415 48.0157C31.7233 47.7754 31.4208 47.6552 31.0342 47.6552C30.7718 47.6552 30.5384 47.7132 30.334 47.8292C30.1324 47.9425 29.9735 48.1068 29.8575 48.3223C29.7443 48.5377 29.6877 48.7987 29.6877 49.1053ZM37.1285 52.9624C36.7252 52.9624 36.362 52.8906 36.0389 52.747C35.7185 52.6006 35.4644 52.3852 35.2766 52.1007C35.0915 51.8162 34.999 51.4654 34.999 51.0484C34.999 50.6893 35.0653 50.3924 35.1979 50.1576C35.3304 49.9228 35.5113 49.735 35.7406 49.5942C35.9698 49.4533 36.2281 49.347 36.5153 49.2752C36.8053 49.2006 37.105 49.1467 37.4144 49.1136C37.7872 49.0749 38.0897 49.0404 38.3217 49.01C38.5537 48.9769 38.7222 48.9271 38.8271 48.8609C38.9348 48.7918 38.9887 48.6855 38.9887 48.5418V48.517C38.9887 48.2049 38.8962 47.9632 38.7111 47.792C38.5261 47.6207 38.2595 47.5351 37.9115 47.5351C37.5442 47.5351 37.2528 47.6152 37.0373 47.7754C36.8247 47.9356 36.681 48.1248 36.6065 48.343L35.2061 48.1441C35.3166 47.7574 35.4989 47.4343 35.753 47.1747C36.0071 46.9123 36.3178 46.7162 36.6852 46.5864C37.0525 46.4538 37.4586 46.3875 37.9032 46.3875C38.2098 46.3875 38.515 46.4234 38.8188 46.4952C39.1227 46.567 39.4002 46.6858 39.6516 46.8515C39.9029 47.0145 40.1045 47.2368 40.2565 47.5185C40.4111 47.8002 40.4885 48.1524 40.4885 48.575V52.834H39.0467V51.9598H38.997C38.9058 52.1366 38.7774 52.3023 38.6117 52.457C38.4487 52.6089 38.243 52.7318 37.9944 52.8257C37.7486 52.9168 37.4599 52.9624 37.1285 52.9624ZM37.5179 51.8604C37.819 51.8604 38.08 51.801 38.301 51.6822C38.5219 51.5607 38.6918 51.4005 38.8105 51.2016C38.9321 51.0028 38.9928 50.786 38.9928 50.5512V49.8013C38.9459 49.84 38.8658 49.8759 38.7525 49.909C38.6421 49.9422 38.5178 49.9712 38.3797 49.996C38.2416 50.0209 38.1049 50.043 37.9695 50.0623C37.8342 50.0817 37.7168 50.0982 37.6174 50.112C37.3936 50.1424 37.1934 50.1921 37.0166 50.2612C36.8399 50.3302 36.7004 50.4269 36.5982 50.5512C36.496 50.6727 36.4449 50.8302 36.4449 51.0235C36.4449 51.2997 36.5457 51.5082 36.7473 51.6491C36.949 51.79 37.2058 51.8604 37.5179 51.8604ZM38.7898 44.2828H39.9126C39.9126 44.7662 39.7372 45.1584 39.3864 45.4595C39.0384 45.7578 38.5661 45.9069 37.9695 45.9069C37.3785 45.9069 36.9075 45.7578 36.5568 45.4595C36.2087 45.1584 36.0361 44.7662 36.0389 44.2828H37.1534C37.1534 44.4817 37.2141 44.6599 37.3356 44.8173C37.4599 44.972 37.6712 45.0493 37.9695 45.0493C38.2623 45.0493 38.4708 44.972 38.5951 44.8173C38.7222 44.6626 38.7871 44.4845 38.7898 44.2828ZM43.4963 49.1053V52.834H41.9965V46.4703H43.43V47.5517H43.5046C43.6509 47.1954 43.8843 46.9123 44.2047 46.7024C44.5279 46.4924 44.927 46.3875 45.402 46.3875C45.8412 46.3875 46.2237 46.4814 46.5497 46.6692C46.8783 46.857 47.1324 47.1291 47.312 47.4854C47.4943 47.8417 47.584 48.2739 47.5813 48.7821V52.834H46.0815V49.0141C46.0815 48.5888 45.971 48.256 45.7501 48.0157C45.5319 47.7754 45.2294 47.6552 44.8427 47.6552C44.5804 47.6552 44.347 47.7132 44.1426 47.8292C43.941 47.9425 43.7821 48.1068 43.6661 48.3223C43.5529 48.5377 43.4963 48.7987 43.4963 49.1053ZM51.8734 55.3529C51.3348 55.3529 50.8722 55.2797 50.4855 55.1333C50.0988 54.9897 49.7881 54.7964 49.5533 54.5533C49.3186 54.3103 49.1556 54.041 49.0645 53.7454L50.4151 53.4181C50.4758 53.5424 50.5642 53.6653 50.6802 53.7869C50.7962 53.9112 50.9523 54.0134 51.1484 54.0935C51.3472 54.1763 51.5972 54.2177 51.8983 54.2177C52.3236 54.2177 52.6758 54.1142 52.9547 53.907C53.2337 53.7026 53.3732 53.3657 53.3732 52.8961V51.6905H53.2986C53.2213 51.8452 53.108 52.004 52.9589 52.167C52.8125 52.3299 52.6178 52.4666 52.3747 52.5771C52.1344 52.6876 51.832 52.7428 51.4674 52.7428C50.9785 52.7428 50.5352 52.6282 50.1375 52.399C49.7425 52.167 49.4277 51.8217 49.1929 51.3632C48.9609 50.902 48.8449 50.3247 48.8449 49.6315C48.8449 48.9327 48.9609 48.343 49.1929 47.8624C49.4277 47.379 49.7439 47.0131 50.1416 46.7645C50.5394 46.5132 50.9827 46.3875 51.4715 46.3875C51.8444 46.3875 52.151 46.451 52.3913 46.5781C52.6343 46.7024 52.8277 46.8529 52.9713 47.0297C53.1149 47.2037 53.224 47.368 53.2986 47.5227H53.3815V46.4703H54.8605V52.9376C54.8605 53.4817 54.7307 53.9319 54.4711 54.2882C54.2114 54.6445 53.8565 54.911 53.4063 55.0878C52.9561 55.2645 52.4451 55.3529 51.8734 55.3529ZM51.8858 51.5662C52.2035 51.5662 52.4741 51.4889 52.6979 51.3342C52.9216 51.1795 53.0914 50.9572 53.2074 50.6672C53.3235 50.3772 53.3815 50.0292 53.3815 49.6232C53.3815 49.2227 53.3235 48.8719 53.2074 48.5708C53.0942 48.2698 52.9257 48.0364 52.702 47.8707C52.481 47.7022 52.209 47.618 51.8858 47.618C51.5516 47.618 51.2727 47.705 51.0489 47.879C50.8252 48.053 50.6567 48.2919 50.5435 48.5957C50.4303 48.8968 50.3736 49.2392 50.3736 49.6232C50.3736 50.0126 50.4303 50.3537 50.5435 50.6465C50.6595 50.9365 50.8294 51.163 51.0531 51.3259C51.2796 51.4861 51.5572 51.5662 51.8858 51.5662Z" fill="white"/>
</g>
<defs>
<clipPath id="clip0_374_45812">
<rect y="0.166992" width="128.333" height="66.6667" rx="6.66667" fill="white"/>
</clipPath>
<clipPath id="clip1_374_45812">
<rect width="20" height="20" fill="white" transform="translate(100 6.00293)"/>
</clipPath>
</defs>
</svg>
