<svg width="129" height="68" viewBox="0 0 129 68" fill="none" xmlns="http://www.w3.org/2000/svg">
<rect x="0.666748" y="0.833984" width="128.333" height="66.6667" rx="6.66667" fill="#B5DC1D"/>
<path d="M110.667 7.50195L108.167 14.1686L101.5 16.6686L108.167 19.1686L110.667 25.8353L113.167 19.1686L119.834 16.6686L113.167 14.1686L110.667 7.50195Z" fill="white" fill-opacity="0.8"/>
<path d="M92.5999 26.1122L93.9999 23.0566L95.3888 26.1122L98.4443 27.5011L95.3888 28.9011L93.9999 31.9455L92.5999 28.9011L89.5554 27.5011L92.5999 26.1122Z" fill="white" fill-opacity="0.8"/>
<path d="M18.9102 47.8789H17.3607C17.3165 47.6248 17.235 47.3997 17.1163 47.2036C16.9975 47.0048 16.8497 46.8363 16.673 46.6982C16.4962 46.5601 16.2946 46.4565 16.0681 46.3875C15.8444 46.3156 15.6027 46.2797 15.3431 46.2797C14.8818 46.2797 14.473 46.3957 14.1167 46.6278C13.7604 46.857 13.4815 47.194 13.2799 47.6386C13.0782 48.0806 12.9774 48.6205 12.9774 49.2586C12.9774 49.9076 13.0782 50.4545 13.2799 50.8992C13.4842 51.3411 13.7632 51.6753 14.1167 51.9018C14.473 52.1255 14.8804 52.2374 15.3389 52.2374C15.593 52.2374 15.8306 52.2042 16.0515 52.1379C16.2752 52.0689 16.4755 51.9681 16.6522 51.8355C16.8318 51.7029 16.9823 51.54 17.1038 51.3466C17.2281 51.1533 17.3137 50.9323 17.3607 50.6837L18.9102 50.692C18.8522 51.0953 18.7265 51.4737 18.5332 51.8272C18.3426 52.1807 18.0926 52.4928 17.7833 52.7635C17.4739 53.0314 17.1121 53.2413 16.6978 53.3933C16.2835 53.5424 15.8236 53.617 15.3182 53.617C14.5725 53.617 13.9068 53.4444 13.3213 53.0991C12.7357 52.7539 12.2745 52.2553 11.9375 51.6035C11.6006 50.9517 11.4321 50.17 11.4321 49.2586C11.4321 48.3443 11.6019 47.5627 11.9417 46.9136C12.2814 46.2618 12.744 45.7632 13.3296 45.418C13.9151 45.0727 14.578 44.9001 15.3182 44.9001C15.7905 44.9001 16.2297 44.9664 16.6357 45.099C17.0417 45.2316 17.4035 45.4263 17.7211 45.6831C18.0388 45.9373 18.2998 46.2494 18.5042 46.6195C18.7113 46.9868 18.8467 47.4066 18.9102 47.8789ZM21.7512 49.7723V53.501H20.2515V45.0161H21.7181V48.2187H21.7927C21.9418 47.8596 22.1724 47.5765 22.4845 47.3693C22.7994 47.1594 23.1999 47.0545 23.686 47.0545C24.1279 47.0545 24.5132 47.147 24.8419 47.3321C25.1706 47.5171 25.4247 47.7878 25.6042 48.1441C25.7865 48.5004 25.8777 48.9354 25.8777 49.4491V53.501H24.3779V49.6811C24.3779 49.253 24.2674 48.9202 24.0465 48.6827C23.8283 48.4424 23.5217 48.3222 23.1267 48.3222C22.8616 48.3222 22.624 48.3802 22.4141 48.4962C22.207 48.6095 22.044 48.7738 21.9252 48.9893C21.8092 49.2047 21.7512 49.4657 21.7512 49.7723ZM31.4624 50.8246V47.1373H32.9622V53.501H31.508V52.3699H31.4417C31.2981 52.7262 31.0619 53.0176 30.7332 53.2441C30.4073 53.4706 30.0055 53.5838 29.5276 53.5838C29.1106 53.5838 28.7418 53.4913 28.4215 53.3063C28.1038 53.1184 27.8552 52.8464 27.6757 52.4901C27.4962 52.131 27.4064 51.6974 27.4064 51.1892V47.1373H28.9062V50.9572C28.9062 51.3604 29.0167 51.6808 29.2376 51.9184C29.4586 52.1559 29.7486 52.2747 30.1077 52.2747C30.3286 52.2747 30.5427 52.2208 30.7498 52.1131C30.957 52.0054 31.1268 51.8452 31.2594 51.6325C31.3947 51.4171 31.4624 51.1478 31.4624 50.8246ZM35.4366 55.8873C35.2322 55.8873 35.043 55.8708 34.869 55.8376C34.6977 55.8072 34.561 55.7713 34.4588 55.7299L34.8068 54.5616C35.025 54.6251 35.2198 54.6555 35.391 54.6527C35.5622 54.65 35.7128 54.5961 35.8426 54.4912C35.9752 54.389 36.087 54.2177 36.1782 53.9774L36.3066 53.6336L33.999 47.1373H35.5899L37.0565 51.9432H37.1228L38.5935 47.1373H40.1886L37.6406 54.2716C37.5219 54.6085 37.3644 54.8972 37.1683 55.1375C36.9722 55.3805 36.732 55.5656 36.4475 55.6926C36.1657 55.8224 35.8288 55.8873 35.4366 55.8873ZM43.8272 53.6253C43.1892 53.6253 42.6381 53.4927 42.1741 53.2275C41.7129 52.9596 41.3579 52.5812 41.1094 52.0924C40.8608 51.6007 40.7365 51.0221 40.7365 50.3564C40.7365 49.7019 40.8608 49.1274 41.1094 48.633C41.3607 48.1358 41.7115 47.7491 42.1617 47.4729C42.6119 47.194 43.1408 47.0545 43.7485 47.0545C44.1407 47.0545 44.5108 47.118 44.8588 47.2451C45.2096 47.3693 45.5189 47.5627 45.7868 47.8251C46.0575 48.0875 46.2702 48.4217 46.4248 48.8277C46.5795 49.2309 46.6568 49.7115 46.6568 50.2694V50.7293H41.4408V49.7184H45.2192C45.2165 49.4312 45.1543 49.1757 45.0328 48.952C44.9113 48.7255 44.7414 48.5473 44.5232 48.4175C44.3078 48.2877 44.0564 48.2228 43.7692 48.2228C43.4626 48.2228 43.1933 48.2974 42.9613 48.4465C42.7293 48.5929 42.5484 48.7863 42.4186 49.0265C42.2915 49.2641 42.2266 49.5251 42.2238 49.8096V50.692C42.2238 51.0621 42.2915 51.3798 42.4268 51.6449C42.5622 51.9073 42.7514 52.1089 42.9944 52.2498C43.2375 52.3879 43.522 52.4569 43.8479 52.4569C44.0661 52.4569 44.2636 52.4266 44.4403 52.3658C44.6171 52.3023 44.7704 52.2097 44.9002 52.0882C45.03 51.9667 45.1281 51.8162 45.1944 51.6366L46.5947 51.7941C46.5063 52.1642 46.3378 52.4873 46.0892 52.7635C45.8434 53.037 45.5286 53.2496 45.1446 53.4015C44.7607 53.5507 44.3216 53.6253 43.8272 53.6253ZM44.5481 46.375L43.707 45.3144L42.866 46.375H41.5527V46.317L43.1229 44.5273H44.2953L45.8614 46.317V46.375H44.5481ZM49.4254 49.7723V53.501H47.9256V47.1373H49.3591V48.2187H49.4337C49.5801 47.8624 49.8134 47.5793 50.1338 47.3693C50.457 47.1594 50.8561 47.0545 51.3312 47.0545C51.7703 47.0545 52.1529 47.1484 52.4788 47.3362C52.8075 47.524 53.0616 47.7961 53.2411 48.1524C53.4234 48.5087 53.5131 48.9409 53.5104 49.4491V53.501H52.0106V49.6811C52.0106 49.2558 51.9001 48.923 51.6792 48.6827C51.461 48.4424 51.1585 48.3222 50.7719 48.3222C50.5095 48.3222 50.2761 48.3802 50.0717 48.4962C49.8701 48.6095 49.7113 48.7738 49.5953 48.9893C49.482 49.2047 49.4254 49.4657 49.4254 49.7723ZM59.4286 49.7723V53.501H57.9289V47.1373H59.3624V48.2187H59.4369C59.5833 47.8624 59.8167 47.5793 60.1371 47.3693C60.4602 47.1594 60.8594 47.0545 61.3344 47.0545C61.7736 47.0545 62.1561 47.1484 62.482 47.3362C62.8107 47.524 63.0648 47.7961 63.2443 48.1524C63.4266 48.5087 63.5164 48.9409 63.5136 49.4491V53.501H62.0139V49.6811C62.0139 49.2558 61.9034 48.923 61.6824 48.6827C61.4642 48.4424 61.1618 48.3222 60.7751 48.3222C60.5127 48.3222 60.2793 48.3802 60.0749 48.4962C59.8733 48.6095 59.7145 48.7738 59.5985 48.9893C59.4853 49.2047 59.4286 49.4657 59.4286 49.7723ZM67.8058 56.0199C67.2672 56.0199 66.8046 55.9467 66.4179 55.8003C66.0312 55.6567 65.7205 55.4634 65.4857 55.2203C65.2509 54.9773 65.088 54.708 64.9968 54.4124L66.3474 54.0851C66.4082 54.2094 66.4966 54.3323 66.6126 54.4539C66.7286 54.5782 66.8846 54.6803 67.0808 54.7604C67.2796 54.8433 67.5296 54.8847 67.8306 54.8847C68.256 54.8847 68.6081 54.7812 68.8871 54.574C69.1661 54.3696 69.3055 54.0327 69.3055 53.5631V52.3575H69.231C69.1536 52.5122 69.0404 52.671 68.8912 52.834C68.7449 52.9969 68.5501 53.1336 68.3071 53.2441C68.0668 53.3546 67.7643 53.4098 67.3998 53.4098C66.9109 53.4098 66.4676 53.2952 66.0699 53.066C65.6749 52.834 65.36 52.4887 65.1253 52.0302C64.8933 51.569 64.7772 50.9917 64.7772 50.2984C64.7772 49.5997 64.8933 49.01 65.1253 48.5294C65.36 48.046 65.6763 47.6801 66.074 47.4315C66.4717 47.1802 66.915 47.0545 67.4039 47.0545C67.7768 47.0545 68.0834 47.118 68.3236 47.2451C68.5667 47.3693 68.76 47.5199 68.9037 47.6966C69.0473 47.8706 69.1564 48.035 69.231 48.1897H69.3138V47.1373H70.7929V53.6046C70.7929 54.1487 70.6631 54.5989 70.4034 54.9552C70.1438 55.3115 69.7889 55.578 69.3387 55.7548C68.8885 55.9315 68.3775 56.0199 67.8058 56.0199ZM67.8182 52.2332C68.1358 52.2332 68.4065 52.1559 68.6302 52.0012C68.854 51.8465 69.0238 51.6242 69.1398 51.3342C69.2558 51.0442 69.3138 50.6962 69.3138 50.2902C69.3138 49.8897 69.2558 49.5389 69.1398 49.2378C69.0266 48.9368 68.8581 48.7034 68.6344 48.5377C68.4134 48.3692 68.1414 48.2849 67.8182 48.2849C67.484 48.2849 67.205 48.372 66.9813 48.546C66.7576 48.72 66.5891 48.9589 66.4759 49.2627C66.3626 49.5638 66.306 49.9062 66.306 50.2902C66.306 50.6796 66.3626 51.0207 66.4759 51.3135C66.5919 51.6035 66.7617 51.83 66.9855 51.9929C67.2119 52.1531 67.4895 52.2332 67.8182 52.2332ZM74.1611 53.6294C73.7579 53.6294 73.3947 53.5576 73.0715 53.414C72.7511 53.2676 72.497 53.0522 72.3092 52.7677C72.1242 52.4832 72.0316 52.1324 72.0316 51.7153C72.0316 51.3563 72.0979 51.0594 72.2305 50.8246C72.3631 50.5898 72.544 50.402 72.7732 50.2612C73.0025 50.1203 73.2607 50.014 73.548 49.9421C73.838 49.8676 74.1376 49.8137 74.447 49.7806C74.8199 49.7419 75.1223 49.7074 75.3543 49.677C75.5863 49.6439 75.7548 49.5941 75.8598 49.5278C75.9675 49.4588 76.0213 49.3525 76.0213 49.2088V49.184C76.0213 48.8719 75.9288 48.6302 75.7437 48.459C75.5587 48.2877 75.2922 48.2021 74.9442 48.2021C74.5768 48.2021 74.2854 48.2822 74.07 48.4424C73.8573 48.6026 73.7137 48.7918 73.6391 49.01L72.2388 48.8111C72.3493 48.4244 72.5315 48.1013 72.7857 47.8416C73.0398 47.5793 73.3505 47.3832 73.7178 47.2533C74.0852 47.1208 74.4912 47.0545 74.9359 47.0545C75.2424 47.0545 75.5476 47.0904 75.8515 47.1622C76.1553 47.234 76.4329 47.3528 76.6842 47.5185C76.9355 47.6815 77.1372 47.9038 77.2891 48.1855C77.4438 48.4672 77.5211 48.8194 77.5211 49.242V53.501H76.0793V52.6268H76.0296C75.9385 52.8036 75.81 52.9693 75.6443 53.124C75.4814 53.2759 75.2756 53.3988 75.027 53.4927C74.7812 53.5838 74.4926 53.6294 74.1611 53.6294ZM74.5506 52.5274C74.8516 52.5274 75.1126 52.468 75.3336 52.3492C75.5546 52.2277 75.7244 52.0675 75.8432 51.8686C75.9647 51.6698 76.0255 51.453 76.0255 51.2182V50.4683C75.9785 50.507 75.8984 50.5429 75.7852 50.576C75.6747 50.6092 75.5504 50.6382 75.4123 50.663C75.2742 50.6879 75.1375 50.71 75.0022 50.7293C74.8668 50.7486 74.7494 50.7652 74.65 50.779C74.4263 50.8094 74.226 50.8591 74.0493 50.9282C73.8725 50.9972 73.733 51.0939 73.6308 51.2182C73.5286 51.3397 73.4775 51.4971 73.4775 51.6905C73.4775 51.9667 73.5783 52.1752 73.78 52.3161C73.9816 52.4569 74.2385 52.5274 74.5506 52.5274ZM74.4553 46.3005L73.1834 44.4071H74.6541L75.578 46.3005H74.4553ZM80.5289 49.7723V53.501H79.0291V47.1373H80.4626V48.2187H80.5372C80.6836 47.8624 80.917 47.5793 81.2374 47.3693C81.5605 47.1594 81.9596 47.0545 82.4347 47.0545C82.8738 47.0545 83.2564 47.1484 83.5823 47.3362C83.911 47.524 84.1651 47.7961 84.3446 48.1524C84.5269 48.5087 84.6167 48.9409 84.6139 49.4491V53.501H83.1141V49.6811C83.1141 49.2558 83.0037 48.923 82.7827 48.6827C82.5645 48.4424 82.2621 48.3222 81.8754 48.3222C81.613 48.3222 81.3796 48.3802 81.1752 48.4962C80.9736 48.6095 80.8148 48.7738 80.6988 48.9893C80.5855 49.2047 80.5289 49.4657 80.5289 49.7723ZM87.6383 49.7723V53.501H86.1385V45.0161H87.6051V48.2187H87.6797C87.8289 47.8596 88.0595 47.5765 88.3716 47.3693C88.6865 47.1594 89.0869 47.0545 89.5731 47.0545C90.015 47.0545 90.4003 47.147 90.729 47.3321C91.0576 47.5171 91.3117 47.7878 91.4913 48.1441C91.6736 48.5004 91.7647 48.9354 91.7647 49.4491V53.501H90.2649V49.6811C90.2649 49.253 90.1545 48.9202 89.9335 48.6827C89.7153 48.4424 89.4087 48.3222 89.0138 48.3222C88.7486 48.3222 88.5111 48.3802 88.3012 48.4962C88.094 48.6095 87.9311 48.7738 87.8123 48.9893C87.6963 49.2047 87.6383 49.4657 87.6383 49.7723Z" fill="white"/>
</svg>
