<svg width="440" height="440" viewBox="0 0 440 440" fill="none" xmlns="http://www.w3.org/2000/svg">
<g filter="url(#filter0_d_374_45879)">
<rect x="50" y="38" width="340" height="340" rx="31" fill="white"/>
</g>
<rect x="73" y="58" width="300" height="300" rx="28.9714" fill="#F6F9FF"/>
<path d="M135.744 208.008C135.744 258.271 176.49 299.017 226.752 299.017V208.008H135.744Z" fill="#3C5BFF" fill-opacity="0.05" stroke="#CCBCD2" stroke-width="2.17286" stroke-linecap="round" stroke-linejoin="round" stroke-dasharray="0.72 4.35"/>
<path d="M155.861 208.008C155.861 247.16 187.6 278.899 226.752 278.899V208.008H155.861Z" fill="white" stroke="#CCBCD2" stroke-width="2.17286" stroke-linecap="round" stroke-linejoin="round" stroke-dasharray="0.72 4.35"/>
<path d="M317.761 208.008C317.761 157.745 277.015 116.999 226.752 116.999L226.752 208.008L317.761 208.008Z" fill="#3C5BFF" fill-opacity="0.05" stroke="#CCBCD2" stroke-width="2.17286" stroke-linecap="round" stroke-linejoin="round" stroke-dasharray="0.72 4.35"/>
<path d="M297.643 208.008C297.643 168.856 265.904 137.117 226.752 137.117L226.752 208.008L297.643 208.008Z" fill="white" stroke="#CCBCD2" stroke-width="2.17286" stroke-linecap="round" stroke-linejoin="round" stroke-dasharray="0.72 4.35"/>
<g filter="url(#filter1_d_374_45879)">
<circle cx="226.753" cy="208.01" r="9.57987" transform="rotate(90 226.753 208.01)" fill="white"/>
</g>
<path d="M228.627 208.035C228.589 208.072 228.558 208.116 228.538 208.165C228.517 208.214 228.506 208.266 228.505 208.319C228.505 208.372 228.515 208.425 228.535 208.474C228.555 208.523 228.585 208.567 228.622 208.605C228.66 208.642 228.704 208.672 228.753 208.692C228.802 208.712 228.855 208.722 228.908 208.722C228.961 208.721 229.013 208.71 229.062 208.689C229.111 208.668 229.155 208.638 229.191 208.6L230.116 207.676C230.51 207.272 230.729 206.73 230.726 206.166C230.723 205.602 230.497 205.062 230.098 204.663C229.7 204.264 229.16 204.038 228.596 204.035C228.032 204.032 227.489 204.251 227.086 204.645L226.161 205.57C226.123 205.607 226.093 205.651 226.072 205.699C226.051 205.748 226.04 205.8 226.04 205.853C226.039 205.906 226.049 205.959 226.069 206.008C226.089 206.057 226.119 206.102 226.156 206.139C226.194 206.177 226.239 206.206 226.288 206.226C226.337 206.246 226.389 206.256 226.442 206.256C226.495 206.255 226.548 206.244 226.596 206.224C226.645 206.203 226.689 206.172 226.726 206.134L227.65 205.21C227.775 205.084 227.923 204.984 228.086 204.915C228.25 204.847 228.425 204.811 228.602 204.811C228.779 204.81 228.955 204.845 229.119 204.913C229.282 204.98 229.431 205.079 229.556 205.205C229.682 205.33 229.781 205.479 229.849 205.643C229.916 205.806 229.951 205.982 229.95 206.159C229.95 206.336 229.914 206.511 229.846 206.675C229.777 206.838 229.677 206.987 229.551 207.111L228.627 208.035Z" fill="url(#paint0_linear_374_45879)"/>
<path d="M224.878 207.983C224.916 207.946 224.947 207.902 224.967 207.854C224.988 207.805 224.999 207.753 225 207.7C225 207.647 224.99 207.594 224.97 207.545C224.95 207.496 224.92 207.451 224.883 207.414C224.845 207.376 224.801 207.347 224.752 207.327C224.703 207.307 224.65 207.296 224.597 207.297C224.544 207.297 224.492 207.308 224.443 207.329C224.394 207.35 224.35 207.381 224.314 207.419L223.389 208.343C222.995 208.746 222.776 209.289 222.779 209.853C222.782 210.417 223.008 210.957 223.407 211.356C223.805 211.755 224.345 211.98 224.909 211.983C225.473 211.986 226.016 211.767 226.419 211.373L227.344 210.449C227.416 210.373 227.457 210.273 227.456 210.168C227.455 210.063 227.413 209.963 227.339 209.889C227.265 209.815 227.165 209.773 227.06 209.772C226.955 209.771 226.854 209.812 226.779 209.884L225.855 210.809C225.602 211.058 225.261 211.198 224.906 211.197C224.551 211.196 224.21 211.055 223.959 210.803C223.708 210.552 223.566 210.212 223.565 209.856C223.564 209.501 223.704 209.16 223.954 208.907L224.878 207.983Z" fill="url(#paint1_linear_374_45879)"/>
<path opacity="0.3" d="M225.237 209.525C225.312 209.599 225.413 209.641 225.519 209.641C225.625 209.641 225.727 209.599 225.801 209.525L228.269 207.057C228.307 207.021 228.337 206.977 228.358 206.928C228.379 206.879 228.39 206.827 228.39 206.774C228.391 206.721 228.381 206.668 228.361 206.619C228.341 206.57 228.311 206.525 228.274 206.488C228.236 206.451 228.192 206.421 228.142 206.401C228.093 206.381 228.041 206.371 227.988 206.371C227.935 206.372 227.882 206.383 227.834 206.404C227.785 206.424 227.741 206.455 227.704 206.493L225.237 208.958C225.2 208.995 225.17 209.039 225.15 209.088C225.13 209.137 225.119 209.189 225.119 209.241C225.119 209.294 225.13 209.346 225.15 209.395C225.17 209.443 225.2 209.487 225.237 209.525Z" fill="url(#paint2_linear_374_45879)"/>
<g filter="url(#filter2_d_374_45879)">
<path d="M145.323 155.322C145.323 139.449 158.19 126.582 174.063 126.582C189.935 126.582 202.802 139.449 202.802 155.322C202.802 171.194 189.935 184.061 174.063 184.061C158.19 184.061 145.323 171.194 145.323 155.322Z" fill="#F6F9FF"/>
<path d="M146.772 155.322C146.772 140.249 158.99 128.031 174.063 128.031C189.135 128.031 201.354 140.249 201.354 155.322C201.354 170.394 189.135 182.613 174.063 182.613C158.99 182.613 146.772 170.394 146.772 155.322Z" stroke="url(#paint3_linear_374_45879)" stroke-opacity="0.8" stroke-width="2.89714"/>
</g>
<path fill-rule="evenodd" clip-rule="evenodd" d="M180.669 158.773C180.669 158.808 180.665 158.844 180.658 158.878C180.674 158.958 180.672 159.041 180.652 159.12C180.631 159.199 180.594 159.272 180.542 159.335C180.491 159.398 180.426 159.449 180.352 159.483C180.278 159.518 180.198 159.536 180.116 159.536H169.806C169.685 159.536 169.565 159.56 169.454 159.606C169.342 159.652 169.241 159.72 169.155 159.806C169.07 159.891 169.002 159.993 168.956 160.104C168.909 160.216 168.885 160.336 168.885 160.457C168.885 160.578 168.909 160.697 168.956 160.809C169.002 160.921 169.07 161.022 169.155 161.108C169.241 161.193 169.342 161.261 169.454 161.307C169.565 161.353 169.685 161.377 169.806 161.377H180.116C180.263 161.377 180.403 161.435 180.507 161.539C180.61 161.643 180.669 161.783 180.669 161.93C180.669 162.076 180.61 162.217 180.507 162.32C180.403 162.424 180.263 162.482 180.116 162.482H169.806C169.269 162.482 168.754 162.269 168.374 161.889C167.994 161.509 167.781 160.994 167.781 160.457V150.146C167.781 149.609 167.994 149.094 168.374 148.714C168.754 148.334 169.269 148.121 169.806 148.121H179.674C180.224 148.121 180.669 148.566 180.669 149.115V158.773ZM172.015 151.067C171.869 151.067 171.728 151.125 171.625 151.229C171.521 151.332 171.463 151.473 171.463 151.619C171.463 151.766 171.521 151.906 171.625 152.01C171.728 152.113 171.869 152.172 172.015 152.172H176.434C176.581 152.172 176.721 152.113 176.825 152.01C176.928 151.906 176.986 151.766 176.986 151.619C176.986 151.473 176.928 151.332 176.825 151.229C176.721 151.125 176.581 151.067 176.434 151.067H172.015Z" fill="#3E65FE"/>
<g filter="url(#filter3_d_374_45879)">
<path d="M250.702 260.701C250.702 244.828 263.569 231.961 279.442 231.961C295.314 231.961 308.181 244.828 308.181 260.701C308.181 276.573 295.314 289.44 279.442 289.44C263.569 289.44 250.702 276.573 250.702 260.701Z" fill="#FDF5FF"/>
<path d="M252.151 260.701C252.151 245.628 264.369 233.41 279.442 233.41C294.514 233.41 306.733 245.628 306.733 260.701C306.733 275.773 294.514 287.992 279.442 287.992C264.369 287.992 252.151 275.773 252.151 260.701Z" stroke="url(#paint4_linear_374_45879)" stroke-opacity="0.8" stroke-width="2.89714"/>
</g>
<g clip-path="url(#clip0_374_45879)">
<path d="M287.648 264.942H273.331V254.67C273.331 254.371 273.094 254.129 272.801 254.129H271.741C271.448 254.129 271.21 254.371 271.21 254.67V266.023C271.21 266.62 271.685 267.105 272.271 267.105H287.648C287.941 267.105 288.179 266.863 288.179 266.564V265.483C288.179 265.184 287.941 264.942 287.648 264.942ZM286.588 255.21H282.675C281.967 255.21 281.612 256.084 282.113 256.595L283.187 257.689L280.755 260.169L278.323 257.69C277.909 257.267 277.238 257.267 276.824 257.69L274.547 260.011C274.34 260.222 274.34 260.564 274.547 260.776L275.297 261.54C275.504 261.751 275.84 261.751 276.047 261.54L277.573 259.983L280.005 262.462C280.419 262.885 281.091 262.885 281.505 262.462L284.686 259.218L285.76 260.313C286.261 260.824 287.118 260.462 287.118 259.74V255.751C287.118 255.452 286.881 255.21 286.588 255.21Z" fill="#D23CFF"/>
</g>
<path opacity="0.6" d="M146.385 190.862C124.504 190.862 104 215.245 104 246.246H350.712V150.784C272.095 132.496 260.419 207.983 226.559 210.317C192.699 212.652 176.779 190.862 146.385 190.862Z" fill="url(#paint5_linear_374_45879)"/>
<defs>
<filter id="filter0_d_374_45879" x="0" y="0" width="440" height="440" filterUnits="userSpaceOnUse" color-interpolation-filters="sRGB">
<feFlood flood-opacity="0" result="BackgroundImageFix"/>
<feColorMatrix in="SourceAlpha" type="matrix" values="0 0 0 0 0 0 0 0 0 0 0 0 0 0 0 0 0 0 127 0" result="hardAlpha"/>
<feOffset dy="12"/>
<feGaussianBlur stdDeviation="25"/>
<feComposite in2="hardAlpha" operator="out"/>
<feColorMatrix type="matrix" values="0 0 0 0 0.0825868 0 0 0 0 0.103911 0 0 0 0 0.295833 0 0 0 0.1 0"/>
<feBlend mode="normal" in2="BackgroundImageFix" result="effect1_dropShadow_374_45879"/>
<feBlend mode="normal" in="SourceGraphic" in2="effect1_dropShadow_374_45879" result="shape"/>
</filter>
<filter id="filter1_d_374_45879" x="188.201" y="176.701" width="77.1025" height="77.103" filterUnits="userSpaceOnUse" color-interpolation-filters="sRGB">
<feFlood flood-opacity="0" result="BackgroundImageFix"/>
<feColorMatrix in="SourceAlpha" type="matrix" values="0 0 0 0 0 0 0 0 0 0 0 0 0 0 0 0 0 0 127 0" result="hardAlpha"/>
<feOffset dy="7.24286"/>
<feGaussianBlur stdDeviation="14.4857"/>
<feColorMatrix type="matrix" values="0 0 0 0 0 0 0 0 0 0.301961 0 0 0 0 0.301961 0 0 0 0.2 0"/>
<feBlend mode="normal" in2="BackgroundImageFix" result="effect1_dropShadow_374_45879"/>
<feBlend mode="normal" in="SourceGraphic" in2="effect1_dropShadow_374_45879" result="shape"/>
</filter>
<filter id="filter2_d_374_45879" x="87.3804" y="90.3678" width="173.365" height="173.365" filterUnits="userSpaceOnUse" color-interpolation-filters="sRGB">
<feFlood flood-opacity="0" result="BackgroundImageFix"/>
<feColorMatrix in="SourceAlpha" type="matrix" values="0 0 0 0 0 0 0 0 0 0 0 0 0 0 0 0 0 0 127 0" result="hardAlpha"/>
<feOffset dy="21.7286"/>
<feGaussianBlur stdDeviation="28.9714"/>
<feColorMatrix type="matrix" values="0 0 0 0 0 0 0 0 0 0.301961 0 0 0 0 0.301961 0 0 0 0.1 0"/>
<feBlend mode="normal" in2="BackgroundImageFix" result="effect1_dropShadow_374_45879"/>
<feBlend mode="normal" in="SourceGraphic" in2="effect1_dropShadow_374_45879" result="shape"/>
</filter>
<filter id="filter3_d_374_45879" x="192.759" y="195.747" width="173.365" height="173.365" filterUnits="userSpaceOnUse" color-interpolation-filters="sRGB">
<feFlood flood-opacity="0" result="BackgroundImageFix"/>
<feColorMatrix in="SourceAlpha" type="matrix" values="0 0 0 0 0 0 0 0 0 0 0 0 0 0 0 0 0 0 127 0" result="hardAlpha"/>
<feOffset dy="21.7286"/>
<feGaussianBlur stdDeviation="28.9714"/>
<feColorMatrix type="matrix" values="0 0 0 0 0 0 0 0 0 0.301961 0 0 0 0 0.301961 0 0 0 0.1 0"/>
<feBlend mode="normal" in2="BackgroundImageFix" result="effect1_dropShadow_374_45879"/>
<feBlend mode="normal" in="SourceGraphic" in2="effect1_dropShadow_374_45879" result="shape"/>
</filter>
<linearGradient id="paint0_linear_374_45879" x1="226.063" y1="204.035" x2="231.677" y2="205.864" gradientUnits="userSpaceOnUse">
<stop stop-color="#3E60FE"/>
<stop offset="1" stop-color="#D23CFF"/>
</linearGradient>
<linearGradient id="paint1_linear_374_45879" x1="222.802" y1="207.297" x2="228.407" y2="209.118" gradientUnits="userSpaceOnUse">
<stop stop-color="#3E60FE"/>
<stop offset="1" stop-color="#D23CFF"/>
</linearGradient>
<linearGradient id="paint2_linear_374_45879" x1="225.135" y1="206.371" x2="229.054" y2="207.648" gradientUnits="userSpaceOnUse">
<stop stop-color="#3E60FE"/>
<stop offset="1" stop-color="#D23CFF"/>
</linearGradient>
<linearGradient id="paint3_linear_374_45879" x1="232.679" y1="126.582" x2="232.679" y2="184.061" gradientUnits="userSpaceOnUse">
<stop stop-color="white"/>
<stop offset="1" stop-color="#F3F8F4"/>
</linearGradient>
<linearGradient id="paint4_linear_374_45879" x1="338.058" y1="231.961" x2="338.058" y2="289.44" gradientUnits="userSpaceOnUse">
<stop stop-color="white"/>
<stop offset="1" stop-color="#F3F8F4"/>
</linearGradient>
<linearGradient id="paint5_linear_374_45879" x1="262.01" y1="81.7912" x2="300.195" y2="201.873" gradientUnits="userSpaceOnUse">
<stop stop-color="white"/>
<stop offset="1" stop-color="#2EBD3C" stop-opacity="0"/>
</linearGradient>
<clipPath id="clip0_374_45879">
<rect width="16.9681" height="17.3008" fill="white" transform="translate(271.211 251.965)"/>
</clipPath>
</defs>
</svg>
