<svg width="444" height="197" viewBox="0 0 444 197" fill="none" xmlns="http://www.w3.org/2000/svg">
<path d="M81.8535 40.2745L98.916 50.1707C100.671 51.1912 101.75 53.0632 101.75 55.0912V74.9097C101.75 75.9063 101.488 76.8854 100.991 77.7489C100.494 78.6125 99.7781 79.3302 98.916 79.8302L81.8535 89.7265C80.9866 90.2293 80.0022 90.4941 79 90.4941C77.9978 90.4941 77.0134 90.2293 76.1465 89.7265L59.084 79.8302C58.2219 79.3302 57.5064 78.6125 57.009 77.7489C56.5116 76.8854 56.2499 75.9063 56.25 74.9097V55.0912C56.25 53.0632 57.329 51.188 59.084 50.1707L76.1465 40.2745C77.0134 39.7716 77.9978 39.5068 79 39.5068C80.0022 39.5068 80.9866 39.7716 81.8535 40.2745ZM78.5938 44.493L63.5462 53.2192L79 62.1827L94.4538 53.2192L79.4062 44.493C79.283 44.421 79.1428 44.3831 79 44.3831C78.8572 44.3831 78.717 44.421 78.5938 44.493ZM61.125 57.4507V74.9097C61.125 75.2022 61.2778 75.4655 61.5312 75.6117L76.5625 84.3315V66.4045L61.125 57.4507ZM81.4375 84.3315L96.4688 75.6117C96.592 75.5405 96.6944 75.4382 96.7657 75.315C96.837 75.1918 96.8747 75.0521 96.875 74.9097V57.4507L81.4375 66.4045V84.3315Z" fill="url(#paint0_linear_292_28142)"/>
<rect x="78.9995" y="-68.2929" width="187.09" height="187.09" transform="rotate(45 78.9995 -68.2929)" stroke="#CFD2EF"/>
<rect x="-14.501" y="-29.5" width="187" height="187" stroke="#CFD2EF"/>
<line x1="211" y1="64.5" x2="429" y2="64.5" stroke="#CFD2EF"/>
<circle cx="436" cy="65" r="7.5" stroke="#CFD2EF"/>
<defs>
<linearGradient id="paint0_linear_292_28142" x1="56.4751" y1="39.5068" x2="112.073" y2="55.6632" gradientUnits="userSpaceOnUse">
<stop stop-color="#3E60FE"/>
<stop offset="1" stop-color="#D23CFF"/>
</linearGradient>
</defs>
</svg>
