<svg width="77" height="464" viewBox="0 0 77 464" fill="none" xmlns="http://www.w3.org/2000/svg">
<mask id="mask0_328_152967" style="mask-type:luminance" maskUnits="userSpaceOnUse" x="-213" y="-106" width="290" height="736">
<path d="M-213 629.509L-213 -106L76.2698 -106L76.2699 629.509L-213 629.509Z" fill="white"/>
</mask>
<g mask="url(#mask0_328_152967)">
<path d="M4.71704 458.134C4.71704 458.811 4.26764 459.36 3.71326 459.36C3.15887 459.36 2.70947 458.811 2.70947 458.134C2.70947 457.457 3.15887 456.908 3.71326 456.908C4.26764 456.908 4.71704 457.457 4.71704 458.134Z" fill="#DBE9FF"/>
<path d="M4.71704 446.365C4.71704 447.042 4.26764 447.59 3.71326 447.59C3.15887 447.59 2.70947 447.042 2.70947 446.365C2.70947 445.687 3.15887 445.139 3.71326 445.139C4.26764 445.139 4.71704 445.687 4.71704 446.365Z" fill="#DBE9FF"/>
<path d="M5.51774 434.597C5.51774 433.371 4.7147 432.391 3.7109 432.391C2.7071 432.391 1.90405 433.371 1.90405 434.597C1.90405 435.823 2.7071 436.804 3.7109 436.804C4.7147 436.804 5.51774 435.823 5.51774 434.597Z" fill="#DBE9FF"/>
<path d="M5.51774 422.83C5.51774 421.604 4.7147 420.623 3.7109 420.623C2.7071 420.623 1.90405 421.604 1.90405 422.83C1.90405 424.055 2.7071 425.036 3.7109 425.036C4.7147 425.036 5.51774 424.055 5.51774 422.83Z" fill="#DBE9FF"/>
<path d="M5.31738 411.059C5.31738 412.142 4.59832 413.02 3.7113 413.02C2.82429 413.02 2.10522 412.142 2.10522 411.059C2.10522 409.976 2.82429 409.098 3.7113 409.098C4.59832 409.098 5.31738 409.976 5.31738 411.059Z" fill="#DBE9FF"/>
<path d="M5.71834 399.293C5.71834 397.822 4.71453 396.842 3.71073 396.842C2.70693 396.842 1.70313 398.068 1.70313 399.293C1.70313 400.764 2.70693 401.745 3.71073 401.745C4.71453 401.745 5.71834 400.764 5.71834 399.293Z" fill="#DBE9FF"/>
<path d="M5.31738 387.526C5.31738 386.545 4.51434 385.564 3.7113 385.564C2.90826 385.564 2.10522 386.545 2.10522 387.526C2.10522 388.506 2.90826 389.487 3.7113 389.487C4.51434 389.487 5.31738 388.752 5.31738 387.526Z" fill="#DBE9FF"/>
<path d="M6.31962 375.756C6.31962 377.516 5.15115 378.943 3.70976 378.943C2.26836 378.943 1.09985 377.516 1.09985 375.756C1.09985 373.995 2.26836 372.568 3.70976 372.568C5.15115 372.568 6.31962 373.995 6.31962 375.756Z" fill="#DBE9FF"/>
<path d="M6.51823 363.987C6.51823 362.026 5.31368 360.555 3.7076 360.555C2.10152 360.555 0.896973 362.026 0.896973 363.987C0.896973 365.948 2.10152 367.419 3.7076 367.419C5.31368 367.665 6.51823 365.948 6.51823 363.987Z" fill="#DBE9FF"/>
<path d="M5.91894 352.222C5.91894 353.712 4.93022 354.919 3.71057 354.919C2.49093 354.919 1.5022 353.712 1.5022 352.222C1.5022 350.733 2.49093 349.525 3.71057 349.525C4.93022 349.525 5.91894 350.733 5.91894 352.222Z" fill="#DBE9FF"/>
<path d="M5.1167 340.454C5.1167 339.473 4.51442 338.492 3.51062 338.492C2.50682 338.492 1.90454 339.228 1.90454 340.454C1.90454 341.434 2.50682 342.415 3.51062 342.415C4.51442 342.415 5.1167 341.434 5.1167 340.454Z" fill="#DBE9FF"/>
<path d="M6.91992 328.682C6.91992 330.849 5.48179 332.605 3.70776 332.605C1.93374 332.605 0.495606 330.849 0.495606 328.682C0.495606 326.516 1.93374 324.76 3.70776 324.76C5.48179 324.76 6.91992 326.516 6.91992 328.682Z" fill="#DBE9FF"/>
<path d="M7.72257 316.915C7.72257 319.623 5.92489 321.818 3.70736 321.818C1.48982 321.818 -0.307861 319.623 -0.307861 316.915C-0.307861 314.207 1.48982 312.012 3.70736 312.012C5.92489 312.012 7.72257 314.207 7.72257 316.915Z" fill="#DBE9FF"/>
<path d="M6.51823 305.147C6.51823 307.043 5.25988 308.58 3.7076 308.58C2.15533 308.58 0.896973 307.043 0.896973 305.147C0.896973 303.252 2.15533 301.715 3.7076 301.715C5.25988 301.715 6.51823 303.252 6.51823 305.147Z" fill="#DBE9FF"/>
<path d="M5.71883 293.377C5.71883 291.906 4.71502 290.926 3.71122 290.926C2.70742 290.926 1.70361 292.152 1.70361 293.377C1.70361 294.849 2.70742 295.829 3.71122 295.829C4.71502 295.829 5.71883 294.849 5.71883 293.377Z" fill="#DBE9FF"/>
<path d="M6.71883 281.611C6.71883 283.642 5.37059 285.289 3.70744 285.289C2.04429 285.289 0.696045 283.642 0.696045 281.611C0.696045 279.58 2.04429 277.934 3.70744 277.934C5.37059 277.934 6.71883 279.58 6.71883 281.611Z" fill="#DBE9FF"/>
<path d="M6.91992 269.843C6.91992 272.009 5.48179 273.765 3.70776 273.765C1.93374 273.765 0.495606 272.009 0.495606 269.843C0.495606 267.676 1.93374 265.92 3.70776 265.92C5.48179 265.92 6.91992 267.676 6.91992 269.843Z" fill="#DBE9FF"/>
<path d="M6.3173 258.075C6.3173 256.114 5.11276 254.643 3.50667 254.643C1.90059 254.643 0.696045 256.114 0.696045 258.075C0.696045 259.791 1.90059 261.507 3.50667 261.507C5.11276 261.507 6.3173 260.036 6.3173 258.075Z" fill="#DBE9FF"/>
<path d="M6.51823 246.307C6.51823 248.203 5.25988 249.74 3.7076 249.74C2.15533 249.74 0.896973 248.203 0.896973 246.307C0.896973 244.412 2.15533 242.875 3.7076 242.875C5.25988 242.875 6.51823 244.412 6.51823 246.307Z" fill="#DBE9FF"/>
<path d="M5.91894 234.539C5.91894 236.028 4.93022 237.236 3.71057 237.236C2.49093 237.236 1.5022 236.028 1.5022 234.539C1.5022 233.049 2.49093 231.842 3.71057 231.842C4.93022 231.842 5.91894 233.049 5.91894 234.539Z" fill="#DBE9FF"/>
<path d="M6.51799 222.768C6.51799 220.807 5.31344 219.336 3.70736 219.336C2.10128 219.336 0.896729 220.807 0.896729 222.768C0.896729 224.73 2.10128 226.201 3.70736 226.201C5.31344 226.446 6.51799 224.73 6.51799 222.768Z" fill="#DBE9FF"/>
<path d="M6.91992 211.001C6.91992 213.167 5.48179 214.924 3.70776 214.924C1.93374 214.924 0.495606 213.167 0.495606 211.001C0.495606 208.834 1.93374 207.078 3.70776 207.078C5.48179 207.078 6.91992 208.834 6.91992 211.001Z" fill="#DBE9FF"/>
<path d="M6.71883 199.234C6.71883 201.265 5.37059 202.912 3.70744 202.912C2.04429 202.912 0.696045 201.265 0.696045 199.234C0.696045 197.203 2.04429 195.557 3.70744 195.557C5.37059 195.557 6.71883 197.203 6.71883 199.234Z" fill="#DBE9FF"/>
<path d="M5.91894 187.468C5.91894 188.958 4.93022 190.165 3.71057 190.165C2.49093 190.165 1.5022 188.958 1.5022 187.468C1.5022 185.979 2.49093 184.771 3.71057 184.771C4.93022 184.771 5.91894 185.979 5.91894 187.468Z" fill="#DBE9FF"/>
<path d="M5.91894 175.695C5.91894 177.184 4.93022 178.392 3.71057 178.392C2.49093 178.392 1.5022 177.184 1.5022 175.695C1.5022 174.205 2.49093 172.998 3.71057 172.998C4.93022 172.998 5.91894 174.205 5.91894 175.695Z" fill="#DBE9FF"/>
<path d="M5.91894 163.927C5.91894 165.417 4.93022 166.624 3.71057 166.624C2.49093 166.624 1.5022 165.417 1.5022 163.927C1.5022 162.438 2.49093 161.23 3.71057 161.23C4.93022 161.23 5.91894 162.438 5.91894 163.927Z" fill="#DBE9FF"/>
<path d="M6.1167 152.16C6.1167 150.444 4.91216 148.973 3.50684 148.973C2.10152 148.973 0.896973 150.444 0.896973 152.16C0.896973 153.876 2.10152 155.347 3.50684 155.347C4.91216 155.347 6.1167 153.876 6.1167 152.16Z" fill="#DBE9FF"/>
<path d="M5.31812 140.393C5.31812 141.476 4.59905 142.354 3.71204 142.354C2.82502 142.354 2.10596 141.476 2.10596 140.393C2.10596 139.31 2.82502 138.432 3.71204 138.432C4.59905 138.432 5.31812 139.31 5.31812 140.393Z" fill="#DBE9FF"/>
<path d="M5.31812 128.625C5.31812 129.709 4.59905 130.587 3.71204 130.587C2.82502 130.587 2.10596 129.709 2.10596 128.625C2.10596 127.542 2.82502 126.664 3.71204 126.664C4.59905 126.664 5.31812 127.542 5.31812 128.625Z" fill="#DBE9FF"/>
<path d="M4.71753 116.857C4.71753 117.534 4.26813 118.083 3.71375 118.083C3.15936 118.083 2.70996 117.534 2.70996 116.857C2.70996 116.18 3.15936 115.631 3.71375 115.631C4.26813 115.631 4.71753 116.18 4.71753 116.857Z" fill="#DBE9FF"/>
<path d="M4.11654 105.09C4.11654 105.361 3.93676 105.58 3.71501 105.58C3.49325 105.58 3.31348 105.361 3.31348 105.09C3.31348 104.819 3.49325 104.6 3.71501 104.6C3.93676 104.6 4.11654 104.819 4.11654 105.09Z" fill="#DBE9FF"/>
<path d="M4.11654 93.3224C4.11654 93.5932 3.93676 93.8127 3.71501 93.8127C3.49325 93.8127 3.31348 93.5932 3.31348 93.3224C3.31348 93.0516 3.49325 92.832 3.71501 92.832C3.93676 92.832 4.11654 93.0516 4.11654 93.3224Z" fill="#DBE9FF"/>
<path d="M3.9008 81.5521C3.9008 81.6876 3.81091 81.7975 3.70003 81.7975C3.58916 81.7975 3.49927 81.6876 3.49927 81.5521C3.49927 81.4165 3.58916 81.3066 3.70003 81.3066C3.81091 81.3066 3.9008 81.4165 3.9008 81.5521Z" fill="#DBE9FF"/>
<path d="M3.9008 69.7845C3.9008 69.9201 3.81091 70.0299 3.70003 70.0299C3.58916 70.0299 3.49927 69.9201 3.49927 69.7845C3.49927 69.6489 3.58916 69.5391 3.70003 69.5391C3.81091 69.5391 3.9008 69.6489 3.9008 69.7845Z" fill="#DBE9FF"/>
<path d="M4.11605 58.0177C4.11605 58.2885 3.93627 58.508 3.71452 58.508C3.49276 58.508 3.31299 58.2885 3.31299 58.0177C3.31299 57.7469 3.49276 57.5273 3.71452 57.5273C3.93627 57.5273 4.11605 57.7469 4.11605 58.0177Z" fill="#DBE9FF"/>
<path d="M3.9008 10.9447C3.9008 10.6992 3.90079 10.6992 3.70003 10.6992C3.49927 10.6992 3.49927 10.6992 3.49927 10.9447C3.49927 11.1901 3.49927 11.1901 3.70003 11.1901C3.90079 11.1901 3.9008 11.1901 3.9008 10.9447Z" fill="#DBE9FF"/>
<path d="M14.1437 458.133C14.1437 458.675 13.7841 459.114 13.3406 459.114C12.8971 459.114 12.5376 458.675 12.5376 458.133C12.5376 457.591 12.8971 457.152 13.3406 457.152C13.7841 457.152 14.1437 457.591 14.1437 458.133Z" fill="#DBE9FF"/>
<path d="M13.9433 446.366C13.9433 446.773 13.6737 447.102 13.341 447.102C13.0084 447.102 12.7388 446.773 12.7388 446.366C12.7388 445.96 13.0084 445.631 13.341 445.631C13.6737 445.631 13.9433 445.96 13.9433 446.366Z" fill="#DBE9FF"/>
<path d="M14.1437 434.598C14.1437 435.139 13.7841 435.579 13.3406 435.579C12.8971 435.579 12.5376 435.139 12.5376 434.598C12.5376 434.056 12.8971 433.617 13.3406 433.617C13.7841 433.617 14.1437 434.056 14.1437 434.598Z" fill="#DBE9FF"/>
<path d="M14.1439 422.826C14.1439 423.368 13.7844 423.807 13.3409 423.807C12.8974 423.807 12.5378 423.368 12.5378 422.826C12.5378 422.285 12.8974 421.846 13.3409 421.846C13.7844 421.846 14.1439 422.285 14.1439 422.826Z" fill="#DBE9FF"/>
<path d="M13.9433 411.06C13.9433 411.466 13.6737 411.795 13.341 411.795C13.0084 411.795 12.7388 411.466 12.7388 411.06C12.7388 410.654 13.0084 410.324 13.341 410.324C13.6737 410.324 13.9433 410.654 13.9433 411.06Z" fill="#DBE9FF"/>
<path d="M14.344 399.294C14.344 399.971 13.8946 400.52 13.3402 400.52C12.7858 400.52 12.3364 399.971 12.3364 399.294C12.3364 398.617 12.7858 398.068 13.3402 398.068C13.8946 398.068 14.344 398.617 14.344 399.294Z" fill="#DBE9FF"/>
<path d="M14.344 387.523C14.344 386.787 13.9425 386.297 13.3402 386.297C12.7379 386.297 12.3364 386.787 12.3364 387.523C12.3364 388.258 12.7379 388.749 13.3402 388.749C13.9425 388.749 14.344 388.258 14.344 387.523Z" fill="#DBE9FF"/>
<path d="M15.5469 375.754C15.5469 377.243 14.5581 378.45 13.3385 378.45C12.1189 378.45 11.1301 377.243 11.1301 375.754C11.1301 374.264 12.1189 373.057 13.3385 373.057C14.5581 373.057 15.5469 374.264 15.5469 375.754Z" fill="#DBE9FF"/>
<path d="M15.5464 363.988C15.5464 365.477 14.5577 366.685 13.338 366.685C12.1184 366.685 11.1296 365.477 11.1296 363.988C11.1296 362.498 12.1184 361.291 13.338 361.291C14.5577 361.291 15.5464 362.498 15.5464 363.988Z" fill="#DBE9FF"/>
<path d="M15.3463 352.221C15.3463 350.75 14.3425 349.77 13.3387 349.77C12.1341 349.77 11.3311 350.995 11.3311 352.221C11.3311 353.692 12.3349 354.673 13.3387 354.673C14.3425 354.673 15.3463 353.692 15.3463 352.221Z" fill="#DBE9FF"/>
<path d="M15.7456 340.451C15.7456 338.735 14.5411 337.264 13.1357 337.264C11.7304 337.264 10.5259 338.735 10.5259 340.451C10.5259 342.167 11.7304 343.638 13.1357 343.638C14.7418 343.638 15.7456 342.167 15.7456 340.451Z" fill="#DBE9FF"/>
<path d="M15.7467 328.682C15.7467 330.307 14.6681 331.624 13.3376 331.624C12.007 331.624 10.9285 330.307 10.9285 328.682C10.9285 327.057 12.007 325.74 13.3376 325.74C14.6681 325.74 15.7467 327.057 15.7467 328.682Z" fill="#DBE9FF"/>
<path d="M15.5469 316.916C15.5469 318.405 14.5581 319.612 13.3385 319.612C12.1189 319.612 11.1301 318.405 11.1301 316.916C11.1301 315.426 12.1189 314.219 13.3385 314.219C14.5581 314.219 15.5469 315.426 15.5469 316.916Z" fill="#DBE9FF"/>
<path d="M16.1471 305.147C16.1471 307.043 14.8888 308.58 13.3365 308.58C11.7842 308.58 10.5259 307.043 10.5259 305.147C10.5259 303.252 11.7842 301.715 13.3365 301.715C14.8888 301.715 16.1471 303.252 16.1471 305.147Z" fill="#DBE9FF"/>
<path d="M15.7465 293.38C15.7465 291.663 14.7426 290.437 13.3373 290.437C11.932 290.437 10.9282 291.663 10.9282 293.38C10.9282 295.096 11.932 296.322 13.3373 296.322C14.7426 296.322 15.7465 295.096 15.7465 293.38Z" fill="#DBE9FF"/>
<path d="M15.9614 281.612C15.9614 279.651 14.7568 278.18 13.1507 278.18C11.7454 278.18 10.3401 279.651 10.3401 281.612C10.3401 283.328 11.5446 285.044 13.1507 285.044C14.7568 285.044 15.9614 283.573 15.9614 281.612Z" fill="#DBE9FF"/>
<path d="M15.9468 269.842C15.9468 268.125 14.7422 266.654 13.3369 266.654C11.9316 266.654 10.7271 268.125 10.7271 269.842C10.7271 271.558 11.9316 273.029 13.3369 273.029C14.7422 273.029 15.9468 271.558 15.9468 269.842Z" fill="#DBE9FF"/>
<path d="M15.9468 258.074C15.9468 259.834 14.7783 261.261 13.3369 261.261C11.8955 261.261 10.7271 259.834 10.7271 258.074C10.7271 256.314 11.8955 254.887 13.3369 254.887C14.7783 254.887 15.9468 256.314 15.9468 258.074Z" fill="#DBE9FF"/>
<path d="M14.9458 246.305C14.9458 247.388 14.2267 248.266 13.3397 248.266C12.4527 248.266 11.7336 247.388 11.7336 246.305C11.7336 245.222 12.4527 244.344 13.3397 244.344C14.2267 244.344 14.9458 245.222 14.9458 246.305Z" fill="#DBE9FF"/>
<path d="M15.3458 234.538C15.3458 233.067 14.342 232.086 13.3382 232.086C12.1336 232.086 11.3306 233.312 11.3306 234.538C11.3306 236.009 12.3344 236.989 13.3382 236.989C14.342 237.235 15.3458 236.009 15.3458 234.538Z" fill="#DBE9FF"/>
<path d="M15.9468 222.767C15.9468 224.528 14.7783 225.954 13.3369 225.954C11.8955 225.954 10.7271 224.528 10.7271 222.767C10.7271 221.007 11.8955 219.58 13.3369 219.58C14.7783 219.58 15.9468 221.007 15.9468 222.767Z" fill="#DBE9FF"/>
<path d="M15.1459 211C15.1459 212.218 14.337 213.206 13.3391 213.206C12.3412 213.206 11.5322 212.218 11.5322 211C11.5322 209.781 12.3412 208.793 13.3391 208.793C14.337 208.793 15.1459 209.781 15.1459 211Z" fill="#DBE9FF"/>
<path d="M15.1453 199.233C15.1453 198.007 14.3423 196.781 13.1377 196.781C12.1339 196.781 11.1301 197.762 11.1301 199.233C11.1301 200.459 11.9332 201.685 13.1377 201.685C14.3423 201.685 15.1453 200.459 15.1453 199.233Z" fill="#DBE9FF"/>
<path d="M15.7467 187.467C15.7467 185.751 14.5421 184.525 13.3376 184.525C11.9322 184.525 10.9285 185.996 10.9285 187.467C10.9285 189.184 12.133 190.409 13.3376 190.409C14.7429 190.655 15.7467 189.184 15.7467 187.467Z" fill="#DBE9FF"/>
<path d="M15.5469 175.695C15.5469 174.224 14.5431 172.998 13.3385 172.998C12.1339 172.998 11.1301 174.224 11.1301 175.695C11.1301 177.166 12.1339 178.392 13.3385 178.392C14.5431 178.392 15.5469 177.166 15.5469 175.695Z" fill="#DBE9FF"/>
<path d="M15.9468 163.929C15.9468 165.69 14.7783 167.117 13.3369 167.117C11.8955 167.117 10.7271 165.69 10.7271 163.929C10.7271 162.169 11.8955 160.742 13.3369 160.742C14.7783 160.742 15.9468 162.169 15.9468 163.929Z" fill="#DBE9FF"/>
<path d="M15.3458 152.161C15.3458 150.69 14.342 149.709 13.3382 149.709C12.1336 149.709 11.3306 150.935 11.3306 152.161C11.3306 153.632 12.3344 154.612 13.3382 154.612C14.342 154.858 15.3458 153.632 15.3458 152.161Z" fill="#DBE9FF"/>
<path d="M14.7454 140.394C14.7454 139.413 14.1432 138.678 13.3401 138.678C12.5371 138.678 11.9348 139.413 11.9348 140.394C11.9348 141.375 12.5371 142.11 13.3401 142.11C14.1432 142.11 14.7454 141.375 14.7454 140.394Z" fill="#DBE9FF"/>
<path d="M14.7452 128.626C14.7452 129.574 14.116 130.343 13.3399 130.343C12.5637 130.343 11.9346 129.574 11.9346 128.626C11.9346 127.679 12.5637 126.91 13.3399 126.91C14.116 126.91 14.7452 127.679 14.7452 128.626Z" fill="#DBE9FF"/>
<path d="M14.7444 116.856C14.7444 115.875 14.1421 114.895 13.1383 114.895C12.3353 114.895 11.5322 115.63 11.5322 116.856C11.5322 118.082 12.1345 118.817 13.1383 118.817C14.1421 118.817 14.7444 117.837 14.7444 116.856Z" fill="#DBE9FF"/>
<path d="M13.9441 105.089C13.9441 105.495 13.6744 105.825 13.3418 105.825C13.0091 105.825 12.7395 105.495 12.7395 105.089C12.7395 104.683 13.0091 104.354 13.3418 104.354C13.6744 104.354 13.9441 104.683 13.9441 105.089Z" fill="#DBE9FF"/>
<path d="M14.3445 93.3196C14.3445 92.5841 13.943 92.0937 13.3407 92.0937C12.7384 92.0937 12.3369 92.5841 12.3369 93.3196C12.3369 94.0551 12.7384 94.5455 13.3407 94.5455C13.943 94.5455 14.3445 94.0551 14.3445 93.3196Z" fill="#DBE9FF"/>
<path d="M13.7424 81.5519C13.7424 81.0616 13.5416 80.8164 13.1401 80.8164C12.7386 80.8164 12.5378 81.0616 12.5378 81.5519C12.5378 82.0422 12.7386 82.2874 13.1401 82.2874C13.5416 82.2874 13.7424 82.0422 13.7424 81.5519Z" fill="#DBE9FF"/>
<path d="M13.9441 69.7843C13.9441 70.1905 13.6744 70.5198 13.3418 70.5198C13.0091 70.5198 12.7395 70.1905 12.7395 69.7843C12.7395 69.3781 13.0091 69.0488 13.3418 69.0488C13.6744 69.0488 13.9441 69.3781 13.9441 69.7843Z" fill="#DBE9FF"/>
<path d="M13.7454 58.0157C13.7454 58.2865 13.5657 58.5061 13.3439 58.5061C13.1222 58.5061 12.9424 58.2865 12.9424 58.0157C12.9424 57.7449 13.1222 57.5254 13.3439 57.5254C13.5657 57.5254 13.7454 57.7449 13.7454 58.0157Z" fill="#DBE9FF"/>
<path d="M23.3855 458.131C23.3855 458.402 23.2058 458.621 22.984 458.621C22.7623 458.621 22.5825 458.402 22.5825 458.131C22.5825 457.86 22.7623 457.641 22.984 457.641C23.2058 457.641 23.3855 457.86 23.3855 458.131Z" fill="#DBE9FF"/>
<path d="M23.1857 446.363C23.1857 446.498 23.0958 446.608 22.9849 446.608C22.874 446.608 22.7842 446.498 22.7842 446.363C22.7842 446.227 22.874 446.117 22.9849 446.117C23.0958 446.117 23.1857 446.227 23.1857 446.363Z" fill="#DBE9FF"/>
<path d="M23.3855 434.598C23.3855 434.869 23.2058 435.088 22.984 435.088C22.7623 435.088 22.5825 434.869 22.5825 434.598C22.5825 434.327 22.7623 434.107 22.984 434.107C23.2058 434.107 23.3855 434.327 23.3855 434.598Z" fill="#DBE9FF"/>
<path d="M23.5859 422.827C23.5859 423.234 23.3162 423.563 22.9836 423.563C22.651 423.563 22.3813 423.234 22.3813 422.827C22.3813 422.421 22.651 422.092 22.9836 422.092C23.3162 422.092 23.5859 422.421 23.5859 422.827Z" fill="#DBE9FF"/>
<path d="M23.7865 411.061C23.7865 411.602 23.4269 412.041 22.9834 412.041C22.5399 412.041 22.1804 411.602 22.1804 411.061C22.1804 410.519 22.5399 410.08 22.9834 410.08C23.4269 410.08 23.7865 410.519 23.7865 411.061Z" fill="#DBE9FF"/>
<path d="M24.7865 399.291C24.7865 398.065 23.9835 397.084 22.9797 397.084C21.9759 397.084 21.1729 398.065 21.1729 399.291C21.1729 400.516 21.9759 401.497 22.9797 401.497C23.9835 401.497 24.7865 400.516 24.7865 399.291Z" fill="#DBE9FF"/>
<path d="M24.5862 387.526C24.5862 388.609 23.8671 389.487 22.9801 389.487C22.0931 389.487 21.374 388.609 21.374 387.526C21.374 386.443 22.0931 385.564 22.9801 385.564C23.8671 385.564 24.5862 386.443 24.5862 387.526Z" fill="#DBE9FF"/>
<path d="M23.9873 375.755C23.9873 375.02 23.5858 374.529 22.9835 374.529C22.3812 374.529 21.9797 375.02 21.9797 375.755C21.9797 376.491 22.3812 376.981 22.9835 376.981C23.385 376.981 23.9873 376.491 23.9873 375.755Z" fill="#DBE9FF"/>
<path d="M24.9881 363.987C24.9881 362.516 24.185 361.535 22.9805 361.535C21.7759 361.535 20.9729 362.516 20.9729 363.987C20.9729 365.458 21.7759 366.439 22.9805 366.439C23.9843 366.439 24.9881 365.458 24.9881 363.987Z" fill="#DBE9FF"/>
<path d="M23.9873 352.216C23.9873 352.893 23.5379 353.442 22.9835 353.442C22.4291 353.442 21.9797 352.893 21.9797 352.216C21.9797 351.539 22.4291 350.99 22.9835 350.99C23.5379 350.99 23.9873 351.539 23.9873 352.216Z" fill="#DBE9FF"/>
<path d="M24.3878 340.453C24.3878 339.472 23.7855 338.736 22.9825 338.736C22.1794 338.736 21.5771 339.472 21.5771 340.453C21.5771 341.433 22.1794 342.169 22.9825 342.169C23.7855 342.169 24.3878 341.433 24.3878 340.453Z" fill="#DBE9FF"/>
<path d="M24.3878 328.685C24.3878 329.633 23.7586 330.401 22.9825 330.401C22.2063 330.401 21.5771 329.633 21.5771 328.685C21.5771 327.737 22.2063 326.969 22.9825 326.969C23.7586 326.969 24.3878 327.737 24.3878 328.685Z" fill="#DBE9FF"/>
<path d="M24.5867 316.914C24.5867 317.998 23.8676 318.876 22.9806 318.876C22.0936 318.876 21.3745 317.998 21.3745 316.914C21.3745 315.831 22.0936 314.953 22.9806 314.953C23.8676 314.953 24.5867 315.831 24.5867 316.914Z" fill="#DBE9FF"/>
<path d="M24.3878 305.148C24.3878 306.096 23.7586 306.864 22.9825 306.864C22.2063 306.864 21.5771 306.096 21.5771 305.148C21.5771 304.2 22.2063 303.432 22.9825 303.432C23.7586 303.432 24.3878 304.2 24.3878 305.148Z" fill="#DBE9FF"/>
<path d="M24.7873 293.378C24.7873 292.153 23.9842 291.172 22.9804 291.172C21.9766 291.172 21.1736 292.153 21.1736 293.378C21.1736 294.604 21.9766 295.585 22.9804 295.585C23.9842 295.585 24.7873 294.604 24.7873 293.378Z" fill="#DBE9FF"/>
<path d="M25.3895 281.61C25.3895 279.894 24.3857 278.668 22.9804 278.668C21.5751 278.668 20.5713 279.894 20.5713 281.61C20.5713 283.326 21.5751 284.552 22.9804 284.552C24.1849 284.552 25.3895 283.326 25.3895 281.61Z" fill="#DBE9FF"/>
<path d="M25.7912 269.843C25.7912 267.881 24.5866 266.41 22.9806 266.41C21.3745 266.41 20.1699 267.881 20.1699 269.843C20.1699 271.804 21.3745 273.275 22.9806 273.275C24.5866 273.275 25.7912 271.804 25.7912 269.843Z" fill="#DBE9FF"/>
<path d="M24.7873 258.074C24.7873 259.292 23.9783 260.28 22.9804 260.28C21.9825 260.28 21.1736 259.292 21.1736 258.074C21.1736 256.855 21.9825 255.867 22.9804 255.867C23.9783 255.867 24.7873 256.855 24.7873 258.074Z" fill="#DBE9FF"/>
<path d="M24.1877 246.309C24.1877 247.121 23.6484 247.78 22.9831 247.78C22.3179 247.78 21.7786 247.121 21.7786 246.309C21.7786 245.496 22.3179 244.838 22.9831 244.838C23.6484 244.838 24.1877 245.496 24.1877 246.309Z" fill="#DBE9FF"/>
<path d="M24.5867 234.539C24.5867 233.559 23.7836 232.578 22.9806 232.578C22.1776 232.578 21.3745 233.559 21.3745 234.539C21.3745 235.52 22.1776 236.501 22.9806 236.501C23.7836 236.501 24.5867 235.765 24.5867 234.539Z" fill="#DBE9FF"/>
<path d="M24.1852 222.769C24.1852 221.788 23.5829 221.053 22.7799 221.053C21.9768 221.053 21.3745 221.788 21.3745 222.769C21.3745 223.75 21.9768 224.485 22.7799 224.485C23.5829 224.485 24.1852 223.75 24.1852 222.769Z" fill="#DBE9FF"/>
<path d="M24.5867 211.004C24.5867 212.088 23.8676 212.966 22.9806 212.966C22.0936 212.966 21.3745 212.088 21.3745 211.004C21.3745 209.921 22.0936 209.043 22.9806 209.043C23.8676 209.043 24.5867 209.921 24.5867 211.004Z" fill="#DBE9FF"/>
<path d="M24.1877 199.237C24.1877 200.049 23.6484 200.708 22.9831 200.708C22.3179 200.708 21.7786 200.049 21.7786 199.237C21.7786 198.424 22.3179 197.766 22.9831 197.766C23.6484 197.766 24.1877 198.424 24.1877 199.237Z" fill="#DBE9FF"/>
<path d="M24.7874 187.463C24.7874 186.238 23.9844 185.012 22.7798 185.012C21.776 185.012 20.7722 185.992 20.7722 187.463C20.7722 188.689 21.5753 189.915 22.7798 189.915C23.9844 189.915 24.7874 188.689 24.7874 187.463Z" fill="#DBE9FF"/>
<path d="M24.3878 175.697C24.3878 176.644 23.7586 177.413 22.9825 177.413C22.2063 177.413 21.5771 176.644 21.5771 175.697C21.5771 174.749 22.2063 173.98 22.9825 173.98C23.7586 173.98 24.3878 174.749 24.3878 175.697Z" fill="#DBE9FF"/>
<path d="M25.3895 163.928C25.3895 165.553 24.3109 166.87 22.9804 166.87C21.6499 166.87 20.5713 165.553 20.5713 163.928C20.5713 162.304 21.6499 160.986 22.9804 160.986C24.3109 160.986 25.3895 162.304 25.3895 163.928Z" fill="#DBE9FF"/>
<path d="M24.1852 152.162C24.1852 151.181 23.5829 150.445 22.7799 150.445C21.9768 150.445 21.3745 151.181 21.3745 152.162C21.3745 153.142 21.9768 153.878 22.7799 153.878C23.5829 153.878 24.1852 153.142 24.1852 152.162Z" fill="#DBE9FF"/>
<path d="M23.9873 140.392C23.9873 141.069 23.5379 141.618 22.9835 141.618C22.4291 141.618 21.9797 141.069 21.9797 140.392C21.9797 139.715 22.4291 139.166 22.9835 139.166C23.5379 139.166 23.9873 139.715 23.9873 140.392Z" fill="#DBE9FF"/>
<path d="M24.1849 128.626C24.1849 127.646 23.5827 126.91 22.7796 126.91C21.9766 126.91 21.3743 127.646 21.3743 128.626C21.3743 129.607 21.9766 130.343 22.7796 130.343C23.5827 130.343 24.1849 129.607 24.1849 128.626Z" fill="#DBE9FF"/>
<path d="M24.3878 116.853C24.3878 117.801 23.7586 118.569 22.9825 118.569C22.2063 118.569 21.5771 117.801 21.5771 116.853C21.5771 115.905 22.2063 115.137 22.9825 115.137C23.7586 115.137 24.3878 115.905 24.3878 116.853Z" fill="#DBE9FF"/>
<path d="M24.1877 105.086C24.1877 105.899 23.6484 106.557 22.9831 106.557C22.3179 106.557 21.7786 105.899 21.7786 105.086C21.7786 104.274 22.3179 103.615 22.9831 103.615C23.6484 103.615 24.1877 104.274 24.1877 105.086Z" fill="#DBE9FF"/>
<path d="M24.5864 93.3207C24.5864 92.3401 23.7834 91.3594 22.9803 91.3594C22.1773 91.3594 21.3743 92.3401 21.3743 93.3207C21.3743 94.3014 22.1773 95.2821 22.9803 95.2821C23.7834 95.2821 24.5864 94.5466 24.5864 93.3207Z" fill="#DBE9FF"/>
<path d="M23.3865 81.5489C23.3865 81.8197 23.2067 82.0393 22.985 82.0393C22.7632 82.0393 22.5835 81.8197 22.5835 81.5489C22.5835 81.2781 22.7632 81.0586 22.985 81.0586C23.2067 81.0586 23.3865 81.2781 23.3865 81.5489Z" fill="#DBE9FF"/>
<path d="M23.1862 69.7845C23.1862 69.9201 23.0963 70.0299 22.9854 70.0299C22.8745 70.0299 22.7847 69.9201 22.7847 69.7845C22.7847 69.6489 22.8745 69.5391 22.9854 69.5391C23.0963 69.5391 23.1862 69.6489 23.1862 69.7845Z" fill="#DBE9FF"/>
<path d="M23.1862 58.0169C23.1862 58.1525 23.0963 58.2624 22.9854 58.2624C22.8745 58.2624 22.7847 58.1525 22.7847 58.0169C22.7847 57.8814 22.8745 57.7715 22.9854 57.7715C23.0963 57.7715 23.1862 57.8814 23.1862 58.0169Z" fill="#DBE9FF"/>
<path d="M23.1862 46.2513C23.1862 46.3868 23.0963 46.4967 22.9854 46.4967C22.8745 46.4967 22.7847 46.3868 22.7847 46.2513C22.7847 46.1157 22.8745 46.0059 22.9854 46.0059C23.0963 46.0059 23.1862 46.1157 23.1862 46.2513Z" fill="#DBE9FF"/>
<path d="M32.8129 434.597C32.8129 434.352 32.8129 434.352 32.6121 434.352C32.4114 434.352 32.4114 434.352 32.4114 434.597C32.4114 434.842 32.4114 434.842 32.6121 434.842C32.6121 434.842 32.8129 434.842 32.8129 434.597Z" fill="#DBE9FF"/>
<path d="M33.2136 422.827C33.2136 423.234 32.944 423.563 32.6113 423.563C32.2787 423.563 32.009 423.234 32.009 422.827C32.009 422.421 32.2787 422.092 32.6113 422.092C32.944 422.092 33.2136 422.421 33.2136 422.827Z" fill="#DBE9FF"/>
<path d="M33.2136 411.06C33.2136 411.466 32.944 411.795 32.6113 411.795C32.2787 411.795 32.009 411.466 32.009 411.06C32.009 410.654 32.2787 410.324 32.6113 410.324C32.944 410.324 33.2136 410.654 33.2136 411.06Z" fill="#DBE9FF"/>
<path d="M33.4137 399.295C33.4137 399.837 33.0542 400.276 32.6107 400.276C32.1672 400.276 31.8076 399.837 31.8076 399.295C31.8076 398.753 32.1672 398.314 32.6107 398.314C33.0542 398.314 33.4137 398.753 33.4137 399.295Z" fill="#DBE9FF"/>
<path d="M33.0132 387.526C33.0132 387.796 32.8335 388.016 32.6117 388.016C32.39 388.016 32.2102 387.796 32.2102 387.526C32.2102 387.255 32.39 387.035 32.6117 387.035C32.8335 387.035 33.0132 387.255 33.0132 387.526Z" fill="#DBE9FF"/>
<path d="M33.4144 375.756C33.4144 376.298 33.0549 376.737 32.6114 376.737C32.1679 376.737 31.8083 376.298 31.8083 375.756C31.8083 375.214 32.1679 374.775 32.6114 374.775C33.0549 374.775 33.4144 375.214 33.4144 375.756Z" fill="#DBE9FF"/>
<path d="M34.4313 363.988C34.4313 362.762 33.6283 361.781 32.6245 361.781C31.6207 361.781 30.8176 362.762 30.8176 363.988C30.8176 365.214 31.6207 366.194 32.6245 366.194C33.6283 366.194 34.4313 365.214 34.4313 363.988Z" fill="#DBE9FF"/>
<path d="M34.2158 352.219C34.2158 353.302 33.4968 354.181 32.6097 354.181C31.7227 354.181 31.0037 353.302 31.0037 352.219C31.0037 351.136 31.7227 350.258 32.6097 350.258C33.4968 350.258 34.2158 351.136 34.2158 352.219Z" fill="#DBE9FF"/>
<path d="M34.0155 340.453C34.0155 341.4 33.3863 342.169 32.6102 342.169C31.834 342.169 31.2048 341.4 31.2048 340.453C31.2048 339.505 31.834 338.736 32.6102 338.736C33.3863 338.736 34.0155 339.505 34.0155 340.453Z" fill="#DBE9FF"/>
<path d="M34.0153 328.685C34.0153 327.704 33.413 326.969 32.6099 326.969C31.8069 326.969 31.2046 327.704 31.2046 328.685C31.2046 329.666 31.8069 330.401 32.6099 330.401C33.413 330.401 34.0153 329.666 34.0153 328.685Z" fill="#DBE9FF"/>
<path d="M34.0153 316.913C34.0153 317.861 33.3861 318.63 32.6099 318.63C31.8338 318.63 31.2046 317.861 31.2046 316.913C31.2046 315.966 31.8338 315.197 32.6099 315.197C33.3861 315.197 34.0153 315.966 34.0153 316.913Z" fill="#DBE9FF"/>
<path d="M33.6145 305.146C33.6145 305.823 33.1651 306.372 32.6108 306.372C32.0564 306.372 31.6069 305.823 31.6069 305.146C31.6069 304.469 32.0564 303.92 32.6108 303.92C33.1651 303.92 33.6145 304.469 33.6145 305.146Z" fill="#DBE9FF"/>
<path d="M34.4313 293.376C34.4313 294.595 33.6224 295.583 32.6245 295.583C31.6266 295.583 30.8176 294.595 30.8176 293.376C30.8176 292.158 31.6266 291.17 32.6245 291.17C33.6224 291.17 34.4313 292.158 34.4313 293.376Z" fill="#DBE9FF"/>
<path d="M34.6319 281.612C34.6319 280.141 33.8289 279.16 32.6243 279.16C31.4197 279.16 30.6167 280.141 30.6167 281.612C30.6167 283.083 31.4197 284.064 32.6243 284.064C33.8289 284.064 34.6319 283.083 34.6319 281.612Z" fill="#DBE9FF"/>
<path d="M35.0323 269.846C35.0323 271.471 33.9538 272.788 32.6232 272.788C31.2927 272.788 30.2141 271.471 30.2141 269.846C30.2141 268.221 31.2927 266.904 32.6232 266.904C33.9538 266.904 35.0323 268.221 35.0323 269.846Z" fill="#DBE9FF"/>
<path d="M34.6319 258.073C34.6319 256.602 33.6281 255.621 32.6243 255.621C31.4197 255.621 30.6167 256.847 30.6167 258.073C30.6167 259.544 31.6205 260.524 32.6243 260.524C33.6281 260.77 34.6319 259.544 34.6319 258.073Z" fill="#DBE9FF"/>
<path d="M34.6319 246.305C34.6319 244.834 33.8289 243.854 32.6243 243.854C31.4197 243.854 30.6167 244.834 30.6167 246.305C30.6167 247.776 31.4197 248.757 32.6243 248.757C33.8289 248.757 34.6319 247.776 34.6319 246.305Z" fill="#DBE9FF"/>
<path d="M34.6319 234.538C34.6319 233.067 33.6281 232.086 32.6243 232.086C31.4197 232.086 30.6167 233.312 30.6167 234.538C30.6167 236.009 31.6205 236.989 32.6243 236.989C33.6281 236.989 34.6319 236.009 34.6319 234.538Z" fill="#DBE9FF"/>
<path d="M34.0153 222.769C34.0153 223.717 33.3861 224.485 32.6099 224.485C31.8338 224.485 31.2046 223.717 31.2046 222.769C31.2046 221.821 31.8338 221.053 32.6099 221.053C33.3861 221.053 34.0153 221.821 34.0153 222.769Z" fill="#DBE9FF"/>
<path d="M34.0155 211.003C34.0155 211.951 33.3863 212.719 32.6102 212.719C31.834 212.719 31.2048 211.951 31.2048 211.003C31.2048 210.055 31.834 209.287 32.6102 209.287C33.3863 209.287 34.0155 210.055 34.0155 211.003Z" fill="#DBE9FF"/>
<path d="M33.6145 199.236C33.6145 199.913 33.1651 200.461 32.6108 200.461C32.0564 200.461 31.6069 199.913 31.6069 199.236C31.6069 198.559 32.0564 198.01 32.6108 198.01C33.1651 198.01 33.6145 198.559 33.6145 199.236Z" fill="#DBE9FF"/>
<path d="M33.6145 187.464C33.6145 186.729 33.213 186.238 32.6108 186.238C32.0085 186.238 31.6069 186.729 31.6069 187.464C31.6069 188.2 32.0085 188.69 32.6108 188.69C33.213 188.69 33.6145 188.2 33.6145 187.464Z" fill="#DBE9FF"/>
<path d="M33.6145 175.697C33.6145 176.374 33.1651 176.922 32.6108 176.922C32.0564 176.922 31.6069 176.374 31.6069 175.697C31.6069 175.02 32.0564 174.471 32.6108 174.471C33.1651 174.471 33.6145 175.02 33.6145 175.697Z" fill="#DBE9FF"/>
<path d="M34.2304 163.929C34.2304 162.703 33.4273 161.723 32.4235 161.723C31.4197 161.723 30.6167 162.703 30.6167 163.929C30.6167 165.155 31.4197 166.136 32.4235 166.136C33.4273 166.136 34.2304 165.155 34.2304 163.929Z" fill="#DBE9FF"/>
<path d="M33.8143 152.16C33.8143 151.179 33.212 150.443 32.409 150.443C31.6059 150.443 31.0037 151.179 31.0037 152.16C31.0037 153.14 31.6059 153.876 32.409 153.876C33.212 153.876 33.8143 153.14 33.8143 152.16Z" fill="#DBE9FF"/>
<path d="M34.0155 140.394C34.0155 141.342 33.3863 142.11 32.6102 142.11C31.834 142.11 31.2048 141.342 31.2048 140.394C31.2048 139.446 31.834 138.678 32.6102 138.678C33.3863 138.678 34.0155 139.446 34.0155 140.394Z" fill="#DBE9FF"/>
<path d="M34.0153 128.626C34.0153 129.574 33.3861 130.343 32.6099 130.343C31.8338 130.343 31.2046 129.574 31.2046 128.626C31.2046 127.679 31.8338 126.91 32.6099 126.91C33.3861 126.91 34.0153 127.679 34.0153 128.626Z" fill="#DBE9FF"/>
<path d="M33.6145 116.857C33.6145 117.534 33.1651 118.083 32.6108 118.083C32.0564 118.083 31.6069 117.534 31.6069 116.857C31.6069 116.18 32.0564 115.631 32.6108 115.631C33.1651 115.631 33.6145 116.18 33.6145 116.857Z" fill="#DBE9FF"/>
<path d="M33.6145 105.085C33.6145 105.762 33.1651 106.311 32.6108 106.311C32.0564 106.311 31.6069 105.762 31.6069 105.085C31.6069 104.408 32.0564 103.859 32.6108 103.859C33.1651 103.859 33.6145 104.408 33.6145 105.085Z" fill="#DBE9FF"/>
<path d="M33.6145 93.3196C33.6145 92.5841 33.213 92.0937 32.6108 92.0937C32.0085 92.0937 31.6069 92.5841 31.6069 93.3196C31.6069 94.0551 32.0085 94.5455 32.6108 94.5455C33.213 94.5455 33.6145 94.0551 33.6145 93.3196Z" fill="#DBE9FF"/>
<path d="M33.014 81.5489C33.014 81.8197 32.8342 82.0393 32.6125 82.0393C32.3907 82.0393 32.2109 81.8197 32.2109 81.5489C32.2109 81.2781 32.3907 81.0586 32.6125 81.0586C32.8342 81.0586 33.014 81.2781 33.014 81.5489Z" fill="#DBE9FF"/>
<path d="M33.2141 69.7843C33.2141 70.1905 32.9444 70.5198 32.6118 70.5198C32.2792 70.5198 32.0095 70.1905 32.0095 69.7843C32.0095 69.3781 32.2792 69.0488 32.6118 69.0488C32.9444 69.0488 33.2141 69.3781 33.2141 69.7843Z" fill="#DBE9FF"/>
<path d="M33.4142 58.0158C33.4142 58.5574 33.0547 58.9965 32.6112 58.9965C32.1677 58.9965 31.8081 58.5574 31.8081 58.0158C31.8081 57.4742 32.1677 57.0352 32.6112 57.0352C33.0547 57.0352 33.4142 57.4742 33.4142 58.0158Z" fill="#DBE9FF"/>
<path d="M33.2141 10.9406C33.2141 11.3468 32.9444 11.6761 32.6118 11.6761C32.2792 11.6761 32.0095 11.3468 32.0095 10.9406C32.0095 10.5344 32.2792 10.2051 32.6118 10.2051C32.9444 10.2051 33.2141 10.5344 33.2141 10.9406Z" fill="#DBE9FF"/>
<path d="M42.4557 434.597C42.4557 434.733 42.3658 434.842 42.255 434.842C42.1441 434.842 42.0542 434.733 42.0542 434.597C42.0542 434.461 42.1441 434.352 42.255 434.352C42.3658 434.352 42.4557 434.461 42.4557 434.597Z" fill="#DBE9FF"/>
<path d="M42.6544 399.291C42.6544 399.562 42.4746 399.781 42.2528 399.781C42.0311 399.781 41.8513 399.562 41.8513 399.291C41.8513 399.02 42.0311 398.801 42.2528 398.801C42.4746 398.801 42.6544 399.02 42.6544 399.291Z" fill="#DBE9FF"/>
<path d="M42.855 387.525C42.855 387.931 42.5853 388.26 42.2527 388.26C41.9201 388.26 41.6504 387.931 41.6504 387.525C41.6504 387.118 41.9201 386.789 42.2527 386.789C42.5853 386.789 42.855 387.118 42.855 387.525Z" fill="#DBE9FF"/>
<path d="M42.8555 375.755C42.8555 376.161 42.5858 376.491 42.2532 376.491C41.9205 376.491 41.6509 376.161 41.6509 375.755C41.6509 375.349 41.9205 375.02 42.2532 375.02C42.5858 375.02 42.8555 375.349 42.8555 375.755Z" fill="#DBE9FF"/>
<path d="M42.8555 363.987C42.8555 364.394 42.5858 364.723 42.2532 364.723C41.9205 364.723 41.6509 364.394 41.6509 363.987C41.6509 363.581 41.9205 363.252 42.2532 363.252C42.5858 363.252 42.8555 363.581 42.8555 363.987Z" fill="#DBE9FF"/>
<path d="M43.2571 352.22C43.2571 352.897 42.8077 353.446 42.2533 353.446C41.699 353.446 41.2495 352.897 41.2495 352.22C41.2495 351.543 41.699 350.994 42.2533 350.994C42.8077 350.994 43.2571 351.543 43.2571 352.22Z" fill="#DBE9FF"/>
<path d="M43.4582 340.451C43.4582 341.264 42.9189 341.922 42.2536 341.922C41.5884 341.922 41.0491 341.264 41.0491 340.451C41.0491 339.639 41.5884 338.98 42.2536 338.98C42.9189 338.98 43.4582 339.639 43.4582 340.451Z" fill="#DBE9FF"/>
<path d="M43.8573 328.681C43.8573 327.455 43.0543 326.475 42.0505 326.475C41.0467 326.475 40.2437 327.455 40.2437 328.681C40.2437 329.907 41.0467 330.888 42.0505 330.888C43.0543 330.888 43.8573 329.907 43.8573 328.681Z" fill="#DBE9FF"/>
<path d="M43.4582 316.914C43.4582 317.727 42.9189 318.385 42.2536 318.385C41.5884 318.385 41.0491 317.727 41.0491 316.914C41.0491 316.102 41.5884 315.443 42.2536 315.443C42.9189 315.443 43.4582 316.102 43.4582 316.914Z" fill="#DBE9FF"/>
<path d="M42.6551 305.147C42.6551 305.417 42.4753 305.637 42.2536 305.637C42.0318 305.637 41.8521 305.417 41.8521 305.147C41.8521 304.876 42.0318 304.656 42.2536 304.656C42.4753 304.656 42.6551 304.876 42.6551 305.147Z" fill="#DBE9FF"/>
<path d="M42.8555 293.38C42.8555 293.786 42.5858 294.116 42.2532 294.116C41.9205 294.116 41.6509 293.786 41.6509 293.38C41.6509 292.974 41.9205 292.645 42.2532 292.645C42.5858 292.645 42.8555 292.974 42.8555 293.38Z" fill="#DBE9FF"/>
<path d="M43.0568 281.612C43.0568 282.153 42.6972 282.592 42.2537 282.592C41.8102 282.592 41.4507 282.153 41.4507 281.612C41.4507 281.07 41.8102 280.631 42.2537 280.631C42.6972 280.631 43.0568 281.07 43.0568 281.612Z" fill="#DBE9FF"/>
<path d="M42.8555 269.843C42.8555 270.249 42.5858 270.578 42.2532 270.578C41.9205 270.578 41.6509 270.249 41.6509 269.843C41.6509 269.437 41.9205 269.107 42.2532 269.107C42.5858 269.107 42.8555 269.437 42.8555 269.843Z" fill="#DBE9FF"/>
<path d="M43.2571 258.075C43.2571 258.752 42.8077 259.301 42.2533 259.301C41.699 259.301 41.2495 258.752 41.2495 258.075C41.2495 257.398 41.699 256.85 42.2533 256.85C42.8077 256.85 43.2571 257.398 43.2571 258.075Z" fill="#DBE9FF"/>
<path d="M43.2571 246.306C43.2571 246.983 42.8077 247.532 42.2533 247.532C41.699 247.532 41.2495 246.983 41.2495 246.306C41.2495 245.629 41.699 245.08 42.2533 245.08C42.8077 245.08 43.2571 245.629 43.2571 246.306Z" fill="#DBE9FF"/>
<path d="M43.6588 234.538C43.6588 233.558 43.0565 232.822 42.2535 232.822C41.4504 232.822 40.8481 233.558 40.8481 234.538C40.8481 235.519 41.4504 236.255 42.2535 236.255C43.0565 236.255 43.6588 235.519 43.6588 234.538Z" fill="#DBE9FF"/>
<path d="M43.6588 222.769C43.6588 223.717 43.0296 224.485 42.2535 224.485C41.4773 224.485 40.8481 223.717 40.8481 222.769C40.8481 221.821 41.4773 221.053 42.2535 221.053C43.0296 221.053 43.6588 221.821 43.6588 222.769Z" fill="#DBE9FF"/>
<path d="M43.0568 211.002C43.0568 211.544 42.6972 211.983 42.2537 211.983C41.8102 211.983 41.4507 211.544 41.4507 211.002C41.4507 210.461 41.8102 210.021 42.2537 210.021C42.6972 210.021 43.0568 210.461 43.0568 211.002Z" fill="#DBE9FF"/>
<path d="M43.4582 199.233C43.4582 200.045 42.9189 200.704 42.2536 200.704C41.5884 200.704 41.0491 200.045 41.0491 199.233C41.0491 198.42 41.5884 197.762 42.2536 197.762C42.9189 197.762 43.4582 198.42 43.4582 199.233Z" fill="#DBE9FF"/>
<path d="M43.4582 187.465C43.4582 188.278 42.9189 188.936 42.2536 188.936C41.5884 188.936 41.0491 188.278 41.0491 187.465C41.0491 186.653 41.5884 185.994 42.2536 185.994C42.9189 185.994 43.4582 186.653 43.4582 187.465Z" fill="#DBE9FF"/>
<path d="M43.6588 175.697C43.6588 176.644 43.0296 177.413 42.2535 177.413C41.4773 177.413 40.8481 176.644 40.8481 175.697C40.8481 174.749 41.4773 173.98 42.2535 173.98C43.0296 173.98 43.6588 174.749 43.6588 175.697Z" fill="#DBE9FF"/>
<path d="M43.6588 163.929C43.6588 164.877 43.0296 165.645 42.2535 165.645C41.4773 165.645 40.8481 164.877 40.8481 163.929C40.8481 162.981 41.4773 162.213 42.2535 162.213C43.0296 162.213 43.6588 162.981 43.6588 163.929Z" fill="#DBE9FF"/>
<path d="M43.8594 152.161C43.8594 153.244 43.1403 154.122 42.2533 154.122C41.3663 154.122 40.6472 153.244 40.6472 152.161C40.6472 151.077 41.3663 150.199 42.2533 150.199C43.1403 150.199 43.8594 151.077 43.8594 152.161Z" fill="#DBE9FF"/>
<path d="M44.06 140.394C44.06 139.168 43.2569 138.187 42.2531 138.187C41.2493 138.187 40.4463 139.168 40.4463 140.394C40.4463 141.62 41.2493 142.601 42.2531 142.601C43.2569 142.601 44.06 141.62 44.06 140.394Z" fill="#DBE9FF"/>
<path d="M43.6583 128.626C43.6583 127.646 43.056 126.91 42.253 126.91C41.4499 126.91 40.8477 127.646 40.8477 128.626C40.8477 129.607 41.4499 130.343 42.253 130.343C43.056 130.343 43.6583 129.607 43.6583 128.626Z" fill="#DBE9FF"/>
<path d="M43.2571 116.857C43.2571 117.534 42.8077 118.083 42.2533 118.083C41.699 118.083 41.2495 117.534 41.2495 116.857C41.2495 116.18 41.699 115.631 42.2533 115.631C42.8077 115.631 43.2571 116.18 43.2571 116.857Z" fill="#DBE9FF"/>
<path d="M43.2571 105.089C43.2571 105.766 42.8077 106.315 42.2533 106.315C41.699 106.315 41.2495 105.766 41.2495 105.089C41.2495 104.412 41.699 103.863 42.2533 103.863C42.8077 103.863 43.2571 104.412 43.2571 105.089Z" fill="#DBE9FF"/>
<path d="M43.4579 93.3206C43.4579 94.133 42.9186 94.7916 42.2534 94.7916C41.5881 94.7916 41.0488 94.133 41.0488 93.3206C41.0488 92.5082 41.5881 91.8496 42.2534 91.8496C42.9186 91.8496 43.4579 92.5082 43.4579 93.3206Z" fill="#DBE9FF"/>
<path d="M43.4582 81.553C43.4582 82.3655 42.9189 83.0241 42.2536 83.0241C41.5884 83.0241 41.0491 82.3655 41.0491 81.553C41.0491 80.7406 41.5884 80.082 42.2536 80.082C42.9189 80.082 43.4582 80.7406 43.4582 81.553Z" fill="#DBE9FF"/>
<path d="M43.6588 69.7826C43.6588 70.7304 43.0296 71.4988 42.2535 71.4988C41.4773 71.4988 40.8481 70.7304 40.8481 69.7826C40.8481 68.8348 41.4773 68.0664 42.2535 68.0664C43.0296 68.0664 43.6588 68.8348 43.6588 69.7826Z" fill="#DBE9FF"/>
<path d="M42.8557 58.0148C42.8557 58.421 42.586 58.7503 42.2534 58.7503C41.9208 58.7503 41.6511 58.421 41.6511 58.0148C41.6511 57.6086 41.9208 57.2793 42.2534 57.2793C42.586 57.2793 42.8557 57.6086 42.8557 58.0148Z" fill="#DBE9FF"/>
<path d="M43.0568 46.2483C43.0568 46.7899 42.6972 47.2289 42.2537 47.2289C41.8102 47.2289 41.4507 46.7899 41.4507 46.2483C41.4507 45.7066 41.8102 45.2676 42.2537 45.2676C42.6972 45.2676 43.0568 45.7066 43.0568 46.2483Z" fill="#DBE9FF"/>
<path d="M42.4565 34.4798C42.4565 34.6154 42.3666 34.7253 42.2557 34.7253C42.1448 34.7253 42.0549 34.6154 42.0549 34.4798C42.0549 34.3443 42.1448 34.2344 42.2557 34.2344C42.3666 34.2344 42.4565 34.3443 42.4565 34.4798Z" fill="#DBE9FF"/>
<path d="M42.4565 22.7103C42.4565 22.8458 42.3666 22.9557 42.2557 22.9557C42.1448 22.9557 42.0549 22.8458 42.0549 22.7103C42.0549 22.5747 42.1448 22.4648 42.2557 22.4648C42.3666 22.4648 42.4565 22.5747 42.4565 22.7103Z" fill="#DBE9FF"/>
<path d="M52.284 352.221C52.284 352.492 52.1042 352.711 51.8825 352.711C51.6607 352.711 51.481 352.492 51.481 352.221C51.481 351.95 51.6607 351.73 51.8825 351.73C52.1042 351.73 52.284 351.95 52.284 352.221Z" fill="#DBE9FF"/>
<path d="M52.2835 340.453C52.2835 340.724 52.1038 340.944 51.882 340.944C51.6602 340.944 51.4805 340.724 51.4805 340.453C51.4805 340.182 51.6602 339.963 51.882 339.963C52.1038 339.963 52.2835 340.182 52.2835 340.453Z" fill="#DBE9FF"/>
<path d="M52.9004 328.683C52.9004 329.36 52.451 329.909 51.8966 329.909C51.3422 329.909 50.8928 329.36 50.8928 328.683C50.8928 328.006 51.3422 327.457 51.8966 327.457C52.451 327.457 52.9004 328.006 52.9004 328.683Z" fill="#DBE9FF"/>
<path d="M52.2835 316.916C52.2835 317.187 52.1038 317.406 51.882 317.406C51.6602 317.406 51.4805 317.187 51.4805 316.916C51.4805 316.645 51.6602 316.426 51.882 316.426C52.1038 316.426 52.2835 316.645 52.2835 316.916Z" fill="#DBE9FF"/>
<path d="M52.284 305.149C52.284 305.419 52.1042 305.639 51.8825 305.639C51.6607 305.639 51.481 305.419 51.481 305.149C51.481 304.878 51.6607 304.658 51.8825 304.658C52.1042 304.658 52.284 304.878 52.284 305.149Z" fill="#DBE9FF"/>
<path d="M52.6998 293.379C52.6998 293.921 52.3403 294.36 51.8968 294.36C51.4533 294.36 51.0938 293.921 51.0938 293.379C51.0938 292.837 51.4533 292.398 51.8968 292.398C52.3403 292.398 52.6998 292.837 52.6998 293.379Z" fill="#DBE9FF"/>
<path d="M52.284 281.609C52.284 281.88 52.1042 282.1 51.8825 282.1C51.6607 282.1 51.481 281.88 51.481 281.609C51.481 281.339 51.6607 281.119 51.8825 281.119C52.1042 281.119 52.284 281.339 52.284 281.609Z" fill="#DBE9FF"/>
<path d="M52.284 269.844C52.284 270.115 52.1042 270.334 51.8825 270.334C51.6607 270.334 51.481 270.115 51.481 269.844C51.481 269.573 51.6607 269.354 51.8825 269.354C52.1042 269.354 52.284 269.573 52.284 269.844Z" fill="#DBE9FF"/>
<path d="M52.284 258.076C52.284 258.347 52.1042 258.567 51.8825 258.567C51.6607 258.567 51.481 258.347 51.481 258.076C51.481 257.805 51.6607 257.586 51.8825 257.586C52.1042 257.586 52.284 257.805 52.284 258.076Z" fill="#DBE9FF"/>
<path d="M52.6998 246.305C52.6998 246.847 52.3403 247.286 51.8968 247.286C51.4533 247.286 51.0938 246.847 51.0938 246.305C51.0938 245.763 51.4533 245.324 51.8968 245.324C52.3403 245.324 52.6998 245.763 52.6998 246.305Z" fill="#DBE9FF"/>
<path d="M52.4998 234.54C52.4998 234.946 52.2301 235.276 51.8975 235.276C51.5648 235.276 51.2952 234.946 51.2952 234.54C51.2952 234.134 51.5648 233.805 51.8975 233.805C52.2301 233.805 52.4998 234.134 52.4998 234.54Z" fill="#DBE9FF"/>
<path d="M52.9004 222.769C52.9004 222.033 52.4989 221.543 51.8966 221.543C51.2943 221.543 50.8928 222.033 50.8928 222.769C50.8928 223.504 51.2943 223.995 51.8966 223.995C52.4989 223.995 52.9004 223.504 52.9004 222.769Z" fill="#DBE9FF"/>
<path d="M52.9004 211.001C52.9004 211.678 52.451 212.227 51.8966 212.227C51.3422 212.227 50.8928 211.678 50.8928 211.001C50.8928 210.324 51.3422 209.775 51.8966 209.775C52.451 209.775 52.9004 210.324 52.9004 211.001Z" fill="#DBE9FF"/>
<path d="M52.9004 199.236C52.9004 199.913 52.451 200.461 51.8966 200.461C51.3422 200.461 50.8928 199.913 50.8928 199.236C50.8928 198.559 51.3422 198.01 51.8966 198.01C52.451 198.01 52.9004 198.559 52.9004 199.236Z" fill="#DBE9FF"/>
<path d="M53.3009 187.466C53.3009 186.486 52.6986 185.75 51.8955 185.75C51.0925 185.75 50.4902 186.486 50.4902 187.466C50.4902 188.447 51.0925 189.182 51.8955 189.182C52.6986 189.182 53.3009 188.447 53.3009 187.466Z" fill="#DBE9FF"/>
<path d="M53.1005 175.696C53.1005 176.508 52.5612 177.167 51.896 177.167C51.2307 177.167 50.6914 176.508 50.6914 175.696C50.6914 174.883 51.2307 174.225 51.896 174.225C52.5612 174.225 53.1005 174.883 53.1005 175.696Z" fill="#DBE9FF"/>
<path d="M53.3009 163.931C53.3009 162.95 52.6986 162.215 51.8955 162.215C51.0925 162.215 50.4902 162.95 50.4902 163.931C50.4902 164.912 51.0925 165.647 51.8955 165.647C52.6986 165.647 53.3009 164.912 53.3009 163.931Z" fill="#DBE9FF"/>
<path d="M53.1005 152.159C53.1005 151.423 52.4982 150.687 51.896 150.687C51.2937 150.687 50.6914 151.423 50.6914 152.159C50.6914 152.894 51.2937 153.63 51.896 153.63C52.4982 153.63 53.1005 153.139 53.1005 152.159Z" fill="#DBE9FF"/>
<path d="M53.5012 140.393C53.5012 141.476 52.7822 142.354 51.8951 142.354C51.0081 142.354 50.2891 141.476 50.2891 140.393C50.2891 139.31 51.0081 138.432 51.8951 138.432C52.7822 138.432 53.5012 139.31 53.5012 140.393Z" fill="#DBE9FF"/>
<path d="M53.7008 128.624C53.7008 127.398 52.8977 126.172 51.6932 126.172C50.4886 126.172 49.6855 127.153 49.6855 128.624C49.6855 129.849 50.4886 131.075 51.6932 131.075C52.8977 131.075 53.7008 129.849 53.7008 128.624Z" fill="#DBE9FF"/>
<path d="M53.7016 116.855C53.7016 115.629 52.8985 114.648 51.8947 114.648C50.8909 114.648 50.0879 115.629 50.0879 116.855C50.0879 118.081 50.8909 119.062 51.8947 119.062C52.8985 119.062 53.7016 118.081 53.7016 116.855Z" fill="#DBE9FF"/>
<path d="M52.9004 105.085C52.9004 104.35 52.4989 103.859 51.8966 103.859C51.2943 103.859 50.8928 104.35 50.8928 105.085C50.8928 105.821 51.2943 106.311 51.8966 106.311C52.2981 106.311 52.9004 105.821 52.9004 105.085Z" fill="#DBE9FF"/>
<path d="M52.9004 93.3196C52.9004 93.9966 52.451 94.5455 51.8966 94.5455C51.3422 94.5455 50.8928 93.9966 50.8928 93.3196C50.8928 92.6426 51.3422 92.0937 51.8966 92.0937C52.451 92.0937 52.9004 92.6426 52.9004 93.3196Z" fill="#DBE9FF"/>
<path d="M52.284 81.5489C52.284 81.8197 52.1042 82.0393 51.8825 82.0393C51.6607 82.0393 51.481 81.8197 51.481 81.5489C51.481 81.2781 51.6607 81.0586 51.8825 81.0586C52.1042 81.0586 52.284 81.2781 52.284 81.5489Z" fill="#DBE9FF"/>
<path d="M52.9004 69.7844C52.9004 70.4615 52.451 71.0103 51.8966 71.0103C51.3422 71.0103 50.8928 70.4615 50.8928 69.7844C50.8928 69.1074 51.3422 68.5586 51.8966 68.5586C52.451 68.5586 52.9004 69.1074 52.9004 69.7844Z" fill="#DBE9FF"/>
<path d="M52.2835 58.0177C52.2835 58.2885 52.1038 58.508 51.882 58.508C51.6602 58.508 51.4805 58.2885 51.4805 58.0177C51.4805 57.7469 51.6602 57.5273 51.882 57.5273C52.1038 57.5273 52.2835 57.7469 52.2835 58.0177Z" fill="#DBE9FF"/>
<path d="M52.4998 46.2472C52.4998 46.6534 52.2301 46.9827 51.8975 46.9827C51.5648 46.9827 51.2952 46.6534 51.2952 46.2472C51.2952 45.841 51.5648 45.5117 51.8975 45.5117C52.2301 45.5117 52.4998 45.841 52.4998 46.2472Z" fill="#DBE9FF"/>
<path d="M52.4998 34.4797C52.4998 34.8859 52.2301 35.2152 51.8975 35.2152C51.5648 35.2152 51.2952 34.8859 51.2952 34.4797C51.2952 34.0734 51.5648 33.7441 51.8975 33.7441C52.2301 33.7441 52.4998 34.0734 52.4998 34.4797Z" fill="#DBE9FF"/>
<path d="M52.6998 22.7131C52.6998 23.2547 52.3403 23.6938 51.8968 23.6938C51.4533 23.6938 51.0938 23.2547 51.0938 22.7131C51.0938 22.1715 51.4533 21.7324 51.8968 21.7324C52.3403 21.7324 52.6998 22.1715 52.6998 22.7131Z" fill="#DBE9FF"/>
<path d="M61.9278 328.684C61.9278 328.955 61.748 329.174 61.5262 329.174C61.3045 329.174 61.1248 328.955 61.1248 328.684C61.1248 328.413 61.3045 328.193 61.5262 328.193C61.748 328.193 61.9278 328.413 61.9278 328.684Z" fill="#DBE9FF"/>
<path d="M61.727 316.915C61.727 317.051 61.6371 317.161 61.5262 317.161C61.4153 317.161 61.3254 317.051 61.3254 316.915C61.3254 316.78 61.4153 316.67 61.5262 316.67C61.6371 316.67 61.727 316.78 61.727 316.915Z" fill="#DBE9FF"/>
<path d="M61.928 305.147C61.928 305.417 61.7482 305.637 61.5265 305.637C61.3047 305.637 61.125 305.417 61.125 305.147C61.125 304.876 61.3047 304.656 61.5265 304.656C61.7482 304.656 61.928 304.876 61.928 305.147Z" fill="#DBE9FF"/>
<path d="M62.5274 293.38C62.5274 294.057 62.0779 294.606 61.5236 294.606C60.9692 294.606 60.5198 294.057 60.5198 293.38C60.5198 292.703 60.9692 292.154 61.5236 292.154C62.0779 292.154 62.5274 292.703 62.5274 293.38Z" fill="#DBE9FF"/>
<path d="M61.727 281.613C61.727 281.748 61.6371 281.858 61.5262 281.858C61.4153 281.858 61.3254 281.748 61.3254 281.613C61.3254 281.477 61.4153 281.367 61.5262 281.367C61.6371 281.367 61.727 281.477 61.727 281.613Z" fill="#DBE9FF"/>
<path d="M61.727 258.076C61.727 258.211 61.6371 258.321 61.5262 258.321C61.4153 258.321 61.3254 258.211 61.3254 258.076C61.3254 257.94 61.4153 257.83 61.5262 257.83C61.6371 257.83 61.727 257.94 61.727 258.076Z" fill="#DBE9FF"/>
<path d="M61.727 246.308C61.727 246.443 61.6371 246.553 61.5262 246.553C61.4153 246.553 61.3254 246.443 61.3254 246.308C61.3254 246.172 61.4153 246.062 61.5262 246.062C61.6371 246.062 61.727 246.172 61.727 246.308Z" fill="#DBE9FF"/>
<path d="M62.1286 234.536C62.1286 234.942 61.859 235.272 61.5263 235.272C61.1937 235.272 60.9241 234.942 60.9241 234.536C60.9241 234.13 61.1937 233.801 61.5263 233.801C61.859 233.801 62.1286 234.13 62.1286 234.536Z" fill="#DBE9FF"/>
<path d="M61.727 222.771C61.727 222.906 61.6371 223.016 61.5262 223.016C61.4153 223.016 61.3254 222.906 61.3254 222.771C61.3254 222.635 61.4153 222.525 61.5262 222.525C61.6371 222.525 61.727 222.635 61.727 222.771Z" fill="#DBE9FF"/>
<path d="M62.1286 211.003C62.1286 211.409 61.859 211.739 61.5263 211.739C61.1937 211.739 60.9241 211.409 60.9241 211.003C60.9241 210.597 61.1937 210.268 61.5263 210.268C61.859 210.268 62.1286 210.597 62.1286 211.003Z" fill="#DBE9FF"/>
<path d="M62.5274 199.236C62.5274 199.913 62.0779 200.461 61.5236 200.461C60.9692 200.461 60.5198 199.913 60.5198 199.236C60.5198 198.559 60.9692 198.01 61.5236 198.01C62.0779 198.01 62.5274 198.559 62.5274 199.236Z" fill="#DBE9FF"/>
<path d="M62.3273 187.467C62.3273 188.009 61.9677 188.448 61.5242 188.448C61.0807 188.448 60.7212 188.009 60.7212 187.467C60.7212 186.925 61.0807 186.486 61.5242 186.486C61.9677 186.486 62.3273 186.925 62.3273 187.467Z" fill="#DBE9FF"/>
<path d="M62.3273 175.697C62.3273 176.239 61.9677 176.678 61.5242 176.678C61.0807 176.678 60.7212 176.239 60.7212 175.697C60.7212 175.156 61.0807 174.717 61.5242 174.717C61.9677 174.717 62.3273 175.156 62.3273 175.697Z" fill="#DBE9FF"/>
<path d="M62.1286 163.929C62.1286 164.335 61.859 164.664 61.5263 164.664C61.1937 164.664 60.9241 164.335 60.9241 163.929C60.9241 163.523 61.1937 163.193 61.5263 163.193C61.859 163.193 62.1286 163.523 62.1286 163.929Z" fill="#DBE9FF"/>
<path d="M62.7277 152.159C62.7277 151.423 62.1254 150.687 61.5232 150.687C60.9209 150.687 60.3186 151.423 60.3186 152.159C60.3186 152.894 60.9209 153.63 61.5232 153.63C62.1254 153.63 62.7277 153.139 62.7277 152.159Z" fill="#DBE9FF"/>
<path d="M62.1286 140.394C62.1286 140.8 61.859 141.129 61.5263 141.129C61.1937 141.129 60.9241 140.8 60.9241 140.394C60.9241 139.987 61.1937 139.658 61.5263 139.658C61.859 139.658 62.1286 139.987 62.1286 140.394Z" fill="#DBE9FF"/>
<path d="M62.3273 128.623C62.3273 129.165 61.9677 129.604 61.5242 129.604C61.0807 129.604 60.7212 129.165 60.7212 128.623C60.7212 128.082 61.0807 127.643 61.5242 127.643C61.9677 127.643 62.3273 128.082 62.3273 128.623Z" fill="#DBE9FF"/>
<path d="M62.5274 116.857C62.5274 116.121 62.1258 115.631 61.5236 115.631C60.9213 115.631 60.5198 116.121 60.5198 116.857C60.5198 117.592 60.9213 118.083 61.5236 118.083C61.9251 118.083 62.5274 117.592 62.5274 116.857Z" fill="#DBE9FF"/>
<path d="M62.5268 105.086C62.5268 104.351 61.9245 103.615 61.3222 103.615C60.7199 103.615 60.1177 104.351 60.1177 105.086C60.1177 105.822 60.7199 106.557 61.3222 106.557C62.1253 106.557 62.5268 105.822 62.5268 105.086Z" fill="#DBE9FF"/>
<path d="M62.5279 93.3196C62.5279 93.9966 62.0784 94.5455 61.524 94.5455C60.9697 94.5455 60.5203 93.9966 60.5203 93.3196C60.5203 92.6426 60.9697 92.0937 61.524 92.0937C62.0784 92.0937 62.5279 92.6426 62.5279 93.3196Z" fill="#DBE9FF"/>
<path d="M62.1284 81.5519C62.1284 81.9581 61.8587 82.2874 61.5261 82.2874C61.1935 82.2874 60.9238 81.9581 60.9238 81.5519C60.9238 81.1457 61.1935 80.8164 61.5261 80.8164C61.8587 80.8164 62.1284 81.1457 62.1284 81.5519Z" fill="#DBE9FF"/>
<path d="M62.5274 69.7844C62.5274 70.4615 62.0779 71.0103 61.5236 71.0103C60.9692 71.0103 60.5198 70.4615 60.5198 69.7844C60.5198 69.1074 60.9692 68.5586 61.5236 68.5586C62.0779 68.5586 62.5274 69.1074 62.5274 69.7844Z" fill="#DBE9FF"/>
<path d="M62.1286 58.0148C62.1286 58.421 61.859 58.7503 61.5263 58.7503C61.1937 58.7503 60.9241 58.421 60.9241 58.0148C60.9241 57.6086 61.1937 57.2793 61.5263 57.2793C61.859 57.2793 62.1286 57.6086 62.1286 58.0148Z" fill="#DBE9FF"/>
<path d="M61.727 46.2474C61.727 46.0019 61.727 46.002 61.5262 46.002C61.3254 46.002 61.3254 46.0019 61.3254 46.2474C61.3254 46.4928 61.3254 46.4928 61.5262 46.4928C61.5262 46.4928 61.727 46.4928 61.727 46.2474Z" fill="#DBE9FF"/>
<path d="M62.1286 34.4797C62.1286 34.8859 61.859 35.2152 61.5263 35.2152C61.1937 35.2152 60.9241 34.8859 60.9241 34.4797C60.9241 34.0734 61.1937 33.7441 61.5263 33.7441C61.859 33.7441 62.1286 34.0734 62.1286 34.4797Z" fill="#DBE9FF"/>
<path d="M62.5274 22.7102C62.5274 23.3872 62.0779 23.9361 61.5236 23.9361C60.9692 23.9361 60.5198 23.3872 60.5198 22.7102C60.5198 22.0332 60.9692 21.4844 61.5236 21.4844C62.0779 21.4844 62.5274 22.0332 62.5274 22.7102Z" fill="#DBE9FF"/>
<path d="M61.928 10.9435C61.928 11.2143 61.7482 11.4338 61.5265 11.4338C61.3047 11.4338 61.125 11.2143 61.125 10.9435C61.125 10.6727 61.3047 10.4531 61.5265 10.4531C61.7482 10.4531 61.928 10.6727 61.928 10.9435Z" fill="#DBE9FF"/>
<path d="M62.3273 -0.82401C62.3273 -0.282395 61.9677 0.156669 61.5242 0.156669C61.0807 0.156669 60.7212 -0.282395 60.7212 -0.824009C60.7212 -1.36562 61.0807 -1.80469 61.5242 -1.80469C61.9677 -1.80469 62.3273 -1.36562 62.3273 -0.82401Z" fill="#DBE9FF"/>
<path d="M71.3693 281.611C71.3693 281.746 71.2794 281.856 71.1685 281.856C71.0577 281.856 70.9678 281.746 70.9678 281.611C70.9678 281.475 71.0577 281.365 71.1685 281.365C71.2794 281.365 71.3693 281.475 71.3693 281.611Z" fill="#DBE9FF"/>
<path d="M71.3693 269.843C71.3693 269.979 71.2794 270.089 71.1685 270.089C71.0577 270.089 70.9678 269.979 70.9678 269.843C70.9678 269.708 71.0577 269.598 71.1685 269.598C71.2794 269.598 71.3693 269.708 71.3693 269.843Z" fill="#DBE9FF"/>
<path d="M71.7692 258.073C71.7692 257.583 71.5685 257.338 71.167 257.338C70.7655 257.338 70.5647 257.583 70.5647 258.073C70.5647 258.564 70.7655 258.809 71.167 258.809C71.5685 258.809 71.7692 258.564 71.7692 258.073Z" fill="#DBE9FF"/>
<path d="M71.3693 234.536C71.3693 234.672 71.2794 234.782 71.1685 234.782C71.0577 234.782 70.9678 234.672 70.9678 234.536C70.9678 234.401 71.0577 234.291 71.1685 234.291C71.2794 234.291 71.3693 234.401 71.3693 234.536Z" fill="#DBE9FF"/>
<path d="M71.3693 222.771C71.3693 222.906 71.2794 223.016 71.1685 223.016C71.0577 223.016 70.9678 222.906 70.9678 222.771C70.9678 222.635 71.0577 222.525 71.1685 222.525C71.2794 222.525 71.3693 222.635 71.3693 222.771Z" fill="#DBE9FF"/>
<path d="M71.7697 211.003C71.7697 211.409 71.5001 211.739 71.1675 211.739C70.8348 211.739 70.5652 211.409 70.5652 211.003C70.5652 210.597 70.8348 210.268 71.1675 210.268C71.5001 210.268 71.7697 210.597 71.7697 211.003Z" fill="#DBE9FF"/>
<path d="M71.3693 199.232C71.3693 198.986 71.3693 198.986 71.1685 198.986C70.9678 198.986 70.9678 198.986 70.9678 199.232C70.9678 199.477 70.9678 199.477 71.1685 199.477C71.1685 199.477 71.3693 199.477 71.3693 199.232Z" fill="#DBE9FF"/>
<path d="M71.5694 187.467C71.5694 187.738 71.3896 187.957 71.1679 187.957C70.9461 187.957 70.7664 187.738 70.7664 187.467C70.7664 187.196 70.9461 186.977 71.1679 186.977C71.3896 186.977 71.5694 187.196 71.5694 187.467Z" fill="#DBE9FF"/>
<path d="M71.3688 175.699C71.3688 175.834 71.2789 175.944 71.168 175.944C71.0572 175.944 70.9673 175.834 70.9673 175.699C70.9673 175.563 71.0572 175.453 71.168 175.453C71.2789 175.453 71.3688 175.563 71.3688 175.699Z" fill="#DBE9FF"/>
<path d="M71.3693 163.929C71.3693 164.065 71.2794 164.174 71.1685 164.174C71.0577 164.174 70.9678 164.065 70.9678 163.929C70.9678 163.793 71.0577 163.684 71.1685 163.684C71.2794 163.684 71.3693 163.793 71.3693 163.929Z" fill="#DBE9FF"/>
<path d="M71.5691 152.162C71.5691 152.433 71.3894 152.653 71.1676 152.653C70.9459 152.653 70.7661 152.433 70.7661 152.162C70.7661 151.891 70.9459 151.672 71.1676 151.672C71.3894 151.672 71.5691 151.891 71.5691 152.162Z" fill="#DBE9FF"/>
<path d="M72.1705 140.392C72.1705 141.069 71.721 141.618 71.1667 141.618C70.6123 141.618 70.1628 141.069 70.1628 140.392C70.1628 139.715 70.6123 139.166 71.1667 139.166C71.721 139.166 72.1705 139.715 72.1705 140.392Z" fill="#DBE9FF"/>
<path d="M71.3693 128.628C71.3693 128.764 71.2794 128.874 71.1685 128.874C71.0577 128.874 70.9678 128.764 70.9678 128.628C70.9678 128.493 71.0577 128.383 71.1685 128.383C71.2794 128.383 71.3693 128.493 71.3693 128.628Z" fill="#DBE9FF"/>
<path d="M71.9703 116.86C71.9703 117.401 71.6108 117.84 71.1673 117.84C70.7238 117.84 70.3643 117.401 70.3643 116.86C70.3643 116.318 70.7238 115.879 71.1673 115.879C71.6108 115.879 71.9703 116.318 71.9703 116.86Z" fill="#DBE9FF"/>
<path d="M71.5694 105.088C71.5694 105.359 71.3896 105.578 71.1679 105.578C70.9461 105.578 70.7664 105.359 70.7664 105.088C70.7664 104.817 70.9461 104.598 71.1679 104.598C71.3896 104.598 71.5694 104.817 71.5694 105.088Z" fill="#DBE9FF"/>
<path d="M71.5694 93.3224C71.5694 93.5932 71.3896 93.8127 71.1679 93.8127C70.9461 93.8127 70.7664 93.5932 70.7664 93.3224C70.7664 93.0516 70.9461 92.832 71.1679 92.832C71.3896 92.832 71.5694 93.0516 71.5694 93.3224Z" fill="#DBE9FF"/>
<path d="M71.3693 81.5501C71.3693 81.6857 71.2794 81.7956 71.1685 81.7956C71.0577 81.7956 70.9678 81.6857 70.9678 81.5501C70.9678 81.4146 71.0577 81.3047 71.1685 81.3047C71.2794 81.3047 71.3693 81.4146 71.3693 81.5501Z" fill="#DBE9FF"/>
<path d="M71.3693 69.7845C71.3693 69.9201 71.2794 70.0299 71.1685 70.0299C71.0577 70.0299 70.9678 69.9201 70.9678 69.7845C70.9678 69.6489 71.0577 69.5391 71.1685 69.5391C71.2794 69.5391 71.3693 69.6489 71.3693 69.7845Z" fill="#DBE9FF"/>
<path d="M71.9703 58.0158C71.9703 58.5574 71.6108 58.9965 71.1673 58.9965C70.7238 58.9965 70.3643 58.5574 70.3643 58.0158C70.3643 57.4742 70.7238 57.0352 71.1673 57.0352C71.6108 57.0352 71.9703 57.4742 71.9703 58.0158Z" fill="#DBE9FF"/>
<path d="M71.3693 46.2513C71.3693 46.3868 71.2794 46.4967 71.1685 46.4967C71.0577 46.4967 70.9678 46.3868 70.9678 46.2513C70.9678 46.1157 71.0577 46.0059 71.1685 46.0059C71.2794 46.0059 71.3693 46.1157 71.3693 46.2513Z" fill="#DBE9FF"/>
<path d="M71.7697 34.4797C71.7697 34.8859 71.5001 35.2152 71.1675 35.2152C70.8348 35.2152 70.5652 34.8859 70.5652 34.4797C70.5652 34.0734 70.8348 33.7441 71.1675 33.7441C71.5001 33.7441 71.7697 34.0734 71.7697 34.4797Z" fill="#DBE9FF"/>
</g>
</svg>
