<svg width="134" height="742" viewBox="0 0 134 742" fill="none" xmlns="http://www.w3.org/2000/svg">
<mask id="mask0_292_39762" style="mask-type:luminance" maskUnits="userSpaceOnUse" x="0" y="-251" width="505" height="1055">
<path d="M504.588 803.509L504.588 -251L6.10352e-05 -251L1.49923e-05 803.509L504.588 803.509Z" fill="white"/>
</mask>
<g mask="url(#mask0_292_39762)">
<path d="M125.512 726.527C125.512 727.11 125.983 727.582 126.563 727.582C127.143 727.582 127.614 727.11 127.614 726.527C127.614 725.945 127.143 725.473 126.563 725.473C125.983 725.473 125.512 725.945 125.512 726.527Z" fill="#DBE9FF"/>
<path d="M124.813 709.66C124.813 710.631 125.597 711.417 126.564 711.417C127.531 711.417 128.315 710.631 128.315 709.66C128.315 708.689 127.531 707.902 126.564 707.902C125.597 707.902 124.813 708.689 124.813 709.66Z" fill="#DBE9FF"/>
<path d="M124.813 692.785C124.813 693.755 125.597 694.542 126.564 694.542C127.531 694.542 128.315 693.755 128.315 692.785C128.315 691.814 127.531 691.027 126.564 691.027C125.597 691.027 124.813 691.814 124.813 692.785Z" fill="#DBE9FF"/>
<path d="M125.862 675.91C125.862 676.298 126.175 676.613 126.562 676.613C126.949 676.613 127.262 676.298 127.262 675.91C127.262 675.522 126.949 675.207 126.562 675.207C126.175 675.207 125.862 675.522 125.862 675.91Z" fill="#DBE9FF"/>
<path d="M125.163 659.041C125.163 659.817 125.79 660.447 126.564 660.447C127.337 660.447 127.965 659.817 127.965 659.041C127.965 658.264 127.337 657.635 126.564 657.635C125.79 657.635 125.163 658.264 125.163 659.041Z" fill="#DBE9FF"/>
<path d="M125.861 642.168C125.861 642.556 126.175 642.871 126.562 642.871C126.948 642.871 127.262 642.556 127.262 642.168C127.262 641.78 126.948 641.465 126.562 641.465C126.175 641.465 125.861 641.78 125.861 642.168Z" fill="#DBE9FF"/>
<path d="M125.861 625.291C125.861 625.679 126.175 625.994 126.562 625.994C126.948 625.994 127.262 625.679 127.262 625.291C127.262 624.903 126.948 624.588 126.562 624.588C126.175 624.588 125.861 624.903 125.861 625.291Z" fill="#DBE9FF"/>
<path d="M125.512 608.424C125.512 609.006 125.983 609.478 126.563 609.478C127.143 609.478 127.614 609.006 127.614 608.424C127.614 607.841 127.143 607.369 126.563 607.369C125.983 607.369 125.512 607.841 125.512 608.424Z" fill="#DBE9FF"/>
<path d="M125.861 591.551C125.861 591.939 126.175 592.254 126.562 592.254C126.948 592.254 127.262 591.939 127.262 591.551C127.262 591.162 126.948 590.848 126.562 590.848C126.175 590.848 125.861 591.162 125.861 591.551Z" fill="#DBE9FF"/>
<path d="M125.512 574.681C125.512 575.264 125.982 575.736 126.562 575.736C127.143 575.736 127.613 575.264 127.613 574.681C127.613 574.099 127.143 573.627 126.562 573.627C125.982 573.627 125.512 574.099 125.512 574.681Z" fill="#DBE9FF"/>
<path d="M124.813 557.808C124.813 558.779 125.597 559.566 126.564 559.566C127.531 559.566 128.315 558.779 128.315 557.808C128.315 556.838 127.531 556.051 126.564 556.051C125.597 556.051 124.813 556.838 124.813 557.808Z" fill="#DBE9FF"/>
<path d="M124.813 540.935C124.813 541.906 125.597 542.693 126.564 542.693C127.531 542.693 128.315 541.906 128.315 540.935C128.315 539.965 127.531 539.178 126.564 539.178C125.597 539.178 124.813 539.965 124.813 540.935Z" fill="#DBE9FF"/>
<path d="M123.416 524.064C123.416 522.306 124.817 520.9 126.568 520.9C128.319 520.9 129.719 522.306 129.719 524.064C129.719 525.821 128.319 527.227 126.568 527.227C124.817 527.227 123.416 525.821 123.416 524.064Z" fill="#DBE9FF"/>
<path d="M123.416 507.191C123.416 505.433 124.817 504.027 126.568 504.027C128.319 504.027 129.719 505.433 129.719 507.191C129.719 508.948 128.319 510.354 126.568 510.354C124.817 510.354 123.416 508.948 123.416 507.191Z" fill="#DBE9FF"/>
<path d="M123.765 490.316C123.765 491.869 125.02 493.128 126.567 493.128C128.114 493.128 129.368 491.869 129.368 490.316C129.368 488.763 128.114 487.504 126.567 487.504C125.02 487.504 123.765 488.763 123.765 490.316Z" fill="#DBE9FF"/>
<path d="M123.066 473.447C123.066 471.338 124.817 469.932 126.568 469.932C128.319 469.932 130.07 471.689 130.07 473.447C130.07 475.556 128.319 476.962 126.568 476.962C124.817 476.962 123.066 475.556 123.066 473.447Z" fill="#DBE9FF"/>
<path d="M123.765 456.576C123.765 455.17 125.166 453.764 126.567 453.764C127.968 453.764 129.368 455.17 129.368 456.576C129.368 457.982 127.968 459.388 126.567 459.388C125.166 459.388 123.765 458.333 123.765 456.576Z" fill="#DBE9FF"/>
<path d="M122.018 439.702C122.018 442.226 124.056 444.272 126.57 444.272C129.085 444.272 131.123 442.226 131.123 439.702C131.123 437.179 129.085 435.133 126.57 435.133C124.056 435.133 122.018 437.179 122.018 439.702Z" fill="#DBE9FF"/>
<path d="M121.671 422.829C121.671 420.017 123.773 417.908 126.574 417.908C129.376 417.908 131.477 420.017 131.477 422.829C131.477 425.641 129.376 427.75 126.574 427.75C123.773 428.102 121.671 425.641 121.671 422.829Z" fill="#DBE9FF"/>
<path d="M122.716 405.96C122.716 408.096 124.441 409.827 126.568 409.827C128.696 409.827 130.421 408.096 130.421 405.96C130.421 403.825 128.696 402.094 126.568 402.094C124.441 402.094 122.716 403.825 122.716 405.96Z" fill="#DBE9FF"/>
<path d="M124.116 389.087C124.116 387.681 125.166 386.275 126.917 386.275C128.668 386.275 129.719 387.33 129.719 389.087C129.719 390.493 128.668 391.899 126.917 391.899C125.166 391.899 124.116 390.493 124.116 389.087Z" fill="#DBE9FF"/>
<path d="M120.971 372.212C120.971 375.318 123.479 377.836 126.574 377.836C129.668 377.836 132.177 375.318 132.177 372.212C132.177 369.106 129.668 366.588 126.574 366.588C123.479 366.588 120.971 369.106 120.971 372.212Z" fill="#DBE9FF"/>
<path d="M119.57 355.341C119.57 359.223 122.706 362.371 126.574 362.371C130.443 362.371 133.578 359.223 133.578 355.341C133.578 351.458 130.443 348.311 126.574 348.311C122.706 348.311 119.57 351.458 119.57 355.341Z" fill="#DBE9FF"/>
<path d="M121.671 338.468C121.671 341.186 123.866 343.389 126.574 343.389C129.282 343.389 131.477 341.186 131.477 338.468C131.477 335.75 129.282 333.547 126.574 333.547C123.866 333.547 121.671 335.75 121.671 338.468Z" fill="#DBE9FF"/>
<path d="M123.066 321.593C123.066 319.484 124.817 318.078 126.568 318.078C128.319 318.078 130.07 319.836 130.07 321.593C130.07 323.702 128.319 325.108 126.568 325.108C124.817 325.108 123.066 323.702 123.066 321.593Z" fill="#DBE9FF"/>
<path d="M121.322 304.724C121.322 307.636 123.673 309.996 126.574 309.996C129.476 309.996 131.827 307.636 131.827 304.724C131.827 301.812 129.476 299.451 126.574 299.451C123.673 299.451 121.322 301.812 121.322 304.724Z" fill="#DBE9FF"/>
<path d="M120.971 287.853C120.971 290.959 123.479 293.477 126.574 293.477C129.668 293.477 132.177 290.959 132.177 287.853C132.177 284.746 129.668 282.229 126.574 282.229C123.479 282.229 120.971 284.746 120.971 287.853Z" fill="#DBE9FF"/>
<path d="M122.022 270.982C122.022 268.17 124.123 266.061 126.925 266.061C129.726 266.061 131.827 268.17 131.827 270.982C131.827 273.442 129.726 275.903 126.925 275.903C124.123 275.903 122.022 273.794 122.022 270.982Z" fill="#DBE9FF"/>
<path d="M121.671 254.109C121.671 256.826 123.866 259.03 126.574 259.03C129.282 259.03 131.477 256.826 131.477 254.109C131.477 251.391 129.282 249.187 126.574 249.187C123.866 249.187 121.671 251.391 121.671 254.109Z" fill="#DBE9FF"/>
<path d="M122.716 237.238C122.716 239.373 124.441 241.104 126.568 241.104C128.696 241.104 130.421 239.373 130.421 237.238C130.421 235.102 128.696 233.371 126.568 233.371C124.441 233.371 122.716 235.102 122.716 237.238Z" fill="#DBE9FF"/>
<path d="M121.671 220.362C121.671 217.55 123.773 215.441 126.574 215.441C129.376 215.441 131.477 217.55 131.477 220.362C131.477 223.174 129.376 225.283 126.574 225.283C123.773 225.635 121.671 223.174 121.671 220.362Z" fill="#DBE9FF"/>
<path d="M120.971 203.491C120.971 206.597 123.479 209.115 126.574 209.115C129.668 209.115 132.177 206.597 132.177 203.491C132.177 200.385 129.668 197.867 126.574 197.867C123.479 197.867 120.971 200.385 120.971 203.491Z" fill="#DBE9FF"/>
<path d="M121.322 186.62C121.322 189.532 123.673 191.893 126.574 191.893C129.476 191.893 131.827 189.532 131.827 186.62C131.827 183.708 129.476 181.348 126.574 181.348C123.673 181.348 121.322 183.708 121.322 186.62Z" fill="#DBE9FF"/>
<path d="M122.716 169.751C122.716 171.887 124.441 173.618 126.568 173.618C128.696 173.618 130.421 171.887 130.421 169.751C130.421 167.616 128.696 165.885 126.568 165.885C124.441 165.885 122.716 167.616 122.716 169.751Z" fill="#DBE9FF"/>
<path d="M122.716 152.872C122.716 155.008 124.441 156.739 126.568 156.739C128.696 156.739 130.421 155.008 130.421 152.872C130.421 150.737 128.696 149.006 126.568 149.006C124.441 149.006 122.716 150.737 122.716 152.872Z" fill="#DBE9FF"/>
<path d="M122.716 136.001C122.716 138.137 124.441 139.868 126.568 139.868C128.696 139.868 130.421 138.137 130.421 136.001C130.421 133.866 128.696 132.135 126.568 132.135C124.441 132.135 122.716 133.866 122.716 136.001Z" fill="#DBE9FF"/>
<path d="M122.372 119.13C122.372 116.67 124.473 114.561 126.924 114.561C129.376 114.561 131.477 116.67 131.477 119.13C131.477 121.591 129.376 123.7 126.924 123.7C124.473 123.7 122.372 121.591 122.372 119.13Z" fill="#DBE9FF"/>
<path d="M123.765 102.257C123.765 103.81 125.019 105.069 126.566 105.069C128.114 105.069 129.368 103.81 129.368 102.257C129.368 100.704 128.114 99.4453 126.566 99.4453C125.019 99.4453 123.765 100.704 123.765 102.257Z" fill="#DBE9FF"/>
<path d="M123.765 85.3882C123.765 86.9412 125.019 88.2002 126.566 88.2002C128.114 88.2002 129.368 86.9412 129.368 85.3882C129.368 83.8352 128.114 82.5762 126.566 82.5762C125.019 82.5762 123.765 83.8352 123.765 85.3882Z" fill="#DBE9FF"/>
<path d="M124.812 68.5153C124.812 69.486 125.596 70.2729 126.563 70.2729C127.53 70.2729 128.314 69.486 128.314 68.5153C128.314 67.5447 127.53 66.7578 126.563 66.7578C125.596 66.7578 124.812 67.5447 124.812 68.5153Z" fill="#DBE9FF"/>
<path d="M125.861 51.6444C125.861 52.0327 126.174 52.3474 126.561 52.3474C126.948 52.3474 127.261 52.0327 127.261 51.6444C127.261 51.2562 126.948 50.9414 126.561 50.9414C126.174 50.9414 125.861 51.2562 125.861 51.6444Z" fill="#DBE9FF"/>
<path d="M125.861 34.7733C125.861 35.1616 126.174 35.4763 126.561 35.4763C126.948 35.4763 127.261 35.1616 127.261 34.7733C127.261 34.385 126.948 34.0703 126.561 34.0703C126.174 34.0703 125.861 34.385 125.861 34.7733Z" fill="#DBE9FF"/>
<path d="M126.237 17.8968C126.237 18.0912 126.394 18.2487 126.587 18.2487C126.78 18.2487 126.937 18.0912 126.937 17.8968C126.937 17.7025 126.78 17.5449 126.587 17.5449C126.394 17.5449 126.237 17.7025 126.237 17.8968Z" fill="#DBE9FF"/>
<path d="M126.237 1.02571C126.237 1.22006 126.394 1.37761 126.587 1.37761C126.78 1.37761 126.937 1.22006 126.937 1.02571C126.937 0.831368 126.78 0.673828 126.587 0.673828C126.394 0.673828 126.237 0.831368 126.237 1.02571Z" fill="#DBE9FF"/>
<path d="M108.718 726.527C108.718 727.11 109.189 727.582 109.769 727.582C110.349 727.582 110.82 727.11 110.82 726.527C110.82 725.945 110.349 725.473 109.769 725.473C109.189 725.473 108.718 725.945 108.718 726.527Z" fill="#DBE9FF"/>
<path d="M107.672 709.656C107.672 708.25 108.722 707.195 110.123 707.195C111.524 707.195 112.574 708.25 112.574 709.656C112.574 711.062 111.524 712.116 110.123 712.116C108.722 712.116 107.672 711.062 107.672 709.656Z" fill="#DBE9FF"/>
<path d="M106.972 692.785C106.972 694.338 108.226 695.597 109.773 695.597C111.321 695.597 112.575 694.338 112.575 692.785C112.575 691.232 111.321 689.973 109.773 689.973C108.226 689.973 106.972 691.232 106.972 692.785Z" fill="#DBE9FF"/>
<path d="M109.065 675.912C109.065 676.3 109.379 676.615 109.766 676.615C110.152 676.615 110.466 676.3 110.466 675.912C110.466 675.524 110.152 675.209 109.766 675.209C109.379 675.209 109.065 675.524 109.065 675.912Z" fill="#DBE9FF"/>
<path d="M109.065 659.041C109.065 659.429 109.379 659.744 109.766 659.744C110.152 659.744 110.466 659.429 110.466 659.041C110.466 658.653 110.152 658.338 109.766 658.338C109.379 658.338 109.065 658.653 109.065 659.041Z" fill="#DBE9FF"/>
<path d="M109.065 642.168C109.065 642.556 109.379 642.871 109.766 642.871C110.152 642.871 110.466 642.556 110.466 642.168C110.466 641.78 110.152 641.465 109.766 641.465C109.379 641.465 109.065 641.78 109.065 642.168Z" fill="#DBE9FF"/>
<path d="M109.065 625.297C109.065 625.685 109.379 626 109.766 626C110.152 626 110.466 625.685 110.466 625.297C110.466 624.908 110.152 624.594 109.766 624.594C109.379 624.594 109.065 624.908 109.065 625.297Z" fill="#DBE9FF"/>
<path d="M109.415 608.422C109.415 608.617 109.572 608.774 109.765 608.774C109.959 608.774 110.115 608.617 110.115 608.422C110.115 608.228 109.959 608.07 109.765 608.07C109.572 608.07 109.415 608.228 109.415 608.422Z" fill="#DBE9FF"/>
<path d="M109.065 574.678C109.065 575.066 109.379 575.381 109.766 575.381C110.152 575.381 110.466 575.066 110.466 574.678C110.466 574.289 110.152 573.975 109.766 573.975C109.379 573.975 109.065 574.289 109.065 574.678Z" fill="#DBE9FF"/>
<path d="M108.369 557.806C108.369 558.583 108.996 559.212 109.77 559.212C110.544 559.212 111.171 558.583 111.171 557.806C111.171 557.03 110.544 556.4 109.77 556.4C108.996 556.4 108.369 557.03 108.369 557.806Z" fill="#DBE9FF"/>
<path d="M108.718 540.935C108.718 541.518 109.189 541.99 109.769 541.99C110.349 541.99 110.82 541.518 110.82 540.935C110.82 540.353 110.349 539.881 109.769 539.881C109.189 539.881 108.718 540.353 108.718 540.935Z" fill="#DBE9FF"/>
<path d="M108.369 524.064C108.369 524.841 108.996 525.47 109.77 525.47C110.544 525.47 111.171 524.841 111.171 524.064C111.171 523.288 110.544 522.658 109.77 522.658C108.996 522.658 108.369 523.288 108.369 524.064Z" fill="#DBE9FF"/>
<path d="M108.369 507.187C108.369 507.964 108.996 508.593 109.77 508.593C110.543 508.593 111.171 507.964 111.171 507.187C111.171 506.411 110.543 505.781 109.77 505.781C108.996 505.781 108.369 506.411 108.369 507.187Z" fill="#DBE9FF"/>
<path d="M108.718 490.316C108.718 490.899 109.189 491.371 109.769 491.371C110.349 491.371 110.82 490.899 110.82 490.316C110.82 489.734 110.349 489.262 109.769 489.262C109.189 489.262 108.718 489.734 108.718 490.316Z" fill="#DBE9FF"/>
<path d="M108.02 473.449C108.02 474.42 108.804 475.206 109.771 475.206C110.738 475.206 111.522 474.42 111.522 473.449C111.522 472.478 110.738 471.691 109.771 471.691C108.804 471.691 108.02 472.478 108.02 473.449Z" fill="#DBE9FF"/>
<path d="M108.02 456.572C108.02 455.517 108.72 454.814 109.771 454.814C110.821 454.814 111.522 455.517 111.522 456.572C111.522 457.626 110.821 458.329 109.771 458.329C108.72 458.329 108.02 457.626 108.02 456.572Z" fill="#DBE9FF"/>
<path d="M105.922 439.699C105.922 441.834 107.647 443.565 109.775 443.565C111.902 443.565 113.627 441.834 113.627 439.699C113.627 437.563 111.902 435.832 109.775 435.832C107.647 435.832 105.922 437.563 105.922 439.699Z" fill="#DBE9FF"/>
<path d="M105.923 422.829C105.923 424.965 107.648 426.696 109.775 426.696C111.903 426.696 113.627 424.965 113.627 422.829C113.627 420.694 111.903 418.963 109.775 418.963C107.648 418.963 105.923 420.694 105.923 422.829Z" fill="#DBE9FF"/>
<path d="M106.272 405.958C106.272 403.849 108.023 402.443 109.774 402.443C111.875 402.443 113.276 404.201 113.276 405.958C113.276 408.067 111.525 409.473 109.774 409.473C108.023 409.473 106.272 408.067 106.272 405.958Z" fill="#DBE9FF"/>
<path d="M105.575 389.083C105.575 386.623 107.677 384.514 110.128 384.514C112.579 384.514 114.68 386.623 114.68 389.083C114.68 391.544 112.579 393.653 110.128 393.653C107.326 393.653 105.575 391.544 105.575 389.083Z" fill="#DBE9FF"/>
<path d="M105.574 372.212C105.574 374.542 107.455 376.43 109.776 376.43C112.097 376.43 113.978 374.542 113.978 372.212C113.978 369.883 112.097 367.994 109.776 367.994C107.455 367.994 105.574 369.883 105.574 372.212Z" fill="#DBE9FF"/>
<path d="M105.922 355.341C105.922 357.477 107.647 359.208 109.775 359.208C111.902 359.208 113.627 357.477 113.627 355.341C113.627 353.206 111.902 351.475 109.775 351.475C107.647 351.475 105.922 353.206 105.922 355.341Z" fill="#DBE9FF"/>
<path d="M104.875 338.468C104.875 341.186 107.07 343.389 109.778 343.389C112.485 343.389 114.68 341.186 114.68 338.468C114.68 335.75 112.485 333.547 109.778 333.547C107.07 333.547 104.875 335.75 104.875 338.468Z" fill="#DBE9FF"/>
<path d="M105.574 321.597C105.574 319.136 107.325 317.379 109.776 317.379C112.227 317.379 113.978 319.136 113.978 321.597C113.978 324.057 112.227 325.815 109.776 325.815C107.325 325.815 105.574 324.057 105.574 321.597Z" fill="#DBE9FF"/>
<path d="M105.199 304.728C105.199 301.916 107.3 299.807 110.102 299.807C112.553 299.807 115.005 301.916 115.005 304.728C115.005 307.188 112.903 309.649 110.102 309.649C107.3 309.649 105.199 307.54 105.199 304.728Z" fill="#DBE9FF"/>
<path d="M105.224 287.851C105.224 285.39 107.325 283.281 109.777 283.281C112.228 283.281 114.329 285.39 114.329 287.851C114.329 290.311 112.228 292.42 109.777 292.42C107.325 292.42 105.224 290.311 105.224 287.851Z" fill="#DBE9FF"/>
<path d="M105.224 270.98C105.224 273.503 107.263 275.549 109.777 275.549C112.291 275.549 114.329 273.503 114.329 270.98C114.329 268.456 112.291 266.41 109.777 266.41C107.263 266.41 105.224 268.456 105.224 270.98Z" fill="#DBE9FF"/>
<path d="M106.971 254.105C106.971 255.658 108.225 256.917 109.772 256.917C111.32 256.917 112.574 255.658 112.574 254.105C112.574 252.552 111.32 251.293 109.772 251.293C108.225 251.293 106.971 252.552 106.971 254.105Z" fill="#DBE9FF"/>
<path d="M106.273 237.236C106.273 235.127 108.024 233.721 109.775 233.721C111.876 233.721 113.277 235.478 113.277 237.236C113.277 239.345 111.526 240.751 109.775 240.751C108.024 241.102 106.273 239.345 106.273 237.236Z" fill="#DBE9FF"/>
<path d="M105.224 220.361C105.224 222.884 107.263 224.93 109.777 224.93C112.291 224.93 114.329 222.884 114.329 220.361C114.329 217.837 112.291 215.791 109.777 215.791C107.263 215.791 105.224 217.837 105.224 220.361Z" fill="#DBE9FF"/>
<path d="M106.622 203.488C106.622 205.235 108.033 206.651 109.773 206.651C111.514 206.651 112.925 205.235 112.925 203.488C112.925 201.741 111.514 200.324 109.773 200.324C108.033 200.324 106.622 201.741 106.622 203.488Z" fill="#DBE9FF"/>
<path d="M106.623 186.619C106.623 184.861 108.024 183.104 110.125 183.104C111.876 183.104 113.627 184.51 113.627 186.619C113.627 188.376 112.226 190.134 110.125 190.134C108.024 190.134 106.623 188.376 106.623 186.619Z" fill="#DBE9FF"/>
<path d="M105.574 169.749C105.574 167.289 107.675 165.531 109.776 165.531C112.227 165.531 113.978 167.64 113.978 169.749C113.978 172.21 111.877 173.967 109.776 173.967C107.325 174.319 105.574 172.21 105.574 169.749Z" fill="#DBE9FF"/>
<path d="M105.922 152.872C105.922 150.763 107.673 149.006 109.775 149.006C111.876 149.006 113.627 150.763 113.627 152.872C113.627 154.981 111.876 156.739 109.775 156.739C107.673 156.739 105.922 154.981 105.922 152.872Z" fill="#DBE9FF"/>
<path d="M105.224 136.003C105.224 138.527 107.263 140.573 109.777 140.573C112.291 140.573 114.329 138.527 114.329 136.003C114.329 133.479 112.291 131.434 109.777 131.434C107.263 131.434 105.224 133.479 105.224 136.003Z" fill="#DBE9FF"/>
<path d="M106.273 119.13C106.273 117.021 108.024 115.615 109.775 115.615C111.876 115.615 113.277 117.373 113.277 119.13C113.277 121.239 111.526 122.645 109.775 122.645C108.024 122.997 106.273 121.239 106.273 119.13Z" fill="#DBE9FF"/>
<path d="M107.32 102.259C107.32 100.853 108.371 99.7988 109.772 99.7988C111.172 99.7988 112.223 100.853 112.223 102.259C112.223 103.665 111.172 104.72 109.772 104.72C108.371 104.72 107.32 103.665 107.32 102.259Z" fill="#DBE9FF"/>
<path d="M107.321 85.3883C107.321 86.7472 108.418 87.8488 109.772 87.8488C111.126 87.8488 112.223 86.7472 112.223 85.3883C112.223 84.0294 111.126 82.9277 109.772 82.9277C108.418 82.9277 107.321 84.0294 107.321 85.3883Z" fill="#DBE9FF"/>
<path d="M107.322 68.5132C107.322 67.1072 108.373 65.7012 110.123 65.7012C111.524 65.7012 112.925 66.7557 112.925 68.5132C112.925 70.2707 111.874 71.3252 110.123 71.3252C108.373 71.3252 107.322 69.9192 107.322 68.5132Z" fill="#DBE9FF"/>
<path d="M108.718 51.6424C108.718 52.2248 109.188 52.6969 109.769 52.6969C110.349 52.6969 110.819 52.2248 110.819 51.6424C110.819 51.06 110.349 50.5879 109.769 50.5879C109.188 50.5879 108.718 51.06 108.718 51.6424Z" fill="#DBE9FF"/>
<path d="M108.019 34.7692C108.019 33.7147 108.72 33.0117 109.77 33.0117C110.821 33.0117 111.521 33.7147 111.521 34.7692C111.521 35.8238 110.821 36.5268 109.77 36.5268C108.72 36.5268 108.019 35.8238 108.019 34.7692Z" fill="#DBE9FF"/>
<path d="M109.069 17.8963C109.069 17.1933 109.419 16.8418 110.12 16.8418C110.82 16.8418 111.17 17.1933 111.17 17.8963C111.17 18.5993 110.82 18.9508 110.12 18.9508C109.419 18.9508 109.069 18.5993 109.069 17.8963Z" fill="#DBE9FF"/>
<path d="M108.718 1.02716C108.718 1.60955 109.188 2.08167 109.769 2.08167C110.349 2.08167 110.819 1.60955 110.819 1.02716C110.819 0.444767 110.349 -0.0273438 109.769 -0.0273438C109.188 -0.0273438 108.718 0.444767 108.718 1.02716Z" fill="#DBE9FF"/>
<path d="M91.5483 743.396C91.5483 744.173 92.1755 744.802 92.9491 744.802C93.7227 744.802 94.3499 744.173 94.3499 743.396C94.3499 742.62 93.7227 741.99 92.9491 741.99C92.1755 741.99 91.5483 742.62 91.5483 743.396Z" fill="#DBE9FF"/>
<path d="M91.5483 726.529C91.5483 727.306 92.1755 727.935 92.9491 727.935C93.7227 727.935 94.3499 727.306 94.3499 726.529C94.3499 725.753 93.7227 725.123 92.9491 725.123C92.1755 725.123 91.5483 725.753 91.5483 726.529Z" fill="#DBE9FF"/>
<path d="M91.5483 709.658C91.5483 710.435 92.1755 711.064 92.9491 711.064C93.7227 711.064 94.3499 710.435 94.3499 709.658C94.3499 708.881 93.7227 708.252 92.9491 708.252C92.1755 708.252 91.5483 708.881 91.5483 709.658Z" fill="#DBE9FF"/>
<path d="M91.5483 692.783C91.5483 693.559 92.1755 694.189 92.9491 694.189C93.7227 694.189 94.3499 693.559 94.3499 692.783C94.3499 692.006 93.7227 691.377 92.9491 691.377C92.1755 691.377 91.5483 692.006 91.5483 692.783Z" fill="#DBE9FF"/>
<path d="M92.2474 675.91C92.2474 676.298 92.561 676.613 92.9479 676.613C93.3347 676.613 93.6482 676.298 93.6482 675.91C93.6482 675.522 93.3347 675.207 92.9479 675.207C92.561 675.207 92.2474 675.522 92.2474 675.91Z" fill="#DBE9FF"/>
<path d="M92.2479 659.041C92.2479 659.429 92.5615 659.744 92.9483 659.744C93.3352 659.744 93.6487 659.429 93.6487 659.041C93.6487 658.653 93.3352 658.338 92.9483 658.338C92.5615 658.338 92.2479 658.653 92.2479 659.041Z" fill="#DBE9FF"/>
<path d="M92.5968 642.168C92.5968 642.363 92.7536 642.52 92.947 642.52C93.1404 642.52 93.2971 642.363 93.2971 642.168C93.2971 641.974 93.1404 641.816 92.947 641.816C92.7536 641.816 92.5968 641.974 92.5968 642.168Z" fill="#DBE9FF"/>
<path d="M92.2479 625.291C92.2479 625.679 92.5615 625.994 92.9483 625.994C93.3352 625.994 93.6487 625.679 93.6487 625.291C93.6487 624.903 93.3352 624.588 92.9483 624.588C92.5615 624.588 92.2479 624.903 92.2479 625.291Z" fill="#DBE9FF"/>
<path d="M91.1994 608.422C91.1994 609.392 91.9834 610.179 92.9505 610.179C93.9175 610.179 94.7014 609.392 94.7014 608.422C94.7014 607.451 93.9175 606.664 92.9505 606.664C91.9834 606.664 91.1994 607.451 91.1994 608.422Z" fill="#DBE9FF"/>
<path d="M92.2479 557.803C92.2479 558.191 92.5615 558.506 92.9483 558.506C93.3352 558.506 93.6487 558.191 93.6487 557.803C93.6487 557.414 93.3352 557.1 92.9483 557.1C92.5615 557.1 92.2479 557.414 92.2479 557.803Z" fill="#DBE9FF"/>
<path d="M92.5968 540.932C92.5968 541.126 92.7536 541.284 92.947 541.284C93.1404 541.284 93.2971 541.126 93.2971 540.932C93.2971 540.738 93.1404 540.58 92.947 540.58C92.7536 540.58 92.5968 540.738 92.5968 540.932Z" fill="#DBE9FF"/>
<path d="M92.2479 524.064C92.2479 524.453 92.5615 524.767 92.9483 524.767C93.3352 524.767 93.6487 524.453 93.6487 524.064C93.6487 523.676 93.3352 523.361 92.9483 523.361C92.5615 523.361 92.2479 523.676 92.2479 524.064Z" fill="#DBE9FF"/>
<path d="M91.8986 507.187C91.8986 507.77 92.369 508.242 92.9492 508.242C93.5294 508.242 93.9998 507.77 93.9998 507.187C93.9998 506.605 93.5294 506.133 92.9492 506.133C92.369 506.133 91.8986 506.605 91.8986 507.187Z" fill="#DBE9FF"/>
<path d="M91.5488 490.318C91.5488 491.095 92.176 491.724 92.9496 491.724C93.7232 491.724 94.3503 491.095 94.3503 490.318C94.3503 489.542 93.7232 488.912 92.9496 488.912C92.176 488.912 91.5488 489.542 91.5488 490.318Z" fill="#DBE9FF"/>
<path d="M89.8041 473.445C89.8041 471.687 91.2049 470.281 92.9559 470.281C94.7069 470.281 96.1077 471.687 96.1077 473.445C96.1077 475.202 94.7069 476.608 92.9559 476.608C91.2049 476.608 89.8041 475.202 89.8041 473.445Z" fill="#DBE9FF"/>
<path d="M90.1539 456.576C90.1539 458.129 91.4083 459.388 92.9555 459.388C94.5028 459.388 95.7571 458.129 95.7571 456.576C95.7571 455.023 94.5028 453.764 92.9555 453.764C91.4083 453.764 90.1539 455.023 90.1539 456.576Z" fill="#DBE9FF"/>
<path d="M91.199 439.701C91.199 438.646 91.8994 437.943 92.95 437.943C94.0006 437.943 94.7009 438.646 94.7009 439.701C94.7009 440.755 94.0006 441.458 92.95 441.458C92.2496 441.458 91.199 440.755 91.199 439.701Z" fill="#DBE9FF"/>
<path d="M89.4534 422.828C89.4534 420.719 90.8542 419.312 92.9554 419.312C95.0565 419.312 96.4573 420.719 96.4573 422.828C96.4573 424.937 95.0565 426.343 92.9554 426.343C91.2044 426.343 89.4534 424.937 89.4534 422.828Z" fill="#DBE9FF"/>
<path d="M91.199 405.953C91.199 406.923 91.9829 407.71 92.95 407.71C93.917 407.71 94.7009 406.923 94.7009 405.953C94.7009 404.982 93.917 404.195 92.95 404.195C91.9829 404.195 91.199 404.982 91.199 405.953Z" fill="#DBE9FF"/>
<path d="M90.5003 389.086C90.5003 387.679 91.5509 386.625 92.9517 386.625C94.3525 386.625 95.4031 387.679 95.4031 389.086C95.4031 390.492 94.3525 391.546 92.9517 391.546C91.5509 391.546 90.5003 390.492 90.5003 389.086Z" fill="#DBE9FF"/>
<path d="M90.5003 372.216C90.5003 373.575 91.5979 374.677 92.9517 374.677C94.3056 374.677 95.4031 373.575 95.4031 372.216C95.4031 370.857 94.3056 369.756 92.9517 369.756C91.5979 369.756 90.5003 370.857 90.5003 372.216Z" fill="#DBE9FF"/>
<path d="M90.1535 355.339C90.1535 356.892 91.4078 358.151 92.955 358.151C94.5023 358.151 95.7566 356.892 95.7566 355.339C95.7566 353.786 94.5023 352.527 92.955 352.527C91.4078 352.527 90.1535 353.786 90.1535 355.339Z" fill="#DBE9FF"/>
<path d="M90.5003 338.47C90.5003 339.829 91.5979 340.931 92.9517 340.931C94.3056 340.931 95.4031 339.829 95.4031 338.47C95.4031 337.111 94.3056 336.01 92.9517 336.01C91.5979 336.01 90.5003 337.111 90.5003 338.47Z" fill="#DBE9FF"/>
<path d="M89.8036 321.595C89.8036 319.838 91.2044 318.432 92.9554 318.432C94.7064 318.432 96.1072 319.838 96.1072 321.595C96.1072 323.353 94.7064 324.759 92.9554 324.759C91.2044 324.759 89.8036 323.353 89.8036 321.595Z" fill="#DBE9FF"/>
<path d="M88.7528 304.724C88.7528 302.263 90.5038 300.506 92.9552 300.506C95.4065 300.506 97.1575 302.263 97.1575 304.724C97.1575 307.184 95.4065 308.942 92.9552 308.942C90.854 308.942 88.7528 307.184 88.7528 304.724Z" fill="#DBE9FF"/>
<path d="M88.0522 287.853C88.0522 285.041 90.1534 282.932 92.9549 282.932C95.7565 282.932 97.8577 285.041 97.8577 287.853C97.8577 290.665 95.7565 292.774 92.9549 292.774C90.1534 292.774 88.0522 290.665 88.0522 287.853Z" fill="#DBE9FF"/>
<path d="M89.8036 270.98C89.8036 272.727 91.2147 274.143 92.9554 274.143C94.6961 274.143 96.1072 272.727 96.1072 270.98C96.1072 269.233 94.6961 267.816 92.9554 267.816C91.2147 267.816 89.8036 269.233 89.8036 270.98Z" fill="#DBE9FF"/>
<path d="M90.8496 254.111C90.8496 255.276 91.7904 256.22 92.9508 256.22C94.1113 256.22 95.052 255.276 95.052 254.111C95.052 252.946 94.1113 252.002 92.9508 252.002C91.7904 252.002 90.8496 252.946 90.8496 254.111Z" fill="#DBE9FF"/>
<path d="M90.1535 237.238C90.1535 235.832 91.5542 234.426 92.955 234.426C94.3558 234.426 95.7566 235.832 95.7566 237.238C95.7566 238.644 94.3558 240.05 92.955 240.05C91.5542 240.05 90.1535 238.995 90.1535 237.238Z" fill="#DBE9FF"/>
<path d="M90.8538 220.363C90.8538 218.957 91.9044 217.902 93.3052 217.902C94.7059 217.902 95.7566 218.957 95.7566 220.363C95.7566 221.769 94.7059 222.823 93.3052 222.823C91.9044 222.823 90.8538 221.769 90.8538 220.363Z" fill="#DBE9FF"/>
<path d="M90.1535 203.494C90.1535 205.047 91.4078 206.306 92.955 206.306C94.5023 206.306 95.7566 205.047 95.7566 203.494C95.7566 201.941 94.5023 200.682 92.955 200.682C91.4078 200.682 90.1535 201.941 90.1535 203.494Z" fill="#DBE9FF"/>
<path d="M90.8496 186.623C90.8496 187.787 91.7904 188.732 92.9508 188.732C94.1113 188.732 95.052 187.787 95.052 186.623C95.052 185.458 94.1113 184.514 92.9508 184.514C91.7904 184.514 90.8496 185.458 90.8496 186.623Z" fill="#DBE9FF"/>
<path d="M89.8035 169.746C89.8035 167.988 91.2042 166.23 93.3054 166.23C95.0564 166.23 96.8074 167.636 96.8074 169.746C96.8074 171.503 95.4066 173.261 93.3054 173.261C91.2042 173.261 89.8035 171.503 89.8035 169.746Z" fill="#DBE9FF"/>
<path d="M90.5003 152.875C90.5003 154.234 91.5979 155.335 92.9517 155.335C94.3056 155.335 95.4031 154.234 95.4031 152.875C95.4031 151.516 94.3056 150.414 92.9517 150.414C91.5979 150.414 90.5003 151.516 90.5003 152.875Z" fill="#DBE9FF"/>
<path d="M88.7528 136.001C88.7528 138.331 90.6343 140.219 92.9552 140.219C95.2761 140.219 97.1575 138.331 97.1575 136.001C97.1575 133.672 95.2761 131.783 92.9552 131.783C90.6343 131.783 88.7528 133.672 88.7528 136.001Z" fill="#DBE9FF"/>
<path d="M90.8538 119.132C90.8538 117.726 91.9044 116.672 93.3052 116.672C94.7059 116.672 95.7566 117.726 95.7566 119.132C95.7566 120.538 94.7059 121.593 93.3052 121.593C91.9044 121.593 90.8538 120.538 90.8538 119.132Z" fill="#DBE9FF"/>
<path d="M91.199 102.258C91.199 103.228 91.9829 104.015 92.95 104.015C93.917 104.015 94.7009 103.228 94.7009 102.258C94.7009 101.287 93.917 100.5 92.95 100.5C91.9829 100.5 91.199 101.287 91.199 102.258Z" fill="#DBE9FF"/>
<path d="M90.8543 85.3883C90.8543 83.9823 91.9049 82.9277 93.3057 82.9277C94.7064 82.9277 95.7571 83.9823 95.7571 85.3883C95.7571 86.7943 94.7064 87.8488 93.3057 87.8488C91.9049 87.8488 90.8543 86.7943 90.8543 85.3883Z" fill="#DBE9FF"/>
<path d="M90.5003 68.5093C90.5003 69.8682 91.5979 70.9698 92.9517 70.9698C94.3056 70.9699 95.4031 69.8682 95.4031 68.5093C95.4031 67.1504 94.3056 66.0488 92.9517 66.0488C91.5979 66.0488 90.5003 67.1504 90.5003 68.5093Z" fill="#DBE9FF"/>
<path d="M90.8496 51.6403C90.8496 52.8051 91.7904 53.7493 92.9508 53.7493C94.1113 53.7493 95.052 52.8051 95.052 51.6403C95.052 50.4755 94.1113 49.5312 92.9508 49.5312C91.7904 49.5312 90.8496 50.4755 90.8496 51.6403Z" fill="#DBE9FF"/>
<path d="M90.1539 34.771C90.1539 33.365 91.5547 31.959 92.9555 31.959C94.3563 31.959 95.7571 33.365 95.7571 34.771C95.7571 36.177 94.3563 37.583 92.9555 37.583C91.5547 37.583 90.1539 36.5285 90.1539 34.771Z" fill="#DBE9FF"/>
<path d="M92.247 17.8944C92.247 18.2827 92.5605 18.5974 92.9474 18.5974C93.3342 18.5974 93.6477 18.2827 93.6477 17.8944C93.6477 17.5062 93.3342 17.1914 92.9474 17.1914C92.5605 17.1914 92.247 17.5062 92.247 17.8944Z" fill="#DBE9FF"/>
<path d="M92.5963 1.02571C92.5963 1.22006 92.7531 1.37761 92.9465 1.37761C93.1399 1.37761 93.2966 1.22006 93.2966 1.02571C93.2966 0.831368 93.1399 0.673828 92.9465 0.673828C92.7531 0.673828 92.5963 0.831368 92.5963 1.02571Z" fill="#DBE9FF"/>
<path d="M75.8037 726.528C75.8037 726.722 75.9605 726.88 76.1539 726.88C76.3474 726.88 76.5042 726.722 76.5042 726.528C76.5042 726.333 76.3474 726.176 76.1539 726.176C75.9605 726.176 75.8037 726.333 75.8037 726.528Z" fill="#DBE9FF"/>
<path d="M75.454 709.656C75.454 710.044 75.7675 710.359 76.1543 710.359C76.5411 710.359 76.8547 710.044 76.8547 709.656C76.8547 709.268 76.5411 708.953 76.1543 708.953C75.7675 708.953 75.454 709.268 75.454 709.656Z" fill="#DBE9FF"/>
<path d="M75.454 692.787C75.454 693.175 75.7675 693.49 76.1543 693.49C76.5411 693.49 76.8547 693.175 76.8547 692.787C76.8547 692.399 76.5411 692.084 76.1543 692.084C75.7675 692.084 75.454 692.399 75.454 692.787Z" fill="#DBE9FF"/>
<path d="M74.406 675.912C74.406 676.882 75.1899 677.669 76.1569 677.669C77.124 677.669 77.908 676.882 77.908 675.912C77.908 674.941 77.124 674.154 76.1569 674.154C75.1899 674.154 74.406 674.941 74.406 675.912Z" fill="#DBE9FF"/>
<path d="M74.406 659.041C74.406 657.986 75.1064 657.283 76.1569 657.283C77.2075 657.283 77.908 657.986 77.908 659.041C77.908 660.095 77.2075 660.798 76.1569 660.798C75.4565 660.798 74.406 660.095 74.406 659.041Z" fill="#DBE9FF"/>
<path d="M75.454 642.168C75.454 642.556 75.7675 642.871 76.1543 642.871C76.5411 642.871 76.8547 642.556 76.8547 642.168C76.8547 641.78 76.5411 641.465 76.1543 641.465C75.7675 641.465 75.454 641.78 75.454 642.168Z" fill="#DBE9FF"/>
<path d="M75.8037 625.297C75.8037 625.491 75.9605 625.649 76.1539 625.649C76.3474 625.649 76.5042 625.491 76.5042 625.297C76.5042 625.103 76.3474 624.945 76.1539 624.945C75.9605 624.945 75.8037 625.103 75.8037 625.297Z" fill="#DBE9FF"/>
<path d="M75.8037 608.42C75.8037 608.615 75.9605 608.772 76.1539 608.772C76.3474 608.772 76.5042 608.615 76.5042 608.42C76.5042 608.226 76.3474 608.068 76.1539 608.068C75.9605 608.068 75.8037 608.226 75.8037 608.42Z" fill="#DBE9FF"/>
<path d="M75.8037 574.682C75.8037 574.876 75.9605 575.034 76.1539 575.034C76.3474 575.034 76.5042 574.876 76.5042 574.682C76.5042 574.488 76.3474 574.33 76.1539 574.33C75.9605 574.33 75.8037 574.488 75.8037 574.682Z" fill="#DBE9FF"/>
<path d="M75.8037 524.063C75.8037 523.711 75.8038 523.711 76.1539 523.711C76.5041 523.711 76.5042 523.711 76.5042 524.063C76.5042 524.415 76.5041 524.415 76.1539 524.415C76.1539 524.415 75.8037 524.415 75.8037 524.063Z" fill="#DBE9FF"/>
<path d="M75.1047 507.187C75.1047 507.77 75.575 508.242 76.1552 508.242C76.7354 508.242 77.2058 507.77 77.2058 507.187C77.2058 506.605 76.7354 506.133 76.1552 506.133C75.575 506.133 75.1047 506.605 75.1047 507.187Z" fill="#DBE9FF"/>
<path d="M75.1047 490.316C75.1047 490.899 75.575 491.371 76.1552 491.371C76.7354 491.371 77.2058 490.899 77.2058 490.316C77.2058 489.734 76.7354 489.262 76.1552 489.262C75.575 489.262 75.1047 489.734 75.1047 490.316Z" fill="#DBE9FF"/>
<path d="M74.7553 473.449C74.7553 474.225 75.3824 474.855 76.1561 474.855C76.9297 474.855 77.5569 474.225 77.5569 473.449C77.5569 472.672 76.9297 472.043 76.1561 472.043C75.3824 472.043 74.7553 472.672 74.7553 473.449Z" fill="#DBE9FF"/>
<path d="M75.454 456.576C75.454 456.964 75.7675 457.279 76.1543 457.279C76.5411 457.279 76.8547 456.964 76.8547 456.576C76.8547 456.188 76.5411 455.873 76.1543 455.873C75.7675 455.873 75.454 456.188 75.454 456.576Z" fill="#DBE9FF"/>
<path d="M74.7548 439.701C74.7548 440.477 75.3819 441.107 76.1556 441.107C76.9292 441.107 77.5564 440.477 77.5564 439.701C77.5564 438.924 76.9292 438.295 76.1556 438.295C75.3819 438.295 74.7548 438.924 74.7548 439.701Z" fill="#DBE9FF"/>
<path d="M72.9809 422.83C72.9809 421.072 74.3817 419.666 76.1327 419.666C77.8836 419.666 79.2844 421.072 79.2844 422.83C79.2844 424.587 77.8836 425.993 76.1327 425.993C74.3817 425.993 72.9809 424.587 72.9809 422.83Z" fill="#DBE9FF"/>
<path d="M73.3571 405.957C73.3571 407.51 74.6114 408.769 76.1586 408.769C77.7059 408.769 78.9602 407.51 78.9602 405.957C78.9602 404.404 77.7059 403.145 76.1586 403.145C74.6114 403.145 73.3571 404.404 73.3571 405.957Z" fill="#DBE9FF"/>
<path d="M73.7063 389.086C73.7063 390.444 74.8038 391.546 76.1577 391.546C77.5116 391.546 78.6091 390.444 78.6091 389.086C78.6091 387.727 77.5116 386.625 76.1577 386.625C74.8038 386.625 73.7063 387.727 73.7063 389.086Z" fill="#DBE9FF"/>
<path d="M73.7068 372.216C73.7068 370.81 74.7574 369.756 76.1582 369.756C77.559 369.756 78.6096 370.81 78.6096 372.216C78.6096 373.622 77.559 374.677 76.1582 374.677C74.7574 374.677 73.7068 373.622 73.7068 372.216Z" fill="#DBE9FF"/>
<path d="M73.7068 355.338C73.7068 356.696 74.8043 357.798 76.1582 357.798C77.512 357.798 78.6096 356.696 78.6096 355.338C78.6096 353.979 77.512 352.877 76.1582 352.877C74.8043 352.877 73.7068 353.979 73.7068 355.338Z" fill="#DBE9FF"/>
<path d="M74.4055 338.466C74.4055 339.437 75.1894 340.224 76.1565 340.224C77.1235 340.224 77.9075 339.437 77.9075 338.466C77.9075 337.496 77.1235 336.709 76.1565 336.709C75.1894 336.709 74.4055 337.496 74.4055 338.466Z" fill="#DBE9FF"/>
<path d="M72.9809 321.593C72.9809 323.34 74.392 324.757 76.1327 324.757C77.8733 324.757 79.2844 323.34 79.2844 321.593C79.2844 319.846 77.8733 318.43 76.1327 318.43C74.392 318.43 72.9809 319.846 72.9809 321.593Z" fill="#DBE9FF"/>
<path d="M72.6311 304.726C72.6311 302.617 74.0319 301.211 76.133 301.211C78.2342 301.211 79.635 302.617 79.635 304.726C79.635 306.835 78.2342 308.241 76.133 308.241C74.0319 308.241 72.6311 306.835 72.6311 304.726Z" fill="#DBE9FF"/>
<path d="M71.9325 287.857C71.9325 290.186 73.8139 292.075 76.1348 292.075C78.4557 292.075 80.3372 290.186 80.3372 287.857C80.3372 285.527 78.4557 283.639 76.1348 283.639C73.8139 283.639 71.9325 285.527 71.9325 287.857Z" fill="#DBE9FF"/>
<path d="M72.6311 270.978C72.6311 268.869 74.3821 267.463 76.133 267.463C78.2342 267.463 79.635 269.22 79.635 270.978C79.635 273.087 77.884 274.493 76.133 274.493C74.3821 274.844 72.6311 273.087 72.6311 270.978Z" fill="#DBE9FF"/>
<path d="M72.6311 254.107C72.6311 251.998 74.0319 250.592 76.133 250.592C78.2342 250.592 79.635 251.998 79.635 254.107C79.635 256.216 78.2342 257.622 76.133 257.622C74.0319 257.622 72.6311 256.216 72.6311 254.107Z" fill="#DBE9FF"/>
<path d="M72.6311 237.236C72.6311 235.127 74.3821 233.721 76.133 233.721C78.2342 233.721 79.635 235.478 79.635 237.236C79.635 239.345 77.884 240.751 76.133 240.751C74.3821 240.751 72.6311 239.345 72.6311 237.236Z" fill="#DBE9FF"/>
<path d="M73.7068 220.363C73.7068 221.722 74.8043 222.823 76.1582 222.823C77.512 222.823 78.6096 221.722 78.6096 220.363C78.6096 219.004 77.512 217.902 76.1582 217.902C74.8043 217.902 73.7068 219.004 73.7068 220.363Z" fill="#DBE9FF"/>
<path d="M73.7063 203.494C73.7063 204.853 74.8038 205.954 76.1577 205.954C77.5116 205.954 78.6091 204.853 78.6091 203.494C78.6091 202.135 77.5116 201.033 76.1577 201.033C74.8038 201.033 73.7063 202.135 73.7063 203.494Z" fill="#DBE9FF"/>
<path d="M74.4055 186.623C74.4055 187.593 75.1894 188.38 76.1565 188.38C77.1235 188.38 77.9075 187.593 77.9075 186.623C77.9075 185.652 77.1235 184.865 76.1565 184.865C75.1894 184.865 74.4055 185.652 74.4055 186.623Z" fill="#DBE9FF"/>
<path d="M74.4055 169.744C74.4055 168.689 75.1059 167.986 76.1565 167.986C77.207 167.986 77.9075 168.689 77.9075 169.744C77.9075 170.798 77.207 171.501 76.1565 171.501C75.1059 171.501 74.4055 170.798 74.4055 169.744Z" fill="#DBE9FF"/>
<path d="M74.4055 152.875C74.4055 153.845 75.1894 154.632 76.1565 154.632C77.1235 154.632 77.9075 153.845 77.9075 152.875C77.9075 151.904 77.1235 151.117 76.1565 151.117C75.1894 151.117 74.4055 151.904 74.4055 152.875Z" fill="#DBE9FF"/>
<path d="M73.3315 136.001C73.3315 134.244 74.7323 132.838 76.4832 132.838C78.2342 132.838 79.635 134.244 79.635 136.001C79.635 137.759 78.2342 139.165 76.4832 139.165C74.7323 139.165 73.3315 137.759 73.3315 136.001Z" fill="#DBE9FF"/>
<path d="M74.0575 119.129C74.0575 117.723 75.1081 116.668 76.5088 116.668C77.9096 116.668 78.9602 117.723 78.9602 119.129C78.9602 120.535 77.9096 121.589 76.5088 121.589C75.1081 121.589 74.0575 120.535 74.0575 119.129Z" fill="#DBE9FF"/>
<path d="M73.7063 102.259C73.7063 103.618 74.8038 104.72 76.1577 104.72C77.5116 104.72 78.6091 103.618 78.6091 102.259C78.6091 100.9 77.5116 99.7988 76.1577 99.7988C74.8038 99.7988 73.7063 100.9 73.7063 102.259Z" fill="#DBE9FF"/>
<path d="M73.7068 85.3883C73.7068 86.7472 74.8043 87.8488 76.1582 87.8488C77.512 87.8488 78.6096 86.7472 78.6096 85.3883C78.6096 84.0294 77.512 82.9277 76.1582 82.9277C74.8043 82.9277 73.7068 84.0294 73.7068 85.3883Z" fill="#DBE9FF"/>
<path d="M74.4055 68.5153C74.4055 69.486 75.1894 70.2729 76.1565 70.2729C77.1235 70.2729 77.9075 69.486 77.9075 68.5153C77.9075 67.5447 77.1235 66.7578 76.1565 66.7578C75.1894 66.7578 74.4055 67.5447 74.4055 68.5153Z" fill="#DBE9FF"/>
<path d="M74.4055 51.6384C74.4055 52.609 75.1894 53.3959 76.1565 53.3959C77.1235 53.3959 77.9075 52.609 77.9075 51.6384C77.9075 50.6677 77.1235 49.8809 76.1565 49.8809C75.1894 49.8809 74.4055 50.6677 74.4055 51.6384Z" fill="#DBE9FF"/>
<path d="M74.4055 34.7692C74.4055 33.7147 75.1059 33.0117 76.1565 33.0117C77.207 33.0117 77.9075 33.7147 77.9075 34.7692C77.9075 35.8238 77.207 36.5268 76.1565 36.5268C75.1059 36.5268 74.4055 35.8238 74.4055 34.7692Z" fill="#DBE9FF"/>
<path d="M75.4535 17.8944C75.4535 18.2827 75.767 18.5974 76.1538 18.5974C76.5407 18.5974 76.8542 18.2827 76.8542 17.8944C76.8542 17.5062 76.5407 17.1914 76.1538 17.1914C75.767 17.1914 75.4535 17.5062 75.4535 17.8944Z" fill="#DBE9FF"/>
<path d="M75.1042 1.02716C75.1042 1.60955 75.5745 2.08167 76.1547 2.08167C76.7349 2.08167 77.2053 1.60955 77.2053 1.02716C77.2053 0.444767 76.7349 -0.0273438 76.1547 -0.0273438C75.5745 -0.0273438 75.1042 0.444767 75.1042 1.02716Z" fill="#DBE9FF"/>
<path d="M57.9365 743.4C57.9365 744.177 58.5636 744.806 59.3372 744.806C60.1109 744.806 60.738 744.177 60.738 743.4C60.738 742.624 60.1109 741.994 59.3372 741.994C58.5636 741.994 57.9365 742.624 57.9365 743.4Z" fill="#DBE9FF"/>
<path d="M58.9829 726.528C58.9829 726.722 59.1397 726.88 59.3331 726.88C59.5266 726.88 59.6833 726.722 59.6833 726.528C59.6833 726.333 59.5266 726.176 59.3331 726.176C59.1397 726.176 58.9829 726.333 58.9829 726.528Z" fill="#DBE9FF"/>
<path d="M58.9834 709.655C58.9834 709.849 59.1402 710.007 59.3336 710.007C59.527 710.007 59.6838 709.849 59.6838 709.655C59.6838 709.46 59.527 709.303 59.3336 709.303C59.1402 709.303 58.9834 709.46 58.9834 709.655Z" fill="#DBE9FF"/>
<path d="M58.6365 692.783C58.6365 693.171 58.9501 693.486 59.3369 693.486C59.7238 693.486 60.0374 693.171 60.0374 692.783C60.0374 692.395 59.7238 692.08 59.3369 692.08C58.9501 692.08 58.6365 692.395 58.6365 692.783Z" fill="#DBE9FF"/>
<path d="M58.6365 675.912C58.6365 676.3 58.9501 676.615 59.3369 676.615C59.7238 676.615 60.0374 676.3 60.0374 675.912C60.0374 675.524 59.7238 675.209 59.3369 675.209C58.9501 675.209 58.6365 675.524 58.6365 675.912Z" fill="#DBE9FF"/>
<path d="M58.6363 659.039C58.6363 658.336 58.9865 657.984 59.6869 657.984C60.3873 657.984 60.7375 658.336 60.7375 659.039C60.7375 659.742 60.3873 660.093 59.6869 660.093C58.9865 660.093 58.6363 659.742 58.6363 659.039Z" fill="#DBE9FF"/>
<path d="M58.6365 642.168C58.6365 642.556 58.9501 642.871 59.3369 642.871C59.7238 642.871 60.0374 642.556 60.0374 642.168C60.0374 641.78 59.7238 641.465 59.3369 641.465C58.9501 641.465 58.6365 641.78 58.6365 642.168Z" fill="#DBE9FF"/>
<path d="M58.9829 625.297C58.9829 624.945 58.9829 624.945 59.3331 624.945C59.6833 624.945 59.6833 624.945 59.6833 625.297C59.6833 625.649 59.6833 625.649 59.3331 625.649C58.9829 625.649 58.9829 625.649 58.9829 625.297Z" fill="#DBE9FF"/>
<path d="M58.9829 608.42C58.9829 608.068 58.9829 608.068 59.3331 608.068C59.6833 608.068 59.6833 608.068 59.6833 608.42C59.6833 608.772 59.6833 608.772 59.3331 608.772C58.9829 608.772 58.9829 608.772 58.9829 608.42Z" fill="#DBE9FF"/>
<path d="M58.6368 591.551C58.6368 590.848 58.987 590.496 59.6874 590.496C60.3878 590.496 60.738 590.848 60.738 591.551C60.738 592.254 60.3878 592.605 59.6874 592.605C58.987 592.605 58.6368 592.254 58.6368 591.551Z" fill="#DBE9FF"/>
<path d="M58.9829 574.682C58.9829 574.876 59.1397 575.034 59.3331 575.034C59.5266 575.034 59.6833 574.876 59.6833 574.682C59.6833 574.488 59.5266 574.33 59.3331 574.33C59.1397 574.33 58.9829 574.488 58.9829 574.682Z" fill="#DBE9FF"/>
<path d="M58.9829 524.063C58.9829 524.257 59.1397 524.415 59.3331 524.415C59.5266 524.415 59.6833 524.257 59.6833 524.063C59.6833 523.868 59.5266 523.711 59.3331 523.711C59.1397 523.711 58.9829 523.868 58.9829 524.063Z" fill="#DBE9FF"/>
<path d="M58.6365 473.445C58.6365 473.833 58.9501 474.148 59.3369 474.148C59.7238 474.148 60.0374 473.833 60.0374 473.445C60.0374 473.057 59.7238 472.742 59.3369 472.742C58.9501 472.742 58.6365 473.057 58.6365 473.445Z" fill="#DBE9FF"/>
<path d="M58.2867 456.574C58.2867 457.156 58.7571 457.629 59.3373 457.629C59.9176 457.629 60.3879 457.156 60.3879 456.574C60.3879 455.992 59.9176 455.52 59.3373 455.52C58.7571 455.52 58.2867 455.992 58.2867 456.574Z" fill="#DBE9FF"/>
<path d="M58.2862 439.701C58.2862 440.283 58.7566 440.755 59.3368 440.755C59.9171 440.755 60.3875 440.283 60.3875 439.701C60.3875 439.119 59.9171 438.646 59.3368 438.646C58.7566 438.646 58.2862 439.119 58.2862 439.701Z" fill="#DBE9FF"/>
<path d="M58.2862 422.828C58.2862 423.41 58.7566 423.882 59.3368 423.882C59.9171 423.882 60.3875 423.41 60.3875 422.828C60.3875 422.246 59.9171 421.773 59.3368 421.773C58.7566 421.773 58.2862 422.246 58.2862 422.828Z" fill="#DBE9FF"/>
<path d="M57.5857 405.957C57.5857 406.927 58.3696 407.714 59.3366 407.714C60.3037 407.714 61.0876 406.927 61.0876 405.957C61.0876 404.986 60.3037 404.199 59.3366 404.199C58.3696 404.199 57.5857 404.986 57.5857 405.957Z" fill="#DBE9FF"/>
<path d="M57.2349 389.086C57.2349 390.25 58.1757 391.195 59.3361 391.195C60.4965 391.195 61.4373 390.25 61.4373 389.086C61.4373 387.921 60.4965 386.977 59.3361 386.977C58.1757 386.977 57.2349 387.921 57.2349 389.086Z" fill="#DBE9FF"/>
<path d="M56.5385 372.21C56.5385 370.453 57.9393 369.047 59.6903 369.047C61.4413 369.047 62.842 370.453 62.842 372.21C62.842 373.968 61.4413 375.374 59.6903 375.374C57.9393 375.374 56.5385 373.968 56.5385 372.21Z" fill="#DBE9FF"/>
<path d="M57.2349 355.34C57.2349 356.504 58.1757 357.449 59.3361 357.449C60.4965 357.449 61.4373 356.504 61.4373 355.34C61.4373 354.175 60.4965 353.23 59.3361 353.23C58.1757 353.23 57.2349 354.175 57.2349 355.34Z" fill="#DBE9FF"/>
<path d="M58.636 338.469C58.636 338.857 58.9496 339.172 59.3365 339.172C59.7233 339.172 60.0369 338.857 60.0369 338.469C60.0369 338.08 59.7233 337.766 59.3365 337.766C58.9496 337.766 58.636 338.08 58.636 338.469Z" fill="#DBE9FF"/>
<path d="M58.2862 321.597C58.2862 322.18 58.7566 322.652 59.3368 322.652C59.9171 322.652 60.3875 322.18 60.3875 321.597C60.3875 321.015 59.9171 320.543 59.3368 320.543C58.7566 320.543 58.2862 321.015 58.2862 321.597Z" fill="#DBE9FF"/>
<path d="M57.9355 304.724C57.9355 305.501 58.5626 306.13 59.3362 306.13C60.1099 306.13 60.7371 305.501 60.7371 304.724C60.7371 303.948 60.1099 303.318 59.3362 303.318C58.5626 303.318 57.9355 303.948 57.9355 304.724Z" fill="#DBE9FF"/>
<path d="M58.2862 287.853C58.2862 288.436 58.7566 288.908 59.3368 288.908C59.9171 288.908 60.3875 288.436 60.3875 287.853C60.3875 287.271 59.9171 286.799 59.3368 286.799C58.7566 286.799 58.2862 287.271 58.2862 287.853Z" fill="#DBE9FF"/>
<path d="M57.5857 270.98C57.5857 271.951 58.3696 272.738 59.3366 272.738C60.3037 272.738 61.0876 271.951 61.0876 270.98C61.0876 270.01 60.3037 269.223 59.3366 269.223C58.3696 269.223 57.5857 270.01 57.5857 270.98Z" fill="#DBE9FF"/>
<path d="M57.5857 254.107C57.5857 255.078 58.3696 255.865 59.3366 255.865C60.3037 255.865 61.0876 255.078 61.0876 254.107C61.0876 253.136 60.3037 252.35 59.3366 252.35C58.3696 252.35 57.5857 253.136 57.5857 254.107Z" fill="#DBE9FF"/>
<path d="M56.8851 237.236C56.8851 235.83 57.9357 234.775 59.3365 234.775C60.7373 234.775 61.7878 235.83 61.7878 237.236C61.7878 238.642 60.7373 239.696 59.3365 239.696C57.9357 239.696 56.8851 238.642 56.8851 237.236Z" fill="#DBE9FF"/>
<path d="M56.8851 220.363C56.8851 221.722 57.9826 222.823 59.3365 222.823C60.6903 222.823 61.7878 221.722 61.7878 220.363C61.7878 219.004 60.6903 217.902 59.3365 217.902C57.9826 217.902 56.8851 219.004 56.8851 220.363Z" fill="#DBE9FF"/>
<path d="M57.9355 203.492C57.9355 204.268 58.5626 204.898 59.3362 204.898C60.1099 204.898 60.7371 204.268 60.7371 203.492C60.7371 202.715 60.1099 202.086 59.3362 202.086C58.5626 202.086 57.9355 202.715 57.9355 203.492Z" fill="#DBE9FF"/>
<path d="M57.2349 186.619C57.2349 187.784 58.1757 188.728 59.3361 188.728C60.4965 188.728 61.4373 187.784 61.4373 186.619C61.4373 185.454 60.4965 184.51 59.3361 184.51C58.1757 184.51 57.2349 185.454 57.2349 186.619Z" fill="#DBE9FF"/>
<path d="M57.2349 169.746C57.2349 170.911 58.1757 171.855 59.3361 171.855C60.4965 171.855 61.4373 170.911 61.4373 169.746C61.4373 168.581 60.4965 167.637 59.3361 167.637C58.1757 167.637 57.2349 168.581 57.2349 169.746Z" fill="#DBE9FF"/>
<path d="M56.8851 152.875C56.8851 154.234 57.9826 155.335 59.3365 155.335C60.6903 155.335 61.7878 154.234 61.7878 152.875C61.7878 151.516 60.6903 150.414 59.3365 150.414C57.9826 150.414 56.8851 151.516 56.8851 152.875Z" fill="#DBE9FF"/>
<path d="M56.8851 136.002C56.8851 137.36 57.9826 138.462 59.3365 138.462C60.6903 138.462 61.7878 137.36 61.7878 136.002C61.7878 134.643 60.6903 133.541 59.3365 133.541C57.9826 133.541 56.8851 134.643 56.8851 136.002Z" fill="#DBE9FF"/>
<path d="M56.5348 119.13C56.5348 120.683 57.7891 121.942 59.3364 121.942C60.8836 121.942 62.1379 120.683 62.1379 119.13C62.1379 117.577 60.8836 116.318 59.3364 116.318C57.7891 116.318 56.5348 117.577 56.5348 119.13Z" fill="#DBE9FF"/>
<path d="M56.185 102.259C56.185 100.502 57.5858 99.0957 59.3368 99.0957C61.0877 99.0957 62.4885 100.502 62.4885 102.259C62.4885 104.017 61.0877 105.423 59.3368 105.423C57.5858 105.423 56.185 104.017 56.185 102.259Z" fill="#DBE9FF"/>
<path d="M56.8856 85.3883C56.8856 83.9823 57.9362 82.9277 59.337 82.9277C60.7378 82.9277 61.7883 83.9823 61.7883 85.3883C61.7883 86.7943 60.7378 87.8488 59.337 87.8488C57.9362 87.8488 56.8856 86.7943 56.8856 85.3883Z" fill="#DBE9FF"/>
<path d="M57.5857 68.5153C57.5857 69.486 58.3696 70.2729 59.3366 70.2729C60.3037 70.2729 61.0876 69.486 61.0876 68.5153C61.0876 67.5447 60.3037 66.7578 59.3366 66.7578C58.3696 66.7578 57.5857 67.5447 57.5857 68.5153Z" fill="#DBE9FF"/>
<path d="M57.5857 51.6442C57.5857 52.6149 58.3696 53.4017 59.3366 53.4017C60.3037 53.4017 61.0876 52.6149 61.0876 51.6442C61.0876 50.6736 60.3037 49.8867 59.3366 49.8867C58.3696 49.8867 57.5857 50.6736 57.5857 51.6442Z" fill="#DBE9FF"/>
<path d="M57.2354 34.7692C57.2354 35.9339 58.1761 36.8782 59.3366 36.8782C60.497 36.8782 61.4377 35.9339 61.4377 34.7692C61.4377 33.6044 60.497 32.6602 59.3366 32.6602C58.1761 32.6602 57.2354 33.6044 57.2354 34.7692Z" fill="#DBE9FF"/>
<path d="M57.2349 17.8981C57.2349 19.0629 58.1757 20.0071 59.3361 20.0071C60.4965 20.0071 61.4373 19.0629 61.4373 17.8981C61.4373 16.7333 60.4965 15.7891 59.3361 15.7891C58.1757 15.7891 57.2349 16.7333 57.2349 17.8981Z" fill="#DBE9FF"/>
<path d="M56.8851 1.02496C56.8851 2.38387 57.9826 3.48549 59.3365 3.48549C60.6903 3.48549 61.7878 2.38387 61.7878 1.02496C61.7878 -0.333945 60.6903 -1.43555 59.3365 -1.43555C57.9826 -1.43555 56.8851 -0.333945 56.8851 1.02496Z" fill="#DBE9FF"/>
<path d="M42.1895 726.528C42.1895 726.722 42.3463 726.88 42.5397 726.88C42.7331 726.88 42.8899 726.722 42.8899 726.528C42.8899 726.333 42.7331 726.176 42.5397 726.176C42.3463 726.176 42.1895 726.333 42.1895 726.528Z" fill="#DBE9FF"/>
<path d="M42.1895 709.655C42.1895 709.849 42.3463 710.007 42.5397 710.007C42.7331 710.007 42.8899 709.849 42.8899 709.655C42.8899 709.46 42.7331 709.303 42.5397 709.303C42.3463 709.303 42.1895 709.46 42.1895 709.655Z" fill="#DBE9FF"/>
<path d="M42.1895 692.785C42.1895 692.98 42.3463 693.137 42.5397 693.137C42.7331 693.137 42.8899 692.98 42.8899 692.785C42.8899 692.591 42.7331 692.434 42.5397 692.434C42.3463 692.434 42.1895 692.591 42.1895 692.785Z" fill="#DBE9FF"/>
<path d="M41.8402 675.91C41.8402 676.298 42.1537 676.613 42.5406 676.613C42.9274 676.613 43.241 676.298 43.241 675.91C43.241 675.522 42.9274 675.207 42.5406 675.207C42.1537 675.207 41.8402 675.522 41.8402 675.91Z" fill="#DBE9FF"/>
<path d="M42.1895 659.039C42.1895 659.234 42.3463 659.391 42.5397 659.391C42.7331 659.391 42.8899 659.234 42.8899 659.039C42.8899 658.845 42.7331 658.687 42.5397 658.687C42.3463 658.687 42.1895 658.845 42.1895 659.039Z" fill="#DBE9FF"/>
<path d="M42.1895 642.168C42.1895 642.363 42.3463 642.52 42.5397 642.52C42.7331 642.52 42.8899 642.363 42.8899 642.168C42.8899 641.974 42.7331 641.816 42.5397 641.816C42.3463 641.816 42.1895 641.974 42.1895 642.168Z" fill="#DBE9FF"/>
<path d="M42.1895 625.297C42.1895 625.491 42.3463 625.649 42.5397 625.649C42.7331 625.649 42.8899 625.491 42.8899 625.297C42.8899 625.103 42.7331 624.945 42.5397 624.945C42.3463 624.945 42.1895 625.103 42.1895 625.297Z" fill="#DBE9FF"/>
<path d="M42.1895 608.42C42.1895 608.615 42.3463 608.772 42.5397 608.772C42.7331 608.772 42.8899 608.615 42.8899 608.42C42.8899 608.226 42.7331 608.068 42.5397 608.068C42.3463 608.068 42.1895 608.226 42.1895 608.42Z" fill="#DBE9FF"/>
<path d="M42.1895 591.551C42.1895 591.745 42.3463 591.903 42.5397 591.903C42.7331 591.903 42.8899 591.745 42.8899 591.551C42.8899 591.357 42.7331 591.199 42.5397 591.199C42.3463 591.199 42.1895 591.357 42.1895 591.551Z" fill="#DBE9FF"/>
<path d="M42.1895 574.682C42.1895 574.876 42.3463 575.034 42.5397 575.034C42.7331 575.034 42.8899 574.876 42.8899 574.682C42.8899 574.488 42.7331 574.33 42.5397 574.33C42.3463 574.33 42.1895 574.488 42.1895 574.682Z" fill="#DBE9FF"/>
<path d="M41.8397 405.959C41.8397 406.347 42.1533 406.662 42.5401 406.662C42.9269 406.662 43.2405 406.347 43.2405 405.959C43.2405 405.571 42.9269 405.256 42.5401 405.256C42.1533 405.256 41.8397 405.571 41.8397 405.959Z" fill="#DBE9FF"/>
<path d="M41.8402 389.088C41.8402 389.476 42.1537 389.791 42.5406 389.791C42.9274 389.791 43.241 389.476 43.241 389.088C43.241 388.7 42.9274 388.385 42.5406 388.385C42.1537 388.385 41.8402 388.7 41.8402 389.088Z" fill="#DBE9FF"/>
<path d="M40.7644 372.213C40.7644 373.183 41.5484 373.97 42.5154 373.97C43.4824 373.97 44.2664 373.183 44.2664 372.213C44.2664 371.242 43.4824 370.455 42.5154 370.455C41.5484 370.455 40.7644 371.242 40.7644 372.213Z" fill="#DBE9FF"/>
<path d="M41.8402 355.342C41.8402 355.73 42.1537 356.045 42.5406 356.045C42.9274 356.045 43.241 355.73 43.241 355.342C43.241 354.953 42.9274 354.639 42.5406 354.639C42.1537 354.639 41.8402 354.953 41.8402 355.342Z" fill="#DBE9FF"/>
<path d="M41.8397 338.471C41.8397 338.859 42.1533 339.174 42.5401 339.174C42.9269 339.174 43.2405 338.859 43.2405 338.471C43.2405 338.082 42.9269 337.768 42.5401 337.768C42.1533 337.768 41.8397 338.082 41.8397 338.471Z" fill="#DBE9FF"/>
<path d="M41.1142 321.595C41.1142 322.372 41.7414 323.001 42.515 323.001C43.2887 323.001 43.9158 322.372 43.9158 321.595C43.9158 320.819 43.2887 320.189 42.515 320.189C41.7414 320.189 41.1142 320.819 41.1142 321.595Z" fill="#DBE9FF"/>
<path d="M41.8397 304.723C41.8397 305.111 42.1533 305.426 42.5401 305.426C42.9269 305.426 43.2405 305.111 43.2405 304.723C43.2405 304.334 42.9269 304.02 42.5401 304.02C42.1533 304.02 41.8397 304.334 41.8397 304.723Z" fill="#DBE9FF"/>
<path d="M41.8397 287.855C41.8397 288.244 42.1533 288.558 42.5401 288.558C42.9269 288.558 43.2405 288.244 43.2405 287.855C43.2405 287.467 42.9269 287.152 42.5401 287.152C42.1533 287.152 41.8397 287.467 41.8397 287.855Z" fill="#DBE9FF"/>
<path d="M41.8397 270.982C41.8397 271.371 42.1533 271.685 42.5401 271.685C42.9269 271.685 43.2405 271.371 43.2405 270.982C43.2405 270.594 42.9269 270.279 42.5401 270.279C42.1533 270.279 41.8397 270.594 41.8397 270.982Z" fill="#DBE9FF"/>
<path d="M41.1142 254.107C41.1142 254.884 41.7414 255.513 42.515 255.513C43.2887 255.513 43.9158 254.884 43.9158 254.107C43.9158 253.331 43.2887 252.701 42.515 252.701C41.7414 252.701 41.1142 253.331 41.1142 254.107Z" fill="#DBE9FF"/>
<path d="M41.4635 237.238C41.4635 237.82 41.9339 238.293 42.5141 238.293C43.0943 238.293 43.5647 237.82 43.5647 237.238C43.5647 236.656 43.0943 236.184 42.5141 236.184C41.9339 236.184 41.4635 236.656 41.4635 237.238Z" fill="#DBE9FF"/>
<path d="M40.7644 220.363C40.7644 219.308 41.4648 218.605 42.5154 218.605C43.566 218.605 44.2664 219.308 44.2664 220.363C44.2664 221.417 43.566 222.12 42.5154 222.12C41.4648 222.12 40.7644 221.417 40.7644 220.363Z" fill="#DBE9FF"/>
<path d="M40.7644 203.49C40.7644 204.461 41.5484 205.247 42.5154 205.247C43.4824 205.247 44.2664 204.461 44.2664 203.49C44.2664 202.519 43.4824 201.732 42.5154 201.732C41.5484 201.732 40.7644 202.519 40.7644 203.49Z" fill="#DBE9FF"/>
<path d="M40.7644 186.623C40.7644 187.593 41.5484 188.38 42.5154 188.38C43.4824 188.38 44.2664 187.593 44.2664 186.623C44.2664 185.652 43.4824 184.865 42.5154 184.865C41.5484 184.865 40.7644 185.652 40.7644 186.623Z" fill="#DBE9FF"/>
<path d="M40.0658 169.748C40.0658 168.342 41.1164 167.287 42.5171 167.287C43.9179 167.287 44.9685 168.342 44.9685 169.748C44.9685 171.154 43.9179 172.208 42.5171 172.208C41.1164 172.208 40.0658 171.154 40.0658 169.748Z" fill="#DBE9FF"/>
<path d="M40.4151 152.873C40.4151 154.037 41.3558 154.982 42.5163 154.982C43.6767 154.982 44.6174 154.037 44.6174 152.873C44.6174 151.708 43.6767 150.764 42.5163 150.764C41.3558 150.764 40.4151 151.708 40.4151 152.873Z" fill="#DBE9FF"/>
<path d="M40.0658 136.005C40.0658 134.599 41.1164 133.545 42.5171 133.545C43.9179 133.545 44.9685 134.599 44.9685 136.005C44.9685 137.411 43.9179 138.466 42.5171 138.466C41.1164 138.466 40.0658 137.411 40.0658 136.005Z" fill="#DBE9FF"/>
<path d="M40.4151 119.127C40.4151 118.072 41.4657 117.018 42.5163 117.018C43.5669 117.018 44.6174 118.072 44.6174 119.127C44.6174 120.181 43.5669 121.236 42.5163 121.236C41.4657 121.236 40.4151 120.533 40.4151 119.127Z" fill="#DBE9FF"/>
<path d="M39.7164 102.257C39.7164 103.81 40.9708 105.069 42.518 105.069C44.0653 105.069 45.3196 103.81 45.3196 102.257C45.3196 100.704 44.0653 99.4453 42.518 99.4453C40.9708 99.4453 39.7164 100.704 39.7164 102.257Z" fill="#DBE9FF"/>
<path d="M39.3684 85.3842C39.3684 83.6267 40.7692 81.8691 42.8703 81.8691C44.9715 81.8691 46.3723 83.2752 46.3723 85.3842C46.3723 87.1417 44.9715 88.8992 42.8703 88.8992C40.7692 88.8992 39.3684 87.1417 39.3684 85.3842Z" fill="#DBE9FF"/>
<path d="M39.3666 68.5131C39.3666 66.7556 40.7674 65.3496 42.5184 65.3496C44.2694 65.3496 45.6702 66.7556 45.6702 68.5131C45.6702 70.2707 44.2694 71.6767 42.5184 71.6767C40.7674 71.6767 39.3666 70.2707 39.3666 68.5131Z" fill="#DBE9FF"/>
<path d="M40.7644 51.6384C40.7644 50.5839 41.4648 49.8809 42.5154 49.8809C43.566 49.8809 44.2664 50.5839 44.2664 51.6384C44.2664 52.6929 43.566 53.3959 42.5154 53.3959C41.815 53.3959 40.7644 52.6929 40.7644 51.6384Z" fill="#DBE9FF"/>
<path d="M40.7644 34.7692C40.7644 35.7399 41.5484 36.5268 42.5154 36.5268C43.4824 36.5268 44.2664 35.7399 44.2664 34.7692C44.2664 33.7986 43.4824 33.0117 42.5154 33.0117C41.5484 33.0117 40.7644 33.7986 40.7644 34.7692Z" fill="#DBE9FF"/>
<path d="M41.8397 17.8944C41.8397 18.2827 42.1533 18.5974 42.5401 18.5974C42.9269 18.5974 43.2405 18.2827 43.2405 17.8944C43.2405 17.5062 42.9269 17.1914 42.5401 17.1914C42.1533 17.1914 41.8397 17.5062 41.8397 17.8944Z" fill="#DBE9FF"/>
<path d="M40.7644 1.02704C40.7644 1.99769 41.5484 2.78456 42.5154 2.78456C43.4824 2.78456 44.2664 1.99769 44.2664 1.02704C44.2664 0.0563877 43.4824 -0.730469 42.5154 -0.730469C41.5484 -0.730469 40.7644 0.0563875 40.7644 1.02704Z" fill="#DBE9FF"/>
<path d="M25.3682 726.53C25.3682 726.724 25.525 726.882 25.7184 726.882C25.9118 726.882 26.0686 726.724 26.0686 726.53C26.0686 726.335 25.9118 726.178 25.7184 726.178C25.525 726.178 25.3682 726.335 25.3682 726.53Z" fill="#DBE9FF"/>
<path d="M25.0175 591.549C25.0175 591.937 25.3311 592.252 25.7179 592.252C26.1047 592.252 26.4182 591.937 26.4182 591.549C26.4182 591.16 26.1047 590.846 25.7179 590.846C25.3311 590.846 25.0175 591.16 25.0175 591.549Z" fill="#DBE9FF"/>
<path d="M25.3682 574.678C25.3682 574.872 25.525 575.03 25.7184 575.03C25.9118 575.03 26.0686 574.872 26.0686 574.678C26.0686 574.484 25.9118 574.326 25.7184 574.326C25.525 574.326 25.3682 574.484 25.3682 574.678Z" fill="#DBE9FF"/>
<path d="M25.0175 372.215C25.0175 372.603 25.3311 372.918 25.7179 372.918C26.1047 372.918 26.4182 372.603 26.4182 372.215C26.4182 371.826 26.1047 371.512 25.7179 371.512C25.3311 371.512 25.0175 371.826 25.0175 372.215Z" fill="#DBE9FF"/>
<path d="M25.3677 355.34C25.3677 355.535 25.5245 355.692 25.7179 355.692C25.9113 355.692 26.0681 355.535 26.0681 355.34C26.0681 355.146 25.9113 354.988 25.7179 354.988C25.5245 354.988 25.3677 355.146 25.3677 355.34Z" fill="#DBE9FF"/>
<path d="M25.017 338.469C25.017 338.857 25.3306 339.172 25.7174 339.172C26.1042 339.172 26.4177 338.857 26.4177 338.469C26.4177 338.08 26.1042 337.766 25.7174 337.766C25.3306 337.766 25.017 338.08 25.017 338.469Z" fill="#DBE9FF"/>
<path d="M23.9714 321.597C23.9714 322.568 24.7554 323.355 25.7224 323.355C26.6895 323.355 27.4734 322.568 27.4734 321.597C27.4734 320.627 26.6895 319.84 25.7224 319.84C24.7554 319.84 23.9714 320.627 23.9714 321.597Z" fill="#DBE9FF"/>
<path d="M25.3677 304.727C25.3677 304.921 25.5245 305.079 25.7179 305.079C25.9113 305.079 26.0681 304.921 26.0681 304.727C26.0681 304.533 25.9113 304.375 25.7179 304.375C25.5245 304.375 25.3677 304.533 25.3677 304.727Z" fill="#DBE9FF"/>
<path d="M25.3677 270.981C25.3677 271.175 25.5245 271.333 25.7179 271.333C25.9113 271.333 26.0681 271.175 26.0681 270.981C26.0681 270.786 25.9113 270.629 25.7179 270.629C25.5245 270.629 25.3677 270.786 25.3677 270.981Z" fill="#DBE9FF"/>
<path d="M25.3677 254.11C25.3677 254.304 25.5245 254.462 25.7179 254.462C25.9113 254.462 26.0681 254.304 26.0681 254.11C26.0681 253.915 25.9113 253.758 25.7179 253.758C25.5245 253.758 25.3677 253.915 25.3677 254.11Z" fill="#DBE9FF"/>
<path d="M24.6672 237.234C24.6672 237.817 25.1375 238.289 25.7178 238.289C26.298 238.289 26.7683 237.817 26.7683 237.234C26.7683 236.652 26.298 236.18 25.7178 236.18C25.1375 236.18 24.6672 236.652 24.6672 237.234Z" fill="#DBE9FF"/>
<path d="M25.3677 220.364C25.3677 220.558 25.5245 220.715 25.7179 220.715C25.9113 220.715 26.0681 220.558 26.0681 220.364C26.0681 220.169 25.9113 220.012 25.7179 220.012C25.5245 220.012 25.3677 220.169 25.3677 220.364Z" fill="#DBE9FF"/>
<path d="M24.6672 203.492C24.6672 204.074 25.1375 204.546 25.7178 204.546C26.298 204.546 26.7683 204.074 26.7683 203.492C26.7683 202.91 26.298 202.437 25.7178 202.437C25.1375 202.437 24.6672 202.91 24.6672 203.492Z" fill="#DBE9FF"/>
<path d="M23.9714 186.623C23.9714 187.593 24.7554 188.38 25.7224 188.38C26.6895 188.38 27.4734 187.593 27.4734 186.623C27.4734 185.652 26.6895 184.865 25.7224 184.865C24.7554 184.865 23.9714 185.652 23.9714 186.623Z" fill="#DBE9FF"/>
<path d="M24.3207 169.75C24.3207 170.526 24.9479 171.156 25.7216 171.156C26.4952 171.156 27.1223 170.526 27.1223 169.75C27.1223 168.973 26.4952 168.344 25.7216 168.344C24.9479 168.344 24.3207 168.973 24.3207 169.75Z" fill="#DBE9FF"/>
<path d="M24.3207 152.875C24.3207 153.651 24.9479 154.281 25.7216 154.281C26.4952 154.281 27.1223 153.651 27.1223 152.875C27.1223 152.098 26.4952 151.469 25.7216 151.469C24.9479 151.469 24.3207 152.098 24.3207 152.875Z" fill="#DBE9FF"/>
<path d="M24.6672 136.002C24.6672 136.584 25.1375 137.056 25.7178 137.056C26.298 137.056 26.7683 136.584 26.7683 136.002C26.7683 135.419 26.298 134.947 25.7178 134.947C25.1375 134.947 24.6672 135.419 24.6672 136.002Z" fill="#DBE9FF"/>
<path d="M23.6221 119.127C23.6221 118.072 24.6727 117.018 25.7233 117.018C26.7739 117.018 27.8245 118.072 27.8245 119.127C27.8245 120.181 26.7739 121.236 25.7233 121.236C24.6727 121.236 23.6221 120.533 23.6221 119.127Z" fill="#DBE9FF"/>
<path d="M24.6672 102.26C24.6672 102.842 25.1375 103.314 25.7178 103.314C26.298 103.314 26.7683 102.842 26.7683 102.26C26.7683 101.677 26.298 101.205 25.7178 101.205C25.1375 101.205 24.6672 101.677 24.6672 102.26Z" fill="#DBE9FF"/>
<path d="M24.3207 85.3845C24.3207 86.161 24.9479 86.7905 25.7216 86.7905C26.4952 86.7905 27.1223 86.161 27.1223 85.3845C27.1223 84.608 26.4952 83.9785 25.7216 83.9785C24.9479 83.9785 24.3207 84.608 24.3207 85.3845Z" fill="#DBE9FF"/>
<path d="M23.9714 68.5153C23.9714 67.4608 24.6718 66.7578 25.7224 66.7578C26.773 66.7578 27.4734 67.4608 27.4734 68.5153C27.4734 69.5698 26.773 70.2729 25.7224 70.2729C25.022 70.2729 23.9714 69.5698 23.9714 68.5153Z" fill="#DBE9FF"/>
<path d="M23.9727 51.6403C23.9727 50.5858 25.0233 49.5312 26.0739 49.5312C27.1245 49.5312 28.175 50.5858 28.175 51.6403C28.175 52.6948 27.1245 53.7493 26.0739 53.7493C24.6731 53.7493 23.9727 52.6948 23.9727 51.6403Z" fill="#DBE9FF"/>
<path d="M23.9709 34.7692C23.9709 35.7399 24.7549 36.5268 25.7219 36.5268C26.689 36.5268 27.4729 35.7399 27.4729 34.7692C27.4729 33.7986 26.689 33.0117 25.7219 33.0117C24.7549 33.0117 23.9709 33.7986 23.9709 34.7692Z" fill="#DBE9FF"/>
<path d="M24.6675 17.8963C24.6675 18.4787 25.1379 18.9508 25.7181 18.9508C26.2984 18.9508 26.7687 18.4787 26.7687 17.8963C26.7687 17.3139 26.2984 16.8418 25.7181 16.8418C25.1379 16.8418 24.6675 17.3139 24.6675 17.8963Z" fill="#DBE9FF"/>
<path d="M23.9714 1.02704C23.9714 1.99769 24.7554 2.78456 25.7224 2.78456C26.6895 2.78456 27.4734 1.99769 27.4734 1.02704C27.4734 0.0563877 26.6895 -0.730469 25.7224 -0.730469C24.7554 -0.730469 23.9714 0.0563875 23.9714 1.02704Z" fill="#DBE9FF"/>
<path d="M8.54893 659.039C8.54893 659.234 8.70566 659.391 8.89906 659.391C9.09247 659.391 9.24927 659.234 9.24927 659.039C9.24927 658.845 9.09247 658.687 8.89906 658.687C8.70566 658.687 8.54893 658.845 8.54893 659.039Z" fill="#DBE9FF"/>
<path d="M8.54844 304.723C8.54844 304.917 8.70517 305.075 8.89858 305.075C9.09198 305.075 9.24878 304.917 9.24878 304.723C9.24878 304.529 9.09198 304.371 8.89858 304.371C8.70517 304.371 8.54844 304.529 8.54844 304.723Z" fill="#DBE9FF"/>
<path d="M8.54844 287.854C8.54844 288.048 8.70517 288.206 8.89858 288.206C9.09198 288.206 9.24878 288.048 9.24878 287.854C9.24878 287.659 9.09198 287.502 8.89858 287.502C8.70517 287.502 8.54844 287.659 8.54844 287.854Z" fill="#DBE9FF"/>
<path d="M7.85014 270.978C7.85014 270.275 8.20029 269.924 8.90068 269.924C9.60107 269.924 9.95129 270.275 9.95129 270.978C9.95129 271.681 9.60107 272.033 8.90068 272.033C8.20029 272.033 7.85014 271.681 7.85014 270.978Z" fill="#DBE9FF"/>
<path d="M8.54844 237.235C8.54844 237.429 8.70517 237.587 8.89858 237.587C9.09198 237.587 9.24878 237.429 9.24878 237.235C9.24878 237.04 9.09198 236.883 8.89858 236.883C8.70517 236.883 8.54844 237.04 8.54844 237.235Z" fill="#DBE9FF"/>
<path d="M8.54844 220.366C8.54844 220.56 8.70517 220.717 8.89858 220.717C9.09198 220.717 9.24878 220.56 9.24878 220.366C9.24878 220.171 9.09198 220.014 8.89858 220.014C8.70517 220.014 8.54844 220.171 8.54844 220.366Z" fill="#DBE9FF"/>
<path d="M7.84977 203.492C7.84977 204.074 8.32009 204.546 8.90032 204.546C9.48054 204.546 9.95093 204.074 9.95093 203.492C9.95093 202.91 9.48054 202.437 8.90032 202.437C8.32009 202.437 7.84977 202.91 7.84977 203.492Z" fill="#DBE9FF"/>
<path d="M8.54844 186.617C8.54844 186.266 8.54838 186.266 8.89858 186.266C9.24877 186.266 9.24878 186.266 9.24878 186.617C9.24878 186.969 9.24877 186.969 8.89858 186.969C8.89858 186.969 8.54844 186.969 8.54844 186.617Z" fill="#DBE9FF"/>
<path d="M8.1991 169.75C8.1991 170.138 8.51263 170.453 8.89945 170.453C9.28626 170.453 9.59985 170.138 9.59985 169.75C9.59985 169.362 9.28626 169.047 8.89945 169.047C8.51263 169.047 8.1991 169.362 8.1991 169.75Z" fill="#DBE9FF"/>
<path d="M8.54868 152.877C8.54868 153.072 8.70541 153.229 8.89882 153.229C9.09223 153.229 9.24902 153.072 9.24902 152.877C9.24902 152.683 9.09223 152.525 8.89882 152.525C8.70541 152.525 8.54868 152.683 8.54868 152.877Z" fill="#DBE9FF"/>
<path d="M8.54844 136.002C8.54844 136.197 8.70517 136.354 8.89858 136.354C9.09198 136.354 9.24878 136.197 9.24878 136.002C9.24878 135.808 9.09198 135.65 8.89858 135.65C8.70517 135.65 8.54844 135.808 8.54844 136.002Z" fill="#DBE9FF"/>
<path d="M8.19959 119.133C8.19959 119.521 8.51312 119.836 8.89993 119.836C9.28675 119.836 9.60034 119.521 9.60034 119.133C9.60034 118.744 9.28675 118.43 8.89993 118.43C8.51312 118.43 8.19959 118.744 8.19959 119.133Z" fill="#DBE9FF"/>
<path d="M7.15061 102.258C7.15061 103.228 7.93453 104.015 8.90157 104.015C9.86861 104.015 10.6526 103.228 10.6526 102.258C10.6526 101.287 9.86861 100.5 8.90157 100.5C7.93453 100.5 7.15061 101.287 7.15061 102.258Z" fill="#DBE9FF"/>
<path d="M8.54844 85.391C8.54844 85.5853 8.70517 85.7428 8.89858 85.7428C9.09198 85.7428 9.24878 85.5853 9.24878 85.391C9.24878 85.1966 9.09198 85.0391 8.89858 85.0391C8.70517 85.0391 8.54844 85.1966 8.54844 85.391Z" fill="#DBE9FF"/>
<path d="M7.49995 68.5173C7.49995 69.2939 8.12707 69.9234 8.9007 69.9234C9.67433 69.9234 10.3015 69.2939 10.3015 68.5173C10.3015 67.7408 9.67433 67.1113 8.9007 67.1113C8.12707 67.1113 7.49995 67.7408 7.49995 68.5173Z" fill="#DBE9FF"/>
<path d="M8.1991 51.6425C8.1991 52.0307 8.51263 52.3455 8.89945 52.3455C9.28626 52.3455 9.59985 52.0307 9.59985 51.6425C9.59985 51.2542 9.28626 50.9395 8.89945 50.9395C8.51263 50.9395 8.1991 51.2542 8.1991 51.6425Z" fill="#DBE9FF"/>
<path d="M8.1991 34.7733C8.1991 35.1616 8.51263 35.4763 8.89945 35.4763C9.28626 35.4763 9.59985 35.1616 9.59985 34.7733C9.59985 34.385 9.28626 34.0703 8.89945 34.0703C8.51263 34.0703 8.1991 34.385 8.1991 34.7733Z" fill="#DBE9FF"/>
<path d="M8.54844 17.8949C8.54844 18.0892 8.70517 18.2468 8.89858 18.2468C9.09198 18.2468 9.24878 18.0892 9.24878 17.8949C9.24878 17.7005 9.09198 17.543 8.89858 17.543C8.70517 17.543 8.54844 17.7005 8.54844 17.8949Z" fill="#DBE9FF"/>
<path d="M8.54844 1.02571C8.54844 1.22006 8.70517 1.37761 8.89858 1.37761C9.09198 1.37761 9.24878 1.22006 9.24878 1.02571C9.24878 0.831368 9.09198 0.673828 8.89858 0.673828C8.70517 0.673828 8.54844 0.831368 8.54844 1.02571Z" fill="#DBE9FF"/>
</g>
</svg>
