<svg width="768" height="742" viewBox="0 0 768 742" fill="none" xmlns="http://www.w3.org/2000/svg">
<path d="M10.6691 11.701C10.6691 11.03 10.1271 10.486 9.4586 10.486C8.79007 10.486 8.24817 11.03 8.24817 11.701C8.24817 12.372 8.79007 12.916 9.4586 12.916C10.1271 12.916 10.6691 12.372 10.6691 11.701Z" fill="#DBE9FF"/>
<path d="M11.8746 31.1396C11.8746 32.7596 10.6641 33.9746 9.05015 33.9746C7.43618 33.9746 6.22571 32.7596 6.22571 31.1396C6.22571 29.5196 7.43618 28.3046 9.05015 28.3046C10.6641 28.3046 11.8746 29.5196 11.8746 31.1396Z" fill="#DBE9FF"/>
<path d="M12.6815 50.5784C12.6815 48.789 11.2363 47.3384 9.45353 47.3384C7.67079 47.3384 6.22559 48.789 6.22559 50.5784C6.22559 52.3678 7.67079 53.8184 9.45353 53.8184C11.2363 53.8184 12.6815 52.3678 12.6815 50.5784Z" fill="#DBE9FF"/>
<path d="M10.2694 70.0162C10.2694 69.5688 9.90809 69.2061 9.4624 69.2061C9.01671 69.2061 8.6554 69.5688 8.6554 70.0162C8.6554 70.4635 9.01671 70.8262 9.4624 70.8262C9.90809 70.8262 10.2694 70.4635 10.2694 70.0162Z" fill="#DBE9FF"/>
<path d="M10.2694 89.4576C10.2694 89.0102 9.90809 88.6475 9.4624 88.6475C9.01671 88.6475 8.6554 89.0102 8.6554 89.4576C8.6554 89.9049 9.01671 90.2676 9.4624 90.2676C9.90809 90.2676 10.2694 89.9049 10.2694 89.4576Z" fill="#DBE9FF"/>
<path d="M10.2694 108.899C10.2694 108.452 9.90809 108.089 9.4624 108.089C9.01671 108.089 8.6554 108.452 8.6554 108.899C8.6554 109.346 9.01671 109.709 9.4624 109.709C9.90809 109.709 10.2694 109.346 10.2694 108.899Z" fill="#DBE9FF"/>
<path d="M10.2694 128.337C10.2694 127.889 9.90809 127.527 9.4624 127.527C9.01671 127.527 8.6554 127.889 8.6554 128.337C8.6554 128.784 9.01671 129.146 9.4624 129.146C9.90809 129.146 10.2694 128.784 10.2694 128.337Z" fill="#DBE9FF"/>
<path d="M9.86633 147.78C9.86633 147.556 9.68567 147.375 9.46283 147.375C9.23999 147.375 9.05933 147.556 9.05933 147.78C9.05933 148.004 9.23999 148.186 9.46283 148.186C9.68567 148.186 9.86633 148.004 9.86633 147.78Z" fill="#DBE9FF"/>
<path d="M10.2694 186.661C10.2694 186.213 9.90809 185.851 9.4624 185.851C9.01671 185.851 8.6554 186.213 8.6554 186.661C8.6554 187.108 9.01671 187.471 9.4624 187.471C9.90809 187.471 10.2694 187.108 10.2694 186.661Z" fill="#DBE9FF"/>
<path d="M11.0718 206.099C11.0718 205.204 10.3492 204.479 9.45781 204.479C8.56643 204.479 7.84387 205.204 7.84387 206.099C7.84387 206.993 8.56643 207.719 9.45781 207.719C10.3492 207.719 11.0718 206.993 11.0718 206.099Z" fill="#DBE9FF"/>
<path d="M10.6691 225.537C10.6691 224.866 10.1271 224.322 9.4586 224.322C8.79007 224.322 8.24817 224.866 8.24817 225.537C8.24817 226.208 8.79007 226.752 9.4586 226.752C10.1271 226.752 10.6691 226.208 10.6691 225.537Z" fill="#DBE9FF"/>
<path d="M11.0718 244.978C11.0718 244.083 10.3492 243.358 9.45781 243.358C8.56643 243.358 7.84387 244.083 7.84387 244.978C7.84387 245.872 8.56643 246.598 9.45781 246.598C10.3492 246.598 11.0718 245.872 11.0718 244.978Z" fill="#DBE9FF"/>
<path d="M11.0718 264.423C11.0718 263.528 10.3492 262.803 9.45781 262.803C8.56643 262.803 7.84387 263.528 7.84387 264.423C7.84387 265.318 8.56643 266.043 9.45781 266.043C10.3492 266.043 11.0718 265.318 11.0718 264.423Z" fill="#DBE9FF"/>
<path d="M10.6691 283.861C10.6691 283.19 10.1271 282.646 9.4586 282.646C8.79007 282.646 8.24817 283.19 8.24817 283.861C8.24817 284.532 8.79007 285.076 9.4586 285.076C10.1271 285.076 10.6691 284.532 10.6691 283.861Z" fill="#DBE9FF"/>
<path d="M11.474 303.295C11.474 302.177 10.5707 301.27 9.45653 301.27C8.34231 301.27 7.43909 302.177 7.43909 303.295C7.43909 304.414 8.34231 305.32 9.45653 305.32C10.5707 305.32 11.474 304.414 11.474 303.295Z" fill="#DBE9FF"/>
<path d="M11.474 322.741C11.474 323.956 10.667 324.766 9.45653 324.766C8.24604 324.766 7.43909 323.956 7.43909 322.741C7.43909 321.526 8.24604 320.716 9.45653 320.716C10.667 320.716 11.474 321.526 11.474 322.741Z" fill="#DBE9FF"/>
<path d="M13.8897 342.182C13.8897 339.721 11.9026 337.727 9.45127 337.727C7 337.727 5.01282 339.721 5.01282 342.182C5.01282 344.642 7 346.637 9.45128 346.637C11.9026 346.637 13.8897 344.642 13.8897 342.182Z" fill="#DBE9FF"/>
<path d="M13.8897 361.617C13.8897 359.157 11.9026 357.162 9.45127 357.162C7 357.162 5.01282 359.157 5.01282 361.617C5.01282 364.078 7 366.072 9.45128 366.072C11.9026 366.072 13.8897 364.078 13.8897 361.617Z" fill="#DBE9FF"/>
<path d="M13.487 381.057C13.487 383.487 11.4695 385.107 9.45207 385.107C7.03111 385.107 5.41711 383.082 5.41711 381.057C5.41711 378.627 7.4346 377.007 9.45207 377.007C11.4695 377.007 13.487 378.627 13.487 381.057Z" fill="#DBE9FF"/>
<path d="M14.2898 400.501C14.2898 403.336 11.8688 405.766 9.04434 405.766C6.21988 405.766 3.79895 403.336 3.79895 400.501C3.79895 397.666 6.21988 395.236 9.04434 395.236C12.2723 395.236 14.2898 397.666 14.2898 400.501Z" fill="#DBE9FF"/>
<path d="M14.2919 419.939C14.2919 417.255 12.124 415.079 9.44992 415.079C6.77579 415.079 4.60803 417.255 4.60803 419.939C4.60803 422.623 6.77579 424.799 9.44992 424.799C12.124 424.799 14.2919 422.623 14.2919 419.939Z" fill="#DBE9FF"/>
<path d="M13.8896 439.379C13.8896 436.919 11.9024 434.924 9.45115 434.924C6.99987 434.924 5.0127 436.919 5.0127 439.379C5.0127 441.839 6.99987 443.834 9.45115 443.834C11.9024 443.834 13.8896 441.839 13.8896 439.379Z" fill="#DBE9FF"/>
<path d="M15.0966 458.82C15.0966 455.689 12.5675 453.15 9.44772 453.15C6.32791 453.15 3.79883 455.689 3.79883 458.82C3.79883 461.952 6.32791 464.49 9.44772 464.49C12.5675 464.49 15.0966 461.952 15.0966 458.82Z" fill="#DBE9FF"/>
<path d="M14.2918 478.259C14.2918 481.094 12.2743 483.119 9.44979 483.119C6.62534 483.119 4.60791 481.094 4.60791 478.259C4.60791 475.424 6.62534 473.399 9.44979 473.399C12.2743 473.399 14.2918 475.424 14.2918 478.259Z" fill="#DBE9FF"/>
<path d="M14.7241 497.695C14.7241 500.935 12.3031 503.365 9.07516 503.365C6.2507 503.365 3.42627 500.935 3.42627 497.695C3.42627 494.86 5.84721 492.025 9.07516 492.025C12.3031 492.025 14.7241 494.455 14.7241 497.695Z" fill="#DBE9FF"/>
<path d="M14.6945 517.141C14.6945 519.976 12.2735 522.406 9.449 522.406C6.62454 522.406 4.20361 519.976 4.20361 517.141C4.20361 514.306 6.62454 511.876 9.449 511.876C12.2735 511.876 14.6945 514.306 14.6945 517.141Z" fill="#DBE9FF"/>
<path d="M14.6945 536.579C14.6945 533.671 12.346 531.314 9.449 531.314C6.55203 531.314 4.20361 533.671 4.20361 536.579C4.20361 539.487 6.55203 541.844 9.449 541.844C12.346 541.844 14.6945 539.487 14.6945 536.579Z" fill="#DBE9FF"/>
<path d="M12.6815 556.022C12.6815 554.232 11.2363 552.782 9.45353 552.782C7.67079 552.782 6.22559 554.232 6.22559 556.022C6.22559 557.811 7.67079 559.262 9.45353 559.262C11.2363 559.262 12.6815 557.811 12.6815 556.022Z" fill="#DBE9FF"/>
<path d="M13.4864 575.46C13.4864 577.89 11.4689 579.51 9.45146 579.51C7.03049 579.51 5.4165 577.485 5.4165 575.46C5.4165 573.03 7.43399 571.41 9.45146 571.41C11.4689 571.005 13.4864 573.03 13.4864 575.46Z" fill="#DBE9FF"/>
<path d="M14.6945 594.903C14.6945 591.995 12.346 589.638 9.449 589.638C6.55203 589.638 4.20361 591.995 4.20361 594.903C4.20361 597.811 6.55203 600.168 9.449 600.168C12.346 600.168 14.6945 597.811 14.6945 594.903Z" fill="#DBE9FF"/>
<path d="M13.0837 614.343C13.0837 612.33 11.4578 610.698 9.45225 610.698C7.44666 610.698 5.8208 612.33 5.8208 614.343C5.8208 616.356 7.44666 617.988 9.45225 617.988C11.4578 617.988 13.0837 616.356 13.0837 614.343Z" fill="#DBE9FF"/>
<path d="M13.0826 633.78C13.0826 635.805 11.4686 637.83 9.04765 637.83C7.03018 637.83 5.0127 636.21 5.0127 633.78C5.0127 631.755 6.62669 629.73 9.04765 629.73C11.4686 629.73 13.0826 631.755 13.0826 633.78Z" fill="#DBE9FF"/>
<path d="M14.292 653.216C14.292 656.051 11.871 658.076 9.45004 658.076C6.62558 658.076 4.60815 655.646 4.60815 653.216C4.60815 650.381 7.02907 648.356 9.45004 648.356C12.2745 647.951 14.292 650.381 14.292 653.216Z" fill="#DBE9FF"/>
<path d="M13.8896 672.662C13.8896 675.092 11.8721 677.117 9.45115 677.117C7.03019 677.117 5.0127 675.092 5.0127 672.662C5.0127 670.232 7.03019 668.207 9.45115 668.207C11.8721 668.207 13.8896 670.232 13.8896 672.662Z" fill="#DBE9FF"/>
<path d="M14.6945 692.098C14.6945 689.191 12.346 686.833 9.449 686.833C6.55203 686.833 4.20361 689.191 4.20361 692.098C4.20361 695.006 6.55203 697.363 9.449 697.363C12.346 697.363 14.6945 695.006 14.6945 692.098Z" fill="#DBE9FF"/>
<path d="M13.4864 711.54C13.4864 713.97 11.4689 715.59 9.45146 715.59C7.03049 715.59 5.4165 713.565 5.4165 711.54C5.4165 709.11 7.43399 707.49 9.45146 707.49C11.4689 707.085 13.4864 709.11 13.4864 711.54Z" fill="#DBE9FF"/>
<path d="M12.2793 730.978C12.2793 732.598 11.0688 733.812 9.45482 733.812C7.84084 733.812 6.63037 732.598 6.63037 730.978C6.63037 729.358 7.84084 728.143 9.45482 728.143C11.0688 728.143 12.2793 729.358 12.2793 730.978Z" fill="#DBE9FF"/>
<path d="M30.4517 11.6983C30.4517 10.8036 29.7291 10.0784 28.8377 10.0784C27.9463 10.0784 27.2238 10.8036 27.2238 11.6983C27.2238 12.593 27.9463 13.3184 28.8377 13.3184C29.7291 13.3184 30.4517 12.593 30.4517 11.6983Z" fill="#DBE9FF"/>
<path d="M30.4517 31.1358C30.4517 30.2411 29.7291 29.5159 28.8377 29.5159C27.9463 29.5159 27.2238 30.2411 27.2238 31.1358C27.2238 32.0305 27.9463 32.7559 28.8377 32.7559C29.7291 32.7559 30.4517 32.0305 30.4517 31.1358Z" fill="#DBE9FF"/>
<path d="M30.4517 50.5793C30.4517 49.6846 29.7291 48.9592 28.8377 48.9592C27.9463 48.9592 27.2238 49.6846 27.2238 50.5793C27.2238 51.474 27.9463 52.1992 28.8377 52.1992C29.7291 52.1992 30.4517 51.474 30.4517 50.5793Z" fill="#DBE9FF"/>
<path d="M29.6463 70.0201C29.6463 69.5727 29.285 69.21 28.8393 69.21C28.3936 69.21 28.0323 69.5727 28.0323 70.0201C28.0323 70.4674 28.3936 70.8301 28.8393 70.8301C29.285 70.8301 29.6463 70.4674 29.6463 70.0201Z" fill="#DBE9FF"/>
<path d="M29.6463 89.4576C29.6463 89.0102 29.285 88.6475 28.8393 88.6475C28.3936 88.6475 28.0323 89.0102 28.0323 89.4576C28.0323 89.9049 28.3936 90.2676 28.8393 90.2676C29.285 90.2676 29.6463 89.9049 29.6463 89.4576Z" fill="#DBE9FF"/>
<path d="M29.2441 108.897C29.2441 108.673 29.0634 108.492 28.8406 108.492C28.6177 108.492 28.4371 108.673 28.4371 108.897C28.4371 109.121 28.6177 109.303 28.8406 109.303C29.0634 109.303 29.2441 109.121 29.2441 108.897Z" fill="#DBE9FF"/>
<path d="M29.6463 128.344C29.6463 127.897 29.285 127.534 28.8393 127.534C28.3936 127.534 28.0323 127.897 28.0323 128.344C28.0323 128.792 28.3936 129.154 28.8393 129.154C29.285 129.154 29.6463 128.792 29.6463 128.344Z" fill="#DBE9FF"/>
<path d="M30.8544 147.778C30.8544 146.659 29.9511 145.753 28.8369 145.753C27.7227 145.753 26.8195 146.659 26.8195 147.778C26.8195 148.896 27.7227 149.803 28.8369 149.803C29.9511 149.803 30.8544 148.896 30.8544 147.778Z" fill="#DBE9FF"/>
<path d="M29.6463 206.104C29.6463 205.657 29.285 205.294 28.8393 205.294C28.3936 205.294 28.0323 205.657 28.0323 206.104C28.0323 206.551 28.3936 206.914 28.8393 206.914C29.285 206.914 29.6463 206.551 29.6463 206.104Z" fill="#DBE9FF"/>
<path d="M29.2437 225.542C29.2437 225.318 29.063 225.136 28.8402 225.136C28.6174 225.136 28.4368 225.318 28.4368 225.542C28.4368 225.766 28.6174 225.947 28.8402 225.947C29.063 225.947 29.2437 225.766 29.2437 225.542Z" fill="#DBE9FF"/>
<path d="M29.6463 244.977C29.6463 244.53 29.285 244.167 28.8393 244.167C28.3936 244.167 28.0323 244.53 28.0323 244.977C28.0323 245.424 28.3936 245.787 28.8393 245.787C29.285 245.787 29.6463 245.424 29.6463 244.977Z" fill="#DBE9FF"/>
<path d="M30.049 264.422C30.049 263.751 29.507 263.207 28.8385 263.207C28.17 263.207 27.6281 263.751 27.6281 264.422C27.6281 265.093 28.17 265.637 28.8385 265.637C29.507 265.637 30.049 265.093 30.049 264.422Z" fill="#DBE9FF"/>
<path d="M30.4518 283.857C30.4518 282.962 29.7292 282.237 28.8378 282.237C27.9464 282.237 27.2239 282.962 27.2239 283.857C27.2239 284.751 27.9464 285.477 28.8378 285.477C29.7292 285.477 30.4518 284.751 30.4518 283.857Z" fill="#DBE9FF"/>
<path d="M32.4622 303.3C32.4622 305.325 30.8483 306.945 28.8308 306.945C26.8133 306.945 25.1993 305.325 25.1993 303.3C25.1993 301.275 26.8133 299.655 28.8308 299.655C30.8483 299.655 32.4622 301.275 32.4622 303.3Z" fill="#DBE9FF"/>
<path d="M32.0583 322.737C32.0583 320.947 30.6131 319.497 28.8304 319.497C27.0476 319.497 25.6024 320.947 25.6024 322.737C25.6024 324.526 27.0476 325.977 28.8304 325.977C30.6131 325.977 32.0583 324.526 32.0583 322.737Z" fill="#DBE9FF"/>
<path d="M30.8544 342.178C30.8544 343.393 30.0474 344.203 28.8369 344.203C27.6264 344.203 26.8195 343.393 26.8195 342.178C26.8195 340.963 27.6264 340.153 28.8369 340.153C29.6439 340.153 30.8544 340.963 30.8544 342.178Z" fill="#DBE9FF"/>
<path d="M32.8654 361.622C32.8654 364.052 31.2514 365.672 28.8304 365.672C26.4094 365.672 24.7955 364.052 24.7955 361.622C24.7955 359.192 26.4094 357.572 28.8304 357.572C30.8479 357.572 32.8654 359.192 32.8654 361.622Z" fill="#DBE9FF"/>
<path d="M30.8544 381.065C30.8544 379.946 29.9511 379.04 28.8369 379.04C27.7227 379.04 26.8195 379.946 26.8195 381.065C26.8195 382.183 27.7227 383.09 28.8369 383.09C29.9511 383.09 30.8544 382.183 30.8544 381.065Z" fill="#DBE9FF"/>
<path d="M31.6593 400.499C31.6593 402.119 30.4488 403.334 28.8348 403.334C27.2208 403.334 26.0104 402.119 26.0104 400.499C26.0104 398.879 27.2208 397.664 28.8348 397.664C30.4488 397.664 31.6593 398.879 31.6593 400.499Z" fill="#DBE9FF"/>
<path d="M31.6593 419.935C31.6593 418.369 30.3947 417.1 28.8348 417.1C27.2749 417.1 26.0104 418.369 26.0104 419.935C26.0104 421.5 27.2749 422.77 28.8348 422.77C30.3947 422.77 31.6593 421.5 31.6593 419.935Z" fill="#DBE9FF"/>
<path d="M32.0584 439.381C32.0584 437.592 30.6132 436.141 28.8305 436.141C27.0477 436.141 25.6025 437.592 25.6025 439.381C25.6025 441.171 27.0477 442.621 28.8305 442.621C30.6132 442.621 32.0584 441.17 32.0584 439.381Z" fill="#DBE9FF"/>
<path d="M31.6592 458.817C31.6592 457.252 30.3946 455.982 28.8347 455.982C27.2748 455.982 26.0103 457.252 26.0103 458.817C26.0103 460.383 27.2748 461.652 28.8347 461.652C30.3946 461.652 31.6592 460.383 31.6592 458.817Z" fill="#DBE9FF"/>
<path d="M32.4621 478.261C32.4621 480.286 30.8481 481.906 28.8307 481.906C26.8132 481.906 25.1992 480.286 25.1992 478.261C25.1992 476.236 26.8132 474.616 28.8307 474.616C30.8481 474.616 32.4621 476.236 32.4621 478.261Z" fill="#DBE9FF"/>
<path d="M33.6726 497.699C33.6726 500.534 31.6551 502.559 28.8307 502.559C26.0062 502.559 23.9888 500.534 23.9888 497.699C23.9888 494.864 26.0062 492.839 28.8307 492.839C31.2516 492.839 33.6726 494.864 33.6726 497.699Z" fill="#DBE9FF"/>
<path d="M34.48 517.139C34.48 520.379 32.059 522.809 28.831 522.809C25.6031 522.809 23.1821 520.379 23.1821 517.139C23.1821 513.899 25.6031 511.469 28.831 511.469C32.059 511.469 34.48 513.899 34.48 517.139Z" fill="#DBE9FF"/>
<path d="M32.4621 536.58C32.4621 534.567 30.8363 532.935 28.8307 532.935C26.8251 532.935 25.1992 534.567 25.1992 536.58C25.1992 538.593 26.8251 540.225 28.8307 540.225C30.8363 540.225 32.4621 538.593 32.4621 536.58Z" fill="#DBE9FF"/>
<path d="M31.2565 556.015C31.2565 554.673 30.1726 553.585 28.8355 553.585C27.4984 553.585 26.4146 554.673 26.4146 556.015C26.4146 557.357 27.4984 558.445 28.8355 558.445C30.1726 558.445 31.2565 557.357 31.2565 556.015Z" fill="#DBE9FF"/>
<path d="M32.0584 575.457C32.0584 577.077 30.4445 578.697 28.8305 578.697C27.2165 578.697 25.6025 577.077 25.6025 575.457C25.6025 573.837 27.2165 572.217 28.8305 572.217C30.4445 572.217 32.0584 573.432 32.0584 575.457Z" fill="#DBE9FF"/>
<path d="M31.252 594.899C31.252 596.519 30.0415 597.734 28.4275 597.734C26.8136 597.734 25.603 596.519 25.603 594.899C25.603 593.279 26.8136 592.064 28.4275 592.064C30.0415 592.064 31.252 593.279 31.252 594.899Z" fill="#DBE9FF"/>
<path d="M32.0589 614.336C32.0589 612.547 30.6137 611.096 28.831 611.096C27.0482 611.096 25.603 612.547 25.603 614.336C25.603 616.126 27.0482 617.576 28.831 617.576C30.6137 617.576 32.0589 616.126 32.0589 614.336Z" fill="#DBE9FF"/>
<path d="M31.2565 633.775C31.2565 632.433 30.1726 631.345 28.8355 631.345C27.4984 631.345 26.4146 632.433 26.4146 633.775C26.4146 635.117 27.4984 636.205 28.8355 636.205C30.1726 636.205 31.2565 635.117 31.2565 633.775Z" fill="#DBE9FF"/>
<path d="M32.4614 653.221C32.4614 655.246 30.8475 657.271 28.4266 657.271C26.4091 657.271 24.3916 655.651 24.3916 653.221C24.3916 651.196 26.0056 649.171 28.4266 649.171C30.8475 649.171 32.4614 651.196 32.4614 653.221Z" fill="#DBE9FF"/>
<path d="M31.6593 672.659C31.6593 671.093 30.3947 669.824 28.8348 669.824C27.2749 669.824 26.0104 671.093 26.0104 672.659C26.0104 674.225 27.2749 675.494 28.8348 675.494C30.3947 675.494 31.6593 674.225 31.6593 672.659Z" fill="#DBE9FF"/>
<path d="M33.6726 692.101C33.6726 689.417 31.5048 687.241 28.8307 687.241C26.1565 687.241 23.9888 689.417 23.9888 692.101C23.9888 694.785 26.1565 696.961 28.8307 696.961C31.5048 696.961 33.6726 694.785 33.6726 692.101Z" fill="#DBE9FF"/>
<path d="M31.252 711.536C31.252 713.156 30.0415 714.371 28.4275 714.371C26.8136 714.371 25.603 713.156 25.603 711.536C25.603 709.916 26.8136 708.701 28.4275 708.701C30.0415 708.701 31.252 709.916 31.252 711.536Z" fill="#DBE9FF"/>
<path d="M30.8543 730.983C30.8543 729.864 29.951 728.958 28.8368 728.958C27.7226 728.958 26.8193 729.864 26.8193 730.983C26.8193 732.101 27.7226 733.008 28.8368 733.008C29.951 733.008 30.8543 732.101 30.8543 730.983Z" fill="#DBE9FF"/>
<path d="M48.5931 11.702C48.5931 11.478 48.4125 11.2965 48.1896 11.2965C47.9668 11.2965 47.7861 11.478 47.7861 11.702C47.7861 11.9259 47.9668 12.1074 48.1896 12.1074C48.4125 12.1074 48.5931 11.9259 48.5931 11.702Z" fill="#DBE9FF"/>
<path d="M48.9961 31.1392C48.9961 30.6919 48.6349 30.3293 48.1892 30.3293C47.7435 30.3293 47.3822 30.6919 47.3822 31.1392C47.3822 31.5866 47.7435 31.9492 48.1892 31.9492C48.6349 31.9492 48.9961 31.5866 48.9961 31.1392Z" fill="#DBE9FF"/>
<path d="M48.9964 50.5748C48.9964 50.1275 48.6351 49.7648 48.1895 49.7648C47.7438 49.7648 47.3824 50.1275 47.3824 50.5748C47.3824 51.0222 47.7438 51.3848 48.1895 51.3848C48.6351 51.3848 48.9964 51.0222 48.9964 50.5748Z" fill="#DBE9FF"/>
<path d="M50.203 70.018C50.203 68.8996 49.2998 67.993 48.1856 67.993C47.0714 67.993 46.1681 68.8996 46.1681 70.018C46.1681 71.1364 47.0714 72.043 48.1856 72.043C49.2998 72.043 50.203 71.1364 50.203 70.018Z" fill="#DBE9FF"/>
<path d="M50.2037 89.4575C50.2037 90.6725 49.3967 91.4824 48.1862 91.4824C46.9757 91.4824 46.1687 90.6725 46.1687 89.4575C46.1687 88.2425 46.9757 87.4325 48.1862 87.4325C48.9932 87.4325 50.2037 88.2425 50.2037 89.4575Z" fill="#DBE9FF"/>
<path d="M48.9964 108.899C48.9964 108.452 48.6351 108.089 48.1895 108.089C47.7438 108.089 47.3824 108.452 47.3824 108.899C47.3824 109.346 47.7438 109.709 48.1895 109.709C48.6351 109.709 48.9964 109.346 48.9964 108.899Z" fill="#DBE9FF"/>
<path d="M48.5931 128.337C48.5931 128.113 48.4125 127.931 48.1896 127.931C47.9668 127.931 47.7861 128.113 47.7861 128.337C47.7861 128.561 47.9668 128.742 48.1896 128.742C48.4125 128.742 48.5931 128.561 48.5931 128.337Z" fill="#DBE9FF"/>
<path d="M48.5931 147.782C48.5931 147.558 48.4125 147.377 48.1896 147.377C47.9668 147.377 47.7861 147.558 47.7861 147.782C47.7861 148.006 47.9668 148.187 48.1896 148.187C48.4125 148.187 48.5931 148.006 48.5931 147.782Z" fill="#DBE9FF"/>
<path d="M48.5931 186.655C48.5931 186.431 48.4125 186.25 48.1896 186.25C47.9668 186.25 47.7861 186.431 47.7861 186.655C47.7861 186.879 47.9668 187.061 48.1896 187.061C48.4125 187.061 48.5931 186.879 48.5931 186.655Z" fill="#DBE9FF"/>
<path d="M48.5933 244.977C48.5933 245.383 48.5933 245.383 48.1898 245.383C47.7863 245.383 47.7863 245.383 47.7863 244.977C47.7863 244.572 47.7863 244.572 48.1898 244.572C48.1898 244.572 48.5933 244.572 48.5933 244.977Z" fill="#DBE9FF"/>
<path d="M49.3986 264.422C49.3986 263.751 48.8567 263.207 48.1882 263.207C47.5196 263.207 46.9777 263.751 46.9777 264.422C46.9777 265.093 47.5196 265.637 48.1882 265.637C48.8567 265.637 49.3986 265.093 49.3986 264.422Z" fill="#DBE9FF"/>
<path d="M49.3986 283.861C49.3986 283.19 48.8567 282.646 48.1882 282.646C47.5196 282.646 46.9777 283.19 46.9777 283.861C46.9777 284.532 47.5196 285.076 48.1882 285.076C48.8567 285.076 49.3986 284.532 49.3986 283.861Z" fill="#DBE9FF"/>
<path d="M49.8013 303.296C49.8013 302.401 49.0788 301.676 48.1874 301.676C47.296 301.676 46.5734 302.401 46.5734 303.296C46.5734 304.191 47.296 304.916 48.1874 304.916C49.0788 304.916 49.8013 304.191 49.8013 303.296Z" fill="#DBE9FF"/>
<path d="M48.9964 322.735C48.9964 322.288 48.6351 321.925 48.1895 321.925C47.7438 321.925 47.3824 322.288 47.3824 322.735C47.3824 323.182 47.7438 323.545 48.1895 323.545C48.6351 323.545 48.9964 323.182 48.9964 322.735Z" fill="#DBE9FF"/>
<path d="M49.8013 342.179C49.8013 341.284 49.0788 340.559 48.1874 340.559C47.296 340.559 46.5734 341.284 46.5734 342.179C46.5734 343.073 47.296 343.799 48.1874 343.799C49.0788 343.799 49.8013 343.073 49.8013 342.179Z" fill="#DBE9FF"/>
<path d="M51.8446 361.619C51.8446 363.644 50.2306 365.264 48.2131 365.264C46.1956 365.264 44.5817 363.644 44.5817 361.619C44.5817 359.594 46.1956 357.974 48.2131 357.974C50.2306 357.974 51.8446 359.594 51.8446 361.619Z" fill="#DBE9FF"/>
<path d="M51.4111 381.059C51.4111 379.269 49.9659 377.819 48.1831 377.819C46.4004 377.819 44.9552 379.269 44.9552 381.059C44.9552 382.848 46.4004 384.299 48.1831 384.299C49.9659 384.299 51.4111 382.848 51.4111 381.059Z" fill="#DBE9FF"/>
<path d="M51.0094 400.499C51.0094 398.933 49.7449 397.664 48.185 397.664C46.6251 397.664 45.3605 398.933 45.3605 400.499C45.3605 402.065 46.6251 403.334 48.185 403.334C49.7449 403.334 51.0094 402.065 51.0094 400.499Z" fill="#DBE9FF"/>
<path d="M51.0094 419.935C51.0094 421.555 49.799 422.77 48.185 422.77C46.571 422.77 45.3605 421.555 45.3605 419.935C45.3605 418.315 46.571 417.1 48.185 417.1C49.799 417.1 51.0094 418.315 51.0094 419.935Z" fill="#DBE9FF"/>
<path d="M51.0083 439.382C51.0083 437.816 49.7438 436.547 48.1839 436.547C46.624 436.547 45.3594 437.816 45.3594 439.382C45.3594 440.947 46.624 442.217 48.1839 442.217C49.7438 442.217 51.0083 440.947 51.0083 439.382Z" fill="#DBE9FF"/>
<path d="M50.2034 458.821C50.2034 457.702 49.3002 456.796 48.186 456.796C47.0718 456.796 46.1685 457.702 46.1685 458.821C46.1685 459.939 47.0718 460.846 48.186 460.846C49.3002 460.846 50.2034 459.939 50.2034 458.821Z" fill="#DBE9FF"/>
<path d="M51.8444 478.263C51.8444 476.25 50.2186 474.618 48.213 474.618C46.2074 474.618 44.5815 476.25 44.5815 478.263C44.5815 480.276 46.2074 481.908 48.213 481.908C50.2186 481.908 51.8444 480.276 51.8444 478.263Z" fill="#DBE9FF"/>
<path d="M52.2481 497.696C52.2481 500.126 50.6341 501.746 48.2132 501.746C45.7922 501.746 44.1782 500.126 44.1782 497.696C44.1782 495.266 45.7922 493.646 48.2132 493.646C50.6341 493.646 52.2481 495.266 52.2481 497.696Z" fill="#DBE9FF"/>
<path d="M53.0525 517.134C53.0525 514.45 50.8847 512.274 48.2106 512.274C45.5365 512.274 43.3687 514.45 43.3687 517.134C43.3687 519.818 45.5365 521.994 48.2106 521.994C50.8847 521.994 53.0525 519.818 53.0525 517.134Z" fill="#DBE9FF"/>
<path d="M52.2481 536.581C52.2481 539.011 50.2306 540.631 48.2132 540.631C45.7922 540.631 44.1782 538.606 44.1782 536.581C44.1782 534.151 46.1957 532.531 48.2132 532.531C50.2306 532.126 52.2481 534.151 52.2481 536.581Z" fill="#DBE9FF"/>
<path d="M52.2481 556.02C52.2481 558.45 50.6341 560.07 48.2132 560.07C45.7922 560.07 44.1782 558.45 44.1782 556.02C44.1782 553.59 45.7922 551.97 48.2132 551.97C50.6341 551.97 52.2481 553.59 52.2481 556.02Z" fill="#DBE9FF"/>
<path d="M52.2481 575.46C52.2481 577.89 50.2306 579.51 48.2132 579.51C45.7922 579.51 44.1782 577.485 44.1782 575.46C44.1782 573.03 46.1957 571.41 48.2132 571.41C50.2306 571.41 52.2481 573.03 52.2481 575.46Z" fill="#DBE9FF"/>
<path d="M51.0083 594.899C51.0083 593.334 49.7438 592.064 48.1839 592.064C46.624 592.064 45.3594 593.334 45.3594 594.899C45.3594 596.465 46.624 597.734 48.1839 597.734C49.7438 597.734 51.0083 596.465 51.0083 594.899Z" fill="#DBE9FF"/>
<path d="M51.0093 614.337C51.0093 612.771 49.7448 611.502 48.1849 611.502C46.625 611.502 45.3604 612.771 45.3604 614.337C45.3604 615.903 46.625 617.172 48.1849 617.172C49.7448 617.172 51.0093 615.903 51.0093 614.337Z" fill="#DBE9FF"/>
<path d="M50.2029 633.776C50.2029 632.657 49.2997 631.751 48.1855 631.751C47.0713 631.751 46.168 632.657 46.168 633.776C46.168 634.894 47.0713 635.801 48.1855 635.801C49.2997 635.801 50.2029 634.894 50.2029 633.776Z" fill="#DBE9FF"/>
<path d="M50.2034 653.223C50.2034 654.438 49.3965 655.248 48.186 655.248C46.9755 655.248 46.1685 654.438 46.1685 653.223C46.1685 652.008 46.9755 651.198 48.186 651.198C49.3965 651.198 50.2034 652.008 50.2034 653.223Z" fill="#DBE9FF"/>
<path d="M50.2029 672.659C50.2029 671.54 49.2997 670.634 48.1855 670.634C47.0713 670.634 46.168 671.54 46.168 672.659C46.168 673.777 47.0713 674.684 48.1855 674.684C49.2997 674.684 50.2029 673.777 50.2029 672.659Z" fill="#DBE9FF"/>
<path d="M51.4411 692.101C51.4411 694.126 49.8271 695.746 47.8097 695.746C45.7922 695.746 44.1782 694.126 44.1782 692.101C44.1782 690.076 45.7922 688.456 47.8097 688.456C49.8271 688.456 51.4411 690.076 51.4411 692.101Z" fill="#DBE9FF"/>
<path d="M50.604 711.542C50.604 713.162 49.3935 714.377 47.7795 714.377C46.1655 714.377 44.9551 713.162 44.9551 711.542C44.9551 709.922 46.1655 708.707 47.7795 708.707C49.3935 708.707 50.604 709.922 50.604 711.542Z" fill="#DBE9FF"/>
<path d="M51.0093 730.978C51.0093 729.412 49.7448 728.143 48.1849 728.143C46.625 728.143 45.3604 729.412 45.3604 730.978C45.3604 732.543 46.625 733.812 48.1849 733.812C49.7448 733.812 51.0093 732.543 51.0093 730.978Z" fill="#DBE9FF"/>
<path d="M67.9736 11.7C67.9736 11.4761 67.793 11.2946 67.5701 11.2946C67.3473 11.2946 67.1666 11.4761 67.1666 11.7C67.1666 11.9239 67.3473 12.1055 67.5701 12.1055C67.793 12.1055 67.9736 11.9239 67.9736 11.7Z" fill="#DBE9FF"/>
<path d="M67.9736 31.1414C67.9736 30.9175 67.793 30.736 67.5701 30.736C67.3473 30.736 67.1666 30.9175 67.1666 31.1414C67.1666 31.3653 67.3473 31.5469 67.5701 31.5469C67.793 31.5469 67.9736 31.3653 67.9736 31.1414Z" fill="#DBE9FF"/>
<path d="M68.3734 50.5807C68.3734 50.1333 68.0121 49.7707 67.5664 49.7707C67.1207 49.7707 66.7594 50.1333 66.7594 50.5807C66.7594 51.028 67.1207 51.3906 67.5664 51.3906C68.0121 51.3906 68.3734 51.028 68.3734 50.5807Z" fill="#DBE9FF"/>
<path d="M68.3734 70.0162C68.3734 69.5688 68.0121 69.2061 67.5664 69.2061C67.1207 69.2061 66.7594 69.5688 66.7594 70.0162C66.7594 70.4635 67.1207 70.8262 67.5664 70.8262C68.0121 70.8262 68.3734 70.4635 68.3734 70.0162Z" fill="#DBE9FF"/>
<path d="M68.3733 89.4588C68.3733 90.2688 67.9698 90.6738 67.1628 90.6738C66.3558 90.6738 65.9523 90.2688 65.9523 89.4588C65.9523 88.6488 66.3558 88.2438 67.1628 88.2438C67.9698 88.2438 68.3733 88.6488 68.3733 89.4588Z" fill="#DBE9FF"/>
<path d="M68.3734 108.899C68.3734 108.452 68.0121 108.089 67.5664 108.089C67.1207 108.089 66.7594 108.452 66.7594 108.899C66.7594 109.346 67.1207 109.709 67.5664 109.709C68.0121 109.709 68.3734 109.346 68.3734 108.899Z" fill="#DBE9FF"/>
<path d="M67.9734 128.337C67.9734 128.742 67.9734 128.742 67.5699 128.742C67.1664 128.742 67.1664 128.742 67.1664 128.337C67.1664 127.931 67.1664 127.931 67.5699 127.931C67.9734 127.931 67.9734 127.931 67.9734 128.337Z" fill="#DBE9FF"/>
<path d="M67.9734 147.782C67.9734 148.187 67.9734 148.187 67.5699 148.187C67.1664 148.187 67.1664 148.187 67.1664 147.782C67.1664 147.377 67.1664 147.377 67.5699 147.377C67.9734 147.377 67.9734 147.377 67.9734 147.782Z" fill="#DBE9FF"/>
<path d="M68.3728 167.219C68.3728 168.029 67.9693 168.434 67.1623 168.434C66.3553 168.434 65.9518 168.029 65.9518 167.219C65.9518 166.409 66.3553 166.004 67.1623 166.004C67.9693 166.004 68.3728 166.409 68.3728 167.219Z" fill="#DBE9FF"/>
<path d="M67.9734 186.655C67.9734 186.431 67.7927 186.25 67.5699 186.25C67.347 186.25 67.1664 186.431 67.1664 186.655C67.1664 186.879 67.347 187.061 67.5699 187.061C67.7927 187.061 67.9734 186.879 67.9734 186.655Z" fill="#DBE9FF"/>
<path d="M67.9736 244.977C67.9736 244.753 67.793 244.572 67.5701 244.572C67.3473 244.572 67.1666 244.753 67.1666 244.977C67.1666 245.201 67.3473 245.383 67.5701 245.383C67.793 245.383 67.9736 245.201 67.9736 244.977Z" fill="#DBE9FF"/>
<path d="M68.3734 303.299C68.3734 302.852 68.0121 302.489 67.5664 302.489C67.1207 302.489 66.7594 302.852 66.7594 303.299C66.7594 303.747 67.1207 304.109 67.5664 304.109C68.0121 304.109 68.3734 303.747 68.3734 303.299Z" fill="#DBE9FF"/>
<path d="M68.7761 322.738C68.7761 322.067 68.2341 321.523 67.5656 321.523C66.8971 321.523 66.3551 322.067 66.3551 322.738C66.3551 323.409 66.8971 323.953 67.5656 323.953C68.2341 323.953 68.7761 323.409 68.7761 322.738Z" fill="#DBE9FF"/>
<path d="M68.7761 342.18C68.7761 341.508 68.2341 340.965 67.5656 340.965C66.8971 340.965 66.3551 341.508 66.3551 342.18C66.3551 342.851 66.8971 343.395 67.5656 343.395C68.2341 343.395 68.7761 342.851 68.7761 342.18Z" fill="#DBE9FF"/>
<path d="M68.7761 361.621C68.7761 360.95 68.2341 360.406 67.5656 360.406C66.8971 360.406 66.3551 360.95 66.3551 361.621C66.3551 362.292 66.8971 362.836 67.5656 362.836C68.2341 362.836 68.7761 362.292 68.7761 361.621Z" fill="#DBE9FF"/>
<path d="M69.5834 381.059C69.5834 379.941 68.6802 379.034 67.566 379.034C66.4518 379.034 65.5485 379.941 65.5485 381.059C65.5485 382.177 66.4518 383.084 67.566 383.084C68.6802 383.084 69.5834 382.177 69.5834 381.059Z" fill="#DBE9FF"/>
<path d="M69.987 400.498C69.987 399.156 68.9031 398.068 67.5661 398.068C66.229 398.068 65.1451 399.156 65.1451 400.498C65.1451 401.84 66.229 402.928 67.5661 402.928C68.9031 402.928 69.987 401.84 69.987 400.498Z" fill="#DBE9FF"/>
<path d="M70.7899 419.941C70.7899 421.966 69.1759 423.586 67.1584 423.586C65.141 423.586 63.527 421.966 63.527 419.941C63.527 417.916 65.141 416.296 67.1584 416.296C69.1759 416.296 70.7899 417.916 70.7899 419.941Z" fill="#DBE9FF"/>
<path d="M69.9869 439.38C69.9869 438.038 68.903 436.951 67.566 436.951C66.2289 436.951 65.145 438.038 65.145 439.38C65.145 440.723 66.2289 441.811 67.566 441.811C68.903 441.811 69.9869 440.723 69.9869 439.38Z" fill="#DBE9FF"/>
<path d="M68.3728 458.821C68.3728 458.374 68.0115 458.011 67.5658 458.011C67.1201 458.011 66.7588 458.374 66.7588 458.821C66.7588 459.268 67.1201 459.631 67.5658 459.631C68.0115 459.631 68.3728 459.268 68.3728 458.821Z" fill="#DBE9FF"/>
<path d="M68.7761 478.258C68.7761 477.587 68.2341 477.043 67.5656 477.043C66.8971 477.043 66.3551 477.587 66.3551 478.258C66.3551 478.929 66.8971 479.473 67.5656 479.473C68.2341 479.473 68.7761 478.929 68.7761 478.258Z" fill="#DBE9FF"/>
<path d="M69.1801 497.698C69.1801 496.804 68.4575 496.078 67.5662 496.078C66.6748 496.078 65.9521 496.804 65.9521 497.698C65.9521 498.593 66.6748 499.318 67.5662 499.318C68.4575 499.318 69.1801 498.593 69.1801 497.698Z" fill="#DBE9FF"/>
<path d="M68.776 517.139C68.776 516.468 68.234 515.923 67.5655 515.923C66.897 515.923 66.355 516.468 66.355 517.139C66.355 517.81 66.897 518.354 67.5655 518.354C68.234 518.354 68.776 517.81 68.776 517.139Z" fill="#DBE9FF"/>
<path d="M69.5833 536.579C69.5833 535.46 68.6801 534.554 67.5659 534.554C66.4516 534.554 65.5483 535.46 65.5483 536.579C65.5483 537.697 66.4516 538.604 67.5659 538.604C68.6801 538.604 69.5833 537.697 69.5833 536.579Z" fill="#DBE9FF"/>
<path d="M69.5833 556.02C69.5833 554.902 68.6801 553.995 67.5659 553.995C66.4516 553.995 65.5483 554.902 65.5483 556.02C65.5483 557.138 66.4516 558.045 67.5659 558.045C68.6801 558.045 69.5833 557.138 69.5833 556.02Z" fill="#DBE9FF"/>
<path d="M70.3906 575.458C70.3906 577.078 69.1801 578.293 67.5661 578.293C65.9522 578.293 64.7417 577.078 64.7417 575.458C64.7417 573.838 65.9522 572.623 67.5661 572.623C69.1801 572.623 70.3906 573.838 70.3906 575.458Z" fill="#DBE9FF"/>
<path d="M70.3906 594.899C70.3906 593.334 69.126 592.064 67.5661 592.064C66.0062 592.064 64.7417 593.334 64.7417 594.899C64.7417 596.465 66.0062 597.734 67.5661 597.734C69.126 597.734 70.3906 596.465 70.3906 594.899Z" fill="#DBE9FF"/>
<path d="M69.1801 614.339C69.1801 613.444 68.4575 612.719 67.5662 612.719C66.6748 612.719 65.9521 613.444 65.9521 614.339C65.9521 615.234 66.6748 615.959 67.5662 615.959C68.4575 615.959 69.1801 615.234 69.1801 614.339Z" fill="#DBE9FF"/>
<path d="M69.9869 633.779C69.9869 632.437 68.903 631.349 67.566 631.349C66.2289 631.349 65.145 632.437 65.145 633.779C65.145 635.121 66.2289 636.209 67.566 636.209C68.903 636.209 69.9869 635.121 69.9869 633.779Z" fill="#DBE9FF"/>
<path d="M69.9869 653.22C69.9869 651.878 68.903 650.79 67.566 650.79C66.2289 650.79 65.145 651.878 65.145 653.22C65.145 654.562 66.2289 655.65 67.566 655.65C68.903 655.65 69.9869 654.562 69.9869 653.22Z" fill="#DBE9FF"/>
<path d="M70.3905 672.659C70.3905 671.093 69.1259 669.824 67.566 669.824C66.0061 669.824 64.7416 671.093 64.7416 672.659C64.7416 674.225 66.0061 675.494 67.566 675.494C69.1259 675.494 70.3905 674.225 70.3905 672.659Z" fill="#DBE9FF"/>
<path d="M70.3906 692.099C70.3906 690.533 69.126 689.264 67.5661 689.264C66.0062 689.264 64.7417 690.533 64.7417 692.099C64.7417 693.664 66.0062 694.934 67.5661 694.934C69.126 694.934 70.3906 693.664 70.3906 692.099Z" fill="#DBE9FF"/>
<path d="M70.7942 711.539C70.7942 709.75 69.349 708.299 67.5662 708.299C65.7835 708.299 64.3383 709.75 64.3383 711.539C64.3383 713.329 65.7835 714.779 67.5662 714.779C69.349 714.779 70.7942 713.329 70.7942 711.539Z" fill="#DBE9FF"/>
<path d="M71.1972 730.978C71.1972 733.003 69.5832 734.623 67.5658 734.623C65.5483 734.623 63.9343 733.003 63.9343 730.978C63.9343 728.953 65.5483 727.333 67.5658 727.333C69.5832 727.333 71.1972 728.953 71.1972 730.978Z" fill="#DBE9FF"/>
<path d="M87.3232 11.7C87.3232 11.4761 87.1426 11.2946 86.9197 11.2946C86.6969 11.2946 86.5162 11.4761 86.5162 11.7C86.5162 11.9239 86.6969 12.1055 86.9197 12.1055C87.1426 12.1055 87.3232 11.9239 87.3232 11.7Z" fill="#DBE9FF"/>
<path d="M87.3232 31.1414C87.3232 30.9175 87.1426 30.736 86.9197 30.736C86.6969 30.736 86.5162 30.9175 86.5162 31.1414C86.5162 31.3653 86.6969 31.5469 86.9197 31.5469C87.1426 31.5469 87.3232 31.3653 87.3232 31.1414Z" fill="#DBE9FF"/>
<path d="M87.3228 50.577C87.3228 50.3531 87.1421 50.1716 86.9193 50.1716C86.6964 50.1716 86.5157 50.3531 86.5157 50.577C86.5157 50.801 86.6964 50.9824 86.9193 50.9824C87.1421 50.9824 87.3228 50.801 87.3228 50.577Z" fill="#DBE9FF"/>
<path d="M87.726 70.0201C87.726 69.5727 87.3646 69.21 86.9189 69.21C86.4733 69.21 86.1119 69.5727 86.1119 70.0201C86.1119 70.4674 86.4733 70.8301 86.9189 70.8301C87.3646 70.8301 87.726 70.4674 87.726 70.0201Z" fill="#DBE9FF"/>
<path d="M87.3232 89.4598C87.3232 89.2359 87.1426 89.0543 86.9197 89.0543C86.6969 89.0543 86.5162 89.2359 86.5162 89.4598C86.5162 89.6837 86.6969 89.8652 86.9197 89.8652C87.1426 89.8652 87.3232 89.6837 87.3232 89.4598Z" fill="#DBE9FF"/>
<path d="M87.3232 108.897C87.3232 108.673 87.1426 108.492 86.9197 108.492C86.6969 108.492 86.5162 108.673 86.5162 108.897C86.5162 109.121 86.6969 109.303 86.9197 109.303C87.1426 109.303 87.3232 109.121 87.3232 108.897Z" fill="#DBE9FF"/>
<path d="M87.3234 128.337C87.3234 128.113 87.1427 127.931 86.9199 127.931C86.697 127.931 86.5164 128.113 86.5164 128.337C86.5164 128.561 86.697 128.742 86.9199 128.742C87.1427 128.742 87.3234 128.561 87.3234 128.337Z" fill="#DBE9FF"/>
<path d="M87.3234 147.782C87.3234 147.558 87.1427 147.377 86.9199 147.377C86.697 147.377 86.5164 147.558 86.5164 147.782C86.5164 148.006 86.697 148.187 86.9199 148.187C87.1427 148.187 87.3234 148.006 87.3234 147.782Z" fill="#DBE9FF"/>
<path d="M87.3232 167.22C87.3232 166.996 87.1426 166.814 86.9197 166.814C86.6969 166.814 86.5162 166.996 86.5162 167.22C86.5162 167.443 86.6969 167.625 86.9197 167.625C87.1426 167.625 87.3232 167.443 87.3232 167.22Z" fill="#DBE9FF"/>
<path d="M87.3234 186.655C87.3234 186.431 87.1427 186.25 86.9199 186.25C86.697 186.25 86.5164 186.431 86.5164 186.655C86.5164 186.879 86.697 187.061 86.9199 187.061C87.1427 187.061 87.3234 186.879 87.3234 186.655Z" fill="#DBE9FF"/>
<path d="M87.7258 381.057C87.7258 380.61 87.3645 380.247 86.9188 380.247C86.4731 380.247 86.1118 380.61 86.1118 381.057C86.1118 381.505 86.4731 381.867 86.9188 381.867C87.3645 381.867 87.7258 381.505 87.7258 381.057Z" fill="#DBE9FF"/>
<path d="M87.726 400.497C87.726 400.049 87.3646 399.687 86.9189 399.687C86.4733 399.687 86.1119 400.049 86.1119 400.497C86.1119 400.944 86.4733 401.307 86.9189 401.307C87.3646 401.307 87.726 400.944 87.726 400.497Z" fill="#DBE9FF"/>
<path d="M88.9648 419.94C88.9648 418.821 88.0615 417.915 86.9472 417.915C85.833 417.915 84.9298 418.821 84.9298 419.94C84.9298 421.058 85.833 421.965 86.9472 421.965C88.0615 421.965 88.9648 421.058 88.9648 419.94Z" fill="#DBE9FF"/>
<path d="M87.7258 439.377C87.7258 438.93 87.3645 438.568 86.9188 438.568C86.4731 438.568 86.1118 438.93 86.1118 439.377C86.1118 439.825 86.4731 440.187 86.9188 440.187C87.3645 440.187 87.7258 439.825 87.7258 439.377Z" fill="#DBE9FF"/>
<path d="M87.7258 458.817C87.7258 458.37 87.3645 458.007 86.9188 458.007C86.4731 458.007 86.1118 458.37 86.1118 458.817C86.1118 459.264 86.4731 459.627 86.9188 459.627C87.3645 459.627 87.7258 459.264 87.7258 458.817Z" fill="#DBE9FF"/>
<path d="M88.5614 478.257C88.5614 477.362 87.8388 476.637 86.9474 476.637C86.0561 476.637 85.3335 477.362 85.3335 478.257C85.3335 479.152 86.0561 479.877 86.9474 479.877C87.8388 479.877 88.5614 479.152 88.5614 478.257Z" fill="#DBE9FF"/>
<path d="M87.7258 497.702C87.7258 497.254 87.3645 496.892 86.9188 496.892C86.4731 496.892 86.1118 497.254 86.1118 497.702C86.1118 498.149 86.4731 498.512 86.9188 498.512C87.3645 498.512 87.7258 498.149 87.7258 497.702Z" fill="#DBE9FF"/>
<path d="M87.7258 517.135C87.7258 516.688 87.3645 516.325 86.9188 516.325C86.4731 516.325 86.1118 516.688 86.1118 517.135C86.1118 517.583 86.4731 517.945 86.9188 517.945C87.3645 517.945 87.7258 517.583 87.7258 517.135Z" fill="#DBE9FF"/>
<path d="M87.7258 536.577C87.7258 536.129 87.3645 535.767 86.9188 535.767C86.4731 535.767 86.1118 536.129 86.1118 536.577C86.1118 537.024 86.4731 537.387 86.9188 537.387C87.3645 537.387 87.7258 537.024 87.7258 536.577Z" fill="#DBE9FF"/>
<path d="M88.5614 556.021C88.5614 555.126 87.8388 554.401 86.9474 554.401C86.0561 554.401 85.3335 555.126 85.3335 556.021C85.3335 556.915 86.0561 557.641 86.9474 557.641C87.8388 557.641 88.5614 556.915 88.5614 556.021Z" fill="#DBE9FF"/>
<path d="M88.1593 575.457C88.1593 574.786 87.6173 574.242 86.9488 574.242C86.2803 574.242 85.7383 574.786 85.7383 575.457C85.7383 576.128 86.2803 576.672 86.9488 576.672C87.6173 576.672 88.1593 576.128 88.1593 575.457Z" fill="#DBE9FF"/>
<path d="M88.9646 594.899C88.9646 596.114 88.1576 596.924 86.9471 596.924C85.7366 596.924 84.9297 596.114 84.9297 594.899C84.9297 593.684 85.7366 592.874 86.9471 592.874C88.1576 592.874 88.9646 593.684 88.9646 594.899Z" fill="#DBE9FF"/>
<path d="M88.9646 614.34C88.9646 613.222 88.0613 612.315 86.9471 612.315C85.8329 612.315 84.9297 613.222 84.9297 614.34C84.9297 615.459 85.8329 616.365 86.9471 616.365C88.0613 616.365 88.9646 615.459 88.9646 614.34Z" fill="#DBE9FF"/>
<path d="M88.9646 633.776C88.9646 632.657 88.0613 631.751 86.9471 631.751C85.8329 631.751 84.9297 632.657 84.9297 633.776C84.9297 634.894 85.8329 635.801 86.9471 635.801C88.0613 635.801 88.9646 634.894 88.9646 633.776Z" fill="#DBE9FF"/>
<path d="M89.7695 653.218C89.7695 654.838 88.559 656.053 86.9451 656.053C85.3311 656.053 84.1206 654.838 84.1206 653.218C84.1206 651.598 85.3311 650.383 86.9451 650.383C88.559 650.383 89.7695 651.598 89.7695 653.218Z" fill="#DBE9FF"/>
<path d="M89.3673 672.662C89.3673 671.32 88.2834 670.232 86.9463 670.232C85.6093 670.232 84.5254 671.32 84.5254 672.662C84.5254 674.004 85.6093 675.092 86.9463 675.092C88.2834 675.092 89.3673 674.004 89.3673 672.662Z" fill="#DBE9FF"/>
<path d="M89.7695 692.097C89.7695 693.717 88.559 694.932 86.9451 694.932C85.3311 694.932 84.1206 693.717 84.1206 692.097C84.1206 690.477 85.3311 689.262 86.9451 689.262C88.559 689.262 89.7695 690.477 89.7695 692.097Z" fill="#DBE9FF"/>
<path d="M89.3673 711.543C89.3673 712.758 88.1568 713.973 86.9463 713.973C85.7359 713.973 84.5254 712.758 84.5254 711.543C84.5254 710.328 85.7359 709.113 86.9463 709.113C88.1568 709.113 89.3673 709.923 89.3673 711.543Z" fill="#DBE9FF"/>
<path d="M90.1717 730.981C90.1717 729.191 88.7265 727.741 86.9438 727.741C85.161 727.741 83.7158 729.191 83.7158 730.981C83.7158 732.77 85.161 734.221 86.9438 734.221C88.7265 734.221 90.1717 732.77 90.1717 730.981Z" fill="#DBE9FF"/>
<path d="M106.705 11.7C106.705 11.4761 106.524 11.2946 106.301 11.2946C106.078 11.2946 105.898 11.4761 105.898 11.7C105.898 11.9239 106.078 12.1055 106.301 12.1055C106.524 12.1055 106.705 11.9239 106.705 11.7Z" fill="#DBE9FF"/>
<path d="M107.109 167.221C107.109 166.774 106.747 166.411 106.302 166.411C105.856 166.411 105.495 166.774 105.495 167.221C105.495 167.669 105.856 168.031 106.302 168.031C106.747 168.031 107.109 167.669 107.109 167.221Z" fill="#DBE9FF"/>
<path d="M106.705 186.659C106.705 186.435 106.524 186.254 106.301 186.254C106.078 186.254 105.898 186.435 105.898 186.659C105.898 186.883 106.078 187.064 106.301 187.064C106.524 187.064 106.705 186.883 106.705 186.659Z" fill="#DBE9FF"/>
<path d="M107.109 419.936C107.109 419.489 106.747 419.126 106.302 419.126C105.856 419.126 105.495 419.489 105.495 419.936C105.495 420.383 105.856 420.746 106.302 420.746C106.747 420.746 107.109 420.383 107.109 419.936Z" fill="#DBE9FF"/>
<path d="M106.705 439.38C106.705 439.156 106.524 438.974 106.301 438.974C106.078 438.974 105.898 439.156 105.898 439.38C105.898 439.604 106.078 439.785 106.301 439.785C106.524 439.785 106.705 439.604 106.705 439.38Z" fill="#DBE9FF"/>
<path d="M107.109 458.821C107.109 458.374 106.747 458.011 106.302 458.011C105.856 458.011 105.495 458.374 105.495 458.821C105.495 459.268 105.856 459.631 106.302 459.631C106.747 459.631 107.109 459.268 107.109 458.821Z" fill="#DBE9FF"/>
<path d="M108.313 478.258C108.313 477.14 107.41 476.233 106.296 476.233C105.182 476.233 104.278 477.14 104.278 478.258C104.278 479.377 105.182 480.283 106.296 480.283C107.41 480.283 108.313 479.377 108.313 478.258Z" fill="#DBE9FF"/>
<path d="M106.705 497.696C106.705 497.472 106.524 497.291 106.301 497.291C106.078 497.291 105.898 497.472 105.898 497.696C105.898 497.92 106.078 498.102 106.301 498.102C106.524 498.102 106.705 497.92 106.705 497.696Z" fill="#DBE9FF"/>
<path d="M106.704 536.579C106.704 536.355 106.524 536.173 106.301 536.173C106.078 536.173 105.897 536.355 105.897 536.579C105.897 536.803 106.078 536.984 106.301 536.984C106.524 536.984 106.704 536.803 106.704 536.579Z" fill="#DBE9FF"/>
<path d="M106.704 556.016C106.704 555.793 106.524 555.611 106.301 555.611C106.078 555.611 105.897 555.793 105.897 556.016C105.897 556.24 106.078 556.422 106.301 556.422C106.524 556.422 106.704 556.24 106.704 556.016Z" fill="#DBE9FF"/>
<path d="M107.512 575.461C107.512 574.79 106.97 574.246 106.301 574.246C105.633 574.246 105.091 574.79 105.091 575.461C105.091 576.132 105.633 576.676 106.301 576.676C106.97 576.676 107.512 576.132 107.512 575.461Z" fill="#DBE9FF"/>
<path d="M106.704 594.899C106.704 594.675 106.524 594.494 106.301 594.494C106.078 594.494 105.897 594.675 105.897 594.899C105.897 595.123 106.078 595.305 106.301 595.305C106.524 595.305 106.704 595.123 106.704 594.899Z" fill="#DBE9FF"/>
<path d="M107.512 614.338C107.512 613.667 106.97 613.123 106.301 613.123C105.633 613.123 105.091 613.667 105.091 614.338C105.091 615.009 105.633 615.553 106.301 615.553C106.97 615.553 107.512 615.009 107.512 614.338Z" fill="#DBE9FF"/>
<path d="M108.313 633.776C108.313 632.657 107.41 631.751 106.296 631.751C105.182 631.751 104.278 632.657 104.278 633.776C104.278 634.894 105.182 635.801 106.296 635.801C107.41 635.801 108.313 634.894 108.313 633.776Z" fill="#DBE9FF"/>
<path d="M107.911 653.216C107.911 652.321 107.188 651.596 106.297 651.596C105.406 651.596 104.683 652.321 104.683 653.216C104.683 654.111 105.406 654.836 106.297 654.836C107.188 654.836 107.911 654.111 107.911 653.216Z" fill="#DBE9FF"/>
<path d="M107.911 672.659C107.911 671.765 107.188 671.039 106.297 671.039C105.406 671.039 104.683 671.765 104.683 672.659C104.683 673.554 105.406 674.279 106.297 674.279C107.188 674.279 107.911 673.554 107.911 672.659Z" fill="#DBE9FF"/>
<path d="M107.512 692.099C107.512 691.428 106.97 690.884 106.301 690.884C105.633 690.884 105.091 691.428 105.091 692.099C105.091 692.77 105.633 693.314 106.301 693.314C106.97 693.314 107.512 692.77 107.512 692.099Z" fill="#DBE9FF"/>
<path d="M108.716 711.543C108.716 712.758 107.505 713.973 106.295 713.973C105.084 713.973 103.874 712.758 103.874 711.543C103.874 710.328 105.084 709.113 106.295 709.113C107.505 709.113 108.716 709.923 108.716 711.543Z" fill="#DBE9FF"/>
<path d="M107.512 730.978C107.512 730.307 106.97 729.763 106.301 729.763C105.633 729.763 105.091 730.307 105.091 730.978C105.091 731.649 105.633 732.193 106.301 732.193C106.97 732.193 107.512 731.649 107.512 730.978Z" fill="#DBE9FF"/>
<path d="M126.084 89.4598C126.084 89.2359 125.903 89.0543 125.68 89.0543C125.458 89.0543 125.277 89.2359 125.277 89.4598C125.277 89.6837 125.458 89.8652 125.68 89.8652C125.903 89.8652 126.084 89.6837 126.084 89.4598Z" fill="#DBE9FF"/>
<path d="M126.084 497.7C126.084 497.476 125.903 497.295 125.68 497.295C125.458 497.295 125.277 497.476 125.277 497.7C125.277 497.924 125.458 498.105 125.68 498.105C125.903 498.105 126.084 497.924 126.084 497.7Z" fill="#DBE9FF"/>
<path d="M126.084 517.138C126.084 516.914 125.903 516.732 125.68 516.732C125.458 516.732 125.277 516.914 125.277 517.138C125.277 517.361 125.458 517.543 125.68 517.543C125.903 517.543 126.084 517.361 126.084 517.138Z" fill="#DBE9FF"/>
<path d="M126.889 536.58C126.889 537.39 126.485 537.795 125.678 537.795C124.871 537.795 124.468 537.39 124.468 536.58C124.468 535.77 124.871 535.365 125.678 535.365C126.485 535.365 126.889 535.77 126.889 536.58Z" fill="#DBE9FF"/>
<path d="M126.084 575.46C126.084 575.236 125.903 575.054 125.68 575.054C125.458 575.054 125.277 575.236 125.277 575.46C125.277 575.684 125.458 575.865 125.68 575.865C125.903 575.865 126.084 575.684 126.084 575.46Z" fill="#DBE9FF"/>
<path d="M126.084 594.897C126.084 594.673 125.903 594.492 125.68 594.492C125.458 594.492 125.277 594.673 125.277 594.897C125.277 595.121 125.458 595.303 125.68 595.303C125.903 595.303 126.084 595.121 126.084 594.897Z" fill="#DBE9FF"/>
<path d="M126.889 614.338C126.889 613.667 126.347 613.123 125.678 613.123C125.01 613.123 124.468 613.667 124.468 614.338C124.468 615.009 125.01 615.553 125.678 615.553C126.347 615.553 126.889 615.009 126.889 614.338Z" fill="#DBE9FF"/>
<path d="M126.084 633.78C126.084 634.186 126.084 634.186 125.68 634.186C125.277 634.186 125.277 634.186 125.277 633.78C125.277 633.375 125.277 633.375 125.68 633.375C125.68 633.375 126.084 633.375 126.084 633.78Z" fill="#DBE9FF"/>
<path d="M126.486 653.215C126.486 652.768 126.125 652.405 125.679 652.405C125.233 652.405 124.872 652.768 124.872 653.215C124.872 653.663 125.233 654.025 125.679 654.025C126.125 654.025 126.486 653.663 126.486 653.215Z" fill="#DBE9FF"/>
<path d="M126.084 672.657C126.084 672.433 125.903 672.252 125.68 672.252C125.458 672.252 125.277 672.433 125.277 672.657C125.277 672.881 125.458 673.062 125.68 673.062C125.903 673.062 126.084 672.881 126.084 672.657Z" fill="#DBE9FF"/>
<path d="M126.084 692.1C126.084 691.876 125.903 691.695 125.68 691.695C125.458 691.695 125.277 691.876 125.277 692.1C125.277 692.324 125.458 692.506 125.68 692.506C125.903 692.506 126.084 692.324 126.084 692.1Z" fill="#DBE9FF"/>
<path d="M126.486 711.536C126.486 711.088 126.125 710.726 125.679 710.726C125.233 710.726 124.872 711.088 124.872 711.536C124.872 711.983 125.233 712.346 125.679 712.346C126.125 712.346 126.486 711.983 126.486 711.536Z" fill="#DBE9FF"/>
<path d="M127.694 730.983C127.694 729.864 126.791 728.958 125.677 728.958C124.562 728.958 123.659 729.864 123.659 730.983C123.659 732.101 124.562 733.008 125.677 733.008C126.791 733.008 127.694 732.101 127.694 730.983Z" fill="#DBE9FF"/>
<path d="M145.836 89.4576C145.836 89.0102 145.474 88.6475 145.029 88.6475C144.583 88.6475 144.222 89.0102 144.222 89.4576C144.222 89.9049 144.583 90.2676 145.029 90.2676C145.474 90.2676 145.836 89.9049 145.836 89.4576Z" fill="#DBE9FF"/>
<path d="M145.433 128.337C145.433 128.113 145.253 127.931 145.03 127.931C144.807 127.931 144.626 128.113 144.626 128.337C144.626 128.561 144.807 128.742 145.03 128.742C145.253 128.742 145.433 128.561 145.433 128.337Z" fill="#DBE9FF"/>
<path d="M145.433 147.782C145.433 147.558 145.253 147.377 145.03 147.377C144.807 147.377 144.626 147.558 144.626 147.782C144.626 148.006 144.807 148.187 145.03 148.187C145.253 148.187 145.433 148.006 145.433 147.782Z" fill="#DBE9FF"/>
<path d="M145.433 186.655C145.433 186.431 145.253 186.25 145.03 186.25C144.807 186.25 144.626 186.431 144.626 186.655C144.626 186.879 144.807 187.061 145.03 187.061C145.253 187.061 145.433 186.879 145.433 186.655Z" fill="#DBE9FF"/>
<path d="M145.433 206.102C145.433 205.878 145.252 205.697 145.03 205.697C144.807 205.697 144.626 205.878 144.626 206.102C144.626 206.326 144.807 206.508 145.03 206.508C145.252 206.508 145.433 206.326 145.433 206.102Z" fill="#DBE9FF"/>
<path d="M145.836 536.577C145.836 536.129 145.474 535.767 145.029 535.767C144.583 535.767 144.222 536.129 144.222 536.577C144.222 537.024 144.583 537.387 145.029 537.387C145.474 537.387 145.836 537.024 145.836 536.577Z" fill="#DBE9FF"/>
<path d="M145.433 575.46C145.433 575.236 145.252 575.054 145.029 575.054C144.807 575.054 144.626 575.236 144.626 575.46C144.626 575.684 144.807 575.865 145.029 575.865C145.252 575.865 145.433 575.684 145.433 575.46Z" fill="#DBE9FF"/>
<path d="M146.238 594.896C146.238 594.225 145.696 593.681 145.027 593.681C144.359 593.681 143.817 594.225 143.817 594.896C143.817 595.567 144.359 596.111 145.027 596.111C145.696 596.111 146.238 595.567 146.238 594.896Z" fill="#DBE9FF"/>
<path d="M145.433 614.333C145.433 614.109 145.252 613.927 145.029 613.927C144.807 613.927 144.626 614.109 144.626 614.333C144.626 614.557 144.807 614.738 145.029 614.738C145.252 614.738 145.433 614.557 145.433 614.333Z" fill="#DBE9FF"/>
<path d="M145.433 633.78C145.433 633.556 145.252 633.375 145.029 633.375C144.807 633.375 144.626 633.556 144.626 633.78C144.626 634.004 144.807 634.186 145.029 634.186C145.252 634.186 145.433 634.004 145.433 633.78Z" fill="#DBE9FF"/>
<path d="M145.433 672.657C145.433 672.433 145.252 672.252 145.029 672.252C144.807 672.252 144.626 672.433 144.626 672.657C144.626 672.881 144.807 673.062 145.029 673.062C145.252 673.062 145.433 672.881 145.433 672.657Z" fill="#DBE9FF"/>
<path d="M145.836 692.102C145.836 691.655 145.474 691.292 145.029 691.292C144.583 691.292 144.222 691.655 144.222 692.102C144.222 692.549 144.583 692.912 145.029 692.912C145.474 692.912 145.836 692.549 145.836 692.102Z" fill="#DBE9FF"/>
<path d="M145.433 711.538C145.433 711.314 145.252 711.132 145.029 711.132C144.807 711.132 144.626 711.314 144.626 711.538C144.626 711.762 144.807 711.943 145.029 711.943C145.252 711.943 145.433 711.762 145.433 711.538Z" fill="#DBE9FF"/>
<path d="M145.433 730.979C145.433 730.755 145.252 730.574 145.03 730.574C144.807 730.574 144.626 730.755 144.626 730.979C144.626 731.203 144.807 731.385 145.03 731.385C145.252 731.385 145.433 731.203 145.433 730.979Z" fill="#DBE9FF"/>
<path d="M165.615 167.219C165.615 166.548 165.073 166.004 164.404 166.004C163.736 166.004 163.194 166.548 163.194 167.219C163.194 167.89 163.736 168.434 164.404 168.434C165.073 168.434 165.615 167.89 165.615 167.219Z" fill="#DBE9FF"/>
<path d="M165.216 186.659C165.216 186.211 164.855 185.849 164.409 185.849C163.963 185.849 163.602 186.211 163.602 186.659C163.602 187.106 163.963 187.469 164.409 187.469C164.855 187.469 165.216 187.106 165.216 186.659Z" fill="#DBE9FF"/>
<path d="M164.813 244.977C164.813 244.753 164.633 244.572 164.41 244.572C164.187 244.572 164.006 244.753 164.006 244.977C164.006 245.201 164.187 245.383 164.41 245.383C164.633 245.383 164.813 245.201 164.813 244.977Z" fill="#DBE9FF"/>
<path d="M164.813 556.018C164.813 555.794 164.633 555.613 164.41 555.613C164.187 555.613 164.006 555.794 164.006 556.018C164.006 556.242 164.187 556.424 164.41 556.424C164.633 556.424 164.813 556.242 164.813 556.018Z" fill="#DBE9FF"/>
<path d="M164.813 594.897C164.813 595.303 164.813 595.303 164.41 595.303C164.006 595.303 164.006 595.303 164.006 594.897C164.006 594.492 164.006 594.492 164.41 594.492C164.41 594.492 164.813 594.492 164.813 594.897Z" fill="#DBE9FF"/>
<path d="M164.813 614.333C164.813 614.109 164.633 613.927 164.41 613.927C164.187 613.927 164.006 614.109 164.006 614.333C164.006 614.557 164.187 614.738 164.41 614.738C164.633 614.738 164.813 614.557 164.813 614.333Z" fill="#DBE9FF"/>
<path d="M184.565 167.219C184.565 166.772 184.204 166.409 183.758 166.409C183.313 166.409 182.951 166.772 182.951 167.219C182.951 167.667 183.313 168.029 183.758 168.029C184.204 168.029 184.565 167.667 184.565 167.219Z" fill="#DBE9FF"/>
<path d="M184.565 186.659C184.565 186.211 184.204 185.849 183.758 185.849C183.313 185.849 182.951 186.211 182.951 186.659C182.951 187.106 183.313 187.469 183.758 187.469C184.204 187.469 184.565 187.106 184.565 186.659Z" fill="#DBE9FF"/>
<path d="M184.163 206.102C184.163 205.878 183.982 205.697 183.759 205.697C183.536 205.697 183.356 205.878 183.356 206.102C183.356 206.326 183.536 206.508 183.759 206.508C183.982 206.508 184.163 206.326 184.163 206.102Z" fill="#DBE9FF"/>
<path d="M184.565 244.977C184.565 244.53 184.204 244.167 183.758 244.167C183.313 244.167 182.951 244.53 182.951 244.977C182.951 245.424 183.313 245.787 183.758 245.787C184.204 245.787 184.565 245.424 184.565 244.977Z" fill="#DBE9FF"/>
<path d="M184.162 556.018C184.162 555.794 183.982 555.613 183.759 555.613C183.536 555.613 183.355 555.794 183.355 556.018C183.355 556.242 183.536 556.424 183.759 556.424C183.982 556.424 184.162 556.242 184.162 556.018Z" fill="#DBE9FF"/>
<path d="M184.565 575.458C184.565 575.01 184.204 574.648 183.758 574.648C183.312 574.648 182.951 575.01 182.951 575.458C182.951 575.905 183.312 576.268 183.758 576.268C184.204 576.268 184.565 575.905 184.565 575.458Z" fill="#DBE9FF"/>
<path d="M184.162 614.333C184.162 614.109 183.982 613.927 183.759 613.927C183.536 613.927 183.355 614.109 183.355 614.333C183.355 614.557 183.536 614.738 183.759 614.738C183.982 614.738 184.162 614.557 184.162 614.333Z" fill="#DBE9FF"/>
<path d="M184.162 653.218C184.162 652.994 183.982 652.812 183.759 652.812C183.536 652.812 183.355 652.994 183.355 653.218C183.355 653.442 183.536 653.623 183.759 653.623C183.982 653.623 184.162 653.442 184.162 653.218Z" fill="#DBE9FF"/>
<path d="M184.162 672.657C184.162 672.433 183.982 672.252 183.759 672.252C183.536 672.252 183.355 672.433 183.355 672.657C183.355 672.881 183.536 673.062 183.759 673.062C183.982 673.062 184.162 672.881 184.162 672.657Z" fill="#DBE9FF"/>
<path d="M184.565 730.977C184.565 730.53 184.204 730.167 183.758 730.167C183.312 730.167 182.951 730.53 182.951 730.977C182.951 731.424 183.312 731.787 183.758 731.787C184.204 731.787 184.565 731.424 184.565 730.977Z" fill="#DBE9FF"/>
<path d="M203.947 167.221C203.947 166.774 203.585 166.411 203.14 166.411C202.694 166.411 202.333 166.774 202.333 167.221C202.333 167.669 202.694 168.031 203.14 168.031C203.585 168.031 203.947 167.669 203.947 167.221Z" fill="#DBE9FF"/>
<path d="M203.543 186.659C203.543 186.435 203.363 186.254 203.14 186.254C202.917 186.254 202.736 186.435 202.736 186.659C202.736 186.883 202.917 187.064 203.14 187.064C203.363 187.064 203.543 186.883 203.543 186.659Z" fill="#DBE9FF"/>
<path d="M203.543 225.538C203.543 225.943 203.543 225.943 203.14 225.943C202.736 225.943 202.736 225.943 202.736 225.538C202.736 225.132 202.736 225.132 203.14 225.132C203.14 225.132 203.543 225.132 203.543 225.538Z" fill="#DBE9FF"/>
<path d="M203.543 244.977C203.543 244.753 203.363 244.572 203.14 244.572C202.917 244.572 202.736 244.753 202.736 244.977C202.736 245.201 202.917 245.383 203.14 245.383C203.363 245.383 203.543 245.201 203.543 244.977Z" fill="#DBE9FF"/>
<path d="M203.543 419.938C203.543 419.714 203.363 419.533 203.14 419.533C202.917 419.533 202.736 419.714 202.736 419.938C202.736 420.162 202.917 420.344 203.14 420.344C203.363 420.344 203.543 420.162 203.543 419.938Z" fill="#DBE9FF"/>
<path d="M203.947 575.458C203.947 575.01 203.586 574.648 203.14 574.648C202.694 574.648 202.333 575.01 202.333 575.458C202.333 575.905 202.694 576.268 203.14 576.268C203.586 576.268 203.947 575.905 203.947 575.458Z" fill="#DBE9FF"/>
<path d="M203.543 692.1C203.543 691.876 203.363 691.695 203.14 691.695C202.917 691.695 202.736 691.876 202.736 692.1C202.736 692.324 202.917 692.506 203.14 692.506C203.363 692.506 203.543 692.324 203.543 692.1Z" fill="#DBE9FF"/>
<path d="M204.754 730.98C204.754 730.085 204.031 729.36 203.14 729.36C202.249 729.36 201.526 730.085 201.526 730.98C201.526 731.874 202.249 732.6 203.14 732.6C204.031 732.6 204.754 731.874 204.754 730.98Z" fill="#DBE9FF"/>
<path d="M222.923 517.138C222.923 516.914 222.743 516.732 222.52 516.732C222.297 516.732 222.116 516.914 222.116 517.138C222.116 517.361 222.297 517.543 222.52 517.543C222.743 517.543 222.923 517.361 222.923 517.138Z" fill="#DBE9FF"/>
<path d="M222.923 536.575C222.923 536.351 222.743 536.17 222.52 536.17C222.297 536.17 222.116 536.351 222.116 536.575C222.116 536.799 222.297 536.98 222.52 536.98C222.743 536.98 222.923 536.799 222.923 536.575Z" fill="#DBE9FF"/>
<path d="M222.923 556.018C222.923 555.794 222.743 555.613 222.52 555.613C222.297 555.613 222.116 555.794 222.116 556.018C222.116 556.242 222.297 556.424 222.52 556.424C222.743 556.424 222.923 556.242 222.923 556.018Z" fill="#DBE9FF"/>
<path d="M222.923 594.897C222.923 594.673 222.743 594.492 222.52 594.492C222.297 594.492 222.116 594.673 222.116 594.897C222.116 595.121 222.297 595.303 222.52 595.303C222.743 595.303 222.923 595.121 222.923 594.897Z" fill="#DBE9FF"/>
<path d="M223.326 653.215C223.326 652.768 222.965 652.405 222.519 652.405C222.074 652.405 221.712 652.768 221.712 653.215C221.712 653.663 222.074 654.025 222.519 654.025C222.965 654.025 223.326 653.663 223.326 653.215Z" fill="#DBE9FF"/>
<path d="M222.923 672.657C222.923 672.433 222.743 672.252 222.52 672.252C222.297 672.252 222.116 672.433 222.116 672.657C222.116 672.881 222.297 673.062 222.52 673.062C222.743 673.062 222.923 672.881 222.923 672.657Z" fill="#DBE9FF"/>
<path d="M222.923 730.979C222.923 730.755 222.743 730.574 222.52 730.574C222.297 730.574 222.116 730.755 222.116 730.979C222.116 731.203 222.297 731.385 222.52 731.385C222.743 731.385 222.923 731.203 222.923 730.979Z" fill="#DBE9FF"/>
</svg>
