<svg width="80" height="80" viewBox="0 0 80 80" fill="none" xmlns="http://www.w3.org/2000/svg">
<rect width="80" height="80" rx="24" fill="#F5F5F5"/>
<path d="M28.1819 34.0918C28.1819 31.3304 30.4205 29.0918 33.1819 29.0918C35.9433 29.0918 38.1819 31.3304 38.1819 34.0918V37.0918C38.1819 38.1964 37.2865 39.0918 36.1819 39.0918H33.1819C30.4205 39.0918 28.1819 36.8532 28.1819 34.0918Z" fill="#F50099" fill-opacity="0.4"/>
<path d="M28.1819 45.9082C28.1819 48.6696 30.4205 50.9082 33.1819 50.9082C35.9433 50.9082 38.1819 48.6696 38.1819 45.9082V42.9082C38.1819 41.8036 37.2865 40.9082 36.1819 40.9082H33.1819C30.4205 40.9082 28.1819 43.1468 28.1819 45.9082Z" fill="#F50099" fill-opacity="0.4"/>
<path d="M51.8181 34.0918C51.8181 31.3304 49.5795 29.0918 46.8181 29.0918C44.0567 29.0918 41.8181 31.3304 41.8181 34.0918V37.0918C41.8181 38.1964 42.7135 39.0918 43.8181 39.0918H46.8181C49.5795 39.0918 51.8181 36.8532 51.8181 34.0918Z" fill="#F50099" fill-opacity="0.4"/>
<path d="M51.8181 45.9082C51.8181 48.6696 49.5795 50.9082 46.8181 50.9082C44.0567 50.9082 41.8181 48.6696 41.8181 45.9082V42.9082C41.8181 41.8036 42.7135 40.9082 43.8181 40.9082H46.8181C49.5795 40.9082 51.8181 43.1468 51.8181 45.9082Z" fill="#F50099" fill-opacity="0.4"/>
<rect x="32.7273" y="32.7266" width="14.5455" height="14.5455" rx="2" fill="#F53EB0" fill-opacity="0.3"/>
</svg>
