<svg width="66" height="464" viewBox="0 0 66 464" fill="none" xmlns="http://www.w3.org/2000/svg">
<mask id="mask0_328_153934" style="mask-type:luminance" maskUnits="userSpaceOnUse" x="0" y="-170" width="290" height="736">
<path d="M289.27 565.509L289.27 -170L-6.10352e-05 -170L-8.74306e-05 565.509L289.27 565.509Z" fill="white"/>
</mask>
<g mask="url(#mask0_328_153934)">
<path d="M62.5251 452.975C62.5251 453.246 62.7048 453.465 62.9266 453.465C63.1483 453.465 63.3281 453.246 63.3281 452.975C63.3281 452.704 63.1483 452.484 62.9266 452.484C62.7048 452.484 62.5251 452.704 62.5251 452.975Z" fill="#DBE9FF"/>
<path d="M62.5251 441.207C62.5251 441.478 62.7048 441.697 62.9266 441.697C63.1483 441.697 63.3281 441.478 63.3281 441.207C63.3281 440.936 63.1483 440.717 62.9266 440.717C62.7048 440.717 62.5251 440.936 62.5251 441.207Z" fill="#DBE9FF"/>
<path d="M62.7254 429.437C62.7254 429.572 62.8153 429.682 62.9262 429.682C63.0371 429.682 63.127 429.572 63.127 429.437C63.127 429.301 63.0371 429.191 62.9262 429.191C62.8153 429.191 62.7254 429.301 62.7254 429.437Z" fill="#DBE9FF"/>
<path d="M62.5248 405.901C62.5248 406.171 62.7046 406.391 62.9264 406.391C63.1481 406.391 63.3279 406.171 63.3279 405.901C63.3279 405.63 63.1481 405.41 62.9264 405.41C62.7046 405.41 62.5248 405.63 62.5248 405.901Z" fill="#DBE9FF"/>
<path d="M62.1259 394.133C62.1259 394.675 62.4854 395.114 62.9289 395.114C63.3724 395.114 63.7319 394.675 63.7319 394.133C63.7319 393.591 63.3724 393.152 62.9289 393.152C62.4854 393.152 62.1259 393.591 62.1259 394.133Z" fill="#DBE9FF"/>
<path d="M62.3262 382.366C62.3262 382.773 62.5959 383.102 62.9285 383.102C63.2611 383.102 63.5308 382.773 63.5308 382.366C63.5308 381.96 63.2611 381.631 62.9285 381.631C62.5959 381.631 62.3262 381.96 62.3262 382.366Z" fill="#DBE9FF"/>
<path d="M62.1259 370.598C62.1259 371.139 62.4854 371.579 62.9289 371.579C63.3724 371.579 63.7319 371.139 63.7319 370.598C63.7319 370.056 63.3724 369.617 62.9289 369.617C62.4854 369.617 62.1259 370.056 62.1259 370.598Z" fill="#DBE9FF"/>
<path d="M62.1256 358.826C62.1256 359.368 62.4852 359.807 62.9287 359.807C63.3722 359.807 63.7317 359.368 63.7317 358.826C63.7317 358.285 63.3722 357.846 62.9287 357.846C62.4852 357.846 62.1256 358.285 62.1256 358.826Z" fill="#DBE9FF"/>
<path d="M62.3262 347.06C62.3262 347.466 62.5959 347.795 62.9285 347.795C63.2611 347.795 63.5308 347.466 63.5308 347.06C63.5308 346.654 63.2611 346.324 62.9285 346.324C62.5959 346.324 62.3262 346.654 62.3262 347.06Z" fill="#DBE9FF"/>
<path d="M61.9255 335.294C61.9255 335.971 62.3749 336.52 62.9293 336.52C63.4837 336.52 63.9331 335.971 63.9331 335.294C63.9331 334.617 63.4837 334.068 62.9293 334.068C62.3749 334.068 61.9255 334.617 61.9255 335.294Z" fill="#DBE9FF"/>
<path d="M61.9255 323.523C61.9255 322.787 62.327 322.297 62.9293 322.297C63.5316 322.297 63.9331 322.787 63.9331 323.523C63.9331 324.258 63.5316 324.749 62.9293 324.749C62.327 324.749 61.9255 324.258 61.9255 323.523Z" fill="#DBE9FF"/>
<path d="M60.7227 311.754C60.7227 313.243 61.7114 314.45 62.931 314.45C64.1507 314.45 65.1394 313.243 65.1394 311.754C65.1394 310.264 64.1507 309.057 62.931 309.057C61.7114 309.057 60.7227 310.264 60.7227 311.754Z" fill="#DBE9FF"/>
<path d="M60.7231 299.988C60.7231 301.477 61.7119 302.685 62.9315 302.685C64.1512 302.685 65.1399 301.477 65.1399 299.988C65.1399 298.498 64.1512 297.291 62.9315 297.291C61.7119 297.291 60.7231 298.498 60.7231 299.988Z" fill="#DBE9FF"/>
<path d="M60.9233 288.221C60.9233 286.75 61.9271 285.77 62.9309 285.77C64.1354 285.77 64.9385 286.995 64.9385 288.221C64.9385 289.692 63.9347 290.673 62.9309 290.673C61.9271 290.673 60.9233 289.692 60.9233 288.221Z" fill="#DBE9FF"/>
<path d="M60.5239 276.451C60.5239 274.735 61.7285 273.264 63.1338 273.264C64.5391 273.264 65.7437 274.735 65.7437 276.451C65.7437 278.167 64.5391 279.638 63.1338 279.638C61.5277 279.638 60.5239 278.167 60.5239 276.451Z" fill="#DBE9FF"/>
<path d="M60.5228 264.682C60.5228 266.307 61.6014 267.624 62.932 267.624C64.2625 267.624 65.3411 266.307 65.3411 264.682C65.3411 263.057 64.2625 261.74 62.932 261.74C61.6014 261.74 60.5228 263.057 60.5228 264.682Z" fill="#DBE9FF"/>
<path d="M60.7227 252.916C60.7227 254.405 61.7114 255.612 62.931 255.612C64.1507 255.612 65.1394 254.405 65.1394 252.916C65.1394 251.426 64.1507 250.219 62.931 250.219C61.7114 250.219 60.7227 251.426 60.7227 252.916Z" fill="#DBE9FF"/>
<path d="M60.1224 241.147C60.1224 243.043 61.3807 244.58 62.933 244.58C64.4853 244.58 65.7437 243.043 65.7437 241.147C65.7437 239.252 64.4853 237.715 62.933 237.715C61.3807 237.715 60.1224 239.252 60.1224 241.147Z" fill="#DBE9FF"/>
<path d="M60.5231 229.38C60.5231 227.663 61.5269 226.437 62.9322 226.437C64.3375 226.437 65.3413 227.663 65.3413 229.38C65.3413 231.096 64.3375 232.322 62.9322 232.322C61.5269 232.322 60.5231 231.096 60.5231 229.38Z" fill="#DBE9FF"/>
<path d="M60.3081 217.612C60.3081 215.651 61.5127 214.18 63.1188 214.18C64.5241 214.18 65.9294 215.651 65.9294 217.612C65.9294 219.328 64.7249 221.044 63.1188 221.044C61.5127 221.044 60.3081 219.573 60.3081 217.612Z" fill="#DBE9FF"/>
<path d="M60.3227 205.842C60.3227 204.125 61.5273 202.654 62.9326 202.654C64.3379 202.654 65.5425 204.125 65.5425 205.842C65.5425 207.558 64.3379 209.029 62.9326 209.029C61.5273 209.029 60.3227 207.558 60.3227 205.842Z" fill="#DBE9FF"/>
<path d="M60.3227 194.074C60.3227 195.834 61.4912 197.261 62.9326 197.261C64.374 197.261 65.5425 195.834 65.5425 194.074C65.5425 192.314 64.374 190.887 62.9326 190.887C61.4912 190.887 60.3227 192.314 60.3227 194.074Z" fill="#DBE9FF"/>
<path d="M61.3237 182.305C61.3237 183.388 62.0428 184.266 62.9298 184.266C63.8168 184.266 64.5359 183.388 64.5359 182.305C64.5359 181.222 63.8168 180.344 62.9298 180.344C62.0428 180.344 61.3237 181.222 61.3237 182.305Z" fill="#DBE9FF"/>
<path d="M60.9237 170.538C60.9237 169.067 61.9276 168.086 62.9314 168.086C64.1359 168.086 64.939 169.312 64.939 170.538C64.939 172.009 63.9352 172.989 62.9314 172.989C61.9276 173.235 60.9237 172.009 60.9237 170.538Z" fill="#DBE9FF"/>
<path d="M60.3227 158.767C60.3227 160.528 61.4912 161.954 62.9326 161.954C64.374 161.954 65.5425 160.528 65.5425 158.767C65.5425 157.007 64.374 155.58 62.9326 155.58C61.4912 155.58 60.3227 157.007 60.3227 158.767Z" fill="#DBE9FF"/>
<path d="M61.1236 147C61.1236 148.218 61.9326 149.206 62.9305 149.206C63.9284 149.206 64.7373 148.218 64.7373 147C64.7373 145.781 63.9284 144.793 62.9305 144.793C61.9326 144.793 61.1236 145.781 61.1236 147Z" fill="#DBE9FF"/>
<path d="M61.1242 135.233C61.1242 134.007 61.9272 132.781 63.1318 132.781C64.1356 132.781 65.1394 133.762 65.1394 135.233C65.1394 136.459 64.3364 137.685 63.1318 137.685C61.9272 137.685 61.1242 136.459 61.1242 135.233Z" fill="#DBE9FF"/>
<path d="M60.5228 123.467C60.5228 121.751 61.7274 120.525 62.932 120.525C64.3373 120.525 65.3411 121.996 65.3411 123.467C65.3411 125.184 64.1365 126.409 62.932 126.409C61.5266 126.655 60.5228 125.184 60.5228 123.467Z" fill="#DBE9FF"/>
<path d="M60.7227 111.695C60.7227 110.224 61.7265 108.998 62.931 108.998C64.1356 108.998 65.1394 110.224 65.1394 111.695C65.1394 113.166 64.1356 114.392 62.931 114.392C61.7265 114.392 60.7227 113.166 60.7227 111.695Z" fill="#DBE9FF"/>
<path d="M60.3227 99.9294C60.3227 101.69 61.4912 103.117 62.9326 103.117C64.374 103.117 65.5425 101.69 65.5425 99.9294C65.5425 98.1692 64.374 96.7422 62.9326 96.7422C61.4912 96.7422 60.3227 98.1692 60.3227 99.9294Z" fill="#DBE9FF"/>
<path d="M60.9237 88.1607C60.9237 86.6897 61.9276 85.709 62.9314 85.709C64.1359 85.709 64.939 86.9348 64.939 88.1607C64.939 89.6317 63.9352 90.6124 62.9314 90.6124C61.9276 90.8575 60.9237 89.6317 60.9237 88.1607Z" fill="#DBE9FF"/>
<path d="M61.5241 76.3939C61.5241 75.4132 62.1264 74.6777 62.9294 74.6777C63.7324 74.6777 64.3347 75.4132 64.3347 76.3939C64.3347 77.3746 63.7324 78.1101 62.9294 78.1101C62.1264 78.1101 61.5241 77.3746 61.5241 76.3939Z" fill="#DBE9FF"/>
<path d="M61.5243 64.6264C61.5243 65.5742 62.1535 66.3425 62.9296 66.3425C63.7058 66.3425 64.335 65.5742 64.335 64.6264C64.335 63.6785 63.7058 62.9102 62.9296 62.9102C62.1535 62.9102 61.5243 63.6785 61.5243 64.6264Z" fill="#DBE9FF"/>
<path d="M61.5251 52.8559C61.5251 51.8752 62.1274 50.8945 63.1312 50.8945C63.9343 50.8945 64.7373 51.63 64.7373 52.8559C64.7373 54.0817 64.135 54.8172 63.1312 54.8172C62.1274 54.8172 61.5251 53.8366 61.5251 52.8559Z" fill="#DBE9FF"/>
<path d="M62.3255 41.089C62.3255 41.4953 62.5951 41.8245 62.9278 41.8245C63.2604 41.8245 63.53 41.4953 63.53 41.089C63.53 40.6828 63.2604 40.3535 62.9278 40.3535C62.5951 40.3535 62.3255 40.6828 62.3255 41.089Z" fill="#DBE9FF"/>
<path d="M61.925 29.3196C61.925 28.5841 62.3266 28.0937 62.9288 28.0937C63.5311 28.0937 63.9326 28.5841 63.9326 29.3196C63.9326 30.0551 63.5311 30.5455 62.9288 30.5455C62.3266 30.5455 61.925 30.0551 61.925 29.3196Z" fill="#DBE9FF"/>
<path d="M62.5271 17.5519C62.5271 17.0616 62.7279 16.8164 63.1294 16.8164C63.531 16.8164 63.7317 17.0616 63.7317 17.5519C63.7317 18.0422 63.531 18.2874 63.1294 18.2874C62.7279 18.2874 62.5271 18.0422 62.5271 17.5519Z" fill="#DBE9FF"/>
<path d="M62.3255 5.78433C62.3255 6.19054 62.5951 6.51985 62.9278 6.51985C63.2604 6.51985 63.53 6.19054 63.53 5.78433C63.53 5.37812 63.2604 5.04883 62.9278 5.04883C62.5951 5.04883 62.3255 5.37812 62.3255 5.78433Z" fill="#DBE9FF"/>
<path d="M53.0839 452.974C53.0839 453.11 53.1737 453.219 53.2846 453.219C53.3955 453.219 53.4854 453.11 53.4854 452.974C53.4854 452.838 53.3955 452.729 53.2846 452.729C53.1737 452.729 53.0839 452.838 53.0839 452.974Z" fill="#DBE9FF"/>
<path d="M52.884 441.203C52.884 441.474 53.0638 441.694 53.2855 441.694C53.5073 441.694 53.687 441.474 53.687 441.203C53.687 440.932 53.5073 440.713 53.2855 440.713C53.0638 440.713 52.884 440.932 52.884 441.203Z" fill="#DBE9FF"/>
<path d="M52.2829 429.437C52.2829 430.114 52.7324 430.663 53.2867 430.663C53.8411 430.663 54.2905 430.114 54.2905 429.437C54.2905 428.76 53.8411 428.211 53.2867 428.211C52.7324 428.211 52.2829 428.76 52.2829 429.437Z" fill="#DBE9FF"/>
<path d="M52.884 394.131C52.884 394.402 53.0638 394.621 53.2855 394.621C53.5073 394.621 53.687 394.402 53.687 394.131C53.687 393.86 53.5073 393.641 53.2855 393.641C53.0638 393.641 52.884 393.86 52.884 394.131Z" fill="#DBE9FF"/>
<path d="M53.0839 382.363C53.0839 382.498 53.1737 382.608 53.2846 382.608C53.3955 382.608 53.4854 382.498 53.4854 382.363C53.4854 382.227 53.3955 382.117 53.2846 382.117C53.1737 382.117 53.0839 382.227 53.0839 382.363Z" fill="#DBE9FF"/>
<path d="M52.884 370.598C52.884 370.869 53.0638 371.088 53.2855 371.088C53.5073 371.088 53.687 370.869 53.687 370.598C53.687 370.327 53.5073 370.107 53.2855 370.107C53.0638 370.107 52.884 370.327 52.884 370.598Z" fill="#DBE9FF"/>
<path d="M52.6836 358.827C52.6836 359.234 52.9533 359.563 53.2859 359.563C53.6186 359.563 53.8882 359.234 53.8882 358.827C53.8882 358.421 53.6186 358.092 53.2859 358.092C52.9533 358.092 52.6836 358.421 52.6836 358.827Z" fill="#DBE9FF"/>
<path d="M52.483 347.061C52.483 347.602 52.8426 348.041 53.2861 348.041C53.7296 348.041 54.0891 347.602 54.0891 347.061C54.0891 346.519 53.7296 346.08 53.2861 346.08C52.8426 346.08 52.483 346.519 52.483 347.061Z" fill="#DBE9FF"/>
<path d="M51.483 335.291C51.483 334.065 52.286 333.084 53.2898 333.084C54.2936 333.084 55.0967 334.065 55.0967 335.291C55.0967 336.516 54.2936 337.497 53.2898 337.497C52.286 337.497 51.483 336.516 51.483 335.291Z" fill="#DBE9FF"/>
<path d="M51.6833 323.526C51.6833 324.609 52.4024 325.487 53.2894 325.487C54.1764 325.487 54.8955 324.609 54.8955 323.526C54.8955 322.443 54.1764 321.564 53.2894 321.564C52.4024 321.564 51.6833 322.443 51.6833 323.526Z" fill="#DBE9FF"/>
<path d="M52.2822 311.755C52.2822 311.02 52.6837 310.529 53.286 310.529C53.8883 310.529 54.2898 311.02 54.2898 311.755C54.2898 312.491 53.8883 312.981 53.286 312.981C52.8845 312.981 52.2822 312.491 52.2822 311.755Z" fill="#DBE9FF"/>
<path d="M51.2815 299.987C51.2815 298.516 52.0845 297.535 53.2891 297.535C54.4936 297.535 55.2966 298.516 55.2966 299.987C55.2966 301.458 54.4936 302.439 53.2891 302.439C52.2853 302.439 51.2815 301.458 51.2815 299.987Z" fill="#DBE9FF"/>
<path d="M52.2822 288.216C52.2822 288.893 52.7316 289.442 53.286 289.442C53.8404 289.442 54.2898 288.893 54.2898 288.216C54.2898 287.539 53.8404 286.99 53.286 286.99C52.7316 286.99 52.2822 287.539 52.2822 288.216Z" fill="#DBE9FF"/>
<path d="M51.8817 276.453C51.8817 275.472 52.484 274.736 53.2871 274.736C54.0901 274.736 54.6924 275.472 54.6924 276.453C54.6924 277.433 54.0901 278.169 53.2871 278.169C52.484 278.169 51.8817 277.433 51.8817 276.453Z" fill="#DBE9FF"/>
<path d="M51.8817 264.685C51.8817 265.633 52.5109 266.401 53.2871 266.401C54.0632 266.401 54.6924 265.633 54.6924 264.685C54.6924 263.737 54.0632 262.969 53.2871 262.969C52.5109 262.969 51.8817 263.737 51.8817 264.685Z" fill="#DBE9FF"/>
<path d="M51.6829 252.914C51.6829 253.998 52.4019 254.876 53.2889 254.876C54.176 254.876 54.895 253.998 54.895 252.914C54.895 251.831 54.176 250.953 53.2889 250.953C52.4019 250.953 51.6829 251.831 51.6829 252.914Z" fill="#DBE9FF"/>
<path d="M51.8817 241.148C51.8817 242.096 52.5109 242.864 53.2871 242.864C54.0632 242.864 54.6924 242.096 54.6924 241.148C54.6924 240.2 54.0632 239.432 53.2871 239.432C52.5109 239.432 51.8817 240.2 51.8817 241.148Z" fill="#DBE9FF"/>
<path d="M51.4823 229.378C51.4823 228.153 52.2853 227.172 53.2891 227.172C54.2929 227.172 55.0959 228.153 55.0959 229.378C55.0959 230.604 54.2929 231.585 53.2891 231.585C52.2853 231.585 51.4823 230.604 51.4823 229.378Z" fill="#DBE9FF"/>
<path d="M50.88 217.61C50.88 215.894 51.8838 214.668 53.2891 214.668C54.6945 214.668 55.6982 215.894 55.6982 217.61C55.6982 219.326 54.6945 220.552 53.2891 220.552C52.0846 220.552 50.88 219.326 50.88 217.61Z" fill="#DBE9FF"/>
<path d="M50.4783 205.843C50.4783 203.881 51.6829 202.41 53.289 202.41C54.8951 202.41 56.0996 203.881 56.0996 205.843C56.0996 207.804 54.8951 209.275 53.289 209.275C51.6829 209.275 50.4783 207.804 50.4783 205.843Z" fill="#DBE9FF"/>
<path d="M51.4823 194.074C51.4823 195.292 52.2912 196.28 53.2891 196.28C54.287 196.28 55.0959 195.292 55.0959 194.074C55.0959 192.855 54.287 191.867 53.2891 191.867C52.2912 191.867 51.4823 192.855 51.4823 194.074Z" fill="#DBE9FF"/>
<path d="M52.0818 182.309C52.0818 183.121 52.6212 183.78 53.2864 183.78C53.9517 183.78 54.491 183.121 54.491 182.309C54.491 181.496 53.9517 180.838 53.2864 180.838C52.6212 180.838 52.0818 181.496 52.0818 182.309Z" fill="#DBE9FF"/>
<path d="M51.6829 170.539C51.6829 169.559 52.4859 168.578 53.2889 168.578C54.092 168.578 54.895 169.559 54.895 170.539C54.895 171.52 54.092 172.501 53.2889 172.501C52.4859 172.501 51.6829 171.765 51.6829 170.539Z" fill="#DBE9FF"/>
<path d="M52.0844 158.769C52.0844 157.788 52.6866 157.053 53.4897 157.053C54.2927 157.053 54.895 157.788 54.895 158.769C54.895 159.75 54.2927 160.485 53.4897 160.485C52.6866 160.485 52.0844 159.75 52.0844 158.769Z" fill="#DBE9FF"/>
<path d="M51.6829 147.004C51.6829 148.088 52.4019 148.966 53.2889 148.966C54.176 148.966 54.895 148.088 54.895 147.004C54.895 145.921 54.176 145.043 53.2889 145.043C52.4019 145.043 51.6829 145.921 51.6829 147.004Z" fill="#DBE9FF"/>
<path d="M52.0818 135.237C52.0818 136.049 52.6212 136.708 53.2864 136.708C53.9517 136.708 54.491 136.049 54.491 135.237C54.491 134.424 53.9517 133.766 53.2864 133.766C52.6212 133.766 52.0818 134.424 52.0818 135.237Z" fill="#DBE9FF"/>
<path d="M51.4821 123.463C51.4821 122.238 52.2851 121.012 53.4897 121.012C54.4935 121.012 55.4973 121.992 55.4973 123.463C55.4973 124.689 54.6943 125.915 53.4897 125.915C52.2851 125.915 51.4821 124.689 51.4821 123.463Z" fill="#DBE9FF"/>
<path d="M51.8817 111.697C51.8817 112.644 52.5109 113.413 53.2871 113.413C54.0632 113.413 54.6924 112.644 54.6924 111.697C54.6924 110.749 54.0632 109.98 53.2871 109.98C52.5109 109.98 51.8817 110.749 51.8817 111.697Z" fill="#DBE9FF"/>
<path d="M50.88 99.9284C50.88 101.553 51.9586 102.87 53.2891 102.87C54.6197 102.87 55.6982 101.553 55.6982 99.9284C55.6982 98.3035 54.6197 96.9863 53.2891 96.9863C51.9586 96.9863 50.88 98.3035 50.88 99.9284Z" fill="#DBE9FF"/>
<path d="M52.0844 88.1615C52.0844 87.1808 52.6866 86.4453 53.4897 86.4453C54.2927 86.4453 54.895 87.1808 54.895 88.1615C54.895 89.1422 54.2927 89.8777 53.4897 89.8777C52.6866 89.8777 52.0844 89.1422 52.0844 88.1615Z" fill="#DBE9FF"/>
<path d="M52.2822 76.3919C52.2822 77.0689 52.7316 77.6177 53.286 77.6177C53.8404 77.6177 54.2898 77.0689 54.2898 76.3919C54.2898 75.7149 53.8404 75.166 53.286 75.166C52.7316 75.166 52.2822 75.7149 52.2822 76.3919Z" fill="#DBE9FF"/>
<path d="M52.0846 64.6264C52.0846 63.6457 52.6869 62.9102 53.4899 62.9102C54.293 62.9102 54.8953 63.6457 54.8953 64.6264C54.8953 65.607 54.293 66.3425 53.4899 66.3425C52.6869 66.3425 52.0846 65.607 52.0846 64.6264Z" fill="#DBE9FF"/>
<path d="M51.8817 52.8529C51.8817 53.8007 52.5109 54.5691 53.2871 54.5691C54.0632 54.5691 54.6924 53.8007 54.6924 52.8529C54.6924 51.9051 54.0632 51.1367 53.2871 51.1367C52.5109 51.1367 51.8817 51.9051 51.8817 52.8529Z" fill="#DBE9FF"/>
<path d="M52.0818 41.0863C52.0818 41.8987 52.6212 42.5573 53.2864 42.5573C53.9517 42.5573 54.491 41.8987 54.491 41.0863C54.491 40.2738 53.9517 39.6152 53.2864 39.6152C52.6212 39.6152 52.0818 40.2738 52.0818 41.0863Z" fill="#DBE9FF"/>
<path d="M51.6831 29.3207C51.6831 28.3401 52.4861 27.3594 53.2892 27.3594C54.0922 27.3594 54.8953 28.3401 54.8953 29.3207C54.8953 30.3014 54.0922 31.2821 53.2892 31.2821C52.4861 31.2821 51.6831 30.5466 51.6831 29.3207Z" fill="#DBE9FF"/>
<path d="M52.883 17.5489C52.883 17.8197 53.0628 18.0393 53.2845 18.0393C53.5063 18.0393 53.686 17.8197 53.686 17.5489C53.686 17.2781 53.5063 17.0586 53.2845 17.0586C53.0628 17.0586 52.883 17.2781 52.883 17.5489Z" fill="#DBE9FF"/>
<path d="M53.0834 5.7845C53.0834 5.92005 53.1733 6.02995 53.2841 6.02995C53.395 6.02995 53.4849 5.92005 53.4849 5.7845C53.4849 5.64894 53.395 5.53906 53.2841 5.53906C53.1733 5.53906 53.0834 5.64894 53.0834 5.7845Z" fill="#DBE9FF"/>
<path d="M42.6555 464.743C42.6555 464.008 43.057 463.518 43.6593 463.518C44.2615 463.518 44.6631 464.008 44.6631 464.743C44.6631 465.479 44.2615 465.969 43.6593 465.969C43.2577 465.969 42.6555 465.479 42.6555 464.743Z" fill="#DBE9FF"/>
<path d="M43.2563 452.975C43.2563 453.246 43.436 453.465 43.6578 453.465C43.8796 453.465 44.0593 453.246 44.0593 452.975C44.0593 452.704 43.8796 452.484 43.6578 452.484C43.436 452.484 43.2563 452.704 43.2563 452.975Z" fill="#DBE9FF"/>
<path d="M43.4566 441.206C43.4566 441.342 43.5465 441.452 43.6574 441.452C43.7683 441.452 43.8582 441.342 43.8582 441.206C43.8582 441.071 43.7683 440.961 43.6574 440.961C43.5465 440.961 43.4566 441.071 43.4566 441.206Z" fill="#DBE9FF"/>
<path d="M43.4566 429.435C43.4566 429.57 43.5465 429.68 43.6574 429.68C43.7683 429.68 43.8582 429.57 43.8582 429.435C43.8582 429.299 43.7683 429.189 43.6574 429.189C43.5465 429.189 43.4566 429.299 43.4566 429.435Z" fill="#DBE9FF"/>
<path d="M43.4566 405.904C43.4566 406.039 43.5465 406.149 43.6574 406.149C43.7683 406.149 43.8582 406.039 43.8582 405.904C43.8582 405.768 43.7683 405.658 43.6574 405.658C43.5465 405.658 43.4566 405.768 43.4566 405.904Z" fill="#DBE9FF"/>
<path d="M43.4566 370.597C43.4566 370.352 43.4566 370.352 43.6574 370.352C43.8581 370.352 43.8582 370.352 43.8582 370.597C43.8582 370.842 43.8581 370.842 43.6574 370.842C43.6574 370.842 43.4566 370.842 43.4566 370.597Z" fill="#DBE9FF"/>
<path d="M43.0559 358.827C43.0559 359.234 43.3256 359.563 43.6582 359.563C43.9908 359.563 44.2605 359.234 44.2605 358.827C44.2605 358.421 43.9908 358.092 43.6582 358.092C43.3256 358.092 43.0559 358.421 43.0559 358.827Z" fill="#DBE9FF"/>
<path d="M43.0559 347.06C43.0559 347.466 43.3256 347.795 43.6582 347.795C43.9908 347.795 44.2605 347.466 44.2605 347.06C44.2605 346.654 43.9908 346.324 43.6582 346.324C43.3256 346.324 43.0559 346.654 43.0559 347.06Z" fill="#DBE9FF"/>
<path d="M42.8558 335.295C42.8558 335.837 43.2153 336.276 43.6589 336.276C44.1024 336.276 44.4619 335.837 44.4619 335.295C44.4619 334.753 44.1024 334.314 43.6589 334.314C43.2153 334.314 42.8558 334.753 42.8558 335.295Z" fill="#DBE9FF"/>
<path d="M43.2563 323.526C43.2563 323.796 43.436 324.016 43.6578 324.016C43.8796 324.016 44.0593 323.796 44.0593 323.526C44.0593 323.255 43.8796 323.035 43.6578 323.035C43.436 323.035 43.2563 323.255 43.2563 323.526Z" fill="#DBE9FF"/>
<path d="M42.8551 311.756C42.8551 312.298 43.2146 312.737 43.6581 312.737C44.1016 312.737 44.4612 312.298 44.4612 311.756C44.4612 311.214 44.1016 310.775 43.6581 310.775C43.2146 310.775 42.8551 311.214 42.8551 311.756Z" fill="#DBE9FF"/>
<path d="M41.8382 299.988C41.8382 298.762 42.6413 297.781 43.6451 297.781C44.6489 297.781 45.4519 298.762 45.4519 299.988C45.4519 301.214 44.6489 302.194 43.6451 302.194C42.6413 302.194 41.8382 301.214 41.8382 299.988Z" fill="#DBE9FF"/>
<path d="M42.0537 288.219C42.0537 289.302 42.7728 290.181 43.6598 290.181C44.5468 290.181 45.2659 289.302 45.2659 288.219C45.2659 287.136 44.5468 286.258 43.6598 286.258C42.7728 286.258 42.0537 287.136 42.0537 288.219Z" fill="#DBE9FF"/>
<path d="M42.254 276.453C42.254 277.4 42.8832 278.169 43.6593 278.169C44.4355 278.169 45.0647 277.4 45.0647 276.453C45.0647 275.505 44.4355 274.736 43.6593 274.736C42.8832 274.736 42.254 275.505 42.254 276.453Z" fill="#DBE9FF"/>
<path d="M42.2543 264.685C42.2543 263.704 42.8565 262.969 43.6596 262.969C44.4626 262.969 45.0649 263.704 45.0649 264.685C45.0649 265.666 44.4626 266.401 43.6596 266.401C42.8565 266.401 42.2543 265.666 42.2543 264.685Z" fill="#DBE9FF"/>
<path d="M42.2543 252.913C42.2543 253.861 42.8835 254.63 43.6596 254.63C44.4357 254.63 45.0649 253.861 45.0649 252.913C45.0649 251.966 44.4357 251.197 43.6596 251.197C42.8835 251.197 42.2543 251.966 42.2543 252.913Z" fill="#DBE9FF"/>
<path d="M42.655 241.146C42.655 241.823 43.1044 242.372 43.6588 242.372C44.2132 242.372 44.6626 241.823 44.6626 241.146C44.6626 240.469 44.2132 239.92 43.6588 239.92C43.1044 239.92 42.655 240.469 42.655 241.146Z" fill="#DBE9FF"/>
<path d="M41.8382 229.376C41.8382 230.595 42.6472 231.583 43.6451 231.583C44.643 231.583 45.4519 230.595 45.4519 229.376C45.4519 228.158 44.643 227.17 43.6451 227.17C42.6472 227.17 41.8382 228.158 41.8382 229.376Z" fill="#DBE9FF"/>
<path d="M41.6377 217.612C41.6377 216.141 42.4407 215.16 43.6452 215.16C44.8498 215.16 45.6528 216.141 45.6528 217.612C45.6528 219.083 44.8498 220.064 43.6452 220.064C42.4407 220.064 41.6377 219.083 41.6377 217.612Z" fill="#DBE9FF"/>
<path d="M41.2372 205.846C41.2372 207.471 42.3158 208.788 43.6463 208.788C44.9768 208.788 46.0554 207.471 46.0554 205.846C46.0554 204.221 44.9768 202.904 43.6463 202.904C42.3158 202.904 41.2372 204.221 41.2372 205.846Z" fill="#DBE9FF"/>
<path d="M41.6377 194.073C41.6377 192.602 42.6414 191.621 43.6452 191.621C44.8498 191.621 45.6528 192.847 45.6528 194.073C45.6528 195.544 44.649 196.524 43.6452 196.524C42.6414 196.77 41.6377 195.544 41.6377 194.073Z" fill="#DBE9FF"/>
<path d="M41.6377 182.305C41.6377 180.834 42.4407 179.854 43.6452 179.854C44.8498 179.854 45.6528 180.834 45.6528 182.305C45.6528 183.776 44.8498 184.757 43.6452 184.757C42.4407 184.757 41.6377 183.776 41.6377 182.305Z" fill="#DBE9FF"/>
<path d="M41.6377 170.538C41.6377 169.067 42.6414 168.086 43.6452 168.086C44.8498 168.086 45.6528 169.312 45.6528 170.538C45.6528 172.009 44.649 172.989 43.6452 172.989C42.6414 172.989 41.6377 172.009 41.6377 170.538Z" fill="#DBE9FF"/>
<path d="M42.2543 158.769C42.2543 159.717 42.8835 160.485 43.6596 160.485C44.4357 160.485 45.0649 159.717 45.0649 158.769C45.0649 157.821 44.4357 157.053 43.6596 157.053C42.8835 157.053 42.2543 157.821 42.2543 158.769Z" fill="#DBE9FF"/>
<path d="M42.254 147.003C42.254 147.951 42.8832 148.719 43.6593 148.719C44.4355 148.719 45.0647 147.951 45.0647 147.003C45.0647 146.055 44.4355 145.287 43.6593 145.287C42.8832 145.287 42.254 146.055 42.254 147.003Z" fill="#DBE9FF"/>
<path d="M42.655 135.236C42.655 135.913 43.1044 136.461 43.6588 136.461C44.2132 136.461 44.6626 135.913 44.6626 135.236C44.6626 134.559 44.2132 134.01 43.6588 134.01C43.1044 134.01 42.655 134.559 42.655 135.236Z" fill="#DBE9FF"/>
<path d="M42.655 123.464C42.655 122.729 43.0565 122.238 43.6588 122.238C44.2611 122.238 44.6626 122.729 44.6626 123.464C44.6626 124.2 44.2611 124.69 43.6588 124.69C43.0565 124.69 42.655 124.2 42.655 123.464Z" fill="#DBE9FF"/>
<path d="M42.655 111.697C42.655 112.374 43.1044 112.922 43.6588 112.922C44.2132 112.922 44.6626 112.374 44.6626 111.697C44.6626 111.02 44.2132 110.471 43.6588 110.471C43.1044 110.471 42.655 111.02 42.655 111.697Z" fill="#DBE9FF"/>
<path d="M42.0391 99.9292C42.0391 98.7033 42.8422 97.7227 43.846 97.7227C44.8498 97.7227 45.6528 98.7033 45.6528 99.9292C45.6528 101.155 44.8498 102.136 43.846 102.136C42.8422 102.136 42.0391 101.155 42.0391 99.9292Z" fill="#DBE9FF"/>
<path d="M42.4552 88.1596C42.4552 87.1789 43.0575 86.4434 43.8606 86.4434C44.6636 86.4434 45.2659 87.1789 45.2659 88.1596C45.2659 89.1402 44.6636 89.8757 43.8606 89.8757C43.0575 89.8757 42.4552 89.1402 42.4552 88.1596Z" fill="#DBE9FF"/>
<path d="M42.254 76.3939C42.254 77.3417 42.8832 78.1101 43.6593 78.1101C44.4355 78.1101 45.0647 77.3417 45.0647 76.3939C45.0647 75.4461 44.4355 74.6777 43.6593 74.6777C42.8832 74.6777 42.254 75.4461 42.254 76.3939Z" fill="#DBE9FF"/>
<path d="M42.2543 64.6264C42.2543 65.5742 42.8835 66.3425 43.6596 66.3425C44.4357 66.3425 45.0649 65.5742 45.0649 64.6264C45.0649 63.6785 44.4357 62.9102 43.6596 62.9102C42.8835 62.9102 42.2543 63.6785 42.2543 64.6264Z" fill="#DBE9FF"/>
<path d="M42.655 52.8567C42.655 53.5337 43.1044 54.0826 43.6588 54.0826C44.2132 54.0826 44.6626 53.5337 44.6626 52.8567C44.6626 52.1797 44.2132 51.6309 43.6588 51.6309C43.1044 51.6309 42.655 52.1797 42.655 52.8567Z" fill="#DBE9FF"/>
<path d="M42.655 41.0852C42.655 41.7622 43.1044 42.3111 43.6588 42.3111C44.2132 42.3111 44.6626 41.7622 44.6626 41.0852C44.6626 40.4082 44.2132 39.8594 43.6588 39.8594C43.1044 39.8594 42.655 40.4082 42.655 41.0852Z" fill="#DBE9FF"/>
<path d="M42.655 29.3196C42.655 28.5841 43.0565 28.0937 43.6588 28.0937C44.2611 28.0937 44.6626 28.5841 44.6626 29.3196C44.6626 30.0551 44.2611 30.5455 43.6588 30.5455C43.0565 30.5455 42.655 30.0551 42.655 29.3196Z" fill="#DBE9FF"/>
<path d="M43.2556 17.5489C43.2556 17.8197 43.4353 18.0393 43.6571 18.0393C43.8788 18.0393 44.0586 17.8197 44.0586 17.5489C44.0586 17.2781 43.8788 17.0586 43.6571 17.0586C43.4353 17.0586 43.2556 17.2781 43.2556 17.5489Z" fill="#DBE9FF"/>
<path d="M43.0555 5.78433C43.0555 6.19054 43.3251 6.51985 43.6577 6.51985C43.9903 6.51985 44.26 6.19054 44.26 5.78433C44.26 5.37812 43.9903 5.04883 43.6577 5.04883C43.3251 5.04883 43.0555 5.37812 43.0555 5.78433Z" fill="#DBE9FF"/>
<path d="M33.6152 452.975C33.6152 453.246 33.7949 453.465 34.0167 453.465C34.2384 453.465 34.4182 453.246 34.4182 452.975C34.4182 452.704 34.2384 452.484 34.0167 452.484C33.7949 452.484 33.6152 452.704 33.6152 452.975Z" fill="#DBE9FF"/>
<path d="M33.8138 441.206C33.8138 440.961 33.8138 440.961 34.0146 440.961C34.2153 440.961 34.2153 440.961 34.2153 441.206C34.2153 441.452 34.2153 441.452 34.0146 441.452C33.8138 441.452 33.8138 441.452 33.8138 441.206Z" fill="#DBE9FF"/>
<path d="M33.8138 429.435C33.8138 429.189 33.8138 429.189 34.0146 429.189C34.2153 429.189 34.2153 429.189 34.2153 429.435C34.2153 429.68 34.2153 429.68 34.0146 429.68C33.8138 429.68 33.8138 429.68 33.8138 429.435Z" fill="#DBE9FF"/>
<path d="M33.6155 417.669C33.6155 417.179 33.8163 416.934 34.2178 416.934C34.6193 416.934 34.8201 417.179 34.8201 417.669C34.8201 418.159 34.6193 418.405 34.2178 418.405C33.8163 418.405 33.6155 418.159 33.6155 417.669Z" fill="#DBE9FF"/>
<path d="M33.8138 405.904C33.8138 406.039 33.9037 406.149 34.0146 406.149C34.1254 406.149 34.2153 406.039 34.2153 405.904C34.2153 405.768 34.1254 405.658 34.0146 405.658C33.9037 405.658 33.8138 405.768 33.8138 405.904Z" fill="#DBE9FF"/>
<path d="M33.8138 370.597C33.8138 370.733 33.9037 370.842 34.0146 370.842C34.1254 370.842 34.2153 370.733 34.2153 370.597C34.2153 370.461 34.1254 370.352 34.0146 370.352C33.9037 370.352 33.8138 370.461 33.8138 370.597Z" fill="#DBE9FF"/>
<path d="M33.6152 335.291C33.6152 335.562 33.7949 335.781 34.0167 335.781C34.2384 335.781 34.4182 335.562 34.4182 335.291C34.4182 335.02 34.2384 334.801 34.0167 334.801C33.7949 334.801 33.6152 335.02 33.6152 335.291Z" fill="#DBE9FF"/>
<path d="M33.4146 323.525C33.4146 323.931 33.6842 324.26 34.0168 324.26C34.3495 324.26 34.6191 323.931 34.6191 323.525C34.6191 323.118 34.3495 322.789 34.0168 322.789C33.6842 322.789 33.4146 323.118 33.4146 323.525Z" fill="#DBE9FF"/>
<path d="M33.4141 311.755C33.4141 312.161 33.6837 312.491 34.0164 312.491C34.349 312.491 34.6187 312.161 34.6187 311.755C34.6187 311.349 34.349 311.02 34.0164 311.02C33.6837 311.02 33.4141 311.349 33.4141 311.755Z" fill="#DBE9FF"/>
<path d="M33.4141 299.987C33.4141 300.394 33.6837 300.723 34.0164 300.723C34.349 300.723 34.6187 300.394 34.6187 299.987C34.6187 299.581 34.349 299.252 34.0164 299.252C33.6837 299.252 33.4141 299.581 33.4141 299.987Z" fill="#DBE9FF"/>
<path d="M33.0124 288.22C33.0124 288.897 33.4618 289.446 34.0162 289.446C34.5706 289.446 35.02 288.897 35.02 288.22C35.02 287.543 34.5706 286.994 34.0162 286.994C33.4618 286.994 33.0124 287.543 33.0124 288.22Z" fill="#DBE9FF"/>
<path d="M32.8114 276.451C32.8114 277.264 33.3506 277.922 34.0159 277.922C34.6812 277.922 35.2205 277.264 35.2205 276.451C35.2205 275.639 34.6812 274.98 34.0159 274.98C33.3506 274.98 32.8114 275.639 32.8114 276.451Z" fill="#DBE9FF"/>
<path d="M32.4122 264.681C32.4122 263.455 33.2152 262.475 34.219 262.475C35.2228 262.475 36.0259 263.455 36.0259 264.681C36.0259 265.907 35.2228 266.888 34.219 266.888C33.2152 266.888 32.4122 265.907 32.4122 264.681Z" fill="#DBE9FF"/>
<path d="M32.8114 252.914C32.8114 253.727 33.3506 254.385 34.0159 254.385C34.6812 254.385 35.2205 253.727 35.2205 252.914C35.2205 252.102 34.6812 251.443 34.0159 251.443C33.3506 251.443 32.8114 252.102 32.8114 252.914Z" fill="#DBE9FF"/>
<path d="M33.6144 241.147C33.6144 241.417 33.7942 241.637 34.016 241.637C34.2377 241.637 34.4175 241.417 34.4175 241.147C34.4175 240.876 34.2377 240.656 34.016 240.656C33.7942 240.656 33.6144 240.876 33.6144 241.147Z" fill="#DBE9FF"/>
<path d="M33.4141 229.38C33.4141 229.786 33.6837 230.116 34.0164 230.116C34.349 230.116 34.6187 229.786 34.6187 229.38C34.6187 228.974 34.349 228.645 34.0164 228.645C33.6837 228.645 33.4141 228.974 33.4141 229.38Z" fill="#DBE9FF"/>
<path d="M33.2128 217.612C33.2128 218.153 33.5723 218.592 34.0158 218.592C34.4593 218.592 34.8188 218.153 34.8188 217.612C34.8188 217.07 34.4593 216.631 34.0158 216.631C33.5723 216.631 33.2128 217.07 33.2128 217.612Z" fill="#DBE9FF"/>
<path d="M33.4141 205.843C33.4141 206.249 33.6837 206.578 34.0164 206.578C34.349 206.578 34.6187 206.249 34.6187 205.843C34.6187 205.437 34.349 205.107 34.0164 205.107C33.6837 205.107 33.4141 205.437 33.4141 205.843Z" fill="#DBE9FF"/>
<path d="M33.0124 194.075C33.0124 194.752 33.4618 195.301 34.0162 195.301C34.5706 195.301 35.02 194.752 35.02 194.075C35.02 193.398 34.5706 192.85 34.0162 192.85C33.4618 192.85 33.0124 193.398 33.0124 194.075Z" fill="#DBE9FF"/>
<path d="M33.0124 182.306C33.0124 182.983 33.4618 183.532 34.0162 183.532C34.5706 183.532 35.02 182.983 35.02 182.306C35.02 181.629 34.5706 181.08 34.0162 181.08C33.4618 181.08 33.0124 181.629 33.0124 182.306Z" fill="#DBE9FF"/>
<path d="M32.6108 170.538C32.6108 169.558 33.213 168.822 34.0161 168.822C34.8191 168.822 35.4214 169.558 35.4214 170.538C35.4214 171.519 34.8191 172.255 34.0161 172.255C33.213 172.255 32.6108 171.519 32.6108 170.538Z" fill="#DBE9FF"/>
<path d="M32.6108 158.769C32.6108 159.717 33.2399 160.485 34.0161 160.485C34.7922 160.485 35.4214 159.717 35.4214 158.769C35.4214 157.821 34.7922 157.053 34.0161 157.053C33.2399 157.053 32.6108 157.821 32.6108 158.769Z" fill="#DBE9FF"/>
<path d="M33.2128 147.002C33.2128 147.544 33.5723 147.983 34.0158 147.983C34.4593 147.983 34.8188 147.544 34.8188 147.002C34.8188 146.461 34.4593 146.021 34.0158 146.021C33.5723 146.021 33.2128 146.461 33.2128 147.002Z" fill="#DBE9FF"/>
<path d="M32.8114 135.233C32.8114 136.045 33.3506 136.704 34.0159 136.704C34.6812 136.704 35.2205 136.045 35.2205 135.233C35.2205 134.42 34.6812 133.762 34.0159 133.762C33.3506 133.762 32.8114 134.42 32.8114 135.233Z" fill="#DBE9FF"/>
<path d="M32.8114 123.465C32.8114 124.278 33.3506 124.936 34.0159 124.936C34.6812 124.936 35.2205 124.278 35.2205 123.465C35.2205 122.653 34.6812 121.994 34.0159 121.994C33.3506 121.994 32.8114 122.653 32.8114 123.465Z" fill="#DBE9FF"/>
<path d="M32.6108 111.697C32.6108 112.644 33.2399 113.413 34.0161 113.413C34.7922 113.413 35.4214 112.644 35.4214 111.697C35.4214 110.749 34.7922 109.98 34.0161 109.98C33.2399 109.98 32.6108 110.749 32.6108 111.697Z" fill="#DBE9FF"/>
<path d="M32.6108 99.9291C32.6108 100.877 33.2399 101.645 34.0161 101.645C34.7922 101.645 35.4214 100.877 35.4214 99.9291C35.4214 98.9812 34.7922 98.2129 34.0161 98.2129C33.2399 98.2129 32.6108 98.9812 32.6108 99.9291Z" fill="#DBE9FF"/>
<path d="M32.4102 88.1606C32.4102 89.2438 33.1292 90.122 34.0162 90.122C34.9032 90.122 35.6223 89.2438 35.6223 88.1606C35.6223 87.0774 34.9032 86.1992 34.0162 86.1992C33.1292 86.1992 32.4102 87.0774 32.4102 88.1606Z" fill="#DBE9FF"/>
<path d="M32.2096 76.394C32.2096 75.1682 33.0126 74.1875 34.0164 74.1875C35.0202 74.1875 35.8232 75.1682 35.8232 76.394C35.8232 77.6199 35.0202 78.6006 34.0164 78.6006C33.0126 78.6006 32.2096 77.6199 32.2096 76.394Z" fill="#DBE9FF"/>
<path d="M32.6112 64.6264C32.6112 63.6457 33.2135 62.9102 34.0166 62.9102C34.8196 62.9102 35.4219 63.6457 35.4219 64.6264C35.4219 65.607 34.8196 66.3425 34.0166 66.3425C33.2135 66.3425 32.6112 65.607 32.6112 64.6264Z" fill="#DBE9FF"/>
<path d="M33.0124 52.8567C33.0124 53.5337 33.4618 54.0826 34.0162 54.0826C34.5706 54.0826 35.02 53.5337 35.02 52.8567C35.02 52.1797 34.5706 51.6309 34.0162 51.6309C33.4618 51.6309 33.0124 52.1797 33.0124 52.8567Z" fill="#DBE9FF"/>
<path d="M33.0124 41.0891C33.0124 41.7662 33.4618 42.315 34.0162 42.315C34.5706 42.315 35.02 41.7662 35.02 41.0891C35.02 40.4121 34.5706 39.8633 34.0162 39.8633C33.4618 39.8633 33.0124 40.4121 33.0124 41.0891Z" fill="#DBE9FF"/>
<path d="M32.8116 29.3206C32.8116 30.133 33.3509 30.7916 34.0162 30.7916C34.6814 30.7916 35.2207 30.133 35.2207 29.3206C35.2207 28.5082 34.6814 27.8496 34.0162 27.8496C33.3509 27.8496 32.8116 28.5082 32.8116 29.3206Z" fill="#DBE9FF"/>
<path d="M32.8114 17.553C32.8114 18.3655 33.3506 19.0241 34.0159 19.0241C34.6812 19.0241 35.2205 18.3655 35.2205 17.553C35.2205 16.7406 34.6812 16.082 34.0159 16.082C33.3506 16.082 32.8114 16.7406 32.8114 17.553Z" fill="#DBE9FF"/>
<path d="M32.6108 5.78259C32.6108 6.73041 33.2399 7.49878 34.0161 7.49878C34.7922 7.49878 35.4214 6.73041 35.4214 5.78259C35.4214 4.83476 34.7922 4.06641 34.0161 4.06641C33.2399 4.06641 32.6108 4.83476 32.6108 5.78259Z" fill="#DBE9FF"/>
<path d="M24.1864 452.974C24.1864 453.11 24.2762 453.219 24.3871 453.219C24.498 453.219 24.5879 453.11 24.5879 452.974C24.5879 452.838 24.498 452.729 24.3871 452.729C24.2762 452.729 24.1864 452.838 24.1864 452.974Z" fill="#DBE9FF"/>
<path d="M24.1864 441.206C24.1864 441.342 24.2762 441.452 24.3871 441.452C24.498 441.452 24.5879 441.342 24.5879 441.206C24.5879 441.071 24.498 440.961 24.3871 440.961C24.2762 440.961 24.1864 441.071 24.1864 441.206Z" fill="#DBE9FF"/>
<path d="M24.1864 429.435C24.1864 429.57 24.2762 429.68 24.3871 429.68C24.498 429.68 24.5879 429.57 24.5879 429.435C24.5879 429.299 24.498 429.189 24.3871 429.189C24.2762 429.189 24.1864 429.299 24.1864 429.435Z" fill="#DBE9FF"/>
<path d="M24.1864 417.669C24.1864 417.805 24.2762 417.915 24.3871 417.915C24.498 417.915 24.5879 417.805 24.5879 417.669C24.5879 417.534 24.498 417.424 24.3871 417.424C24.2762 417.424 24.1864 417.534 24.1864 417.669Z" fill="#DBE9FF"/>
<path d="M24.1864 405.904C24.1864 406.039 24.2762 406.149 24.3871 406.149C24.498 406.149 24.5879 406.039 24.5879 405.904C24.5879 405.768 24.498 405.658 24.3871 405.658C24.2762 405.658 24.1864 405.768 24.1864 405.904Z" fill="#DBE9FF"/>
<path d="M23.9855 288.221C23.9855 288.492 24.1653 288.711 24.387 288.711C24.6088 288.711 24.7886 288.492 24.7886 288.221C24.7886 287.95 24.6088 287.73 24.387 287.73C24.1653 287.73 23.9855 287.95 23.9855 288.221Z" fill="#DBE9FF"/>
<path d="M23.986 276.453C23.986 276.724 24.1658 276.944 24.3875 276.944C24.6093 276.944 24.7891 276.724 24.7891 276.453C24.7891 276.182 24.6093 275.963 24.3875 275.963C24.1658 275.963 23.986 276.182 23.986 276.453Z" fill="#DBE9FF"/>
<path d="M23.3691 264.683C23.3691 265.36 23.8185 265.909 24.3729 265.909C24.9273 265.909 25.3767 265.36 25.3767 264.683C25.3767 264.006 24.9273 263.457 24.3729 263.457C23.8185 263.457 23.3691 264.006 23.3691 264.683Z" fill="#DBE9FF"/>
<path d="M23.986 252.916C23.986 253.187 24.1658 253.406 24.3875 253.406C24.6093 253.406 24.7891 253.187 24.7891 252.916C24.7891 252.645 24.6093 252.426 24.3875 252.426C24.1658 252.426 23.986 252.645 23.986 252.916Z" fill="#DBE9FF"/>
<path d="M23.9855 241.149C23.9855 241.419 24.1653 241.639 24.387 241.639C24.6088 241.639 24.7886 241.419 24.7886 241.149C24.7886 240.878 24.6088 240.658 24.387 240.658C24.1653 240.658 23.9855 240.878 23.9855 241.149Z" fill="#DBE9FF"/>
<path d="M23.5697 229.379C23.5697 229.921 23.9293 230.36 24.3728 230.36C24.8163 230.36 25.1758 229.921 25.1758 229.379C25.1758 228.837 24.8163 228.398 24.3728 228.398C23.9293 228.398 23.5697 228.837 23.5697 229.379Z" fill="#DBE9FF"/>
<path d="M23.9855 217.609C23.9855 217.88 24.1653 218.1 24.387 218.1C24.6088 218.1 24.7886 217.88 24.7886 217.609C24.7886 217.339 24.6088 217.119 24.387 217.119C24.1653 217.119 23.9855 217.339 23.9855 217.609Z" fill="#DBE9FF"/>
<path d="M23.9855 205.844C23.9855 206.115 24.1653 206.334 24.387 206.334C24.6088 206.334 24.7886 206.115 24.7886 205.844C24.7886 205.573 24.6088 205.354 24.387 205.354C24.1653 205.354 23.9855 205.573 23.9855 205.844Z" fill="#DBE9FF"/>
<path d="M23.9855 194.076C23.9855 194.347 24.1653 194.567 24.387 194.567C24.6088 194.567 24.7886 194.347 24.7886 194.076C24.7886 193.805 24.6088 193.586 24.387 193.586C24.1653 193.586 23.9855 193.805 23.9855 194.076Z" fill="#DBE9FF"/>
<path d="M23.5697 182.305C23.5697 182.847 23.9293 183.286 24.3728 183.286C24.8163 183.286 25.1758 182.847 25.1758 182.305C25.1758 181.763 24.8163 181.324 24.3728 181.324C23.9293 181.324 23.5697 181.763 23.5697 182.305Z" fill="#DBE9FF"/>
<path d="M23.7698 170.54C23.7698 170.946 24.0394 171.276 24.3721 171.276C24.7047 171.276 24.9744 170.946 24.9744 170.54C24.9744 170.134 24.7047 169.805 24.3721 169.805C24.0394 169.805 23.7698 170.134 23.7698 170.54Z" fill="#DBE9FF"/>
<path d="M23.3691 158.769C23.3691 158.033 23.7706 157.543 24.3729 157.543C24.9752 157.543 25.3767 158.033 25.3767 158.769C25.3767 159.504 24.9752 159.995 24.3729 159.995C23.7706 159.995 23.3691 159.504 23.3691 158.769Z" fill="#DBE9FF"/>
<path d="M23.3691 147.001C23.3691 147.678 23.8185 148.227 24.3729 148.227C24.9273 148.227 25.3767 147.678 25.3767 147.001C25.3767 146.324 24.9273 145.775 24.3729 145.775C23.8185 145.775 23.3691 146.324 23.3691 147.001Z" fill="#DBE9FF"/>
<path d="M23.3691 135.236C23.3691 135.913 23.8185 136.461 24.3729 136.461C24.9273 136.461 25.3767 135.913 25.3767 135.236C25.3767 134.559 24.9273 134.01 24.3729 134.01C23.8185 134.01 23.3691 134.559 23.3691 135.236Z" fill="#DBE9FF"/>
<path d="M22.9687 123.466C22.9687 122.486 23.5709 121.75 24.374 121.75C25.177 121.75 25.7793 122.486 25.7793 123.466C25.7793 124.447 25.177 125.182 24.374 125.182C23.5709 125.182 22.9687 124.447 22.9687 123.466Z" fill="#DBE9FF"/>
<path d="M23.169 111.696C23.169 112.508 23.7083 113.167 24.3736 113.167C25.0388 113.167 25.5781 112.508 25.5781 111.696C25.5781 110.883 25.0388 110.225 24.3736 110.225C23.7083 110.225 23.169 110.883 23.169 111.696Z" fill="#DBE9FF"/>
<path d="M22.9687 99.931C22.9687 98.9503 23.5709 98.2148 24.374 98.2148C25.177 98.2148 25.7793 98.9503 25.7793 99.931C25.7793 100.912 25.177 101.647 24.374 101.647C23.5709 101.647 22.9687 100.912 22.9687 99.931Z" fill="#DBE9FF"/>
<path d="M23.169 88.1585C23.169 87.423 23.7713 86.6875 24.3736 86.6875C24.9759 86.6875 25.5781 87.423 25.5781 88.1585C25.5781 88.894 24.9759 89.6295 24.3736 89.6295C23.7713 89.6295 23.169 89.1392 23.169 88.1585Z" fill="#DBE9FF"/>
<path d="M22.7683 76.393C22.7683 77.4762 23.4874 78.3544 24.3744 78.3544C25.2614 78.3544 25.9805 77.4762 25.9805 76.393C25.9805 75.3098 25.2614 74.4316 24.3744 74.4316C23.4874 74.4316 22.7683 75.3098 22.7683 76.393Z" fill="#DBE9FF"/>
<path d="M22.5688 64.6236C22.5688 63.3977 23.3718 62.1719 24.5764 62.1719C25.7809 62.1719 26.584 63.1526 26.584 64.6236C26.584 65.8494 25.7809 67.0753 24.5764 67.0753C23.3718 67.0753 22.5688 65.8494 22.5688 64.6236Z" fill="#DBE9FF"/>
<path d="M22.568 52.855C22.568 51.6291 23.371 50.6484 24.3748 50.6484C25.3786 50.6484 26.1816 51.6291 26.1816 52.855C26.1816 54.0808 25.3786 55.0615 24.3748 55.0615C23.371 55.0615 22.568 54.0808 22.568 52.855Z" fill="#DBE9FF"/>
<path d="M23.3691 41.0852C23.3691 40.3497 23.7706 39.8594 24.3729 39.8594C24.9752 39.8594 25.3767 40.3497 25.3767 41.0852C25.3767 41.8207 24.9752 42.3111 24.3729 42.3111C23.9714 42.3111 23.3691 41.8207 23.3691 41.0852Z" fill="#DBE9FF"/>
<path d="M23.3691 29.3196C23.3691 29.9966 23.8185 30.5455 24.3729 30.5455C24.9273 30.5455 25.3767 29.9966 25.3767 29.3196C25.3767 28.6426 24.9273 28.0937 24.3729 28.0937C23.8185 28.0937 23.3691 28.6426 23.3691 29.3196Z" fill="#DBE9FF"/>
<path d="M23.9855 17.5489C23.9855 17.8197 24.1653 18.0393 24.387 18.0393C24.6088 18.0393 24.7886 17.8197 24.7886 17.5489C24.7886 17.2781 24.6088 17.0586 24.387 17.0586C24.1653 17.0586 23.9855 17.2781 23.9855 17.5489Z" fill="#DBE9FF"/>
<path d="M23.3691 5.78444C23.3691 6.46145 23.8185 7.01029 24.3729 7.01029C24.9273 7.01029 25.3767 6.46145 25.3767 5.78444C25.3767 5.10742 24.9273 4.55859 24.3729 4.55859C23.8185 4.55859 23.3691 5.10742 23.3691 5.78444Z" fill="#DBE9FF"/>
<path d="M14.342 417.668C14.342 417.939 14.5218 418.158 14.7435 418.158C14.9653 418.158 15.145 417.939 15.145 417.668C15.145 417.397 14.9653 417.178 14.7435 417.178C14.5218 417.178 14.342 417.397 14.342 417.668Z" fill="#DBE9FF"/>
<path d="M14.5431 405.9C14.5431 406.035 14.6329 406.145 14.7438 406.145C14.8547 406.145 14.9446 406.035 14.9446 405.9C14.9446 405.764 14.8547 405.654 14.7438 405.654C14.6329 405.654 14.5431 405.764 14.5431 405.9Z" fill="#DBE9FF"/>
<path d="M14.3418 264.684C14.3418 264.955 14.5215 265.174 14.7433 265.174C14.965 265.174 15.1448 264.955 15.1448 264.684C15.1448 264.413 14.965 264.193 14.7433 264.193C14.5215 264.193 14.3418 264.413 14.3418 264.684Z" fill="#DBE9FF"/>
<path d="M14.5426 252.915C14.5426 253.051 14.6325 253.161 14.7433 253.161C14.8542 253.161 14.9441 253.051 14.9441 252.915C14.9441 252.78 14.8542 252.67 14.7433 252.67C14.6325 252.67 14.5426 252.78 14.5426 252.915Z" fill="#DBE9FF"/>
<path d="M14.3415 241.147C14.3415 241.417 14.5213 241.637 14.743 241.637C14.9648 241.637 15.1445 241.417 15.1445 241.147C15.1445 240.876 14.9648 240.656 14.743 240.656C14.5213 240.656 14.3415 240.876 14.3415 241.147Z" fill="#DBE9FF"/>
<path d="M13.7421 229.38C13.7421 230.057 14.1916 230.606 14.746 230.606C15.3004 230.606 15.7498 230.057 15.7498 229.38C15.7498 228.703 15.3004 228.154 14.746 228.154C14.1916 228.154 13.7421 228.703 13.7421 229.38Z" fill="#DBE9FF"/>
<path d="M14.5426 217.613C14.5426 217.748 14.6325 217.858 14.7433 217.858C14.8542 217.858 14.9441 217.748 14.9441 217.613C14.9441 217.477 14.8542 217.367 14.7433 217.367C14.6325 217.367 14.5426 217.477 14.5426 217.613Z" fill="#DBE9FF"/>
<path d="M14.5426 194.076C14.5426 194.211 14.6325 194.321 14.7433 194.321C14.8542 194.321 14.9441 194.211 14.9441 194.076C14.9441 193.94 14.8542 193.83 14.7433 193.83C14.6325 193.83 14.5426 193.94 14.5426 194.076Z" fill="#DBE9FF"/>
<path d="M14.5426 182.308C14.5426 182.443 14.6325 182.553 14.7433 182.553C14.8542 182.553 14.9441 182.443 14.9441 182.308C14.9441 182.172 14.8542 182.062 14.7433 182.062C14.6325 182.062 14.5426 182.172 14.5426 182.308Z" fill="#DBE9FF"/>
<path d="M14.1409 170.536C14.1409 170.942 14.4106 171.272 14.7432 171.272C15.0758 171.272 15.3455 170.942 15.3455 170.536C15.3455 170.13 15.0758 169.801 14.7432 169.801C14.4106 169.801 14.1409 170.13 14.1409 170.536Z" fill="#DBE9FF"/>
<path d="M14.5426 158.771C14.5426 158.906 14.6325 159.016 14.7433 159.016C14.8542 159.016 14.9441 158.906 14.9441 158.771C14.9441 158.635 14.8542 158.525 14.7433 158.525C14.6325 158.525 14.5426 158.635 14.5426 158.771Z" fill="#DBE9FF"/>
<path d="M14.1409 147.003C14.1409 147.409 14.4106 147.739 14.7432 147.739C15.0758 147.739 15.3455 147.409 15.3455 147.003C15.3455 146.597 15.0758 146.268 14.7432 146.268C14.4106 146.268 14.1409 146.597 14.1409 147.003Z" fill="#DBE9FF"/>
<path d="M13.7421 135.236C13.7421 135.913 14.1916 136.461 14.746 136.461C15.3004 136.461 15.7498 135.913 15.7498 135.236C15.7498 134.559 15.3004 134.01 14.746 134.01C14.1916 134.01 13.7421 134.559 13.7421 135.236Z" fill="#DBE9FF"/>
<path d="M13.9423 123.467C13.9423 124.009 14.3018 124.448 14.7453 124.448C15.1888 124.448 15.5483 124.009 15.5483 123.467C15.5483 122.925 15.1888 122.486 14.7453 122.486C14.3018 122.486 13.9423 122.925 13.9423 123.467Z" fill="#DBE9FF"/>
<path d="M13.9423 111.697C13.9423 112.239 14.3018 112.678 14.7453 112.678C15.1888 112.678 15.5483 112.239 15.5483 111.697C15.5483 111.156 15.1888 110.717 14.7453 110.717C14.3018 110.717 13.9423 111.156 13.9423 111.697Z" fill="#DBE9FF"/>
<path d="M14.1409 99.9289C14.1409 100.335 14.4106 100.664 14.7432 100.664C15.0758 100.664 15.3455 100.335 15.3455 99.9289C15.3455 99.5227 15.0758 99.1934 14.7432 99.1934C14.4106 99.1934 14.1409 99.5227 14.1409 99.9289Z" fill="#DBE9FF"/>
<path d="M13.5418 88.1585C13.5418 87.423 14.1441 86.6875 14.7464 86.6875C15.3487 86.6875 15.9509 87.423 15.9509 88.1585C15.9509 88.894 15.3487 89.6295 14.7464 89.6295C14.1441 89.6295 13.5418 89.1392 13.5418 88.1585Z" fill="#DBE9FF"/>
<path d="M14.1409 76.3937C14.1409 76.7999 14.4106 77.1292 14.7432 77.1292C15.0758 77.1292 15.3455 76.7999 15.3455 76.3937C15.3455 75.9875 15.0758 75.6582 14.7432 75.6582C14.4106 75.6582 14.1409 75.9875 14.1409 76.3937Z" fill="#DBE9FF"/>
<path d="M13.9423 64.6233C13.9423 65.1649 14.3018 65.6039 14.7453 65.6039C15.1888 65.6039 15.5483 65.1649 15.5483 64.6233C15.5483 64.0816 15.1888 63.6426 14.7453 63.6426C14.3018 63.6426 13.9423 64.0816 13.9423 64.6233Z" fill="#DBE9FF"/>
<path d="M13.7421 52.8567C13.7421 52.1212 14.1437 51.6309 14.746 51.6309C15.3483 51.6309 15.7498 52.1212 15.7498 52.8567C15.7498 53.5922 15.3483 54.0826 14.746 54.0826C14.3445 54.0826 13.7421 53.5922 13.7421 52.8567Z" fill="#DBE9FF"/>
<path d="M13.7427 41.0863C13.7427 40.3508 14.345 39.6152 14.9473 39.6152C15.5496 39.6152 16.1519 40.3508 16.1519 41.0863C16.1519 41.8218 15.5496 42.5573 14.9473 42.5573C14.1443 42.5573 13.7427 41.8218 13.7427 41.0863Z" fill="#DBE9FF"/>
<path d="M13.7417 29.3196C13.7417 29.9966 14.1911 30.5455 14.7455 30.5455C15.2999 30.5455 15.7493 29.9966 15.7493 29.3196C15.7493 28.6426 15.2999 28.0937 14.7455 28.0937C14.1911 28.0937 13.7417 28.6426 13.7417 29.3196Z" fill="#DBE9FF"/>
<path d="M14.1412 17.5519C14.1412 17.9581 14.4108 18.2874 14.7434 18.2874C15.0761 18.2874 15.3457 17.9581 15.3457 17.5519C15.3457 17.1457 15.0761 16.8164 14.7434 16.8164C14.4108 16.8164 14.1412 17.1457 14.1412 17.5519Z" fill="#DBE9FF"/>
<path d="M13.7421 5.78444C13.7421 6.46145 14.1916 7.01029 14.746 7.01029C15.3004 7.01029 15.7498 6.46145 15.7498 5.78444C15.7498 5.10742 15.3004 4.55859 14.746 4.55859C14.1916 4.55859 13.7421 5.10742 13.7421 5.78444Z" fill="#DBE9FF"/>
<path d="M4.90027 217.611C4.90027 217.746 4.99012 217.856 5.10099 217.856C5.21187 217.856 5.30176 217.746 5.30176 217.611C5.30176 217.475 5.21187 217.365 5.10099 217.365C4.99012 217.365 4.90027 217.475 4.90027 217.611Z" fill="#DBE9FF"/>
<path d="M4.90027 205.843C4.90027 205.979 4.99012 206.089 5.10099 206.089C5.21187 206.089 5.30176 205.979 5.30176 205.843C5.30176 205.708 5.21187 205.598 5.10099 205.598C4.99012 205.598 4.90027 205.708 4.90027 205.843Z" fill="#DBE9FF"/>
<path d="M4.50028 194.073C4.50028 193.583 4.70102 193.338 5.10254 193.338C5.50406 193.338 5.70483 193.583 5.70483 194.073C5.70483 194.564 5.50406 194.809 5.10254 194.809C4.70102 194.809 4.50028 194.564 4.50028 194.073Z" fill="#DBE9FF"/>
<path d="M4.90027 170.536C4.90027 170.672 4.99012 170.782 5.10099 170.782C5.21187 170.782 5.30176 170.672 5.30176 170.536C5.30176 170.401 5.21187 170.291 5.10099 170.291C4.99012 170.291 4.90027 170.401 4.90027 170.536Z" fill="#DBE9FF"/>
<path d="M4.90027 158.771C4.90027 158.906 4.99012 159.016 5.10099 159.016C5.21187 159.016 5.30176 158.906 5.30176 158.771C5.30176 158.635 5.21187 158.525 5.10099 158.525C4.99012 158.525 4.90027 158.635 4.90027 158.771Z" fill="#DBE9FF"/>
<path d="M4.4998 147.003C4.4998 147.409 4.76942 147.739 5.10205 147.739C5.43468 147.739 5.70435 147.409 5.70435 147.003C5.70435 146.597 5.43468 146.268 5.10205 146.268C4.76942 146.268 4.4998 146.597 4.4998 147.003Z" fill="#DBE9FF"/>
<path d="M4.90027 135.232C4.90027 134.986 4.90023 134.986 5.10099 134.986C5.30175 134.986 5.30176 134.986 5.30176 135.232C5.30176 135.477 5.30175 135.477 5.10099 135.477C5.10099 135.477 4.90027 135.477 4.90027 135.232Z" fill="#DBE9FF"/>
<path d="M4.70015 123.467C4.70015 123.738 4.87989 123.957 5.10164 123.957C5.3234 123.957 5.50317 123.738 5.50317 123.467C5.50317 123.196 5.3234 122.977 5.10164 122.977C4.87989 122.977 4.70015 123.196 4.70015 123.467Z" fill="#DBE9FF"/>
<path d="M4.90075 111.699C4.90075 111.834 4.9906 111.944 5.10148 111.944C5.21236 111.944 5.30225 111.834 5.30225 111.699C5.30225 111.563 5.21236 111.453 5.10148 111.453C4.9906 111.453 4.90075 111.563 4.90075 111.699Z" fill="#DBE9FF"/>
<path d="M4.90027 99.929C4.90027 100.065 4.99012 100.174 5.10099 100.174C5.21187 100.174 5.30176 100.065 5.30176 99.929C5.30176 99.7935 5.21187 99.6836 5.10099 99.6836C4.99012 99.6836 4.90027 99.7935 4.90027 99.929Z" fill="#DBE9FF"/>
<path d="M4.7004 88.1622C4.7004 88.433 4.88014 88.6526 5.10189 88.6526C5.32364 88.6526 5.50342 88.433 5.50342 88.1622C5.50342 87.8914 5.32364 87.6719 5.10189 87.6719C4.88014 87.6719 4.7004 87.8914 4.7004 88.1622Z" fill="#DBE9FF"/>
<path d="M4.09908 76.3919C4.09908 77.0689 4.54848 77.6177 5.10287 77.6177C5.65725 77.6177 6.10669 77.0689 6.10669 76.3919C6.10669 75.7149 5.65725 75.166 5.10287 75.166C4.54848 75.166 4.09908 75.7149 4.09908 76.3919Z" fill="#DBE9FF"/>
<path d="M4.90027 64.6283C4.90027 64.7638 4.99012 64.8737 5.10099 64.8737C5.21187 64.8737 5.30176 64.7638 5.30176 64.6283C5.30176 64.4927 5.21187 64.3828 5.10099 64.3828C4.99012 64.3828 4.90027 64.4927 4.90027 64.6283Z" fill="#DBE9FF"/>
<path d="M4.29919 52.8596C4.29919 53.4012 4.65871 53.8403 5.10221 53.8403C5.54572 53.8403 5.90527 53.4012 5.90527 52.8596C5.90527 52.318 5.54572 51.8789 5.10221 51.8789C4.65871 51.8789 4.29919 52.318 4.29919 52.8596Z" fill="#DBE9FF"/>
<path d="M4.70015 41.088C4.70015 41.3588 4.87989 41.5783 5.10164 41.5783C5.3234 41.5783 5.50317 41.3588 5.50317 41.088C5.50317 40.8172 5.3234 40.5977 5.10164 40.5977C4.87989 40.5977 4.70015 40.8172 4.70015 41.088Z" fill="#DBE9FF"/>
<path d="M4.70015 29.3224C4.70015 29.5932 4.87989 29.8127 5.10164 29.8127C5.3234 29.8127 5.50317 29.5932 5.50317 29.3224C5.50317 29.0516 5.3234 28.832 5.10164 28.832C4.87989 28.832 4.70015 29.0516 4.70015 29.3224Z" fill="#DBE9FF"/>
<path d="M4.90027 17.5501C4.90027 17.6857 4.99012 17.7956 5.10099 17.7956C5.21187 17.7956 5.30176 17.6857 5.30176 17.5501C5.30176 17.4146 5.21187 17.3047 5.10099 17.3047C4.99012 17.3047 4.90027 17.4146 4.90027 17.5501Z" fill="#DBE9FF"/>
<path d="M4.90027 5.7845C4.90027 5.92005 4.99012 6.02995 5.10099 6.02995C5.21187 6.02995 5.30176 5.92005 5.30176 5.7845C5.30176 5.64894 5.21187 5.53906 5.10099 5.53906C4.99012 5.53906 4.90027 5.64894 4.90027 5.7845Z" fill="#DBE9FF"/>
</g>
</svg>
